<svg xmlns="http://www.w3.org/2000/svg" width="41.937" height="42.625"><g data-name="1-1"><path data-name="Path 112" d="M2.526 35.002a1 1 0 00.707-.293l2.287-2.284a1 1 0 10-1.414-1.414l-2.287 2.284a1 1 0 00.707 1.707zm4.518.58a1 1 0 00-1.414 0L.293 40.917a1 1 0 001.414 1.415l5.337-5.335a1 1 0 000-1.415zM32.16 5.002a4.274 4.274 0 103.023 1.25 4.254 4.254 0 00-3.022-1.251zm1.609 5.884a2.274 2.274 0 110-3.219 2.261 2.261 0 01.001 3.218zm8.131-9.4l-.032-.487a1 1 0 00-.931-.932l-.485-.032A20.722 20.722 0 0039.137 0C35.549 0 26.569.633 20.71 6.494a37.45 37.45 0 00-2.043 2.218 6.169 6.169 0 00-2.677-.591 6.331 6.331 0 00-4.475 1.757l-6.1 6.1a1.9 1.9 0 00-.368 1.964c.02.08.041.163.057.247a2.538 2.538 0 00.7 1.331 2.588 2.588 0 00.778.531l5.436 2.374-5.355 5.355a1 1 0 00-.292.664 6.8 6.8 0 002.24 4.731 6.912 6.912 0 004.669 2.241h.063a1 1 0 00.663-.292l5.449-5.449 2.525 5.757a2.529 2.529 0 001.863 1.493 2.561 2.561 0 00.47.043 2.533 2.533 0 001.8-.744l6.16-6.161a5.773 5.773 0 00.993-6.825 36.57 36.57 0 002.175-2.007c7.221-7.22 6.496-19.239 6.461-19.743zm-9.808 20.1a53.756 53.756 0 01-8.143 4.75 15.643 15.643 0 01-4.022.877h-.01a5.25 5.25 0 01-3.8-1.394 5.18 5.18 0 01-1.388-3.614 16.22 16.22 0 01.865-4.187 52.515 52.515 0 014.713-8.146 34.356 34.356 0 011.818-1.965C27.456 2.576 35.799 2 39.137 2c.325 0 .59.006.787.012.075 2.1.077 11.828-5.9 17.8a31.535 31.535 0 01-1.93 1.779zM8.965 38.344l-2.574 2.573a1 1 0 001.414 1.415l2.574-2.573a1 1 0 00-1.414-1.415z" fill="#fff"/></g></svg>