<svg xmlns="http://www.w3.org/2000/svg" width="41.937" height="42.625" viewBox="0 0 41.937 42.625">
  <g id="_1-1" data-name="1-1" transform="translate(-8.063 -7.375)">
    <path id="Path_112" data-name="Path 112" d="M10.589,42.377a1,1,0,0,0,.707-.293L13.583,39.8a1,1,0,1,0-1.414-1.414L9.882,40.67a1,1,0,0,0,.707,1.707Zm4.518.58a1,1,0,0,0-1.414,0L8.356,48.292A1,1,0,0,0,9.77,49.707l5.337-5.335A1,1,0,0,0,15.107,42.957Zm25.116-30.58a4.274,4.274,0,1,0,3.023,1.25A4.254,4.254,0,0,0,40.224,12.376Zm1.609,5.884a2.274,2.274,0,1,1,0-3.219A2.261,2.261,0,0,1,41.833,18.26Zm8.131-9.4-.032-.487A1,1,0,0,0,49,7.442l-.485-.032c-.087-.006-.559-.035-1.315-.035-3.588,0-12.568.633-18.427,6.494-.719.719-1.4,1.462-2.043,2.218a6.169,6.169,0,0,0-2.677-.591,6.331,6.331,0,0,0-4.475,1.757l-6.1,6.1a1.9,1.9,0,0,0-.368,1.964c.02.08.041.163.057.247a2.538,2.538,0,0,0,.7,1.331,2.588,2.588,0,0,0,.778.531L20.081,29.8l-5.355,5.355a1,1,0,0,0-.292.664,6.8,6.8,0,0,0,2.24,4.731,6.912,6.912,0,0,0,4.669,2.241h.063a1,1,0,0,0,.663-.292l5.449-5.449,2.525,5.757A2.529,2.529,0,0,0,31.906,44.3a2.561,2.561,0,0,0,.47.043,2.533,2.533,0,0,0,1.8-.744l6.16-6.161a5.773,5.773,0,0,0,.993-6.825c.751-.639,1.48-1.311,2.175-2.007C50.725,21.386,50,9.367,49.965,8.863Zm-9.808,20.1a53.756,53.756,0,0,1-8.143,4.75,15.643,15.643,0,0,1-4.022.877h-.01a5.25,5.25,0,0,1-3.8-1.394,5.18,5.18,0,0,1-1.388-3.614,16.22,16.22,0,0,1,.865-4.187,52.515,52.515,0,0,1,4.713-8.146c.572-.668,1.179-1.327,1.818-1.965C35.519,9.951,43.862,9.375,47.2,9.375c.325,0,.59.006.787.012.075,2.1.077,11.828-5.9,17.8C41.473,27.806,40.821,28.4,40.157,28.966ZM17.028,45.719l-2.574,2.573a1,1,0,0,0,1.414,1.415l2.574-2.573a1,1,0,0,0-1.414-1.415Z" fill="#fff"/>
  </g>
</svg>
