<svg xmlns="http://www.w3.org/2000/svg" width="47.518" height="37.314"><g data-name="1-2"><path data-name="Path 121" d="M41.415 0a6.127 6.127 0 00-6.1 6.1 5.972 5.972 0 001.751 4.252l-5.8 9.654a5.669 5.669 0 00-4.1.3l-4.352-5.352a6.07 6.07 0 10-9.353.75L7.7 25.359a5.637 5.637 0 00-1.6-.25 6.1 6.1 0 106.1 6.1 5.933 5.933 0 00-1.7-4.2l5.752-9.7a5.669 5.669 0 004.1-.3l4.352 5.352a6.1 6.1 0 1011.054 3.5 5.972 5.972 0 00-1.751-4.252l5.752-9.654a5.711 5.711 0 001.651.25 6.1 6.1 0 000-12.2zM6.1 34.113a2.9 2.9 0 112.9-2.9 2.9 2.9 0 01-2.9 2.9zm8.853-22.658a2.9 2.9 0 112.9 2.9 2.9 2.9 0 01-2.897-2.901zm14.708 17.306a2.9 2.9 0 112.9-2.9 2.9 2.9 0 01-2.9 2.9zM41.415 9a2.9 2.9 0 112.9-2.9 2.9 2.9 0 01-2.9 2.9z" fill="#fff"/></g></svg>