<svg xmlns="http://www.w3.org/2000/svg" width="47.8" height="42.469"><g data-name="1-3" fill="#fff"><path data-name="Path 129" d="M15.64 14.527a2 2 0 112.231-1.992 1.172 1.172 0 102.343 0 4.368 4.368 0 00-3.4-4.159V6.385a1.172 1.172 0 10-2.343 0v1.992a4.368 4.368 0 00-3.4 4.159 4.455 4.455 0 004.569 4.335 2 2 0 11-2.226 1.992 1.172 1.172 0 10-2.343 0 4.368 4.368 0 003.4 4.159v1.991a1.172 1.172 0 002.343 0v-1.992a4.3 4.3 0 00-1.172-8.494z"/><path data-name="Path 130" d="M46.629 15.933H36.495a1.172 1.172 0 100 2.343H43.7l-9.9 9.9-8.2-8.26a1.132 1.132 0 00-1.64 0L3.339 40.477a1.133 1.133 0 000 1.64 1.133 1.133 0 001.64 0l19.742-19.684 8.26 8.2a1.133 1.133 0 001.64 0l10.836-10.834v7.5a1.172 1.172 0 102.343 0V17.105a1.175 1.175 0 00-1.171-1.172z"/><path data-name="Path 131" d="M12.009 30.988L14 29a13.348 13.348 0 1115-13.3 13.568 13.568 0 01-1.23 5.565l1.757 1.757a15.408 15.408 0 001.812-7.322 15.67 15.67 0 10-19.33 15.288z"/><path data-name="Path 132" d="M25.833 24.31a13.519 13.519 0 01-6.385 4.159l-2.87 2.87a15.542 15.542 0 0010.9-5.389z"/></g></svg>