<svg data-name="1-4" xmlns="http://www.w3.org/2000/svg" width="37.397" height="37.397"><path data-name="Path 133" d="M27.746 16.286a2.415 2.415 0 012.413 2.414.603.603 0 001.206 0 2.413 2.413 0 114.825 0 .603.603 0 101.206 0A18.7 18.7 0 100 18.7a.603.603 0 001.206 0 2.413 2.413 0 114.825 0 .603.603 0 001.206 0 2.413 2.413 0 014.825 0 .603.603 0 001.206 0 2.413 2.413 0 014.825 0v1.2h-.6a.6.6 0 00-.6.6v1.206a3.623 3.623 0 00-3.619 3.619v2.413a3.623 3.623 0 003.619 3.619H18.1v2.413h-.6a.6.6 0 01-.6-.6.6.6 0 00-.6-.6h-2.427a.6.6 0 00-.6.6v.6a3.623 3.623 0 003.616 3.63h3.619a3.623 3.623 0 003.619-3.619v-2.416a3.623 3.623 0 00-3.619-3.619H19.3v-2.413h.6a.6.6 0 01.6.6.6.6 0 00.6.6h2.413a.6.6 0 00.6-.6v-.6a3.623 3.623 0 00-3.619-3.619v-1.206a.6.6 0 00-.6-.6h-.6V18.7a2.413 2.413 0 014.825 0 .603.603 0 001.206 0 2.415 2.415 0 012.421-2.414zM19.3 31.365h.6a.6.6 0 01.6.6v1.206a.6.6 0 01-.6.6h-.6zm-1.2-3.619h-.6a.6.6 0 01-.6-.6v-1.209a.6.6 0 01.6-.6h.6zm4.825-2.413h-1.314a1.813 1.813 0 00-1.711-1.206h-2.408a1.812 1.812 0 00-1.81 1.81v1.206a1.812 1.812 0 001.81 1.81h3.016a2.415 2.415 0 012.413 2.413v2.413a2.415 2.415 0 01-2.413 2.413h-3.619a2.415 2.415 0 01-2.413-2.413h1.309a1.813 1.813 0 001.706 1.206H19.9a1.812 1.812 0 001.81-1.81v-1.207a1.812 1.812 0 00-1.81-1.81h-3.011a2.415 2.415 0 01-2.413-2.413v-2.412a2.415 2.415 0 012.413-2.413h3.619a2.415 2.415 0 012.413 2.413zM18.1 21.714v-.6h1.2v.6zm9.651-6.635a3.6 3.6 0 00-2.413.927v-.876a20.953 20.953 0 00-4.159-12.582 17.358 17.358 0 018.868 13.367 3.593 3.593 0 00-2.301-.836zm8.206.727a3.605 3.605 0 00-4.675.283 18.558 18.558 0 00-9.561-14.618 17.536 17.536 0 0114.231 14.336zm-32.338-.727a3.6 3.6 0 00-2.174.727A17.536 17.536 0 0115.676 1.471 18.559 18.559 0 006.12 16.09a3.6 3.6 0 00-2.501-1.011zm6.032 0a3.6 3.6 0 00-2.3.835 17.358 17.358 0 018.867-13.366 20.955 20.955 0 00-4.155 12.582v.876a3.6 3.6 0 00-2.412-.927zm6.032 0a3.6 3.6 0 00-2.413.927v-.876A19.752 19.752 0 0118.1 2.144v13.862a3.6 3.6 0 00-2.417-.927zm6.032 0a3.6 3.6 0 00-2.413.927V2.144a19.752 19.752 0 014.825 12.986v.876a3.6 3.6 0 00-2.413-.927z" fill="#fff"/><path data-name="Path 134" d="M31.969 27.143h-1.207v1.317a1.805 1.805 0 00.6 3.508.603.603 0 110 1.206h-1.806v1.206h1.206v1.206h1.206V34.27a1.805 1.805 0 00-.6-3.508.603.603 0 010-1.206h1.81v-1.207h-1.209z" fill="#fff"/><path data-name="Path 135" d="M31.365 25.333a6.032 6.032 0 106.032 6.032 6.039 6.039 0 00-6.032-6.032zm0 10.857a4.825 4.825 0 114.825-4.825 4.831 4.831 0 01-4.825 4.825z" fill="#fff"/><path data-name="Rectangle 5" fill="#fff" d="M27.746 30.762h1.206v1.206h-1.206z"/><path data-name="Rectangle 6" fill="#fff" d="M33.778 30.762h1.206v1.206h-1.206z"/><path data-name="Path 136" d="M6.635 27.143H5.428v1.317a1.805 1.805 0 00.6 3.508.603.603 0 110 1.206H4.222v1.206h1.206v1.206h1.206V34.27a1.805 1.805 0 00-.6-3.508.603.603 0 110-1.206h1.81v-1.207H6.635z" fill="#fff"/><path data-name="Path 137" d="M6.032 25.333a6.032 6.032 0 106.032 6.032 6.039 6.039 0 00-6.032-6.032zm0 10.857a4.825 4.825 0 114.825-4.825 4.831 4.831 0 01-4.825 4.825z" fill="#fff"/><path data-name="Rectangle 7" fill="#fff" d="M2.413 30.762h1.206v1.206H2.413z"/><path data-name="Rectangle 8" fill="#fff" d="M8.444 30.762H9.65v1.206H8.444z"/></svg>