<svg xmlns="http://www.w3.org/2000/svg" width="116.314" height="104.773"><path data-name="Path 2008" d="M102.262 33.77l-.232.044c-.325.064-.25.053-.172.414.065.3.135.568.176.8.115.666.166.761.274-.062.031-.238.084-.526.139-.861.06-.372.15-.399-.185-.335zm-60.245 68.958l-19.01-22.827c-.7-.84-.472-.849-1.166-.015L2.892 102.662c-.842 1.012-.929.852.385.852h38.5c1.134 0 .974.095.24-.785zm-18.24-23.863l19.714 23.672c.69.828.58.665.58-.3V45.469c0-1.113.213-1-.781-.841a7.868 7.868 0 01-3.462-.017c-1.23-.459-.925-.813-1.749.165l-14.524 17.26c-.387.459-.374.312.018.779l5.521 6.567c.6.8.768.863-.07 1.874l-5.28 6.346c-.621.744-.598.506.033 1.263zM1.729 38.775c-.589-.7-.469-.661-.469.242v62.55c0 1.319-.136 1.267.708.253l25.616-30.789c.729-.875.75-.6.025-1.461Q14.67 54.178 1.729 38.778zM22.67 61.137l14.447-17.173c.594-.706.56-.443-.055-1.024a6.452 6.452 0 01-.51-.54 5.777 5.777 0 01-1.288-4.817c.122-.662.278-.554-.454-.554H2.597c-.922 0-.84-.163-.2.6L22.145 61.12c.302.327.293.28.525.018zm22.953-15.965c.229.582.464 1.152.7 1.7a35.94 35.94 0 001.25 2.62 5.93 5.93 0 002.51 2.647 3.712 3.712 0 004.856-1.38c.893-1.652-.091-3.542-.8-5.083a15.53 15.53 0 01-.988-2.51c-.333-1.259.114-1.169-1.3-.722-1.923.609-3.925 1.212-5.744 1.634-1.019.236-.895.049-.484 1.094zm-.292 3.91v53.737a1.958 1.958 0 01-1.954 1.954H1.954A1.958 1.958 0 010 102.819v-65.1a1.958 1.958 0 011.954-1.954h29.411c1.022 0 .838.161.977-.853.183-1.332.346-2.538.49-3.6.957-7.07.951-9.933 5.712-15.762a74.737 74.737 0 017.321-7.729 45.333 45.333 0 017.168-5.49C57.969-.578 61.987-.341 67.34.741c5.466 1.106 12.5 3.087 18.175 4.684 4.666 1.314 9.314 2.567 14.042 3.612 1.394.309 1.146.525 1.426-.74a9.7 9.7 0 01.328-1.181c.429-1.181.793-1.158 1.7-1.155l12.681.043a.627.627 0 010 1.255l-12.168-.042a16.066 16.066 0 01.713 3.63 104.556 104.556 0 01-.246 21.218c-.156 1.221-.277 2.182-.47 3.05-.159.719-.017.58.785.583l11.386.04a.627.627 0 010 1.254l-13.039-.043c-.906 0-1.265.044-1.688-1.133a10.4 10.4 0 01-.413-1.7c-1.532.333-3.094.715-4.748 1.12a127.672 127.672 0 01-30.514 4.229c-.984 1.34-.33 3.156.338 5.009.981 2.722 1.986 5.511-.981 7.725-1.565 1.167-.334.061-1.458 1.852a5.117 5.117 0 01-6.255 2.034 6.065 6.065 0 01-2.406-2.27c-.5-.775-.175-.644-1-.342a5.028 5.028 0 01-4.009-.212 7.148 7.148 0 01-3.061-3.184 29.24 29.24 0 01-.576-1.138c-.665-1.399-.551-1.494-.551.139zM34.106 35.769h1.225c.644 0 .492.112.817-.392a6.375 6.375 0 011.253-1.422 15.347 15.347 0 013.469-1.882c1.145-.49.917-.188 1.177-1.4a19.644 19.644 0 011.667-5.019c1.2-2.285 2.92-3.57 4.947-5.03a17.265 17.265 0 002.9-2.385c.777-.845.689-.6.338-1.531a7.358 7.358 0 01-.208-.634 9.935 9.935 0 01-.342-2.225.628.628 0 011.255-.06 8.679 8.679 0 00.3 1.945 6.64 6.64 0 002.487 3.523c1.49 1.178 4.165 2.385 5.339 3.807a4.9 4.9 0 011 1.959c.278 1.12-.189 1.36 1.109.682a2.88 2.88 0 001.716-2.3 3.946 3.946 0 00-.378-2.475 22.179 22.179 0 01-2.235-6.309.628.628 0 011.24-.2 20.955 20.955 0 002.117 5.95 5.31 5.31 0 01.556 1.957c.087 1.063-.271 1.709.781.121q.215-.325.4-.667a8.125 8.125 0 00.946-3.847.63.63 0 011.26 0 9.375 9.375 0 01-1.1 4.438 10 10 0 01-3.11 3.472 17.3 17.3 0 01-4.208 2.077c-5.75 2.024-11.586 2.269-17.6 4.562a21.294 21.294 0 00-5.018 2.44 5.044 5.044 0 00-1.482 2.089 4.546 4.546 0 00.79 4.589 5.382 5.382 0 00.721.706 7.151 7.151 0 002.029 1.133c.969.362 3.545-.164 4.58-.371 6.808-1.36 13.05-4.675 20.132-4.839a126.737 126.737 0 0030.535-4.2c2.077-.509 4.012-1.033 5.912-1.417 1.556-.314 1.269-.485 1.422-1.484a89.036 89.036 0 00.247-19.042c-.1-1.2.1-.994-1.05-1.225q-.7-.139-1.384-.285c-5.225-1.1-10.344-2.479-15.483-3.926-5.67-1.6-12.7-3.575-18.081-4.664C62.063.969 58.315.688 53.668 3.43a44.106 44.106 0 00-6.956 5.337 73.48 73.48 0 00-7.193 7.59c-4.584 5.612-4.518 8.313-5.442 15.137a946.7 946.7 0 01-.5 3.666c-.1.735-.21.619.528.619zm16.7-2.11a.377.377 0 01.52-.546 4.211 4.211 0 011.177 2.764.377.377 0 01-.753-.044 3.519 3.519 0 00-.94-2.174zm-9.242 8.153a.377.377 0 01.03-.753 8.113 8.113 0 003.157-.594c3.548-1.418 2.591-5.33.563-5.989a.377.377 0 01.233-.717c2.7.877 3.687 5.726-.516 7.406a8.91 8.91 0 01-3.463.647zm65.635-8.562a.377.377 0 01.006-.753l5.747.045a.376.376 0 01-.006.752zm-4.438-24.266a40.637 40.637 0 00-.126-.934c-.218-1.44-.314-.675-.484-.064-.051.181-.075.384-.124.606-.21.958-.158.957.512 1.08.489.09.292-.156.225-.687zM63.807 39.536c-.623.047-1.248.12-1.872.212-.832.123-.994.034-1.279.955-.622 2.007 1.012 5.531 2.126 7.935.248.535.473 1.02.649 1.438.478 1.139.1 1.572.965.65 1.552-1.662.794-3.767.052-5.826-.672-1.872-1.331-3.712-.638-5.363zm-5.428.932c-1.145.288-2.272.617-3.375.962s-.984.261-.594 1.589a15.872 15.872 0 00.863 2.128c.915 1.981 1.913 4.087.769 6.206a4.32 4.32 0 01-.422.638c-.48.605-.529.375-.032 1.151a4.826 4.826 0 001.887 1.814 3.9 3.9 0 004.651-1.571 2.925 2.925 0 00.43-2 13.223 13.223 0 00-.916-2.221c-1.019-2.2-2.429-5.24-2.358-7.646.044-1.395.7-1.451-.9-1.05zm-6.946-12.429a11.088 11.088 0 013.127-3.7 11.6 11.6 0 001.985-1.871c.622-.783.467-.6-.343-1.114a18.807 18.807 0 01-1.591-1.111 9.458 9.458 0 01-1.682-1.674 17.706 17.706 0 01-3.539 3.076c-1.836 1.323-3.486 2.527-4.568 4.592a16.443 16.443 0 00-1.316 3.685c-.359 1.44-.48 1.278.827.808a40.765 40.765 0 015.637-1.6c1.224-.26.896-.018 1.466-1.091zm6.176-4.885a12.4 12.4 0 01-2.267 2.167 9.652 9.652 0 00-2.389 2.461c-.74 1.17-.356.836.791.615a52.842 52.842 0 005.911-1.417c1-.317 1.112-.216.91-1.379a3.663 3.663 0 00-.805-1.737 5.509 5.509 0 00-.939-.878c-.87-.657-.637-.574-1.204.168z"/></svg>