<svg xmlns="http://www.w3.org/2000/svg" width="121.849" height="76.701"><path data-name="Path 2010" d="M65.731 76.7H14.052c-4.863 0-8.4-1.5-10.707-3.69a10.716 10.716 0 01-2.517-3.629A10.538 10.538 0 010 65.307a9.827 9.827 0 012.64-6.78l16.8-17.687a.7.7 0 111.014.965l-16.8 17.687a8.419 8.419 0 00-2.25 5.815 9.123 9.123 0 00.711 3.531 9.345 9.345 0 002.194 3.156c2.066 1.963 5.274 3.3 9.741 3.3h93.75c4.468 0 7.675-1.34 9.741-3.3a9.369 9.369 0 002.194-3.156 9.116 9.116 0 00.711-3.531 8.43 8.43 0 00-2.25-5.815l-16.8-17.687a.7.7 0 111.013-.965l16.8 17.687a9.824 9.824 0 012.639 6.78 10.494 10.494 0 01-.827 4.074 10.716 10.716 0 01-2.518 3.629c-2.308 2.2-5.842 3.69-10.707 3.69H65.73zm20.671-21.4a.704.704 0 010 1.407h-11.1a.704.704 0 010-1.407zm-40.684 0a.704.704 0 010 1.407h-11.1a.704.704 0 010-1.407zm24.78 8.491a.7.7 0 01.806-1.146 4.4 4.4 0 011.148 1.131 2.478 2.478 0 01.446 1.394c0 1.492-1.464 2.776-3.828 3.646a28 28 0 01-16.745 0c-2.366-.87-3.828-2.154-3.828-3.646a2.808 2.808 0 011-2.044 7.815 7.815 0 012.47-1.464.7.7 0 11.52 1.3 6.532 6.532 0 00-2.029 1.187 1.475 1.475 0 00-.557 1.024c0 .84 1.112 1.671 2.907 2.329a26.655 26.655 0 0015.779 0c1.8-.661 2.908-1.489 2.908-2.329a1.115 1.115 0 00-.21-.618 3.021 3.021 0 00-.785-.759zm3.868-27.188a.701.701 0 011.3.526 92 92 0 01-3.719 8.041 76.891 76.891 0 01-4.271 7.215.7.7 0 11-1.162-.78 75.425 75.425 0 004.194-7.084 89.792 89.792 0 003.661-7.921zM54.815 9.251a.701.701 0 01-.613-1.261 15.376 15.376 0 11-6.582 6.136.7.7 0 111.212.7 13.962 13.962 0 1012.094-6.983 13.84 13.84 0 00-6.112 1.405zM52.709 55.56a.701.701 0 01-1.18.758 115.65 115.65 0 01-9.516-18.669c-2.281-5.738-3.8-11.169-3.8-14.937a22.716 22.716 0 0145.432 0c0 6.021-3.9 16.331-8.571 25.329-5 9.643-10.983 17.832-14.147 17.832a3.88 3.88 0 01-2.085-.777 13.9 13.9 0 01-2.3-2.056.7.7 0 011.024-.956 12.386 12.386 0 002.056 1.85 2.557 2.557 0 001.308.535c2.618 0 8.115-7.839 12.9-17.069 4.579-8.833 8.412-18.9 8.412-24.687a21.313 21.313 0 10-42.625 0c0 3.589 1.48 8.841 3.7 14.42a114.09 114.09 0 009.4 18.427zm46.705-12.984a.624.624 0 01.075.1l13.184 14.138a1.3 1.3 0 01.321 1.244 1.178 1.178 0 01-.278.5 1.229 1.229 0 01-.761.377 8.625 8.625 0 00-.52.082 6.488 6.488 0 00-4.316 2.479 6.75 6.75 0 00-.969 4.881c.024.181.053.358.085.535a1.8 1.8 0 01-1.894 2.139 1.652 1.652 0 01-1.1-.538l-.013-.016-14.145-16.393a.439.439 0 01-.045-.048 5.849 5.849 0 01-.788-7.066 8.428 8.428 0 011.846-2.267 8.867 8.867 0 012.491-1.538 5.773 5.773 0 016.827 1.396zm-1.382.578a4.512 4.512 0 00-4.926-.669 7.457 7.457 0 00-2.093 1.292 7.063 7.063 0 00-1.541 1.89 4.5 4.5 0 00.433 5.26l.056.056 14.306 16.583a.265.265 0 00.18.088.407.407 0 00.2-.043.37.37 0 00.159-.141.422.422 0 00.045-.308q-.055-.311-.1-.6a8.1 8.1 0 011.215-5.868 7.84 7.84 0 015.21-3.047c.1-.02.2-.035.294-.051L98.1 43.26a.785.785 0 01-.079-.1zm-75.664-.476a.636.636 0 01.074-.1 5.774 5.774 0 016.829-1.391 8.828 8.828 0 012.491 1.538 8.423 8.423 0 011.846 2.267 5.85 5.85 0 01-.788 7.066l-.045.048L18.63 68.499l-.013.016a1.667 1.667 0 01-1.1.538 1.789 1.789 0 01-1.894-2.139c.032-.174.061-.354.085-.535a6.753 6.753 0 00-.968-4.881 6.486 6.486 0 00-4.316-2.479c-.165-.029-.34-.059-.52-.082a1.229 1.229 0 01-.761-.377 1.178 1.178 0 01-.278-.5 1.331 1.331 0 01-.035-.51 1.287 1.287 0 01.355-.734zm9.582 8.245a4.507 4.507 0 00.432-5.261 6.984 6.984 0 00-1.541-1.888 7.4 7.4 0 00-2.093-1.292 4.514 4.514 0 00-4.926.667.654.654 0 01-.08.1l-13.37 14.336c.1.016.2.032.295.05a7.846 7.846 0 015.21 3.049 8.1 8.1 0 011.215 5.868 8.43 8.43 0 01-.1.6.426.426 0 00.045.308.387.387 0 00.159.141.405.405 0 00.2.042.262.262 0 00.18-.089l14.307-16.582a.57.57 0 01.056-.056z"/></svg>