<svg xmlns="http://www.w3.org/2000/svg" width="74.144" height="110.701"><path data-name="Path 2007" d="M31.433 75.334H11.542a8.358 8.358 0 00-1.441.088c-6.25.941-5.72 6.987 1.33 5.2.832-.21 1.983-.347 2.255-1.313a.343.343 0 01.661.185 1.923 1.923 0 01-.415.8c.153 0 .311-.007.475-.007a39.761 39.761 0 014.7.243c.547 0 1.255-.063 1.553-.6a.343.343 0 01.6.333 1.6 1.6 0 01-.435.506c.482.079.957.164 1.445.251.765.137 1.565.28 2.483.415a2.969 2.969 0 002-.115 1.911 1.911 0 00.841-.984.572.572 0 011.068.407 3.078 3.078 0 01-.854 1.225 7.929 7.929 0 012.377 1.73 3.025 3.025 0 01.27-.94.572.572 0 011.021.515 2.135 2.135 0 00-.178.966 1.929 1.929 0 00.6 1.442 47.134 47.134 0 013.62 5.691c2.116 3.825 3.365 5.561 6.94 7.977 1.826 1.234 3.106 2.2 5.4 1.868a.573.573 0 01.166 1.133 7.174 7.174 0 01-1.137.077q.366.308.73.646a11.822 11.822 0 011.889 2.188c.369-.212.8-.46 1.3-.738a106.664 106.664 0 0014.458-10c.426-.359.8-.668 1.116-.927-4.022-5.115-6.35-12.541-8.535-19.507-3.127-9.971-5.413-18.135-16.185-21.913v14.229a4.913 4.913 0 001.959-2.278.572.572 0 011.025.506 6.034 6.034 0 01-2.984 3.078v1.433c.907.166 2.672.338 3.438-.277a.572.572 0 01.717.891 4.8 4.8 0 01-3.3.653 13.665 13.665 0 004.376 3.02.571.571 0 01-.362 1.084c-2.471-.832-5.091-3.481-7.694-6.112a37.76 37.76 0 00-5.437-4.884c-2.729-1.778-4-1.663-7.207-1.755-1.521-.043-3.036-.409-4.525-.47-3.543-.146-4.84 2.885-1.948 5.27a18.149 18.149 0 005.871 2.863c.435.134 1.052.451 1.471.144a.573.573 0 01.854.712 12.873 12.873 0 011.727.916 6.143 6.143 0 012.794 3.426c2 7.169 6.782 17.05 14.791 18.805a.573.573 0 01-.244 1.119c-8.388-1.831-13.37-11.695-15.549-19.215zm15.79 30.318a4.1 4.1 0 01.588-.723 12.948 12.948 0 00-.979-1.01 37.415 37.415 0 00-5-3.6c-3.661-2.469-5.088-4.317-7.261-8.289a39.119 39.119 0 00-4.415-6.726c-1.166-1.355-2.371-2.345-3.474-2.464-1.938-.209-3.323-.457-4.611-.686a37.257 37.257 0 00-7.663-.719 10.905 10.905 0 00-2.7.3c-7.1 1.795-9.442-4-4.52-6.585a3.812 3.812 0 01-2.641-3.617v-2.8c-6.2-.4-5.925-7.156 0-7.411v-1.464c-6.2-.4-5.925-7.157 0-7.412V3.796a3.809 3.809 0 013.8-3.8h29.506a3.807 3.807 0 013.8 3.8v47.18c11.426 3.765 14 12.312 17.278 22.78 2.009 6.413 4.146 13.222 7.582 18.123a2.888 2.888 0 011.046-.288c.667-.014.745.291 1.035.689l5.435 7.5a.572.572 0 01-.926.672l-5.1-7.039a11.84 11.84 0 01-2.014 1.989 107.431 107.431 0 01-14.629 10.125 14.655 14.655 0 01-2.746 1.263l2.133 3a.572.572 0 01-.932.663l-2.369-3.336c-.36-.506-.617-.8-.22-1.47zM26.358 2.916a.229.229 0 010-.458h.468a.229.229 0 010 .458zm-1.116 67.608c-.329-.1-.671-.214-1.017-.335h-16.2a1.309 1.309 0 01-1.307-1.3V5.405a1.309 1.309 0 011.307-1.3h30.164a1.307 1.307 0 011.3 1.3v62.041l1.019 1.027V3.798a2.661 2.661 0 00-2.652-2.652H8.342a2.66 2.66 0 00-2.651 2.652v67.737a2.66 2.66 0 002.651 2.652h22.673c-1.046-1.956-3.771-3.048-5.78-3.664zm4.932-4.907a.229.229 0 01-.36-.283 3.882 3.882 0 00.443-.726.229.229 0 01.412.2 4.219 4.219 0 01-.498.81zm-1.469-.056a.229.229 0 01-.32-.326 3.971 3.971 0 00.928-1.534.228.228 0 01.426.165 4.418 4.418 0 01-1.037 1.696zm-8.482-.26a.343.343 0 01.3-.615c.905.448 2.879.959 3.43-.152a4.361 4.361 0 011.063-1.744c.384-.377.85.128.5.471a3.9 3.9 0 00-.946 1.577c-.772 1.547-3.081 1.093-4.35.467zm2.794 4.429a15.962 15.962 0 01-4.032-2.28c-3.757-3.1-1.9-7.484 2.719-7.294 1.487.061 3 .427 4.513.47 3.436.1 4.86.027 7.795 1.938a33.764 33.764 0 015.021 4.419V5.405a.848.848 0 00-.845-.846H8.024a.851.851 0 00-.85.846v63.479a.851.851 0 00.85.846h14.994zM4.551 58.712v-5.12c-4.416.224-4.675 4.78-.003 5.121zm0 8.876v-5.12c-4.416.224-4.675 4.78-.003 5.12zm5.83-3.558a.229.229 0 01.307-.339l3 2.715a.228.228 0 01-.3.339zm-.209 1.735a.228.228 0 01.3-.339l1.319 1.194a.229.229 0 01-.307.339zM21.123 2.917a.23.23 0 010-.459h3.958a.23.23 0 010 .459z"/></svg>