<svg xmlns="http://www.w3.org/2000/svg" width="40.762" height="44.794" viewBox="0 0 40.762 44.794">
  <g id="logo_mark_dark" transform="translate(0 0)">
    <path id="Path_67" data-name="Path 67" d="M18.365,283.266s-.3-.006-.406,0a.961.961,0,0,0-.141.006.391.391,0,0,0-.34.372c-.006.058-.012.337-.012.384l0,1.851,0,2.441s0,.277,0,.364a.448.448,0,0,0,.1.253.3.3,0,0,0,.091.07.7.7,0,0,0,.227.065,3.769,3.769,0,0,0,.466.02A16.569,16.569,0,1,1,1.8,305.662a.9.9,0,0,0-1.8,0,18.358,18.358,0,1,0,19.012-18.348v-2.235a20.6,20.6,0,0,1-.646,41.182.9.9,0,0,0,0,1.8,22.4,22.4,0,1,0,0-44.792" transform="translate(0 -283.263)" fill="#333"/>
    <path id="Path_68" data-name="Path 68" d="M34.8,352.589a14.344,14.344,0,0,0,14.078-11.648.229.229,0,0,0-.047-.187.236.236,0,0,0-.175-.083H43.122a.228.228,0,0,0-.216.159,8.507,8.507,0,1,1,0-5.15.226.226,0,0,0,.216.158h1.4a.227.227,0,0,0,.227-.227.221.221,0,0,0-.024-.1,10.308,10.308,0,1,0-.423,6.709h2.386a12.536,12.536,0,1,1,.372-6.561.225.225,0,0,0,.221.179h1.373a.227.227,0,0,0,.226-.226.233.233,0,0,0-.017-.086A14.334,14.334,0,1,0,34.8,352.589" transform="translate(-16.398 -315.842)" fill="#333"/>
  </g>
</svg>
