<svg xmlns="http://www.w3.org/2000/svg" width="33.067" height="29.026" viewBox="0 0 33.067 29.026">
  <g id="_2-1" data-name="2-1" transform="translate(-1 -4.9)">
    <g id="Group_8" data-name="Group 8" transform="translate(1 4.9)">
      <path id="Path_51" data-name="Path 51" d="M9.06,4.9a3.46,3.46,0,1,0,3.46,3.46A3.461,3.461,0,0,0,9.06,4.9Z" transform="translate(-3.224 -4.9)" fill="#fff"/>
      <path id="Path_52" data-name="Path 52" d="M41.429,26.417a7.961,7.961,0,1,0-3.512,3.512l2.841,2.841,3.512-3.512Zm-2.118,1.394a7.048,7.048,0,1,1,0-9.968A7.076,7.076,0,0,1,39.312,27.812Z" transform="translate(-13.282 -9.735)" fill="#fff"/>
      <path id="Path_53" data-name="Path 53" d="M58.912,43.9,55.4,47.412l.723.723a2.483,2.483,0,0,0,3.512-3.512Z" transform="translate(-27.304 -23.758)" fill="#fff"/>
      <path id="Path_54" data-name="Path 54" d="M32.341,20.8a5.77,5.77,0,1,0,8.16,8.16,5.77,5.77,0,0,0-8.16-8.16Zm4.08,3.615a1.742,1.742,0,0,1,1.756,1.756,1.781,1.781,0,0,1-1.291,1.7v.31a.465.465,0,1,1-.93,0v-.362a1.781,1.781,0,0,1-1.291-1.7.465.465,0,0,1,.93,0,.826.826,0,1,0,.826-.826,1.742,1.742,0,0,1-1.756-1.756,1.781,1.781,0,0,1,1.291-1.7v-.31a.465.465,0,1,1,.93,0v.31a1.722,1.722,0,0,1,1.291,1.7.465.465,0,1,1-.93,0,.826.826,0,1,0-1.653,0A.828.828,0,0,0,36.421,24.42Z" transform="translate(-15.349 -11.766)" fill="#fff"/>
      <path id="Path_55" data-name="Path 55" d="M3.272,41.246a.463.463,0,0,0,.465.465h6.2a.463.463,0,0,0,.465-.465V34.273h.775a1.554,1.554,0,0,0,1.549-1.549V23.841A2.832,2.832,0,0,0,9.883,21H3.841A2.866,2.866,0,0,0,1,23.841v8.935a1.554,1.554,0,0,0,1.549,1.549h.775v6.921Z" transform="translate(-1 -12.685)" fill="#fff"/>
    </g>
  </g>
</svg>
