<svg xmlns="http://www.w3.org/2000/svg" width="136.027" height="118.469" viewBox="0 0 136.027 118.469">
  <g id="personalization" transform="translate(0 0)">
    <path id="Path_2011" data-name="Path 2011" d="M627.378,3745.284a.693.693,0,0,1-.016-1.386l7.715-.111c3.48-.037,4.768,1.17,5.506,4.485l9.017,40.5,41.661,11.513a2.5,2.5,0,0,1,.346,4.568l-70.856,24.88c-2.737.961-3.995.829-6.431-.821l-30.039-20.343a4.96,4.96,0,0,0-2.038-.866c-1.151-.23-1.542-.308-2.114-3.074l-2.77-13.4a.693.693,0,0,1,1.359-.277l2.77,13.4c.384,1.859.547,1.892,1.027,1.988a6.186,6.186,0,0,1,2.543,1.083l30.095,20.38c2.023,1.37,2.882,1.414,5.142.621l70.783-24.854a1.131,1.131,0,0,0-.175-1.944c-13.89-3.481-28.048-7.741-41.906-11.58l-50.929,11.082a.7.7,0,0,1-.293-1.359l50.411-10.969-8.956-40.232c-.593-2.662-1.337-3.427-4.139-3.4l-7.712.111Zm-52.068,32.239a.277.277,0,0,1-.054-.552l20.912-2.109a.277.277,0,0,1,.054.552Zm-.87-6.009a.277.277,0,0,1-.048-.552l37.265-3.321a.277.277,0,0,1,.048.552Zm-1.154-5.915a.278.278,0,0,1-.041-.554l37.28-2.865a.278.278,0,0,1,.041.554Zm19.26-7.4a.278.278,0,0,1-.03-.554l16.639-.969a.278.278,0,0,1,.03.554Zm-1.123-5.151a.277.277,0,0,1-.024-.554l16.477-.752a.278.278,0,0,1,.024.554Zm-.974-5.27a.277.277,0,0,1-.015-.554l16.694-.461a.277.277,0,0,1,.015.554Zm34.83,12.7,1.352-1.472a.417.417,0,0,1,.613.564l-1.485,1.617a.415.415,0,0,1-.566.185l-2.234-1.171a.416.416,0,0,1,.385-.737Zm-6.113-28.427a.417.417,0,1,0-.814.187l.373,1.627a.417.417,0,0,0,.814-.187Zm5.16,26.222a.417.417,0,0,0,.814-.187l-.373-1.627a.417.417,0,1,0-.814.187Zm-.933-4.068a.417.417,0,0,0,.814-.186l-.373-1.627a.417.417,0,0,0-.814.187Zm-.933-4.068a.417.417,0,0,0,.814-.187l-.373-1.627a.417.417,0,0,0-.813.187Zm-.933-4.068a.417.417,0,0,0,.814-.187l-.373-1.627a.417.417,0,0,0-.814.187Zm-.933-4.068a.417.417,0,0,0,.814-.187l-.373-1.627a.417.417,0,0,0-.814.187Zm-.933-4.068a.417.417,0,0,0,.814-.187l-.373-1.627a.417.417,0,0,0-.814.187Zm-1.378-13.4c-1.052-.845-2.567-.819-3.8-1.8a3.159,3.159,0,0,1-1.106-1.771,1.866,1.866,0,0,1,1.688-2.567l-.353-1.438c-.077-.515.906-.515,1.029,0l.355,1.445a3.292,3.292,0,0,1,1.909.894,4,4,0,0,1,1.094,2c.148.42-1.2.287-1.276,0a2.7,2.7,0,0,0-.74-1.34,1.752,1.752,0,0,0-1.258-.516c-1,0-1.407.535-1.17,1.5a1.824,1.824,0,0,0,.649,1.023c1.035.82,2.62.831,3.844,1.814,1.624,1.293,1.8,4.026-.812,4.308l.307,1.249c.1.42-.909.449-1.02,0l-.3-1.242a3.506,3.506,0,0,1-3.232-2.872c-.129-.533,1.138-.46,1.241-.033a2.184,2.184,0,0,0,2.2,1.856C619.27,3727.048,619.438,3725.467,618.281,3724.538Zm-2.04,9.009a.417.417,0,0,1-.173.815,13.515,13.515,0,0,1-10.326-12.431c-.247-5.152,2.8-9.787,8.265-10.049,6.15-.3,11.529,5.046,12.764,10.823.916,4.286-.427,9.036-4.574,11.08a.416.416,0,0,1-.368-.747c3.8-1.873,4.962-6.253,4.127-10.161-1.149-5.375-6.173-10.439-11.91-10.164-5,.24-7.7,4.492-7.473,9.179A12.683,12.683,0,0,0,616.241,3733.547Zm-32.61,13.919a.278.278,0,0,1,.383.4l-5.6,5.34,8.031,4.842a.278.278,0,0,1-.287.476l-8.161-4.92-6,5.728a.278.278,0,0,1-.383-.4l5.893-5.623-8.324-5.019a.278.278,0,0,1,.287-.476l8.454,5.1Zm36.358,33.589-49.474,6.7c-4.3.451-4.42-.139-4.934-2.7q-4.246-21.117-8.543-42.225c-.482-2.379.412-3.286,2.724-3.368l52.271.279c3.288-.036,3.155.845,3.776,3.7l7.38,32.827c.4,2.339.713,4.209-3.2,4.8Zm-49.622,5.317,49.393-6.686c2.839-.464,2.179-2.2,2.076-3.123l-7.38-32.827c-.4-1.794-.205-2.638-2.415-2.614l-52.233-.279c-1.453-.005-1.709.237-1.39,1.814l8.523,42.122C567.252,3786.332,567.324,3786.69,570.368,3786.372ZM588.356,3806a.417.417,0,0,1,.46-.695l8.834,5.861a.417.417,0,0,1-.46.695Zm51.444,8.841a.417.417,0,0,1-.44.708l-4.3-2.68c-1.65-1.027-.943-2.369.9-2.852l11.661-3.542a4.092,4.092,0,0,1,3.872.167l4.647,1.931c1.911.794,1.851,2.487.048,3.115l-8.014,2.79a.416.416,0,0,1-.274-.786l8.014-2.789c1.239-.431.884-1.153-.094-1.559l-4.647-1.93a3.485,3.485,0,0,0-3.311-.141l-11.661,3.542c-.7.212-1.687.735-.7,1.348Zm21.439-16.983a.416.416,0,0,1,.232.8l-52.789,15.394a.416.416,0,0,1-.232-.8Zm-33.306-48.093a.277.277,0,0,1-.007-.554l3.94-.057c.938.009,2.627-.112,3.342.472.747.61,1.031,2.466,1.277,3.567l7.059,31.669a.277.277,0,0,1-.541.12l-7.064-31.694c-.212-.95-.515-2.771-1.08-3.232-.533-.435-2.24-.342-2.994-.348Z" transform="translate(-556.912 -3711.87)"/>
  </g>
</svg>
