<svg xmlns="http://www.w3.org/2000/svg" width="40.56" height="40.559" viewBox="0 0 40.56 40.559">
  <g id="_1-3" data-name="1-3" transform="translate(-10 -10.001)">
    <path id="Path_122" data-name="Path 122" d="M10,60.823a9.042,9.042,0,1,0,13.11-8.064l1.757-2.828A.507.507,0,1,0,24,49.4L22.17,52.351A9.016,9.016,0,0,0,10,60.823Zm4.159,6.357a4.854,4.854,0,0,1,3.46-4.561.507.507,0,0,0,.1-.93,3.007,3.007,0,1,1,2.792.035.507.507,0,0,0,.07.933,4.876,4.876,0,0,1,3.346,4.522,7.972,7.972,0,0,1-9.765,0ZM19.041,52.8a8.016,8.016,0,0,1,5.82,13.54,5.886,5.886,0,0,0-3.071-4.261A4.016,4.016,0,1,0,16.426,62a5.848,5.848,0,0,0-3.205,4.331A8.016,8.016,0,0,1,19.041,52.8Z" transform="translate(0 -19.304)" fill="#fff"/>
    <path id="Path_123" data-name="Path 123" d="M63.375,51.781a8.979,8.979,0,0,0-3.128.569L58.411,49.4a.507.507,0,1,0-.862.535l1.757,2.828a9.024,9.024,0,1,0,4.068-.978Zm-4.883,15.4a4.854,4.854,0,0,1,3.461-4.56.507.507,0,0,0,.1-.93,3.007,3.007,0,1,1,2.792.035.507.507,0,0,0,.07.933,4.876,4.876,0,0,1,3.346,4.522,7.972,7.972,0,0,1-9.765,0Zm10.7-.844a5.885,5.885,0,0,0-3.071-4.261A4.016,4.016,0,1,0,60.759,62a5.848,5.848,0,0,0-3.205,4.331,8.027,8.027,0,1,1,11.641,0Z" transform="translate(-21.856 -19.304)" fill="#fff"/>
    <path id="Path_124" data-name="Path 124" d="M45.528,20.179a4.6,4.6,0,1,0,4.6,4.6A4.6,4.6,0,0,0,45.528,20.179Zm0,8.184a3.585,3.585,0,1,1,3.585-3.585A3.589,3.589,0,0,1,45.528,28.363Z" transform="translate(-15.248 -5.018)" fill="#fff"/>
    <path id="Path_125" data-name="Path 125" d="M49.815,18.269a.507.507,0,0,0,.443-.61,9.892,9.892,0,0,0-1.37-3.3.507.507,0,0,0-.744-.119,1.5,1.5,0,0,1-2.109-2.109.507.507,0,0,0-.119-.744,9.892,9.892,0,0,0-3.3-1.37.507.507,0,0,0-.61.443,1.5,1.5,0,0,1-2.983,0,.507.507,0,0,0-.206-.357.514.514,0,0,0-.4-.085,9.892,9.892,0,0,0-3.3,1.37.507.507,0,0,0-.119.744,1.5,1.5,0,0,1-2.109,2.109.507.507,0,0,0-.744.119,9.892,9.892,0,0,0-1.37,3.3.507.507,0,0,0,.443.61,1.5,1.5,0,0,1,0,2.983.507.507,0,0,0-.443.61,9.892,9.892,0,0,0,1.37,3.3.507.507,0,0,0,.346.225.5.5,0,0,0,.4-.106,1.5,1.5,0,0,1,2.109,2.109.507.507,0,0,0,.119.744,9.892,9.892,0,0,0,3.3,1.37.507.507,0,0,0,.61-.443,1.5,1.5,0,0,1,2.983,0,.507.507,0,0,0,.5.454.515.515,0,0,0,.106-.011,9.892,9.892,0,0,0,3.3-1.37.507.507,0,0,0,.119-.744,1.5,1.5,0,0,1,2.109-2.109.5.5,0,0,0,.4.106.507.507,0,0,0,.346-.225,9.892,9.892,0,0,0,1.37-3.3.507.507,0,0,0-.443-.61,1.5,1.5,0,0,1,0-2.983Zm-.667,3.866a8.875,8.875,0,0,1-.852,2.053,2.516,2.516,0,0,0-3.359,3.359,8.875,8.875,0,0,1-2.053.852,2.515,2.515,0,0,0-4.75,0,8.875,8.875,0,0,1-2.053-.852,2.516,2.516,0,0,0-3.359-3.359,8.875,8.875,0,0,1-.852-2.053,2.515,2.515,0,0,0,0-4.75,8.874,8.874,0,0,1,.852-2.053,2.516,2.516,0,0,0,3.359-3.359,8.875,8.875,0,0,1,2.053-.852,2.515,2.515,0,0,0,4.75,0,8.875,8.875,0,0,1,2.053.852A2.516,2.516,0,0,0,48.3,15.332a8.875,8.875,0,0,1,.852,2.053,2.515,2.515,0,0,0,0,4.75Z" transform="translate(-10.23)" fill="#fff"/>
  </g>
</svg>
