<svg data-name="1-5" xmlns="http://www.w3.org/2000/svg" width="30" height="50.666"><g data-name="Group 27"><path data-name="Path 139" d="M28.479 12.518a17.336 17.336 0 01-5.294-6.341 5.6 5.6 0 00-2.445-2.925 1.97 1.97 0 00-.631-2l-.016-.016-.016-.016-.016-.016-.012-.016-.016-.016-.016-.02L20 1.135l-.016-.016-.016-.02-.016-.016-.016-.02-.016-.016-.016-.016-.016-.016-.016-.02-.019-.02-.016-.02-.02-.016-.017-.02L19.781.9l-.02-.016-.02-.02V.856l-.016-.013-.02-.016-.02-.02L19.678.8 19.67.787l-.02-.02-.02-.016-.016-.016-.02-.02-.02-.02-.02-.02-.02-.02-.02-.02-.024-.02-.016-.02-.02-.02-.024-.02h-.008L19.4.531l-.02-.02-.024-.02-.01-.012-.008-.008-.048-.039-.016-.016-.024-.02-.028-.028-.022-.02-.02-.02-.024-.02-.026-.024-.02-.016-.024-.02-.028-.028-.012-.008L19.03.2l-.024-.024-.024-.02-.016-.012-.008-.012-.028-.02-.024-.024-.02-.016h-.008l-.024-.028-.028-.02L18.8 0v.884a.2.2 0 00-.016.044v.036l-.008.012a.3.3 0 01-.036.072v.012l-.008.016-.016.028-.008.016-.012.012a3.886 3.886 0 01-.332.42A13.752 13.752 0 007.088 3.72c-8.606 6.345-7.6 26.506-4.3 34.133a4.4 4.4 0 01.611-.044H8.8a24 24 0 00.22-3.3h-1.3v-3.021A3.018 3.018 0 018.1 30a6.057 6.057 0 011.838-5.066 3.328 3.328 0 01-.12-.891 3.464 3.464 0 116.812.891A6.067 6.067 0 0118.467 30a3.018 3.018 0 01.388 1.486v3.025h-1.3a24 24 0 00.22 3.3h4.343a4.288 4.288 0 011.362.22c.531-1.37.887-3.68-.02-7.3-1.706-6.8-8.9-12.526-8.8-16.038.028-1.075 2.213-.951 2.245-.18.056 1.486.927 2.829 4.127 1.966 4.575-1.235 4.958 6.469 8.3.04.782-1.508 1.273-2.579-.853-4.001zM7.192 48.784h.076a8.453 8.453 0 011.586-5.278h-.38a.437.437 0 01-.436-.436.437.437 0 01.436-.436h.951C11.507 39.7 11.279 35.9 11.343 32.2h-1.318v-.715a.72.72 0 01.715-.719h-.2c-.615-2.753.615-4.307 2.082-4.663v-1.116a1.153 1.153 0 111.33 0v1.119c1.466.356 2.693 1.91 2.078 4.663h-.2a.718.718 0 01.715.719v.712h-1.318c.064 3.7-.164 7.5 1.918 10.432h.955a.436.436 0 01.432.436.436.436 0 01-.432.436h-.384a8.453 8.453 0 011.584 5.28h.076a.9.9 0 01.839.939.9.9 0 01-.839.943H7.192a.9.9 0 01-.839-.943.9.9 0 01.839-.939zM3.4 39.711h4.942a6.83 6.83 0 01-.256.643 2.747 2.747 0 00-2.357 2.717 2.691 2.691 0 00.164.935c-.1.224-.188.447-.268.675H3.4A2.493 2.493 0 01.919 42.2 2.493 2.493 0 013.4 39.711zm14.823 0h3.888A2.493 2.493 0 0124.6 42.2a2.493 2.493 0 01-2.485 2.485h-1.171a8.166 8.166 0 00-.268-.675 2.691 2.691 0 00.164-.935 2.747 2.747 0 00-2.357-2.717 7.976 7.976 0 01-.256-.647zm7.292 10.955l-1.586-4.483a4.335 4.335 0 01-1.818.4h-.679c.044.26.076.519.1.779a3.312 3.312 0 01.987 2.361 3.2 3.2 0 01-.136.943zM5.134 46.583H3.4a4.335 4.335 0 01-1.818-.4L0 50.666h4.179a3.324 3.324 0 01.851-3.3c.028-.266.064-.523.104-.783z" fill="#fff" fill-rule="evenodd"/></g></svg>