<svg xmlns="http://www.w3.org/2000/svg" width="33.127" height="36.728"><g data-name="2-3"><path data-name="Path 78" d="M30.224 25.933a8.452 8.452 0 00-3.577-14.593V6.047C26.647 2.599 20.919 0 13.323 0S-.001 2.6-.001 6.047v18.286c0 3.447 5.728 6.047 13.324 6.047a29.035 29.035 0 005.106-.45l-.937 5.803a.838.838 0 001.318.813l5.826-4.213 5.806 4.244a.937.937 0 00.931.039.863.863 0 00.392-.845zm1.227-6.368a6.8 6.8 0 11-6.8-6.8 6.8 6.8 0 016.8 6.8zm-14.78-2.807a28.7 28.7 0 01-3.347.2c-5.48 0-10.245-1.54-11.648-3.567V8.215c1.833 1.94 6.3 3.279 11.648 3.279s9.815-1.339 11.648-3.279v2.894c-3.436.001-7.136 2.007-8.301 5.65zm-15-2.13c2.06 1.889 6.449 3.165 11.648 3.165a29.705 29.705 0 003.091-.161 8.34 8.34 0 00.408 5.154 28.553 28.553 0 01-3.5.215c-5.48 0-10.245-1.54-11.648-3.567v-4.801zM13.324 1.676c6.864 0 11.648 2.3 11.648 4.371v.594c-.556 2.01-5.095 4.016-11.648 4.016S2.23 8.65 1.676 6.64v-.592c0-2.069 4.784-4.372 11.648-4.372zm0 27.024c-6.864 0-11.648-2.3-11.648-4.371v-3.655c2.06 1.889 6.449 3.165 11.648 3.165a29.292 29.292 0 003.876-.256 8.523 8.523 0 001.876 2.341l-.362 2.242a26.876 26.876 0 01-5.39.534zm11.812 1.924a.838.838 0 00-.985 0l-4.684 3.383 1.13-7a8.454 8.454 0 008.1.008l1.1 7.022zm-.88-15.091l-.874 2.689h-2.827a.419.419 0 00-.246.758l2.287 1.662-.873 2.691a.41.41 0 00.152.468.444.444 0 00.493 0l2.287-1.662 2.287 1.662a.419.419 0 00.645-.468l-.874-2.689L29 18.982a.419.419 0 00-.246-.758h-2.827l-.874-2.691a.419.419 0 00-.8 0zm.968 3.238a.419.419 0 00.4.289h1.842l-1.491 1.083a.419.419 0 00-.152.468l.569 1.752-1.491-1.083a.419.419 0 00-.493 0l-1.49 1.083.569-1.752a.419.419 0 00-.152-.468l-1.491-1.083h1.842a.419.419 0 00.4-.289l.569-1.752zm-19.2-6.387l-1.448-.535a.209.209 0 00-.282.2v1.412a.21.21 0 00.137.2l1.448.535a.205.205 0 00.072.013.207.207 0 00.12-.038.209.209 0 00.09-.172v-1.415a.21.21 0 00-.135-.196zm-.282 1.308l-1.029-.38v-.965l1.029.38zm-1.306 6.127l1.448.535a.205.205 0 00.072.013.207.207 0 00.12-.038.209.209 0 00.09-.172v-1.411a.21.21 0 00-.137-.2l-1.448-.535a.209.209 0 00-.282.2v1.412a.21.21 0 00.137.196zm.282-1.308l1.029.38v.965l-1.029-.38zm1.311 5.781l-1.448-.535a.209.209 0 00-.282.2v1.412a.21.21 0 00.137.2l1.448.535a.205.205 0 00.072.013.207.207 0 00.12-.038.209.209 0 00.09-.172v-1.419a.21.21 0 00-.14-.196zM5.747 25.6l-1.029-.38v-.965l1.029.38z" fill="#fff"/></g></svg>