<svg xmlns="http://www.w3.org/2000/svg" width="38.201" height="36.158" viewBox="0 0 38.201 36.158">
  <g id="_2-4" data-name="2-4" transform="translate(-0.39 -3.62)">
    <path id="Path_56" data-name="Path 56" d="M1,37.829A1.949,1.949,0,0,1,2.949,35.88h7.309a1.949,1.949,0,1,1,0,3.9H2.949A1.949,1.949,0,0,1,1,37.829Zm1.949-3.9h7.309a1.949,1.949,0,0,0,0-3.9H2.949a1.949,1.949,0,0,0,0,3.9Zm0-5.847h7.309a1.949,1.949,0,1,0,0-3.9H2.949a1.949,1.949,0,0,0,0,3.9Zm0-5.847h7.309a1.949,1.949,0,1,0,0-3.9H2.949a1.949,1.949,0,0,0,0,3.9ZM23.757,35.88H16.444a1.949,1.949,0,1,0,0,3.9h7.313a1.949,1.949,0,1,0,0-3.9Zm0-5.847H16.444a1.949,1.949,0,1,0,0,3.9h7.313a1.949,1.949,0,1,0,0-3.9Zm-9.258-3.9a1.949,1.949,0,0,0,1.949,1.949h7.309a1.949,1.949,0,1,0,0-3.9H16.444A1.949,1.949,0,0,0,14.5,26.135ZM37.252,35.88H29.943a1.949,1.949,0,1,0,0,3.9h7.309a1.949,1.949,0,1,0,0-3.9Zm-7.309-5.847a1.949,1.949,0,0,0,0,3.9h7.309a1.949,1.949,0,1,0,0-3.9ZM21.122,3.62H19.079a1.064,1.064,0,0,0-1.064,1.064V16.242h-.7a.877.877,0,0,0-.667.288.846.846,0,0,0-.055,1.037L19.411,21.5a.846.846,0,0,0,1.38,0l2.818-3.929a.846.846,0,0,0,0-.982.893.893,0,0,0-.733-.343H22.19V4.688A1.064,1.064,0,0,0,21.122,3.62Zm13.5,0H32.574A1.064,1.064,0,0,0,31.51,4.684v17.4h-.7a.877.877,0,0,0-.667.288.846.846,0,0,0-.051,1.056l2.818,3.929a.846.846,0,0,0,1.38,0L37.1,23.414a.846.846,0,0,0,0-.982.893.893,0,0,0-.733-.343h-.678V4.688A1.064,1.064,0,0,0,34.617,3.62Zm-26.99,0H5.584A1.064,1.064,0,0,0,4.508,4.688v5.707h-.69a.877.877,0,0,0-.667.288A.846.846,0,0,0,3.1,11.74l2.818,3.929a.846.846,0,0,0,1.38,0L10.11,11.72a.846.846,0,0,0,0-.982.893.893,0,0,0-.733-.343H8.691V4.688A1.064,1.064,0,0,0,7.627,3.62Z" transform="translate(-0.61)" fill="#fff"/>
  </g>
</svg>
