<svg xmlns="http://www.w3.org/2000/svg" width="31.35" height="40.592" viewBox="0 0 31.35 40.592">
  <g id="_1-3" data-name="1-3" transform="translate(-27.104 -32)">
    <path id="Path_42" data-name="Path 42" d="M209.469,319.45h5.3a.725.725,0,0,0,0-1.45h-5.3a.725.725,0,0,0,0,1.45Z" transform="translate(-170.247 -260.087)" fill="#fff"/>
    <path id="Path_43" data-name="Path 43" d="M220.207,356H209.469a.725.725,0,0,0,0,1.45h10.738a.725.725,0,0,0,0-1.45Z" transform="translate(-170.247 -294.643)" fill="#fff"/>
    <path id="Path_44" data-name="Path 44" d="M170.489,318h-1.02a.725.725,0,0,0,0,1.45h1.02a.725.725,0,0,0,0-1.45Z" transform="translate(-133.871 -260.087)" fill="#fff"/>
    <path id="Path_45" data-name="Path 45" d="M170.489,356h-1.02a.725.725,0,0,0,0,1.45h1.02a.725.725,0,0,0,0-1.45Z" transform="translate(-133.871 -294.643)" fill="#fff"/>
    <path id="Path_46" data-name="Path 46" d="M173.819,146.889a2.223,2.223,0,0,0,1.991-1.238l1.274.516a2.221,2.221,0,0,0,4.382-.513c0-.025,0-.051,0-.076l1.888-1.592a2.221,2.221,0,1,0-.823-1.2l-1.637,1.38a2.219,2.219,0,0,0-3.638.506l-1.274-.516a2.221,2.221,0,1,0-2.161,2.734Zm10.852-5.459a.772.772,0,1,1-.772.772A.772.772,0,0,1,184.672,141.429Zm-5.426,3.453a.771.771,0,1,1-.772.771A.771.771,0,0,1,179.245,144.882Zm-5.426-.987a.772.772,0,1,1-.771.771.772.772,0,0,1,.771-.771Z" transform="translate(-136.466 -98.195)" fill="#fff"/>
    <path id="Path_47" data-name="Path 47" d="M297.077,201.725a.725.725,0,0,0-.725-.725h-2.628a.725.725,0,0,0-.725.725v7.43a.725.725,0,0,0,.725.725h2.628a.725.725,0,0,0,.725-.725Zm-1.359,6.7H294.45v-5.98h1.268Z" transform="translate(-246.868 -153.688)" fill="#fff"/>
    <path id="Path_48" data-name="Path 48" d="M237.077,239.725a.725.725,0,0,0-.725-.725h-2.628a.725.725,0,0,0-.725.725v3.987a.725.725,0,0,0,.725.725h2.628a.725.725,0,0,0,.725-.725Zm-2.628.725h1.268v2.537H234.45Z" transform="translate(-192.305 -188.244)" fill="#fff"/>
    <path id="Path_49" data-name="Path 49" d="M177.077,228.725a.725.725,0,0,0-.725-.725h-2.628a.725.725,0,0,0-.725.725v4.983a.725.725,0,0,0,.725.725h2.628a.725.725,0,0,0,.725-.725Zm-1.359,4.258H174.45V229.45h1.268Z" transform="translate(-137.741 -178.241)" fill="#fff"/>
    <path id="Path_50" data-name="Path 50" d="M114.35,40.5a.738.738,0,0,0-.225-.513l-7.77-7.761a.751.751,0,0,0-.518-.223H83.75a.766.766,0,0,0-.75.748v39.1a.766.766,0,0,0,.75.747H113.6a.766.766,0,0,0,.75-.748Zm-7.792-6,5.3,5.3h-5.3ZM84.45,71.142V33.45h20.658v7.061a.733.733,0,0,0,.728.731H112.9v29.9Z" transform="translate(-55.896)" fill="#fff"/>
  </g>
</svg>
