<svg xmlns="http://www.w3.org/2000/svg" width="44.56" height="44.56" viewBox="0 0 44.56 44.56">
  <g id="_2-4" data-name="2-4" transform="translate(-5 -5)">
    <g id="Group_5" data-name="Group 5" transform="translate(5 5)">
      <path id="Path_32" data-name="Path 32" d="M49.56,25.953H45.132A17.921,17.921,0,0,0,28.608,9.428V5H25.953V9.428A17.922,17.922,0,0,0,9.428,25.953H5v2.655H9.428A17.922,17.922,0,0,0,25.953,45.132V49.56h2.655V45.132A17.921,17.921,0,0,0,45.132,28.608H49.56ZM27.28,42.545A15.265,15.265,0,1,1,42.545,27.28,15.282,15.282,0,0,1,27.28,42.545Z" transform="translate(-5 -5)" fill="#fff"/>
      <path id="Path_33" data-name="Path 33" d="M41.672,38.884a7.932,7.932,0,0,0,3.292-6.228,5.95,5.95,0,0,0-11.9,0,7.928,7.928,0,0,0,3.291,6.228c-4.664,1.183-8.117,5.23-8.117,8.229,0,3.546,21.551,3.546,21.551,0C49.79,44.115,46.334,40.067,41.672,38.884Zm-2.66,10.886L36,46.752l2.541-6.143H38.51l-.988-1.131a4.378,4.378,0,0,0,1.491.275,4.448,4.448,0,0,0,1.491-.273l-.988,1.13h-.024l2.542,6.143Z" transform="translate(-16.733 -15.959)" fill="#fff"/>
    </g>
  </g>
</svg>
