<svg xmlns="http://www.w3.org/2000/svg" width="108.592" height="130.4" viewBox="0 0 108.592 130.4">
  <g id="analytics_capabilites" transform="translate(2882.48 -2473.388)">
    <path id="Path_2003" data-name="Path 2003" d="M-2798.957,2483.921a5.876,5.876,0,0,1-.628-8.827,5.879,5.879,0,0,1,8.282,0,5.879,5.879,0,0,1,0,8.282,5.871,5.871,0,0,1-6.443,1.246l-18.794,32.553,9.872,17.1h15.113a5.842,5.842,0,0,1,1.674-3.438,5.879,5.879,0,0,1,8.282,0,5.88,5.88,0,0,1,0,8.282,5.88,5.88,0,0,1-8.282,0,5.843,5.843,0,0,1-1.674-3.439h-15.088l-2.685,4.651a.7.7,0,0,1-1.213-.7l2.676-4.635-9.845-17.053h-19.7l-9.847,17.053,9.847,17.053h5.577a.7.7,0,0,1,0,1.405h-5.57l-22.97,39.787a5.875,5.875,0,0,1,.627,8.827,5.878,5.878,0,0,1-8.282,0,5.879,5.879,0,0,1,0-8.282,5.871,5.871,0,0,1,6.443-1.245l22.966-39.78-9.914-17.175-22.281,0a5.837,5.837,0,0,1-1.683,3.522,5.879,5.879,0,0,1-8.282,0,5.879,5.879,0,0,1,0-8.282,5.879,5.879,0,0,1,8.282,0,5.84,5.84,0,0,1,1.664,3.364l22.43-.006q4.907-8.5,9.813-17l-15.922-27.579a5.87,5.87,0,0,1-6.522-1.211,5.879,5.879,0,0,1,0-8.282,5.878,5.878,0,0,1,8.282,0,5.875,5.875,0,0,1-.559,8.775l15.966,27.654h19.518q9.422-16.32,18.866-32.618Zm-42.066,45.762a.421.421,0,0,1,.728.421l-2.877,4.955,2.821,4.561c.284.474-.409.934-.693.459l-3.1-5.015,3.125-5.382Zm17.55-37.979a5.879,5.879,0,0,1,0,8.282,5.835,5.835,0,0,1-3.45,1.675v11.164a.7.7,0,0,1-1.406,0v-11.167a5.837,5.837,0,0,1-3.427-1.673,5.88,5.88,0,0,1,0-8.282,5.88,5.88,0,0,1,8.282,0Zm-.994.994a4.468,4.468,0,0,0-6.294,0,4.468,4.468,0,0,0,0,6.294,4.468,4.468,0,0,0,6.294,0,4.468,4.468,0,0,0,0-6.294Zm8.683,33.413a.42.42,0,0,1-.728.418l-3.094-5.36h-6.192a.422.422,0,0,1,0-.844h6.675Zm40.189-25.574a5.879,5.879,0,0,1,0,8.282,5.879,5.879,0,0,1-8.375-.094l-22.9,15.381a.7.7,0,0,1-.779-1.164l22.839-15.339a5.868,5.868,0,0,1,.934-7.065,5.879,5.879,0,0,1,8.282,0Zm-.994.994a4.468,4.468,0,0,0-6.294,0,4.468,4.468,0,0,0,0,6.294,4.468,4.468,0,0,0,6.294,0,4.468,4.468,0,0,0,0-6.294Zm-80.953,51.064,9.407-6.3a.7.7,0,0,1,.779,1.164l-9.4,6.3a5.87,5.87,0,0,1-1.077,6.8,5.879,5.879,0,0,1-8.282,0,5.879,5.879,0,0,1,0-8.282,5.9,5.9,0,0,1,8.578.317Zm-1.289.676a4.484,4.484,0,0,0-6.295,0,4.469,4.469,0,0,0,0,6.295,4.468,4.468,0,0,0,6.295,0,4.473,4.473,0,0,0,.927-4.933,4.392,4.392,0,0,0-.927-1.362Zm-8.2,41.509a4.469,4.469,0,0,0,0,6.295,4.469,4.469,0,0,0,6.294,0,4.466,4.466,0,0,0-.375-6.629,4.5,4.5,0,0,0-5.919.334Zm-6.456-62.964a4.469,4.469,0,0,0-6.295,0,4.469,4.469,0,0,0,0,6.295,4.469,4.469,0,0,0,6.295,0A4.469,4.469,0,0,0-2873.486,2531.817Zm19.744-50.713a4.468,4.468,0,0,0-6.294,0,4.468,4.468,0,0,0,0,6.294,4.473,4.473,0,0,0,4.967.913,4.46,4.46,0,0,0,1.327-7.207Zm71.149,50.725a4.469,4.469,0,0,0-6.294,0,4.469,4.469,0,0,0,0,6.295,4.468,4.468,0,0,0,6.294,0A4.469,4.469,0,0,0-2782.592,2531.828Zm-9.7-55.741a4.469,4.469,0,0,0-6.295,0,4.542,4.542,0,0,0,.392,6.64,4.282,4.282,0,0,0,1.1.635,4.355,4.355,0,0,0,4.807-.98,4.469,4.469,0,0,0,0-6.295Zm14.942,108.251,3.109,4.126a.7.7,0,0,1-1.12.845l-3.177-4.217c-.679-.745-2.1-.059-3.013.209a53.079,53.079,0,0,0-17.287,11.237c-.878.885-1.214,1.52-.921,1.969l3.064,4.152a.7.7,0,0,1-1.115.846l-3.243-4.3c-.783-1.039.287-2.525.981-3.367-2.466-3.143-5.536-4.25-8.868-5.451-7.518-2.711-11.74-6.217-16.307-12.71a30.285,30.285,0,0,1-4.638-15.344c.047-4.916,4.356-4.7,6.649-2.046a11.578,11.578,0,0,1,2.209,5.565,12.005,12.005,0,0,0,.726,2.429c.58,1.41.683,1.4.319-.1-.266-1.093-.443-2.224-.652-3.326a178.939,178.939,0,0,0-6.062-22.282c-2.535-7.633,5.8-10.886,8.616-2.275.854,2.615,2.058,5.663,3.039,8.233a7.05,7.05,0,0,1,6.842,1.623c2.683-1.507,6.422.411,8.174,2.6,8.89-2.2,11.235,11.578,12.591,16.022,1.577,5.6,3.218,11.431,5.993,15.009,1.409-.426,3.057-.823,4.09.547Zm-21.763,10.449a55.271,55.271,0,0,1,16.285-10.51c-2.771-3.806-4.393-9.568-5.955-15.117-2.382-8.461-4.618-16.4-10.4-15.184a16.581,16.581,0,0,1,1.927,4.527.7.7,0,0,1-1.361.341,15.094,15.094,0,0,0-2.273-4.91c-1.285-1.772-4.048-3.509-6.287-2.71a20.718,20.718,0,0,1,3.343,7.288.7.7,0,0,1-1.356.351c-.588-2.257-1.852-5.545-3.489-7.235a5.771,5.771,0,0,0-5.858-1.777c1.117,2.961,2.27,6.036,3.084,8.954a.7.7,0,0,1-1.35.374c-1.721-6.163-4.63-12.4-6.605-18.446-2.2-6.722-7.926-4.538-5.953,1.4a180.043,180.043,0,0,1,6.111,22.463,49.072,49.072,0,0,0,2.294,9.127.7.7,0,0,1-1.29.549c-.132-.308-.257-.632-.377-.969-.429-1.2-.333-.776-1.157-1.649a8.944,8.944,0,0,1-1.264-1.742,12.237,12.237,0,0,1-1.354-3.817,10.3,10.3,0,0,0-1.891-4.895c-1.477-1.708-4.157-2.26-4.19,1.139a28.966,28.966,0,0,0,4.385,14.526c4.395,6.248,8.4,9.592,15.632,12.2,3.472,1.252,6.675,2.407,9.354,5.72Z" transform="translate(0 0)" fill="#d7e8f2"/>
  </g>
</svg>
