<svg xmlns="http://www.w3.org/2000/svg" width="180.528" height="216.786" viewBox="0 0 180.528 216.786">
  <g id="analytics-capabilities" transform="translate(2882.48 -2473.388)">
    <path id="Path_2003" data-name="Path 2003" d="M-2743.626,2490.9a9.768,9.768,0,0,1-1.043-14.675,9.774,9.774,0,0,1,13.769,0,9.775,9.775,0,0,1,0,13.769,9.76,9.76,0,0,1-10.712,2.071l-31.244,54.118,16.412,28.426h25.125a9.712,9.712,0,0,1,2.783-5.716,9.774,9.774,0,0,1,13.769,0,9.775,9.775,0,0,1,0,13.769,9.775,9.775,0,0,1-13.769,0,9.714,9.714,0,0,1-2.783-5.717H-2756.4l-4.464,7.732a1.164,1.164,0,0,1-2.017-1.16l4.448-7.705-16.367-28.35h-32.744q-8.185,14.177-16.37,28.35,8.186,14.178,16.37,28.351h9.272a1.168,1.168,0,0,1,0,2.336h-9.261l-38.187,66.144a9.768,9.768,0,0,1,1.043,14.675,9.773,9.773,0,0,1-13.769,0,9.775,9.775,0,0,1,0-13.769,9.761,9.761,0,0,1,10.711-2.071l38.18-66.133q-8.242-14.277-16.481-28.552l-37.041-.006a9.7,9.7,0,0,1-2.8,5.855,9.774,9.774,0,0,1-13.769,0,9.774,9.774,0,0,1,0-13.769,9.773,9.773,0,0,1,13.769,0,9.706,9.706,0,0,1,2.767,5.592l37.289-.01q8.157-14.13,16.313-28.26l-26.47-45.85a9.758,9.758,0,0,1-10.842-2.013,9.774,9.774,0,0,1,0-13.769,9.773,9.773,0,0,1,13.768,0,9.768,9.768,0,0,1-.929,14.588l26.542,45.974h32.448q15.664-27.131,31.364-54.226Zm-69.933,76.078a.7.7,0,0,1,1.21.7l-4.782,8.238,4.689,7.582c.472.788-.681,1.552-1.152.764l-5.161-8.337,5.2-8.947Zm29.175-63.138a9.774,9.774,0,0,1,0,13.769,9.7,9.7,0,0,1-5.735,2.784v18.561a1.168,1.168,0,0,1-2.337,0v-18.564a9.709,9.709,0,0,1-5.7-2.781,9.776,9.776,0,0,1,0-13.769,9.774,9.774,0,0,1,13.769,0Zm-1.652,1.652a7.429,7.429,0,0,0-10.465,0,7.429,7.429,0,0,0,0,10.465,7.429,7.429,0,0,0,10.465,0,7.43,7.43,0,0,0,0-10.465Zm14.435,55.548a.7.7,0,0,1-1.21.7l-5.144-8.91h-10.295a.7.7,0,0,1,0-1.4h11.1Zm66.813-42.515a9.774,9.774,0,0,1,0,13.769,9.773,9.773,0,0,1-13.923-.157l-38.072,25.57a1.165,1.165,0,0,1-1.3-1.935l37.969-25.5a9.753,9.753,0,0,1,1.552-11.746,9.774,9.774,0,0,1,13.769,0Zm-1.652,1.652a7.429,7.429,0,0,0-10.464,0,7.429,7.429,0,0,0,0,10.465,7.428,7.428,0,0,0,10.464,0,7.429,7.429,0,0,0,0-10.465Zm-134.582,84.892,15.64-10.473a1.165,1.165,0,0,1,1.3,1.936l-15.635,10.47a9.758,9.758,0,0,1-1.791,11.308,9.774,9.774,0,0,1-13.769,0,9.774,9.774,0,0,1,0-13.769,9.8,9.8,0,0,1,14.26.528Zm-2.143,1.124a7.454,7.454,0,0,0-10.465,0,7.429,7.429,0,0,0,0,10.465,7.428,7.428,0,0,0,10.465,0,7.436,7.436,0,0,0,1.541-8.2,7.305,7.305,0,0,0-1.541-2.264ZM-2856.8,2675.2a7.43,7.43,0,0,0,0,10.465,7.429,7.429,0,0,0,10.464,0,7.424,7.424,0,0,0-.623-11.02,7.488,7.488,0,0,0-9.841.555Zm-10.732-104.675a7.429,7.429,0,0,0-10.465,0,7.429,7.429,0,0,0,0,10.465,7.429,7.429,0,0,0,10.465,0A7.43,7.43,0,0,0-2867.528,2570.524Zm32.824-84.31a7.428,7.428,0,0,0-10.464,0,7.428,7.428,0,0,0,0,10.465,7.437,7.437,0,0,0,8.258,1.517,7.416,7.416,0,0,0,2.206-11.982Zm118.283,84.329a7.429,7.429,0,0,0-10.464,0,7.429,7.429,0,0,0,0,10.465,7.428,7.428,0,0,0,10.464,0A7.429,7.429,0,0,0-2716.42,2570.543Zm-16.132-92.667a7.429,7.429,0,0,0-10.465,0,7.551,7.551,0,0,0,.652,11.038,7.141,7.141,0,0,0,1.821,1.056,7.241,7.241,0,0,0,7.992-1.629,7.43,7.43,0,0,0,0-10.465Zm24.841,179.965,5.169,6.859a1.166,1.166,0,0,1-1.862,1.405l-5.282-7.01c-1.128-1.238-3.486-.1-5.01.347a88.256,88.256,0,0,0-28.738,18.682c-1.46,1.471-2.019,2.527-1.531,3.274l5.093,6.9a1.163,1.163,0,0,1-1.853,1.406l-5.391-7.153c-1.3-1.727.477-4.2,1.632-5.6-4.1-5.225-9.2-7.065-14.743-9.063-12.5-4.507-19.517-10.335-27.11-21.13-4.451-6.329-7.787-17.615-7.711-25.509.079-8.173,7.242-7.809,11.054-3.4,1.669,1.931,2.886,4.91,3.673,9.251a19.943,19.943,0,0,0,1.207,4.038c.964,2.345,1.135,2.328.53-.161-.442-1.817-.736-3.7-1.083-5.53a297.459,297.459,0,0,0-10.078-37.043c-4.214-12.69,9.647-18.1,14.324-3.782,1.421,4.347,3.422,9.416,5.052,13.688a11.721,11.721,0,0,1,11.375,2.7c4.46-2.506,10.676.683,13.589,4.331,14.779-3.653,18.679,19.249,20.932,26.636,2.623,9.317,5.35,19,9.964,24.952,2.343-.708,5.083-1.367,6.8.91Zm-36.181,17.372c6.551-6.58,18.513-14.114,27.073-17.472-4.606-6.328-7.3-15.907-9.9-25.132-3.96-14.066-7.677-27.265-17.293-25.243a27.563,27.563,0,0,1,3.2,7.526,1.166,1.166,0,0,1-2.263.566,25.1,25.1,0,0,0-3.779-8.163c-2.136-2.946-6.729-5.834-10.453-4.506a34.433,34.433,0,0,1,5.557,12.116,1.165,1.165,0,0,1-2.254.584c-.977-3.753-3.079-9.219-5.8-12.027a9.6,9.6,0,0,0-9.74-2.955c1.857,4.922,3.774,10.035,5.128,14.887a1.165,1.165,0,0,1-2.245.621c-2.861-10.245-7.7-20.616-10.981-30.666-3.652-11.176-13.176-7.544-9.9,2.331a299.384,299.384,0,0,1,10.16,37.344c1.032,5.448,2.126,11.219,3.813,15.173a1.165,1.165,0,0,1-2.145.913c-.219-.512-.427-1.05-.627-1.61-.714-2-.554-1.29-1.924-2.742a14.884,14.884,0,0,1-2.1-2.9,20.346,20.346,0,0,1-2.252-6.345c-.708-3.907-1.748-6.524-3.143-8.137-2.455-2.84-6.911-3.757-6.965,1.894-.071,7.394,3.124,18.224,7.291,24.149,7.306,10.387,13.963,15.946,25.987,20.282,5.772,2.081,11.1,4,15.55,9.51Z" transform="translate(0 0)" fill="#d7e8f2"/>
  </g>
</svg>
