<svg xmlns="http://www.w3.org/2000/svg" width="112.33" height="123.445" viewBox="0 0 112.33 123.445">
  <g id="Group_10" data-name="Group 10" transform="translate(0 0)">
    <path id="Path_67" data-name="Path 67" d="M50.611,283.27s-.839-.016-1.12,0a2.647,2.647,0,0,0-.39.018,1.078,1.078,0,0,0-.937,1.025c-.018.16-.032.928-.032,1.059l.011,5.1.014,6.726s-.01.762.007,1a1.234,1.234,0,0,0,.283.7.838.838,0,0,0,.252.192,1.917,1.917,0,0,0,.626.18,10.4,10.4,0,0,0,1.286.056A45.66,45.66,0,1,1,4.952,344.99a2.476,2.476,0,0,0-4.952,0,50.591,50.591,0,1,0,52.392-50.564v-6.158a56.758,56.758,0,0,1-1.779,113.488,2.476,2.476,0,0,0,0,4.952,61.719,61.719,0,1,0,0-123.437" transform="translate(0 -283.263)" fill="#d83290"/>
    <path id="Path_68" data-name="Path 68" d="M59.968,402.929a39.529,39.529,0,0,0,38.8-32.1.631.631,0,0,0-.13-.516.65.65,0,0,0-.481-.228H82.906a.628.628,0,0,0-.594.438,23.444,23.444,0,1,1,0-14.193.624.624,0,0,0,.594.436h3.866a.625.625,0,0,0,.626-.625.61.61,0,0,0-.065-.28,28.406,28.406,0,1,0-1.166,18.487h6.576a34.548,34.548,0,1,1,1.025-18.08.621.621,0,0,0,.61.494h3.785a.624.624,0,0,0,.624-.624.643.643,0,0,0-.046-.238,39.5,39.5,0,1,0-38.773,47.028" transform="translate(-9.26 -301.66)" fill="#d83290"/>
  </g>
</svg>
