<svg id="monetize-page-icon" xmlns="http://www.w3.org/2000/svg" width="225.938" height="187.042" viewBox="0 0 225.938 187.042">
  <path id="Path_1991" data-name="Path 1991" d="M1468.825,5432.559l-.021,2.568c7.743,2.058,14.906,10.8,18.9,17.545C1484.027,5444.653,1478.08,5434.752,1468.825,5432.559ZM1360.847,5616.6a1.2,1.2,0,0,1,0-2.39h223.581a1.2,1.2,0,0,1,0,2.39Zm192.438-30.618a.238.238,0,0,1,.082-.47l11.167,1.968a.238.238,0,0,1-.082.47Zm-1.539-4.868a.238.238,0,0,1,.094-.466l11.1,2.255a.238.238,0,0,1-.093.467Zm-1.54-4.868a.238.238,0,0,1,.106-.464l11.035,2.544a.238.238,0,0,1-.106.464Zm-1.54-4.868a.238.238,0,0,1,.119-.461l10.968,2.832a.238.238,0,0,1-.12.461Zm-1.539-4.868a.239.239,0,0,1,.131-.459l10.9,3.121a.239.239,0,0,1-.131.459Zm-1.539-4.87a.239.239,0,0,1,.141-.456l10.834,3.41a.239.239,0,0,1-.142.457Zm-1.541-4.869a.239.239,0,0,1,.155-.451l10.768,3.7a.239.239,0,0,1-.155.453Zm-1.539-4.869a.238.238,0,0,1,.166-.447l10.7,3.987a.238.238,0,0,1-.166.446Zm-1.539-4.868a.239.239,0,0,1,.177-.443l10.635,4.276a.239.239,0,0,1-.178.443Zm-1.54-4.87a.239.239,0,0,1,.189-.438l10.569,4.564a.239.239,0,0,1-.188.439Zm-1.539-4.868a.239.239,0,0,1,.2-.434l10.5,4.854a.238.238,0,0,1-.2.432Zm-1.539-4.87a.238.238,0,0,1,.211-.427l10.436,5.141a.239.239,0,0,1-.211.428Zm-1.538-4.869a.238.238,0,0,1,.22-.422l10.37,5.431a.238.238,0,0,1-.22.422Zm-1.539-4.872a.237.237,0,0,1,.231-.415l10.3,5.719a.238.238,0,0,1-.232.416Zm-1.539-4.869a.238.238,0,0,1,.241-.41l10.236,6.007a.238.238,0,0,1-.241.411Zm-1.538-4.87a.238.238,0,0,1,.25-.4l10.17,6.3a.238.238,0,0,1-.251.4Zm-1.538-4.869a.238.238,0,0,1,.26-.4l10.1,6.586a.238.238,0,0,1-.26.4Zm-1.538-4.87a.239.239,0,0,1,.269-.395l10.037,6.875a.238.238,0,0,1-.269.394Zm-1.538-4.871a.238.238,0,0,1,.278-.386l9.97,7.162a.239.239,0,0,1-.278.388Zm-1.538-4.869a.239.239,0,0,1,.286-.382l9.9,7.453a.237.237,0,0,1-.286.379Zm-1.538-4.871a.238.238,0,0,1,.3-.375l9.838,7.739a.239.239,0,0,1-.3.377Zm-1.537-4.871a.238.238,0,0,1,.3-.367l9.771,8.028a.238.238,0,0,1-.3.367Zm-4.662-2.722a.715.715,0,0,1,1.367-.419l32.131,104.319a.715.715,0,0,1-1.366.419Zm-123.336,105.616a.239.239,0,0,1,.082.47l-11.441,2.009a.239.239,0,0,1-.082-.47Zm1.641-4.97a.238.238,0,0,1,.093.467l-11.378,2.3a.237.237,0,0,1-.093-.465Zm1.64-4.971a.238.238,0,0,1,.106.464l-11.314,2.6a.239.239,0,0,1-.106-.465Zm1.641-4.97a.238.238,0,0,1,.117.461l-11.251,2.894a.237.237,0,0,1-.117-.459Zm1.64-4.97a.238.238,0,0,1,.13.458l-11.188,3.189a.239.239,0,0,1-.131-.459Zm1.641-4.97a.238.238,0,0,1,.142.455l-11.125,3.483a.238.238,0,0,1-.142-.455Zm1.641-4.97a.239.239,0,0,1,.153.452l-11.061,3.778a.239.239,0,0,1-.153-.452Zm1.641-4.97a.239.239,0,0,1,.165.448l-11,4.072a.238.238,0,0,1-.164-.448Zm1.641-4.971a.239.239,0,0,1,.175.444l-10.935,4.366a.237.237,0,0,1-.176-.44Zm1.641-4.97a.239.239,0,0,1,.187.439l-10.872,4.664a.239.239,0,0,1-.187-.439Zm1.641-4.968a.238.238,0,0,1,.2.433l-10.809,4.958a.238.238,0,0,1-.2-.433Zm1.641-4.97a.238.238,0,0,1,.209.427l-10.746,5.254a.238.238,0,0,1-.209-.428Zm1.642-4.971a.24.24,0,0,1,.321.1.238.238,0,0,1-.1.321l-10.683,5.548a.238.238,0,0,1-.218-.422Zm1.641-4.968a.238.238,0,0,1,.23.418l-10.62,5.844a.239.239,0,0,1-.229-.42Zm1.642-4.969a.239.239,0,1,1,.239.413l-10.556,6.138a.239.239,0,0,1-.239-.414Zm1.642-4.969a.238.238,0,0,1,.248.407l-10.493,6.433a.238.238,0,0,1-.248-.407Zm1.641-4.97a.239.239,0,0,1,.258.4l-10.43,6.729a.239.239,0,0,1-.258-.4Zm1.642-4.968a.238.238,0,0,1,.267.4l-10.367,7.021a.238.238,0,0,1-.267-.394Zm1.642-4.969a.238.238,0,0,1,.276.389l-10.3,7.317a.239.239,0,0,1-.276-.389Zm1.643-4.968a.239.239,0,0,1,.284.383l-10.24,7.612a.238.238,0,0,1-.283-.383Zm1.642-4.969a.238.238,0,0,1,.292.376l-10.177,7.907a.239.239,0,0,1-.293-.376Zm1.643-4.968a.238.238,0,0,1,.3.369l-10.114,8.2a.239.239,0,0,1-.3-.371Zm3.344-2.847a.716.716,0,0,1,1.36.447l-35.078,106.573a.717.717,0,0,1-1.361-.448Zm109.221,109.5a1.191,1.191,0,0,1,.373,2.352l-14.154,2.26a1.191,1.191,0,0,1-.373-2.353Zm6.179,6.167a1.19,1.19,0,0,1,2.277-.691l4.582,14.973a1.19,1.19,0,0,1-2.277.69Zm23.8,3.645a1.194,1.194,0,0,1,2.249-.8l4.078,11.391a1.194,1.194,0,0,1-2.25.8Zm-70.682-119.5,9.063-11.405c1.083-1.394,1.489-.975,2.5-.076q10.96,9.265,21.92,18.533c1.651,1.4,1.443,1.138,2.188,3.168l37.083,100.929c.359,1,1.043,2.244.436,3.292-.435.75-1.462.673-3.581.381l-23.91-3.293-35.916-120.008-9.015,11.344,21.168,89.951c1.318,4.554-2.006,2.333-3.843,1.2-12.217-7.572-34.9-11.5-49.142-12.334-3.272-.192-5.475-.06-5.388-4.166l3.572-119.344-2.913-3.551-14.941,139.107,12.688,2.453c1.009.141,1.3.089,1.344-.888l.438-10.642a1.191,1.191,0,0,1,2.38.094c-.147,3.643-.309,7.289-.438,10.931-.1,2.738-.963,3.466-3.89,2.9-4.59-.888-8.9-1.718-13.486-2.605l-13.376,11.485c-1.9,1.594-3.655.236-3.225-1.93l17.5-102.592-.062.049-9.041-11.463-36.014,118.021,27.775,5.45a1.193,1.193,0,0,1-.458,2.342l-28.882-5.666-21.757,3a26.477,26.477,0,0,1-2.764.323c-2.931.091-2.551-1.4-1.676-3.548l38.491-103.122q11.392-9.587,22.785-19.17c2.118-1.645,2.021-2.159,3.912.312l8.213,10.414,2.534-14.851,9.544-33.627a1.387,1.387,0,0,1,2.583-.3l2.841,3.461.067-2.24c.072-1.377.6-1.714,1.608-1.507,19.058,4.11,26.566,32.7,31.077,49.2Zm32.949,9.724-20.384-17.236,34.983,116.89,21.487,2.961c2.222.305,1.786.477,1.11-1.258l-37.2-101.358Zm-103.663,111.232a1.192,1.192,0,0,1,2.352.391l-1.522,9.039a1.192,1.192,0,0,1-2.352-.391Zm-28.836-5.256a1.194,1.194,0,0,1,2.3.654l-4.081,14.3a1.194,1.194,0,0,1-2.3-.655ZM1375.8,5597.9a1.194,1.194,0,0,1,2.23.85l-4.3,11.235a1.193,1.193,0,0,1-2.231-.849Zm60.437-9.483a1.193,1.193,0,0,1,2.361.344l-3.12,20.869a1.193,1.193,0,0,1-2.361-.346Zm19.4-8.021a1.193,1.193,0,0,1,2.38.169l-2.082,29.217a1.193,1.193,0,0,1-2.38-.169Zm-18.994-108.685-20.487,17.239L1378.6,5589.674c-.526,1.536-1.132,2.332,1.174,1.94l21.2-3.014Zm80.345,106.239a1.193,1.193,0,0,1,2.333-.494l6.785,31.989a1.193,1.193,0,0,1-2.333.5Zm-15.072-6.5a1.19,1.19,0,0,1,2.361-.3l4.905,38.387a1.19,1.19,0,0,1-2.362.3Zm-14.655-3.737a1.193,1.193,0,0,1,2.38-.159c.938,14.008,1.753,28.023,2.691,42.031a1.193,1.193,0,0,1-2.38.158C1489.01,5595.735,1488.195,5581.72,1487.256,5567.712Zm-18.867-3.227a1.19,1.19,0,0,1,2.38,0l-.143,45.1a1.19,1.19,0,0,1-2.38,0Zm.4-128.87-.059,4.9c9.433,2.3,18.675,13.983,23.033,22.305q-.944-2.67-1.928-5.144C1486.038,5449.681,1477.658,5438.053,1468.789,5435.616Zm-.073,5.388-.155,5.171c10.161,2.273,20.884,14.617,25.506,23.585q-.353-1.129-.71-2.23C1489.955,5458.1,1478.881,5443.555,1468.716,5441Zm-.169,5.656-.155,5.175c10.615,2.184,22.57,14.588,27.47,23.927q-.278-.97-.558-1.92h0C1492.127,5463.989,1479.045,5449.071,1468.546,5446.66Zm-.17,5.658-.155,5.177c10.932,2.068,23.93,14.227,29.166,23.767q-.326-1.214-.655-2.4l-.005,0C1493.174,5468.886,1479.082,5454.57,1468.377,5452.318Zm-.17,5.66-.155,5.179c11.213,1.953,25.205,13.823,30.759,23.532q-.386-1.507-.774-2.986C1493.967,5473.668,1479.117,5460.083,1468.207,5457.978Zm-.169,5.66-.155,5.181c11.457,1.837,26.372,13.356,32.258,23.177q-.4-1.625-.8-3.213C1494.917,5478.665,1479.137,5465.6,1468.038,5463.637Zm-.169,5.661-.156,5.182c11.682,1.724,27.48,12.865,33.7,22.771q-.411-1.729-.822-3.422C1495.783,5483.656,1479.152,5471.135,1467.868,5469.3Zm-.17,5.662-.155,5.183c11.881,1.611,28.475,12.317,35.073,22.242q-.409-1.757-.816-3.487C1496.634,5488.683,1479.156,5476.673,1467.7,5474.96Zm-.169,5.663-.156,5.185c12.077,1.5,29.481,11.8,36.431,21.744q-.424-1.861-.846-3.688C1497.334,5493.653,1479.17,5482.223,1467.53,5480.624Zm-.17,5.664-.155,5.185c12.265,1.4,30.43,11.258,37.758,21.186q-.425-1.89-.848-3.751C1498.107,5498.7,1479.167,5487.775,1467.36,5486.288Zm-.17,5.663-.155,5.188c12.445,1.3,31.349,10.716,39.066,20.594q-.431-1.926-.857-3.823C1498.815,5503.743,1479.167,5493.335,1467.19,5491.951Zm-.169,5.664-.155,5.189c12.615,1.211,32.33,10.222,40.382,20.065q-.447-2-.888-3.976C1499.489,5508.79,1479.171,5498.9,1467.021,5497.615Zm-.169,5.667-.156,5.188c12.806,1.122,33.081,9.624,41.645,19.3q-.427-1.908-.847-3.8C1500.279,5513.912,1479.152,5504.47,1466.851,5503.281Zm-.17,5.666-.156,5.189c12.978,1.035,34,9.119,42.945,18.686q-.457-2.035-.906-4.046C1500.733,5518.9,1479.2,5510.051,1466.682,5508.947Zm-.17,5.665-.155,5.19c13.149.953,34.94,8.628,44.254,18.08q-.466-2.06-.924-4.1C1501.442,5524.02,1479.2,5515.632,1466.512,5514.612Zm-.169,5.668-.156,5.19c13.328.873,35.844,8.127,45.562,17.425q-.47-2.058-.932-4.1C1502.186,5529.162,1479.188,5521.214,1466.342,5520.28Zm-.17,5.667-.155,5.19c13.5.8,36.79,7.647,46.888,16.785q-.483-2.087-.957-4.157C1502.88,5534.3,1479.2,5526.8,1466.173,5525.947Zm-.17,5.667-.155,5.19c13.721.725,37.6,7.128,48.2,16.013q-.479-2.036-.948-4.058c-9.469-9.3-33.9-16.366-47.1-17.146Zm-.169,5.668-.155,5.191c13.852.651,38.771,6.721,49.6,15.51q-.526-2.2-1.04-4.375c-10.033-9.034-34.975-15.616-48.4-16.327Zm-.17,5.666-.155,5.193c14.027.58,39.818,6.271,50.986,14.881q-.522-2.136-1.032-4.259c-10.226-8.941-36.262-15.177-49.8-15.815Zm-.169,5.668-.156,5.192c14.284.514,40.824,4.908,52.294,13.821q-.481-1.931-.952-3.849c-10.574-8.753-37.484-14.595-51.186-15.164Zm-.17,5.669-.075,2.512c-.036,1.922,1.765,1.64,3.138,1.719,14.539.853,36.066,4.638,48.865,11.865,1.328.638,1.124.217.572-1.989C1506.848,5559.281,1479.36,5554.791,1465.324,5554.286Zm-19.174,19.027,14.031-130.64-6.266,22.079-20.368,119.382,12.6-10.822Z" transform="translate(-1359.669 -5429.558)" fill="#b3d0e1"/>
</svg>
