<svg xmlns="http://www.w3.org/2000/svg" width="166" height="137.422" viewBox="0 0 166 137.422">
  <g id="Monetize-icon" transform="translate(0)">
    <path id="Path_1991" data-name="Path 1991" d="M1439.867,5431.763l-.015,1.887c5.689,1.512,10.952,7.933,13.884,12.891C1451.037,5440.648,1446.667,5433.375,1439.867,5431.763Zm-79.333,135.218a.878.878,0,0,1,0-1.756H1524.8a.878.878,0,0,1,0,1.756Zm141.387-22.5a.175.175,0,0,1,.06-.345l8.2,1.446a.175.175,0,0,1-.06.345Zm-1.131-3.577a.175.175,0,0,1,.069-.342l8.156,1.657a.175.175,0,0,1-.068.343Zm-1.131-3.576a.175.175,0,0,1,.078-.341l8.107,1.869a.175.175,0,0,1-.078.341Zm-1.131-3.577a.175.175,0,0,1,.088-.338l8.058,2.081a.175.175,0,0,1-.088.339Zm-1.131-3.576a.175.175,0,0,1,.1-.337l8.009,2.293a.175.175,0,0,1-.1.337Zm-1.131-3.578a.175.175,0,0,1,.1-.335l7.96,2.505a.176.176,0,0,1-.1.335Zm-1.132-3.577a.175.175,0,0,1,.114-.332l7.911,2.717a.176.176,0,0,1-.114.333Zm-1.131-3.578a.175.175,0,0,1,.122-.328l7.863,2.93a.175.175,0,0,1-.122.328Zm-1.13-3.577a.175.175,0,0,1,.13-.325l7.814,3.142a.175.175,0,0,1-.131.326Zm-1.131-3.578a.175.175,0,0,1,.139-.322l7.765,3.354a.176.176,0,0,1-.138.323Zm-1.131-3.577a.176.176,0,0,1,.147-.319l7.716,3.566a.175.175,0,0,1-.147.317Zm-1.131-3.578a.175.175,0,0,1,.155-.314l7.667,3.777a.175.175,0,0,1-.155.314Zm-1.13-3.578a.175.175,0,0,1,.162-.31l7.619,3.99a.175.175,0,0,1-.162.311Zm-1.13-3.579a.174.174,0,0,1,.17-.3l7.57,4.2a.175.175,0,0,1-.17.306Zm-1.13-3.577a.175.175,0,0,1,.177-.3l7.521,4.414a.175.175,0,0,1-.177.3Zm-1.13-3.578a.175.175,0,0,1,.184-.3l7.472,4.626a.175.175,0,0,1-.184.3Zm-1.13-3.577a.175.175,0,0,1,.191-.294l7.423,4.839a.175.175,0,0,1-.191.293Zm-1.13-3.578a.175.175,0,0,1,.2-.29l7.374,5.051a.175.175,0,0,1-.2.289Zm-1.13-3.579a.175.175,0,0,1,.2-.284l7.325,5.262a.176.176,0,0,1-.2.285Zm-1.13-3.577a.175.175,0,0,1,.21-.281l7.277,5.476a.174.174,0,0,1-.21.279Zm-1.13-3.579a.175.175,0,0,1,.217-.275l7.228,5.686a.176.176,0,0,1-.217.277Zm-1.129-3.579a.175.175,0,0,1,.222-.27l7.179,5.9a.175.175,0,0,1-.222.27Zm-3.425-2a.525.525,0,0,1,1-.308l23.607,76.645a.525.525,0,0,1-1,.308Zm-90.617,77.6a.175.175,0,0,1,.06.345l-8.406,1.477a.175.175,0,0,1-.06-.346Zm1.206-3.651a.175.175,0,0,1,.068.343l-8.359,1.692a.174.174,0,0,1-.068-.342Zm1.2-3.652a.175.175,0,0,1,.078.341l-8.313,1.911a.175.175,0,0,1-.078-.342Zm1.206-3.652a.175.175,0,0,1,.086.339l-8.266,2.126a.174.174,0,0,1-.086-.338Zm1.2-3.651a.175.175,0,0,1,.1.337l-8.22,2.343a.175.175,0,0,1-.1-.337Zm1.206-3.651a.175.175,0,0,1,.1.334l-8.174,2.559a.175.175,0,0,1-.1-.334Zm1.206-3.651a.175.175,0,0,1,.113.332l-8.127,2.776a.175.175,0,0,1-.113-.332Zm1.206-3.651a.175.175,0,0,1,.121.329l-8.081,2.992a.175.175,0,0,1-.121-.329Zm1.206-3.652a.175.175,0,0,1,.129.326l-8.034,3.208a.174.174,0,0,1-.129-.324Zm1.205-3.651a.175.175,0,0,1,.137.323l-7.988,3.426a.175.175,0,0,1-.137-.322Zm1.206-3.65a.175.175,0,0,1,.145.318l-7.941,3.643a.175.175,0,0,1-.145-.318Zm1.205-3.651a.175.175,0,0,1,.154.314l-7.9,3.86a.175.175,0,0,1-.154-.314Zm1.207-3.652a.175.175,0,0,1,.16.312l-7.849,4.076a.175.175,0,0,1-.16-.311Zm1.206-3.65a.175.175,0,0,1,.169.307l-7.8,4.293a.176.176,0,0,1-.168-.309Zm1.206-3.651a.175.175,0,1,1,.175.3l-7.756,4.51a.175.175,0,0,1-.176-.3Zm1.207-3.651a.175.175,0,0,1,.182.3l-7.709,4.726a.175.175,0,0,1-.182-.3Zm1.206-3.651a.176.176,0,0,1,.19.3l-7.663,4.943a.175.175,0,0,1-.189-.3Zm1.207-3.65a.175.175,0,0,1,.2.291l-7.616,5.158a.175.175,0,0,1-.2-.289Zm1.206-3.65a.175.175,0,0,1,.2.286l-7.57,5.376a.175.175,0,0,1-.2-.286Zm1.207-3.65a.175.175,0,0,1,.209.282l-7.524,5.592a.175.175,0,0,1-.208-.281Zm1.207-3.651a.175.175,0,0,1,.215.276l-7.477,5.81a.175.175,0,0,1-.215-.277Zm1.207-3.65a.175.175,0,0,1,.221.271l-7.431,6.027a.175.175,0,0,1-.221-.272Zm2.457-2.092a.526.526,0,0,1,1,.329l-25.772,78.3a.526.526,0,0,1-1-.329Zm80.246,80.448a.875.875,0,0,1,.274,1.728l-10.4,1.661a.875.875,0,0,1-.274-1.729Zm4.54,4.531a.874.874,0,0,1,1.673-.508l3.366,11a.874.874,0,0,1-1.673.507Zm17.483,2.678a.877.877,0,0,1,1.653-.59l3,8.369a.877.877,0,0,1-1.653.589Zm-51.931-87.8,6.659-8.379c.8-1.024,1.094-.716,1.838-.056q8.053,6.807,16.105,13.617a3.438,3.438,0,0,1,1.608,2.328l27.245,74.154c.264.732.767,1.649.32,2.418-.32.551-1.074.495-2.631.28l-17.567-2.419-26.388-88.172-6.623,8.334,15.552,66.088c.968,3.346-1.474,1.714-2.823.878-8.976-5.563-25.645-8.451-36.1-9.062-2.4-.141-4.023-.044-3.958-3.061l2.625-87.683-2.141-2.609L1425,5534.907l9.322,1.8c.741.1.952.065.988-.652l.322-7.819a.875.875,0,0,1,1.749.069c-.108,2.676-.227,5.355-.322,8.031-.072,2.012-.707,2.547-2.858,2.131-3.373-.653-6.535-1.263-9.908-1.915l-9.827,8.438c-1.4,1.171-2.685.174-2.369-1.417l12.86-75.376-.046.036-6.642-8.422-26.46,86.712,20.406,4a.877.877,0,0,1-.336,1.721l-21.22-4.163-15.985,2.2a19.483,19.483,0,0,1-2.031.237c-2.154.067-1.874-1.031-1.231-2.606l28.28-75.765q8.37-7.044,16.74-14.085c1.556-1.208,1.485-1.586,2.874.229l6.034,7.651,1.862-10.911,7.012-24.706a1.019,1.019,0,0,1,1.9-.224l2.087,2.543.049-1.646c.052-1.012.443-1.259,1.181-1.107,14,3.02,19.518,24.023,22.833,36.15Zm24.208,7.144-14.976-12.663,25.7,85.88,15.787,2.176c1.633.224,1.312.35.815-.924l-27.329-74.469Zm-76.162,81.724a.876.876,0,0,1,1.728.288l-1.118,6.641a.876.876,0,0,1-1.728-.287Zm-21.186-3.862a.877.877,0,0,1,1.687.48l-3,10.51a.877.877,0,0,1-1.687-.481Zm-17.6,2.187a.877.877,0,0,1,1.639.625l-3.159,8.254a.877.877,0,0,1-1.639-.624Zm44.4-6.968a.877.877,0,0,1,1.735.253l-2.292,15.333a.877.877,0,0,1-1.735-.254Zm14.253-5.893a.877.877,0,0,1,1.749.124l-1.53,21.466a.876.876,0,0,1-1.748-.124Zm-13.955-79.852-15.052,12.666-27.593,74c-.386,1.129-.832,1.713.863,1.425l15.576-2.214Zm59.03,78.056a.876.876,0,0,1,1.714-.363l4.985,23.5a.876.876,0,0,1-1.714.364Zm-11.074-4.775a.874.874,0,0,1,1.735-.219l3.6,28.2a.875.875,0,0,1-1.735.219Zm-10.767-2.746a.876.876,0,0,1,1.749-.117c.689,10.292,1.288,20.589,1.977,30.881a.876.876,0,0,1-1.749.116C1454.7,5551.65,1454.1,5541.354,1453.409,5531.062Zm-13.862-2.371a.874.874,0,0,1,1.748,0l-.1,33.139a.874.874,0,0,1-1.749,0Zm.294-94.683-.043,3.6c6.931,1.689,13.721,10.273,16.922,16.388q-.694-1.962-1.416-3.779C1452.514,5444.343,1446.357,5435.8,1439.841,5434.009Zm-.054,3.959-.114,3.8c7.465,1.67,15.344,10.739,18.74,17.329q-.259-.83-.521-1.639C1455.392,5450.528,1447.255,5439.842,1439.787,5437.968Zm-.125,4.156-.114,3.8c7.8,1.6,16.583,10.718,20.183,17.58q-.2-.713-.41-1.411h0C1456.988,5454.855,1447.376,5443.895,1439.663,5442.124Zm-.125,4.157-.114,3.8c8.032,1.52,17.582,10.453,21.429,17.462q-.24-.892-.481-1.767h0C1457.757,5458.453,1447.4,5447.935,1439.538,5446.28Zm-.125,4.158-.114,3.805c8.239,1.435,18.519,10.156,22.6,17.289q-.283-1.107-.569-2.194C1458.34,5461.967,1447.429,5451.986,1439.413,5450.438Zm-.125,4.158-.114,3.806c8.418,1.35,19.376,9.813,23.7,17.029q-.293-1.194-.587-2.361C1459.038,5465.638,1447.444,5456.042,1439.289,5454.6Zm-.124,4.159-.114,3.808c8.583,1.266,20.19,9.452,24.758,16.73q-.3-1.27-.6-2.514C1459.674,5469.3,1447.455,5460.105,1439.165,5458.756Zm-.125,4.16-.114,3.808c8.729,1.184,20.921,9.049,25.769,16.341q-.3-1.291-.6-2.562C1460.3,5473,1447.458,5464.174,1439.04,5462.916Zm-.124,4.161-.114,3.809c8.873,1.106,21.66,8.668,26.767,15.976q-.312-1.367-.622-2.71C1460.813,5476.649,1447.468,5468.252,1438.916,5467.077Zm-.125,4.162-.114,3.81c9.011,1.031,22.358,8.271,27.741,15.565q-.312-1.389-.623-2.756C1461.381,5480.359,1447.466,5472.331,1438.791,5471.238Zm-.125,4.161-.114,3.812c9.143.958,23.032,7.873,28.7,15.13q-.316-1.415-.63-2.809C1461.9,5484.063,1447.466,5476.416,1438.666,5475.4Zm-.124,4.162-.114,3.813c9.269.89,23.753,7.51,29.669,14.742q-.328-1.471-.652-2.921C1462.4,5487.771,1447.469,5480.506,1438.542,5479.561Zm-.125,4.163-.114,3.812c9.409.824,24.305,7.071,30.6,14.177q-.313-1.4-.623-2.79C1462.977,5491.534,1447.455,5484.6,1438.417,5483.724Zm-.125,4.163-.114,3.813c9.535.76,24.98,6.7,31.552,13.729q-.336-1.495-.665-2.973C1463.311,5495.2,1447.487,5488.7,1438.292,5487.887Zm-.125,4.162-.114,3.813c9.661.7,25.671,6.339,32.514,13.284q-.342-1.514-.679-3.014C1463.832,5498.96,1447.486,5492.8,1438.168,5492.049Zm-.125,4.164-.114,3.813c9.792.642,26.335,5.971,33.475,12.8q-.345-1.512-.685-3.01C1464.378,5502.739,1447.481,5496.9,1438.043,5496.213Zm-.125,4.164-.114,3.813c9.921.584,27.03,5.619,34.449,12.332q-.355-1.534-.7-3.054C1464.888,5506.512,1447.487,5501.006,1437.919,5500.376Zm-.125,4.164-.114,3.813c10.081.533,27.623,5.237,35.414,11.765q-.352-1.5-.7-2.981c-6.957-6.833-24.908-12.024-34.6-12.6Zm-.125,4.165-.114,3.814c10.177.479,28.485,4.938,36.439,11.4q-.386-1.613-.764-3.214c-7.371-6.637-25.7-11.474-35.561-12Zm-.125,4.163-.114,3.815c10.306.426,29.255,4.607,37.46,10.933q-.383-1.569-.759-3.129c-7.513-6.569-26.642-11.151-36.587-11.62Zm-.125,4.165-.114,3.814c10.494.378,29.994,3.606,38.421,10.155q-.353-1.419-.7-2.828c-7.769-6.431-27.54-10.723-37.607-11.141Zm-.125,4.165-.055,1.846c-.026,1.413,1.3,1.205,2.306,1.263,10.682.626,26.5,3.407,35.9,8.717.976.469.826.159.42-1.461C1467.8,5524.867,1447.608,5521.568,1437.3,5521.2Zm-14.087,13.979,10.308-95.982-4.6,16.221-14.964,87.712,9.26-7.951Z" transform="translate(-1359.669 -5429.558)" fill="#333"/>
  </g>
</svg>
