<svg xmlns="http://www.w3.org/2000/svg" width="209.934" height="117.998" viewBox="0 0 209.934 117.998">
  <g id="Strategize-icon" transform="translate(-6309.332 -5980.439)">
    <path id="Path_2002" data-name="Path 2002" d="M6504.96,6007.6a4.151,4.151,0,1,0,0,5.87A4.167,4.167,0,0,0,6504.96,6007.6Zm-108.15,29.338a4.665,4.665,0,0,1,1.181-1.065.671.671,0,0,1,.7,1.145,3.365,3.365,0,0,0-.979.958,6.6,6.6,0,0,1,3.6,5.349c4.62,5.989,11.4,4.213,10.992,1.114-.16-1.206-2.567-3.679-3.179-4.426a64.037,64.037,0,0,1-5.046-6.831c-2.143-.713-8.248-2.764-10.154-2.764-1.654,0-2.969.042-4.189.1,2.759,1.729,5.127,3.3,7.077,6.415Zm-19.8,7.335a.671.671,0,0,1,1.193.615,2.4,2.4,0,0,0,.7,2.882.671.671,0,0,1-.778,1.093A3.745,3.745,0,0,1,6377.014,6044.279Zm12.861-4.315a.672.672,0,0,1,.158,1.334c-2.1.254-1.924,4.135.056,5a4.944,4.944,0,0,0,4.1-.465.67.67,0,0,1,.62,1.187,6.207,6.207,0,0,1-5.254.507C6386.583,6046.231,6386.034,6040.43,6389.875,6039.964Zm-35.214,27.708c1.193,3.608,7.549,1.626,9.614-.58-1.26-1.85-.93-4.131-.033-6.053C6361.01,6063.193,6358,6065.685,6354.661,6067.671Zm11.254.94c-3.171,3.4-10.858,5.157-13.227.147-13.529,6.845-24.445-.391-37.827-.391a1.12,1.12,0,0,1,0-2.24c17.355,0,23.433,8.044,38.486-.439,5.89-3.319,10.632-7.974,17.07-10.5,7.729-3.037,18.281-3.024,24.92-7,2.328-1.394,4.629-3.539,3.42-6.088-1.322-2.785-5.511-3.614-8.154-3.614a51.2,51.2,0,0,0-15.837,2.626,70.886,70.886,0,0,1-9.365,2.226c-4.086.613-11.567-1.314-11.9-6.324a1.119,1.119,0,0,1,2.232-.148c.226,3.392,6.312,4.532,8.972,4.3-.3-3.321-1.1-7-4.5-8.489a.67.67,0,0,1,.536-1.229c3.912,1.707,4.952,5.662,5.295,9.521q1.13-.2,2.252-.443c3.044-1.022,2.153-5.43,6.332-7.866a.671.671,0,0,1,.672,1.161c-2.858,1.666-2.632,3.632-4.04,5.97.982-.267,1.941-.546,2.9-.825a53.142,53.142,0,0,1,16.458-2.722,16.594,16.594,0,0,1,3.134.29,22.478,22.478,0,0,0-5.581-4.354c-.711-.444-1.448-.9-2.2-1.4-.563.04-1.177.081-1.893.123-2.043.124-7.561-.287-8.671-2.274a1.117,1.117,0,0,1,1.952-1.085c.461.824,5.592,1.188,6.588,1.128,2.71-.163,5.4-.411,8.118-.469.816-.052,1.076-1.4,1.082-2.031a.67.67,0,0,1,1.339.01,4.5,4.5,0,0,1-.459,2c2.4.1,7.407,1.79,9.919,2.605.857.278,1.968.82,2.865.426a2.058,2.058,0,0,0,1.02-1.008.67.67,0,0,1,1.218.557,3.463,3.463,0,0,1-1.157,1.377c2.87.913,8.4,3.115,10.944,2.873a4,4,0,0,0,1.827-7.5c-2.21-1.39-5.644-2.372-8.192-3.233-8.4-2.842-16.822-6.14-25.664-7.027-11.417-1.146-27.354-2.207-37.1,3.924-10.453,6.573-22.83,13.762-35.057,16.009a1.117,1.117,0,0,1-.4-2.2c11.875-2.183,24.11-9.314,34.269-15.7,10.286-6.468,26.5-5.462,38.512-4.256,9.04.907,17.583,4.228,26.163,7.131,2.747.929,6.258,1.948,8.664,3.46a6.233,6.233,0,0,1-2.807,11.614c-3.153.3-8.217-1.832-11.478-2.856.953,1.31,2.08,2.733,3.1,3.988,1.141,1.4,3.576,3.814,3.894,5.714.818,4.876-7.556,8.426-13.874,1.934a8.241,8.241,0,0,1-1.629,2.181c-1.209,4.88-4.441,12.038-9,14.714-2.606,1.529-6.359,1.36-8.431-1.007-3.205,3.162-9.783,9.348-14.88,7.131a7.006,7.006,0,0,1-.827-.424Zm4.334-10.978a10.458,10.458,0,0,0-3.663,3.478c-1.334,2.17-1.6,4.726,1.048,5.876,4.039,1.756,10.435-4.708,13.055-7.3a9.952,9.952,0,0,1,1.123-5.183c-3.663.719-8.261,1.617-11.562,3.132Zm14.475-3.7c-.718.991-2.007,3.638-1.847,5.392.233,2.549,4.078,2.816,6.046,1.66,3.352-1.967,5.908-7.094,7.144-10.615C6392.571,6052.321,6388.616,6053.174,6384.724,6053.933Zm-16.046-28.173a.671.671,0,0,1,1.162-.672c1.659,2.874.529,5.864-1.035,8.5a.671.671,0,0,1-1.156-.683C6368.933,6030.741,6370.058,6028.149,6368.678,6025.76Zm82.216,61.439a3.927,3.927,0,1,1,5.552,0A3.942,3.942,0,0,1,6450.894,6087.2Zm1.584-1.584a1.686,1.686,0,1,0,0-2.385A1.692,1.692,0,0,0,6452.479,6085.615Zm62.221-2.392a5.023,5.023,0,1,1,7.1,0A5.043,5.043,0,0,1,6514.7,6083.223Zm1.584-1.584a2.782,2.782,0,1,0,0-3.934A2.793,2.793,0,0,0,6516.284,6081.639Zm-48.594,15.654a3.927,3.927,0,1,1,5.553,0A3.942,3.942,0,0,1,6467.69,6097.292Zm1.584-1.584a1.686,1.686,0,1,0,0-2.384A1.693,1.693,0,0,0,6469.274,6095.708Zm28.394-104.032a3.927,3.927,0,1,1-5.553,0A3.941,3.941,0,0,1,6497.668,5991.677Zm-1.584,1.584a1.686,1.686,0,1,0,0,2.384A1.691,1.691,0,0,0,6496.084,5993.261Zm-61.415,2.347a5.023,5.023,0,1,1-7.1,0A5.042,5.042,0,0,1,6434.669,5995.608Zm-1.584,1.584a2.782,2.782,0,1,0,0,3.934,2.793,2.793,0,0,0,0-3.934Zm47.788-15.61a3.927,3.927,0,1,1-5.554,0A3.943,3.943,0,0,1,6480.873,5981.583Zm-1.584,1.584a1.686,1.686,0,1,0,0,2.384A1.693,1.693,0,0,0,6479.288,5983.167ZM6488,6025.9l9.344-11.005a6.407,6.407,0,0,1-.952-7.38l-16.453-6.681a6.405,6.405,0,0,1-8.219,4.065l-3.361,6.416a5.392,5.392,0,0,1,2.361,2.716l9.982-1.819a4.123,4.123,0,1,1,4.632,3.93l-.2,8.76a6.368,6.368,0,0,1,2.861,1Zm10.355-10.124-9.313,10.968h0a6.36,6.36,0,0,1,1.527,2.444l5.032-1.789a4.833,4.833,0,1,1,.491,1.25l-5.222,1.856a6.394,6.394,0,0,1-11.941,3.854l-6.543,2.326a6.392,6.392,0,0,1-7.014,7.783l-1.943,7.625a6.394,6.394,0,0,1,1.629,11.086l7.17,9.187a6.443,6.443,0,0,1,3.169-.021l2.424-8.3a4.848,4.848,0,1,1,5.229-8.034l6.359-4.882a6.393,6.393,0,1,1,11.027-6.463l7.054-4.4a6.4,6.4,0,0,1,4.2-7.626l-6.729-16.419a6.427,6.427,0,0,1-6.6-.445Zm-31.241-4.969,3.4-6.485a6.407,6.407,0,0,1-2.765-3.557l-16.4,6.8a6.414,6.414,0,0,1,.573,4.394l8.882,1.892a5.376,5.376,0,0,1,6.316-3.045Zm-6.692,4.338-8.942-1.905a6.4,6.4,0,0,1-8.612,3.041l-5.95,16.734a6.393,6.393,0,0,1-2.155,12.045l6.811,16.927a6.392,6.392,0,0,1,9.4,8.489l16.762,6.229a6.411,6.411,0,0,1,3.188-3.835l-7.018-8.991a6.393,6.393,0,1,1-1.776-12.117l1.935-7.6a6.4,6.4,0,0,1-3.332-2.662l-9.493,4.6a4.552,4.552,0,1,1-.643-1.179l9.55-4.63a6.437,6.437,0,0,1,.141-4.7l-6.18-3.4a6.387,6.387,0,1,1,.661-1.168l6.176,3.4a6.4,6.4,0,0,1,11.007.988l6.457-2.3a6.4,6.4,0,0,1,1.069-5.778l-9.76-7.763q-.1.1-.2.206a5.377,5.377,0,0,1-9.1-4.642Zm23.376,9.769.2-8.824a4.129,4.129,0,0,1-3.025-2.565l-9.92,1.807a5.383,5.383,0,0,1-.568,3.145l9.927,7.9A6.365,6.365,0,0,1,6483.8,6024.913Zm24.167,16.638-7,4.369a6.4,6.4,0,0,1-3.661,7.725l2.671,7.179a6.432,6.432,0,0,1,5.033.4l6.541-16.492a6.413,6.413,0,0,1-3.58-3.181Zm-17.729,10.634-6.317,4.849a4.857,4.857,0,0,1,.695,3.329l11.908,3.259a6.435,6.435,0,0,1,2.229-2.235l-2.737-7.358a6.391,6.391,0,0,1-5.7-1.763c-.026-.027-.053-.053-.078-.081Zm5.722,12.671-11.729-3.21a4.853,4.853,0,0,1-5.124,2.776l-2.448,8.381a6.406,6.406,0,0,1,3.309,3.875l16.405-6.809a6.434,6.434,0,0,1-.414-5.013Zm-47.363-18.821a2.309,2.309,0,1,0,0,3.266A2.318,2.318,0,0,0,6448.6,6046.036Zm33.069,11.748a2.607,2.607,0,1,0,0,3.687A2.617,2.617,0,0,0,6481.667,6057.784Zm4.49-47.066a1.883,1.883,0,1,0,0,2.663A1.89,1.89,0,0,0,6486.157,6010.718Zm16,13.708a2.607,2.607,0,1,0,0,3.687A2.618,2.618,0,0,0,6502.162,6024.425Zm-38.027,30.723a4.151,4.151,0,1,0,0,5.871A4.167,4.167,0,0,0,6464.135,6055.148Zm-12.3-29.6a4.151,4.151,0,1,0,0,5.871A4.168,4.168,0,0,0,6451.838,6025.546Zm11.676-11.767c-2.88,2.881,1.485,7.359,4.422,4.422C6470.841,6015.3,6466.418,6010.875,6463.514,6013.78Zm5.581,21.41a4.151,4.151,0,1,0,0,5.871A4.168,4.168,0,0,0,6469.095,6035.189Zm28.677,9.622a4.151,4.151,0,1,0,0,5.87A4.168,4.168,0,0,0,6497.772,6044.812Zm-10.312-16.483a4.151,4.151,0,1,0,0,5.871A4.168,4.168,0,0,0,6487.46,6028.328Zm-38.839,35.616a4.151,4.151,0,1,0,0,5.87A4.166,4.166,0,0,0,6448.621,6063.944Zm.6,8.261a6.394,6.394,0,0,1-9.245-8.2l-7.7-19.14a6.393,6.393,0,0,1,2.5-12.5l6.216-17.484a6.392,6.392,0,0,1,8.915-9.139l17.57-7.285c.514-7.983,12.355-7.8,12.762.082l17.62,7.155a6.392,6.392,0,0,1,8.931,9.107l7.183,17.524a6.391,6.391,0,0,1-.171,12.776l-6.968,17.568a6.392,6.392,0,0,1-9.016,9.022l-17.586,7.3a6.392,6.392,0,0,1-12.753,0l-18.257-6.784Zm49.868-8.261a4.151,4.151,0,1,0,5.871,0A4.168,4.168,0,0,0,6499.09,6063.944ZM6442.75,6007.6a4.151,4.151,0,1,0,5.87,0A4.166,4.166,0,0,0,6442.75,6007.6Zm70.943,35.255a4.151,4.151,0,0,0,0-8.3C6508.166,6034.559,6508.292,6042.86,6513.694,6042.86Zm-82.612-7.086a4.151,4.151,0,1,0,5.871,0A4.168,4.168,0,0,0,6431.082,6035.774Zm38.623,42.773a4.151,4.151,0,1,0,8.3,0C6478.006,6073.125,6469.7,6073.044,6469.7,6078.548Zm0-79.677c0,5.422,8.3,5.5,8.3,0C6478.006,5993.45,6469.7,5993.368,6469.7,5998.871Z" transform="translate(-4)" fill="#333"/>
  </g>
</svg>
