<svg id="twitter" xmlns="http://www.w3.org/2000/svg" width="20.389" height="16.565" viewBox="0 0 20.389 16.565">
  <g id="Group_4" data-name="Group 4" transform="translate(0 0)">
    <path id="Path_4" data-name="Path 4" d="M20.388,49.961a8.715,8.715,0,0,1-2.408.66,4.156,4.156,0,0,0,1.839-2.31,8.353,8.353,0,0,1-2.65,1.012,4.179,4.179,0,0,0-7.23,2.858,4.3,4.3,0,0,0,.1.953A11.831,11.831,0,0,1,1.42,48.762,4.181,4.181,0,0,0,2.7,54.348a4.128,4.128,0,0,1-1.888-.515v.046a4.2,4.2,0,0,0,3.349,4.107,4.171,4.171,0,0,1-1.1.138,3.7,3.7,0,0,1-.791-.071,4.22,4.22,0,0,0,3.906,2.912A8.4,8.4,0,0,1,1,62.747a7.828,7.828,0,0,1-1-.057,11.767,11.767,0,0,0,6.412,1.876,11.814,11.814,0,0,0,11.9-11.894c0-.185-.006-.363-.015-.54A8.338,8.338,0,0,0,20.388,49.961Z" transform="translate(0 -48)" fill="#fff"/>
  </g>
</svg>
