<svg xmlns="http://www.w3.org/2000/svg" width="269.593" height="169.771" viewBox="0 0 269.593 169.771">
  <path id="analyze-page-icon" d="M5623.546,4735.136a1.555,1.555,0,0,1-3.11,0v-30.754a6.282,6.282,0,0,1,6.268-6.267h136.882a6.28,6.28,0,0,1,6.267,6.267V4815a6.281,6.281,0,0,1-6.267,6.269H5626.7a6.284,6.284,0,0,1-6.268-6.269v-29.363a1.555,1.555,0,0,1,3.11,0V4815a3.172,3.172,0,0,0,3.158,3.156h136.882a3.17,3.17,0,0,0,3.156-3.156l-.054-89.063c0-3.225.588-2.8-2.544-2.8h-131.9a.892.892,0,1,1,.055-1.782h131.792c3.141,0,2.651.521,2.651-2.6v-14.361a3.169,3.169,0,0,0-3.156-3.156H5626.7a3.171,3.171,0,0,0-3.158,3.156v30.754Zm97.118,6.353-11.64,9.694c-.72.6-.471.334-.19,1.207a5.078,5.078,0,1,1-9.752.3c.217-.847.37-.567-.471-1.078l-10.534-6.413c-1.143-.7-.544-.606-1.469.064a5.1,5.1,0,0,1-6.564-.523c-.844-.844-.327-.841-1.594-.4l-9.544,3.327c-.892.312-.565.148-.565,1.077a5.072,5.072,0,1,1-1.152-3.233c.53.618.41.61,1.2.335l9.535-3.322c1-.349.713-.074.648-1.036a5.078,5.078,0,1,1,9.974.968c-.237.891-.414.594.475,1.134l10.542,6.418c1.01.615.547.547,1.313-.051a5.105,5.105,0,0,1,5.862-.287c.782.5.445.632,1.21,0l11.571-9.637c.721-.6.486-.33.146-1.178a5.077,5.077,0,1,1,2.186,2.513c-.754-.432-.436-.5-1.182.125Zm5.979-6.8a3.211,3.211,0,1,0,0,4.541A3.224,3.224,0,0,0,5726.643,4734.688Zm-20.37,16.99a3.211,3.211,0,1,0,0,4.542A3.227,3.227,0,0,0,5706.273,4751.679Zm-20.369-12.8a3.212,3.212,0,1,0,0,4.542A3.224,3.224,0,0,0,5685.9,4738.877Zm-20.371,7.6a3.209,3.209,0,1,0,.941,2.271,3.223,3.223,0,0,0-.941-2.271Zm53.838,56.977a.933.933,0,0,1-1.866,0v-46.274a3.611,3.611,0,0,1,3.6-3.6h6.529a3.612,3.612,0,0,1,3.6,3.6v46.274a.933.933,0,0,1-1.866,0v-46.274a1.746,1.746,0,0,0-1.736-1.737h-6.529a1.744,1.744,0,0,0-1.736,1.737Zm-20.37,0a.933.933,0,0,1-1.867,0v-28a3.611,3.611,0,0,1,3.6-3.6h6.526a3.611,3.611,0,0,1,3.6,3.6v28a.933.933,0,0,1-1.867,0v-28a1.744,1.744,0,0,0-1.738-1.736h-6.526a1.744,1.744,0,0,0-1.737,1.736Zm-20.369,0a.934.934,0,0,1-1.868,0v-38.929a3.612,3.612,0,0,1,3.6-3.6h6.529a3.611,3.611,0,0,1,3.6,3.6v38.929a.932.932,0,0,1-1.865,0v-38.929a1.745,1.745,0,0,0-1.737-1.736h-6.529a1.743,1.743,0,0,0-1.735,1.736v38.929Zm-20.37,0a.934.934,0,0,1-1.867,0v-31.58a3.613,3.613,0,0,1,3.6-3.605h6.528a3.614,3.614,0,0,1,3.6,3.605v31.58a.933.933,0,0,1-1.867,0v-31.58a1.744,1.744,0,0,0-1.737-1.737H5660a1.744,1.744,0,0,0-1.736,1.737Zm-141.323,23.9a1.555,1.555,0,0,1,0-3.11h7.188a1.555,1.555,0,0,1,0,3.11Zm49.812-8.743a1.555,1.555,0,0,1,0-3.11h4.05a1.555,1.555,0,0,1,0,3.11Zm-15.678,26.2a1.555,1.555,0,0,1,0-3.11h14.965a1.555,1.555,0,0,1,0,3.11Zm0-8.728a1.556,1.556,0,0,1,0-3.112h9.327a1.556,1.556,0,0,1,0,3.112Zm0-8.729a1.555,1.555,0,0,1,0-3.11h15.293a1.555,1.555,0,0,1,0,3.11Zm0-8.729a1.555,1.555,0,0,1,0-3.11h9.491a1.555,1.555,0,0,1,0,3.11Zm0-8.729a1.556,1.556,0,0,1,0-3.111h19.917a1.556,1.556,0,0,1,0,3.111Zm0-8.73a1.555,1.555,0,0,1,0-3.109h14.648a1.555,1.555,0,0,1,0,3.109Zm0-8.727a1.556,1.556,0,0,1,0-3.112h10.151a1.556,1.556,0,0,1,0,3.112Zm0-15.666a1.555,1.555,0,0,1,0-3.11H5573.9a1.555,1.555,0,0,1,0,3.11Zm-36.769,33.087a1.556,1.556,0,0,1,0-3.111h4.613a1.556,1.556,0,0,1,0,3.111ZM5501.8,4844.8a1.555,1.555,0,0,1,0-3.11h10.589a1.555,1.555,0,0,1,0,3.11Zm0-8.728a1.556,1.556,0,0,1,0-3.112h17.063a1.556,1.556,0,0,1,0,3.112Zm0-8.729a1.555,1.555,0,0,1,0-3.11h9a1.555,1.555,0,0,1,0,3.11Zm0-8.729a1.555,1.555,0,0,1,0-3.11h17.34a1.555,1.555,0,0,1,0,3.11Zm.187-8.729a1.556,1.556,0,0,1,0-3.111h7.216a1.556,1.556,0,0,1,0,3.111Zm-.187-8.73a1.555,1.555,0,0,1,0-3.109h10.864a1.555,1.555,0,0,1,0,3.109Zm0-8.727a1.556,1.556,0,0,1,0-3.112h4.171a1.556,1.556,0,0,1,0,3.112Zm0-15.666a1.555,1.555,0,0,1,0-3.11h22.826a1.555,1.555,0,0,1,0,3.11Zm49.279-28.622a1.555,1.555,0,0,1,0-3.11h9.368a1.555,1.555,0,0,1,0,3.11Zm0-8.729a1.556,1.556,0,0,1,0-3.111h13.977a1.556,1.556,0,0,1,0,3.111Zm0-8.729a1.555,1.555,0,0,1,0-3.11h9a1.555,1.555,0,0,1,0,3.11Zm0-8.729a1.555,1.555,0,0,1,0-3.11h20.852a1.555,1.555,0,0,1,0,3.11Zm0-8.729a1.555,1.555,0,0,1,0-3.11h8.49a1.555,1.555,0,0,1,0,3.11Zm0-8.729a1.556,1.556,0,0,1,0-3.111h20.013a1.556,1.556,0,0,1,0,3.111Zm0-8.729a1.556,1.556,0,0,1,0-3.111h11.454a1.556,1.556,0,0,1,0,3.111Zm0-15.665a1.555,1.555,0,0,1,0-3.11H5573.9a1.555,1.555,0,0,1,0,3.11Zm-32.378,50.582a1.555,1.555,0,0,1,0-3.11h5.268a1.555,1.555,0,0,1,0,3.11Zm-16.9,17.458a1.555,1.555,0,0,1,0-3.11h13.169a1.555,1.555,0,0,1,0,3.11Zm0-8.729a1.556,1.556,0,0,1,0-3.111h18.656a1.556,1.556,0,0,1,0,3.111Zm0-8.729a1.555,1.555,0,0,1,0-3.11h9a1.555,1.555,0,0,1,0,3.11Zm0-8.729a1.555,1.555,0,0,1,0-3.11h20.851a1.555,1.555,0,0,1,0,3.11Zm0-8.729a1.555,1.555,0,0,1,0-3.11h13.169a1.555,1.555,0,0,1,0,3.11Zm0-8.729a1.556,1.556,0,0,1,0-3.111h17.119a1.556,1.556,0,0,1,0,3.111Zm0-8.729a1.556,1.556,0,0,1,0-3.111h13.169a1.556,1.556,0,0,1,0,3.111Zm0-15.665a1.555,1.555,0,0,1,0-3.11h22.826a1.555,1.555,0,0,1,0,3.11Zm96.353-1.543a1.557,1.557,0,0,1,3.113,0v63.629a3.171,3.171,0,0,0,3.157,3.158h23.3a1.555,1.555,0,0,1,0,3.11h-23.3a6.284,6.284,0,0,1-6.27-6.269Zm3.113,166.671a1.557,1.557,0,0,1-3.113,0v-67.053a6.284,6.284,0,0,1,6.27-6.269h23.3a1.555,1.555,0,0,1,0,3.11h-23.3a3.169,3.169,0,0,0-3.157,3.158ZM5659.4,4707.9h1.272a3.3,3.3,0,0,1,3.291,3.289v1.273a3.3,3.3,0,0,1-3.291,3.291H5659.4a3.3,3.3,0,0,1-3.291-3.291v-1.273A3.3,3.3,0,0,1,5659.4,4707.9Zm1.272,1.867H5659.4a1.429,1.429,0,0,0-1.424,1.422v1.273a1.429,1.429,0,0,0,1.424,1.423h1.272a1.429,1.429,0,0,0,1.423-1.423v-1.273A1.429,1.429,0,0,0,5660.677,4709.769Zm-13.662-1.867h1.272a3.3,3.3,0,0,1,3.289,3.289v1.273a3.3,3.3,0,0,1-3.289,3.291h-1.272a3.3,3.3,0,0,1-3.289-3.291v-1.273A3.3,3.3,0,0,1,5647.015,4707.9Zm1.272,1.867h-1.272a1.43,1.43,0,0,0-1.423,1.422v1.273a1.43,1.43,0,0,0,1.423,1.423h1.272a1.429,1.429,0,0,0,1.423-1.423v-1.273A1.429,1.429,0,0,0,5648.288,4709.769Zm-13.663-1.867h1.272a3.3,3.3,0,0,1,3.291,3.289v1.273a3.3,3.3,0,0,1-3.291,3.291h-1.272a3.3,3.3,0,0,1-3.29-3.291v-1.273A3.3,3.3,0,0,1,5634.625,4707.9Zm1.272,1.867h-1.272a1.429,1.429,0,0,0-1.423,1.422v1.273a1.429,1.429,0,0,0,1.423,1.423h1.272a1.429,1.429,0,0,0,1.424-1.423v-1.273A1.429,1.429,0,0,0,5635.9,4709.769Z" transform="translate(-5500.261 -4676.993)" fill="#d7e8f2"/>
</svg>
