<svg xmlns="http://www.w3.org/2000/svg" width="188.863" height="118.934"><path data-name="Path 2001" d="M86.367 40.733a1.09 1.09 0 01-2.179 0V19.189a4.4 4.4 0 014.391-4.391h95.893a4.4 4.4 0 014.391 4.391v77.49a4.4 4.4 0 01-4.391 4.391H88.579a4.4 4.4 0 01-4.391-4.391V76.107a1.09 1.09 0 012.179 0v20.57a2.222 2.222 0 002.212 2.212h95.893a2.221 2.221 0 002.211-2.212l-.038-62.394c0-2.259.413-1.962-1.782-1.962h-92.4a.625.625 0 11.039-1.249h92.327c2.2 0 1.857.365 1.857-1.824V19.187a2.221 2.221 0 00-2.211-2.212H88.582a2.222 2.222 0 00-2.212 2.212v21.544zm68.035 4.45l-8.154 6.791c-.5.42-.33.234-.133.845a3.558 3.558 0 11-6.832.209c.152-.593.259-.4-.33-.754l-7.38-4.493c-.8-.487-.38-.424-1.028.045a3.571 3.571 0 01-4.6-.367c-.591-.59-.228-.589-1.116-.279l-6.687 2.331c-.624.218-.4.1-.4.754a3.553 3.553 0 11-.807-2.264c.372.433.288.427.838.234l6.68-2.328c.7-.244.5-.052.454-.726a3.557 3.557 0 116.987.678c-.166.624-.29.416.333.794l7.386 4.5c.708.431.383.384.919-.036a3.577 3.577 0 014.107-.2c.548.349.312.443.848 0l8.106-6.751c.505-.421.341-.231.1-.825a3.558 3.558 0 111.532 1.76c-.528-.3-.306-.348-.829.088zm4.189-4.764a2.249 2.249 0 100 3.181 2.258 2.258 0 000-3.181zm-14.27 11.9a2.25 2.25 0 100 3.182 2.26 2.26 0 000-3.179zm-14.27-8.969a2.25 2.25 0 100 3.182 2.259 2.259 0 000-3.179zm-14.271 5.321a2.249 2.249 0 10.659 1.591 2.258 2.258 0 00-.659-1.591zm37.717 39.915a.654.654 0 01-1.308 0V56.168a2.53 2.53 0 012.523-2.524h4.574a2.53 2.53 0 012.524 2.524v32.418a.654.654 0 01-1.308 0V56.168a1.223 1.223 0 00-1.216-1.217h-4.574a1.222 1.222 0 00-1.216 1.217zm-14.27 0a.654.654 0 01-1.308 0V68.969a2.53 2.53 0 012.524-2.524h4.572a2.53 2.53 0 012.524 2.524v19.617a.654.654 0 01-1.308 0V68.969a1.222 1.222 0 00-1.217-1.217h-4.572a1.222 1.222 0 00-1.217 1.217zm-14.27 0a.654.654 0 01-1.308 0V61.315a2.531 2.531 0 012.524-2.524h4.574a2.53 2.53 0 012.524 2.524v27.271a.654.654 0 01-1.307 0V61.315a1.222 1.222 0 00-1.217-1.216h-4.574a1.222 1.222 0 00-1.216 1.216v27.271zm-14.271 0a.654.654 0 01-1.308 0V66.462a2.531 2.531 0 012.524-2.525h4.573a2.531 2.531 0 012.524 2.525v22.124a.654.654 0 01-1.307 0V66.462a1.222 1.222 0 00-1.217-1.217h-4.573a1.222 1.222 0 00-1.217 1.217zm-99 16.742a1.09 1.09 0 010-2.179h5.036a1.09 1.09 0 010 2.179zm34.9-6.125a1.09 1.09 0 010-2.179h2.837a1.09 1.09 0 010 2.179zm-10.983 18.355a1.09 1.09 0 010-2.179h10.484a1.09 1.09 0 010 2.179zm0-6.115a1.09 1.09 0 010-2.18h6.535a1.09 1.09 0 010 2.18zm0-6.115a1.09 1.09 0 010-2.179h10.714a1.09 1.09 0 010 2.179zm0-6.116a1.09 1.09 0 010-2.179h6.649a1.09 1.09 0 010 2.179zm0-6.115a1.09 1.09 0 010-2.18h13.953a1.09 1.09 0 010 2.18zm0-6.116a1.09 1.09 0 010-2.179h10.263a1.09 1.09 0 010 2.179zm0-6.114a1.09 1.09 0 010-2.18h7.111a1.09 1.09 0 010 2.18zm0-10.974a1.09 1.09 0 010-2.179h15.991a1.09 1.09 0 010 2.179zM9.845 93.072a1.09 1.09 0 010-2.179h3.232a1.09 1.09 0 010 2.179zm-8.764 24.486a1.09 1.09 0 010-2.179h7.418a1.09 1.09 0 010 2.179zm0-6.115a1.09 1.09 0 010-2.18h11.954a1.09 1.09 0 010 2.18zm0-6.115a1.09 1.09 0 010-2.179h6.3a1.09 1.09 0 010 2.179zm0-6.116a1.09 1.09 0 010-2.179h12.147a1.09 1.09 0 010 2.179zm.131-6.115a1.09 1.09 0 010-2.18h5.055a1.09 1.09 0 010 2.18zm-.131-6.116a1.09 1.09 0 010-2.179h7.611a1.09 1.09 0 010 2.179zm0-6.114a1.09 1.09 0 010-2.18h2.921a1.09 1.09 0 010 2.18zm0-10.974a1.09 1.09 0 010-2.179h15.991a1.09 1.09 0 010 2.179zm34.522-20.052a1.09 1.09 0 010-2.179h6.563a1.09 1.09 0 010 2.179zm0-6.115a1.09 1.09 0 010-2.18h9.792a1.09 1.09 0 010 2.18zm0-6.116a1.09 1.09 0 010-2.179h6.3a1.09 1.09 0 010 2.179zm0-6.115a1.09 1.09 0 010-2.179H50.21a1.09 1.09 0 010 2.179zm0-6.115a1.09 1.09 0 010-2.179h5.948a1.09 1.09 0 010 2.179zm0-6.115a1.09 1.09 0 010-2.179h14.021a1.09 1.09 0 010 2.179zm0-6.115a1.09 1.09 0 010-2.18h8.024a1.09 1.09 0 010 2.18zm0-10.975a1.09 1.09 0 010-2.179h15.991a1.09 1.09 0 010 2.179zM12.92 37.61a1.09 1.09 0 010-2.179h3.69a1.09 1.09 0 010 2.179zM1.081 49.84a1.09 1.09 0 010-2.179h9.226a1.09 1.09 0 010 2.179zm0-6.115a1.09 1.09 0 010-2.18H14.15a1.09 1.09 0 010 2.18zm0-6.116a1.09 1.09 0 010-2.179h6.3a1.09 1.09 0 010 2.179zm0-6.115a1.09 1.09 0 010-2.179h14.607a1.09 1.09 0 010 2.179zm0-6.115a1.09 1.09 0 010-2.179h9.226a1.09 1.09 0 010 2.179zm0-6.115a1.09 1.09 0 010-2.179h11.993a1.09 1.09 0 010 2.179zm0-6.115a1.09 1.09 0 010-2.18h9.226a1.09 1.09 0 010 2.18zm0-10.975a1.09 1.09 0 010-2.179h15.991a1.09 1.09 0 010 2.179zm67.5-1.081a1.09 1.09 0 012.18 0v44.576a2.221 2.221 0 002.211 2.212h16.321a1.09 1.09 0 010 2.18H72.972a4.4 4.4 0 01-4.392-4.392zm2.18 116.762a1.09 1.09 0 01-2.18 0V70.881a4.4 4.4 0 014.392-4.391h16.321a1.09 1.09 0 010 2.179H72.973a2.221 2.221 0 00-2.211 2.212zm40.732-96.207h.892a2.31 2.31 0 012.305 2.3v.892a2.31 2.31 0 01-2.305 2.305h-.892a2.31 2.31 0 01-2.3-2.305v-.892a2.31 2.31 0 012.294-2.295zm.892 1.308h-.892a1 1 0 00-1 1v.892a1 1 0 001 1h.892a1 1 0 001-1v-.892a1 1 0 00-1.007-.995zm-9.571-1.308h.892a2.309 2.309 0 012.3 2.3v.892a2.31 2.31 0 01-2.3 2.305h-.892a2.31 2.31 0 01-2.3-2.305v-.892a2.31 2.31 0 012.293-2.295zm.892 1.308h-.892a1 1 0 00-1 1v.892a1 1 0 001 1h.892a1 1 0 001-1v-.892a1 1 0 00-1.007-.995zm-9.571-1.308h.892a2.31 2.31 0 012.305 2.3v.892a2.31 2.31 0 01-2.305 2.305h-.892a2.31 2.31 0 01-2.3-2.305v-.892a2.31 2.31 0 012.293-2.295zm.892 1.308h-.892a1 1 0 00-1 1v.892a1 1 0 001 1h.892a1 1 0 001-1v-.892a1 1 0 00-1.008-.995z" fill="#333"/></svg>