<svg xmlns="http://www.w3.org/2000/svg" width="188.863" height="118.934" viewBox="0 0 188.863 118.934">
  <g id="Analyze-icon" transform="translate(-1412.805 -481)">
    <path id="Path_2001" data-name="Path 2001" d="M5586.63,4717.726a1.09,1.09,0,0,1-2.179,0v-21.544a4.4,4.4,0,0,1,4.391-4.391h95.893a4.4,4.4,0,0,1,4.391,4.391v77.49a4.4,4.4,0,0,1-4.391,4.391h-95.893a4.4,4.4,0,0,1-4.391-4.391V4753.1a1.09,1.09,0,0,1,2.179,0v20.57a2.222,2.222,0,0,0,2.212,2.212h95.893a2.221,2.221,0,0,0,2.211-2.212l-.038-62.394c0-2.259.413-1.962-1.782-1.962h-92.4a.625.625,0,1,1,.039-1.249h92.327c2.2,0,1.857.365,1.857-1.824v-10.061a2.221,2.221,0,0,0-2.211-2.212h-95.893a2.222,2.222,0,0,0-2.212,2.212v21.544Zm68.035,4.45-8.154,6.791c-.5.42-.33.234-.133.845a3.558,3.558,0,1,1-6.832.209c.152-.593.259-.4-.33-.754l-7.38-4.493c-.8-.487-.38-.424-1.028.045a3.571,3.571,0,0,1-4.6-.367c-.591-.59-.228-.589-1.116-.279l-6.687,2.331c-.624.218-.4.1-.4.754a3.553,3.553,0,1,1-.807-2.264c.372.433.288.427.838.234l6.68-2.328c.7-.244.5-.052.454-.726a3.557,3.557,0,1,1,6.987.678c-.166.624-.29.416.333.794l7.386,4.5c.708.431.383.384.919-.036a3.577,3.577,0,0,1,4.107-.2c.548.349.312.443.848,0l8.106-6.751c.505-.421.341-.231.1-.825a3.558,3.558,0,1,1,1.532,1.76c-.528-.3-.306-.348-.829.088Zm4.189-4.764a2.249,2.249,0,1,0,0,3.181A2.258,2.258,0,0,0,5658.854,4717.412Zm-14.27,11.9a2.25,2.25,0,1,0,0,3.182A2.26,2.26,0,0,0,5644.584,4729.315Zm-14.27-8.969a2.25,2.25,0,1,0,0,3.182A2.259,2.259,0,0,0,5630.314,4720.346Zm-14.271,5.321a2.249,2.249,0,1,0,.659,1.591,2.258,2.258,0,0,0-.659-1.591Zm37.717,39.915a.654.654,0,0,1-1.308,0v-32.418a2.53,2.53,0,0,1,2.523-2.524h4.574a2.53,2.53,0,0,1,2.524,2.524v32.418a.654.654,0,0,1-1.308,0v-32.418a1.223,1.223,0,0,0-1.216-1.217h-4.574a1.222,1.222,0,0,0-1.216,1.217Zm-14.27,0a.654.654,0,0,1-1.308,0v-19.617a2.53,2.53,0,0,1,2.524-2.524h4.572a2.53,2.53,0,0,1,2.524,2.524v19.617a.654.654,0,0,1-1.308,0v-19.617a1.222,1.222,0,0,0-1.217-1.217h-4.572a1.222,1.222,0,0,0-1.217,1.217Zm-14.27,0a.654.654,0,0,1-1.308,0v-27.271a2.531,2.531,0,0,1,2.524-2.524h4.574a2.53,2.53,0,0,1,2.524,2.524v27.271a.654.654,0,0,1-1.307,0v-27.271a1.222,1.222,0,0,0-1.217-1.216h-4.574a1.222,1.222,0,0,0-1.216,1.216v27.271Zm-14.271,0a.654.654,0,0,1-1.308,0v-22.124a2.531,2.531,0,0,1,2.524-2.525h4.573a2.531,2.531,0,0,1,2.524,2.525v22.124a.654.654,0,0,1-1.307,0v-22.124a1.222,1.222,0,0,0-1.217-1.217h-4.573a1.222,1.222,0,0,0-1.217,1.217Zm-99,16.742a1.09,1.09,0,0,1,0-2.179h5.036a1.09,1.09,0,0,1,0,2.179Zm34.9-6.125a1.09,1.09,0,0,1,0-2.179h2.837a1.09,1.09,0,0,1,0,2.179Zm-10.983,18.355a1.09,1.09,0,0,1,0-2.179h10.484a1.09,1.09,0,0,1,0,2.179Zm0-6.115a1.09,1.09,0,0,1,0-2.18h6.535a1.09,1.09,0,0,1,0,2.18Zm0-6.115a1.09,1.09,0,0,1,0-2.179h10.714a1.09,1.09,0,0,1,0,2.179Zm0-6.116a1.089,1.089,0,0,1,0-2.179h6.649a1.089,1.089,0,0,1,0,2.179Zm0-6.115a1.09,1.09,0,0,1,0-2.18h13.953a1.09,1.09,0,0,1,0,2.18Zm0-6.116a1.089,1.089,0,0,1,0-2.179h10.263a1.089,1.089,0,0,1,0,2.179Zm0-6.114a1.09,1.09,0,0,1,0-2.18h7.111a1.09,1.09,0,0,1,0,2.18Zm0-10.974a1.09,1.09,0,0,1,0-2.179h15.991a1.09,1.09,0,0,1,0,2.179Zm-25.758,23.179a1.09,1.09,0,0,1,0-2.179h3.232a1.09,1.09,0,0,1,0,2.179Zm-8.764,24.486a1.09,1.09,0,0,1,0-2.179h7.418a1.09,1.09,0,0,1,0,2.179Zm0-6.115a1.09,1.09,0,0,1,0-2.18h11.954a1.09,1.09,0,0,1,0,2.18Zm0-6.115a1.09,1.09,0,0,1,0-2.179h6.3a1.09,1.09,0,0,1,0,2.179Zm0-6.116a1.089,1.089,0,0,1,0-2.179h12.147a1.089,1.089,0,0,1,0,2.179Zm.131-6.115a1.09,1.09,0,0,1,0-2.18h5.055a1.09,1.09,0,0,1,0,2.18Zm-.131-6.116a1.089,1.089,0,0,1,0-2.179h7.611a1.089,1.089,0,0,1,0,2.179Zm0-6.114a1.09,1.09,0,0,1,0-2.18h2.921a1.09,1.09,0,0,1,0,2.18Zm0-10.974a1.09,1.09,0,0,1,0-2.179h15.991a1.09,1.09,0,0,1,0,2.179Zm34.522-20.052a1.09,1.09,0,0,1,0-2.179h6.563a1.09,1.09,0,0,1,0,2.179Zm0-6.115a1.09,1.09,0,0,1,0-2.18h9.792a1.09,1.09,0,0,1,0,2.18Zm0-6.116a1.09,1.09,0,0,1,0-2.179h6.3a1.09,1.09,0,0,1,0,2.179Zm0-6.115a1.09,1.09,0,0,1,0-2.179h14.607a1.09,1.09,0,0,1,0,2.179Zm0-6.115a1.09,1.09,0,0,1,0-2.179h5.948a1.09,1.09,0,0,1,0,2.179Zm0-6.115a1.09,1.09,0,0,1,0-2.179h14.021a1.09,1.09,0,0,1,0,2.179Zm0-6.115a1.09,1.09,0,0,1,0-2.18h8.024a1.09,1.09,0,0,1,0,2.18Zm0-10.975a1.09,1.09,0,0,1,0-2.179h15.991a1.09,1.09,0,0,1,0,2.179Zm-22.683,35.435a1.09,1.09,0,0,1,0-2.179h3.69a1.09,1.09,0,0,1,0,2.179Zm-11.839,12.23a1.09,1.09,0,0,1,0-2.179h9.226a1.09,1.09,0,0,1,0,2.179Zm0-6.115a1.09,1.09,0,0,1,0-2.18h13.069a1.09,1.09,0,0,1,0,2.18Zm0-6.116a1.09,1.09,0,0,1,0-2.179h6.3a1.09,1.09,0,0,1,0,2.179Zm0-6.115a1.09,1.09,0,0,1,0-2.179h14.607a1.09,1.09,0,0,1,0,2.179Zm0-6.115a1.09,1.09,0,0,1,0-2.179h9.226a1.09,1.09,0,0,1,0,2.179Zm0-6.115a1.09,1.09,0,0,1,0-2.179h11.993a1.09,1.09,0,0,1,0,2.179Zm0-6.115a1.09,1.09,0,0,1,0-2.18h9.226a1.09,1.09,0,0,1,0,2.18Zm0-10.975a1.09,1.09,0,0,1,0-2.179h15.991a1.09,1.09,0,0,1,0,2.179Zm67.5-1.081a1.09,1.09,0,0,1,2.18,0v44.576a2.221,2.221,0,0,0,2.211,2.212h16.321a1.09,1.09,0,0,1,0,2.18h-16.321a4.4,4.4,0,0,1-4.392-4.392Zm2.18,116.762a1.09,1.09,0,0,1-2.18,0v-46.974a4.4,4.4,0,0,1,4.392-4.391h16.321a1.089,1.089,0,0,1,0,2.179h-16.321a2.221,2.221,0,0,0-2.211,2.212Zm40.732-96.207h.892a2.31,2.31,0,0,1,2.305,2.3v.892a2.31,2.31,0,0,1-2.305,2.305h-.892a2.31,2.31,0,0,1-2.3-2.305v-.892A2.31,2.31,0,0,1,5611.75,4698.646Zm.892,1.308h-.892a1,1,0,0,0-1,1v.892a1,1,0,0,0,1,1h.892a1,1,0,0,0,1-1v-.892A1,1,0,0,0,5612.641,4699.954Zm-9.571-1.308h.892a2.309,2.309,0,0,1,2.3,2.3v.892a2.31,2.31,0,0,1-2.3,2.305h-.892a2.31,2.31,0,0,1-2.3-2.305v-.892A2.31,2.31,0,0,1,5603.07,4698.646Zm.892,1.308h-.892a1,1,0,0,0-1,1v.892a1,1,0,0,0,1,1h.892a1,1,0,0,0,1-1v-.892A1,1,0,0,0,5603.962,4699.954Zm-9.571-1.308h.892a2.31,2.31,0,0,1,2.305,2.3v.892a2.31,2.31,0,0,1-2.305,2.305h-.892a2.31,2.31,0,0,1-2.3-2.305v-.892A2.31,2.31,0,0,1,5594.391,4698.646Zm.892,1.308h-.892a1,1,0,0,0-1,1v.892a1,1,0,0,0,1,1h.892a1,1,0,0,0,1-1v-.892A1,1,0,0,0,5595.282,4699.954Z" transform="translate(-4087.458 -4195.993)" fill="#333"/>
  </g>
</svg>
