<svg xmlns="http://www.w3.org/2000/svg" width="136.9" height="118.271" viewBox="0 0 136.9 118.271">
  <g id="big-data-icon" transform="translate(-67.879 -4309.109)">
    <path id="Path_2001" data-name="Path 2001" d="M944.553,4373.475a.711.711,0,0,0-.573-1.3,12.613,12.613,0,0,1-1.261.473.71.71,0,0,0,.435,1.353A13.88,13.88,0,0,0,944.553,4373.475Zm0-11.313a.711.711,0,0,0-.573-1.3,12.737,12.737,0,0,1-1.261.473.71.71,0,0,0,.435,1.353A13.883,13.883,0,0,0,944.553,4362.162Zm4.83,60.786a.711.711,0,0,0,.974-1.035q-1.025-.968-2.015-1.968a.711.711,0,0,0-1.011,1Q948.34,4421.966,949.384,4422.948Zm-1.35-108.78a.71.71,0,0,0-1.038-.97c-.649.648-1.316,1.433-1.921,2.13a.71.71,0,0,0,1.073.931C946.744,4315.574,947.4,4314.807,948.034,4314.168Zm-4.572,5.351a.711.711,0,0,0-1.122-.872q-.881,1.132-1.722,2.293a.711.711,0,0,0,1.152.832Q942.6,4320.63,943.462,4319.519Zm-4.074,5.743a.711.711,0,0,0-1.2-.769c-.519.8-1.021,1.618-1.509,2.439a.711.711,0,0,0,1.223.724C938.385,4326.851,938.879,4326.049,939.388,4325.262Zm-3.538,6.084a.711.711,0,0,0-1.26-.657q-.664,1.272-1.282,2.566a.711.711,0,0,0,1.283.612Q935.2,4332.595,935.85,4331.347Zm-2.973,6.381a.711.711,0,0,0-1.314-.541q-.545,1.328-1.044,2.671a.711.711,0,0,0,1.333.493Q932.341,4339.03,932.876,4337.728Zm-.333,59.081a.711.711,0,0,0-1.3.579q.583,1.31,1.212,2.6a.711.711,0,0,0,1.276-.625Q933.115,4398.1,932.544,4396.809Zm3.148,6.3a.711.711,0,0,0-1.241.693q.7,1.252,1.443,2.479a.711.711,0,0,0,1.215-.737Q936.379,4404.336,935.692,4403.106Zm3.7,5.985a.711.711,0,0,0-1.172.8q.81,1.184,1.66,2.338a.711.711,0,0,0,1.143-.844Q940.19,4410.254,939.4,4409.091Zm4.229,5.629a.71.71,0,0,0-1.1.9q.911,1.107,1.864,2.181a.711.711,0,0,0,1.062-.944Q944.521,4415.806,943.625,4414.72Zm34.384,12.592a.711.711,0,0,0,.58-1.3q-1.285-.576-2.542-1.2a.711.711,0,0,0-.633,1.272C976.275,4426.51,977.134,4426.917,978.01,4427.312Zm-3-116.854a.71.71,0,0,0-.661-1.258c-.848.443-1.689.907-2.516,1.389a.711.711,0,0,0,.717,1.227C973.361,4311.344,974.184,4310.89,975.013,4310.457Zm-6.034,3.6a.71.71,0,0,0-.8-1.177q-1.193.8-2.348,1.655a.711.711,0,0,0,.844,1.144Q967.812,4314.838,968.979,4314.052Zm-5.607,4.233a.711.711,0,0,0-.919-1.084q-1.1.928-2.154,1.9a.711.711,0,0,0,.963,1.045Q962.3,4319.194,963.372,4318.286Zm-5.114,4.817a.711.711,0,0,0-1.031-.979q-.99,1.042-1.934,2.124a.711.711,0,0,0,1.071.934C956.982,4324.474,957.612,4323.783,958.259,4323.1Zm-4.56,5.344a.711.711,0,0,0-1.132-.86q-.87,1.141-1.692,2.32a.711.711,0,0,0,1.167.812C952.578,4329.948,953.13,4329.193,953.7,4328.447Zm-3.951,5.807a.711.711,0,0,0-1.219-.73q-.74,1.231-1.429,2.492a.711.711,0,0,0,1.249.678Q949.024,4335.459,949.747,4334.254Zm-3.293,6.206a.711.711,0,0,0-1.291-.595q-.6,1.3-1.148,2.633a.711.711,0,1,0,1.315.539Q945.866,4341.738,946.454,4340.46Zm.5,54.865a.711.711,0,0,0-1.278.623c.419.862.855,1.712,1.309,2.558a.711.711,0,0,0,1.249-.678C947.786,4397,947.362,4396.169,946.952,4395.326Zm3.406,6.146a.711.711,0,0,0-1.2.757c.511.811,1.036,1.614,1.582,2.4a.711.711,0,0,0,1.167-.812C951.373,4403.044,950.855,4402.266,950.357,4401.471Zm4.055,5.736a.71.71,0,0,0-1.113.883q.892,1.128,1.833,2.212a.71.71,0,0,0,1.074-.93Q955.287,4408.308,954.413,4407.208Zm4.656,5.261a.711.711,0,0,0-1.01,1c.673.683,1.361,1.346,2.062,2a.711.711,0,0,0,.967-1.042q-1.03-.957-2.018-1.957Zm5.2,4.724a.71.71,0,0,0-.9,1.1q1.115.908,2.267,1.765a.711.711,0,0,0,.847-1.141Q965.359,4418.08,964.268,4417.193Zm5.682,4.13a.711.711,0,0,0-.77,1.2q1.206.78,2.446,1.507a.711.711,0,0,0,.717-1.229Q971.131,4422.087,969.95,4421.323Zm-32.3-81.344a.711.711,0,0,0,1.316.537q.533-1.3,1.114-2.584a.711.711,0,0,0-1.294-.588Q938.187,4338.65,937.646,4339.979Zm1.849,56.132a.711.711,0,1,0-1.294.588c.393.872.81,1.736,1.24,2.59a.711.711,0,0,0,1.269-.64C940.289,4397.812,939.881,4396.964,939.5,4396.11Zm3.223,6.251a.711.711,0,0,0-1.23.712c.477.826.971,1.653,1.483,2.457a.71.71,0,1,0,1.2-.759C943.679,4403.97,943.189,4403.178,942.718,4402.362Zm3.8,5.923a.71.71,0,0,0-1.159.822q.828,1.17,1.7,2.309a.71.71,0,1,0,1.129-.862Q947.335,4409.433,946.52,4408.285Zm4.323,5.555a.711.711,0,0,0-1.08.924q.931,1.091,1.9,2.148a.71.71,0,1,0,1.047-.961Q951.757,4414.912,950.843,4413.84Zm4.8,5.144a.711.711,0,1,0-.991,1.019q1.027,1,2.089,1.966a.711.711,0,0,0,.953-1.055Q956.654,4419.969,955.648,4418.984Zm5.259,4.674a.711.711,0,0,0-.89,1.109q1.119.9,2.271,1.754a.711.711,0,0,0,.846-1.142Q962,4424.54,960.907,4423.658Zm.9-112.944a.711.711,0,0,0-.863-1.129q-1.142.868-2.248,1.783a.711.711,0,0,0,.906,1.1Q960.684,4311.567,961.8,4310.713Zm-5.378,4.531a.71.71,0,0,0-.97-1.038q-1.05.979-2.062,2a.711.711,0,0,0,1.009,1Q955.4,4316.205,956.425,4315.245Zm-4.907,5.04a.711.711,0,0,0-1.067-.938q-.949,1.076-1.856,2.188a.711.711,0,0,0,1.1.9Q950.587,4321.339,951.518,4320.285Zm-4.39,5.5a.711.711,0,0,0-1.153-.832q-.84,1.164-1.633,2.363a.711.711,0,0,0,1.186.782C946.045,4327.314,946.58,4326.54,947.128,4325.781Zm-3.827,5.9a.711.711,0,0,0-1.23-.712q-.721,1.243-1.391,2.51a.711.711,0,0,0,1.257.664Q942.6,4332.9,943.3,4331.681Zm.9,15.833c-5.6-2.1-14.74-2.1-20.341,0-2.381.895-3.855,2.048-3.855,3.25h0v0c0,1.2,1.474,2.354,3.855,3.248,5.6,2.1,14.74,2.1,20.341,0,2.55-.958,3.836-2.093,3.851-3.23S946.782,4348.485,944.2,4347.514Zm5.274,3.365v10.892c0,.021,0,.041,0,.061,0,.04,0,.078,0,.116v10.915c0,.021,0,.042,0,.062,0,.039,0,.076,0,.116v10.892c0,.02,0,.04,0,.062,0,1.854-1.826,3.468-4.777,4.576-5.934,2.23-15.406,2.23-21.34,0-2.94-1.1-4.763-2.708-4.777-4.556,0-.007,0-.014,0-.02v-33.23h0v-.019h0c.013-1.846,1.836-3.452,4.777-4.558,5.934-2.229,15.406-2.229,21.34,0,2.951,1.109,4.777,2.722,4.777,4.578C949.474,4350.8,949.473,4350.841,949.471,4350.879Zm-1.42,33.163c0-.017,0-.032,0-.048v-8.371a10.911,10.911,0,0,1-3.353,1.88c-5.934,2.228-15.406,2.228-21.34,0a10.9,10.9,0,0,1-3.356-1.882v8.374c0,1.2,1.473,2.355,3.855,3.249,5.6,2.1,14.74,2.1,20.341,0C946.547,4386.361,948.012,4385.226,948.052,4384.042Zm0-11.034v-8.478a10.9,10.9,0,0,1-3.353,1.879c-5.934,2.229-15.406,2.229-21.34,0a10.894,10.894,0,0,1-3.356-1.882v8.4c0,1.2,1.473,2.356,3.855,3.251,5.6,2.1,14.74,2.1,20.341,0C946.524,4375.3,947.983,4374.18,948.05,4373.008Zm0-11.092v-8.455a10.871,10.871,0,0,1-3.353,1.88c-5.934,2.229-15.406,2.229-21.34,0a10.885,10.885,0,0,1-3.356-1.882v8.372c0,1.2,1.473,2.357,3.855,3.251,5.6,2.1,14.74,2.1,20.341,0C946.524,4364.209,947.983,4363.087,948.05,4361.917Zm57-44.975a.71.71,0,0,0,0,1.421c.939,0,1.867.027,2.8.079a.71.71,0,0,0,.072-1.419C1006.968,4316.97,1006.016,4316.944,1005.052,4316.941Zm-3.953,1.577a.71.71,0,0,0-.117-1.416c-.958.075-1.913.182-2.866.312a.711.711,0,0,0,.2,1.408Q999.7,4318.632,1001.1,4318.519Zm-6.918,1.054a.711.711,0,0,0-.32-1.386q-1.407.321-2.791.718a.71.71,0,0,0,.4,1.364Q992.816,4319.882,994.182,4319.572Zm-6.7,2.033a.71.71,0,0,0-.513-1.325c-.9.345-1.781.715-2.659,1.108a.711.711,0,0,0,.586,1.3C985.752,4322.3,986.611,4321.94,987.485,4321.6Zm-6.334,2.971a.711.711,0,0,0-.7-1.237c-.839.472-1.66.963-2.472,1.479a.711.711,0,0,0,.767,1.2C979.535,4325.512,980.335,4325.036,981.151,4324.576Zm-5.85,3.847a.71.71,0,0,0-.865-1.127c-.763.587-1.509,1.187-2.24,1.818a.711.711,0,0,0,.93,1.074C973.835,4329.578,974.56,4328.994,975.3,4328.423Zm-5.242,4.638a.711.711,0,0,0-1.017-.993c-.673.684-1.33,1.394-1.96,2.116a.711.711,0,0,0,1.074.931C968.774,4334.413,969.4,4333.729,970.059,4333.061Zm-4.532,5.332a.711.711,0,0,0-1.148-.837c-.569.776-1.111,1.564-1.638,2.37a.711.711,0,0,0,1.192.774C964.445,4339.914,964.972,4339.148,965.526,4338.393Zm-3.729,5.921a.711.711,0,0,0-1.257-.664c-.452.851-.879,1.707-1.284,2.581a.711.711,0,0,0,1.292.593C960.942,4345.973,961.358,4345.141,961.8,4344.313Zm-2.846,6.4a.711.711,0,0,0-1.338-.48c-.328.9-.624,1.816-.9,2.737a.711.711,0,0,0,1.362.405C958.343,4352.478,958.633,4351.585,958.951,4350.709Zm-1.9,6.736a.711.711,0,0,0-1.392-.286c-.191.947-.357,1.885-.5,2.84a.711.711,0,0,0,1.406.205C956.705,4359.276,956.866,4358.364,957.052,4357.445Zm-.915,6.937a.711.711,0,0,0-1.419-.081q-.086,1.439-.091,2.88a.711.711,0,0,0,1.421,0Q956.052,4365.78,956.136,4364.381Zm.073,7a.711.711,0,0,0-1.416.117c.075.954.185,1.917.315,2.866a.711.711,0,0,0,1.408-.2C956.389,4373.246,956.282,4372.31,956.209,4371.383Zm1.061,6.917a.711.711,0,0,0-1.385.319c.213.938.455,1.866.721,2.791a.711.711,0,0,0,1.365-.4Q957.584,4379.665,957.27,4378.3Zm2.041,6.695a.71.71,0,0,0-1.325.512c.346.9.72,1.783,1.115,2.661a.711.711,0,0,0,1.291-.593C960.012,4386.727,959.645,4385.862,959.312,4384.994Zm2.979,6.329a.711.711,0,0,0-1.236.7c.472.838.965,1.658,1.482,2.47a.711.711,0,0,0,1.2-.768C963.23,4392.938,962.75,4392.14,962.291,4391.323Zm3.852,5.842a.711.711,0,0,0-1.123.871c.588.762,1.19,1.5,1.818,2.234a.711.711,0,0,0,1.074-.931C967.3,4398.633,966.714,4397.906,966.143,4397.166Zm4.646,5.239a.711.711,0,0,0-.993,1.017c.691.671,1.392,1.324,2.119,1.958a.711.711,0,0,0,.931-1.074C972.141,4403.69,971.46,4403.056,970.789,4402.4Zm5.338,4.526a.711.711,0,0,0-.837,1.148c.773.567,1.568,1.117,2.375,1.637a.711.711,0,0,0,.767-1.2C977.65,4408.009,976.88,4407.483,976.127,4406.931Zm5.926,3.722a.71.71,0,0,0-.663,1.256c.85.453,1.708.876,2.581,1.281a.711.711,0,0,0,.593-1.292C983.714,4411.5,982.88,4411.092,982.053,4410.652Zm6.4,2.838a.711.711,0,0,0-.48,1.337c.907.324,1.818.627,2.742.9a.711.711,0,0,0,.4-1.365C990.213,4414.092,989.335,4413.806,988.452,4413.49Zm6.734,1.889a.711.711,0,0,0-.276,1.395c.943.19,1.888.359,2.839.5a.711.711,0,0,0,.2-1.408C997.018,4415.724,996.105,4415.565,995.186,4415.379Zm6.943.908a.711.711,0,0,0-.081,1.419c.959.058,1.921.084,2.881.088a.711.711,0,0,0,0-1.421C1003.995,4416.37,1003.06,4416.344,1002.128,4416.288Zm7-.081a.71.71,0,0,0,.117,1.416c.963-.082,1.911-.188,2.869-.319a.711.711,0,0,0-.206-1.406C1010.981,4416.024,1010.062,4416.127,1009.129,4416.207Zm6.915-1.071a.71.71,0,0,0,.32,1.384c.938-.213,1.865-.458,2.789-.724a.711.711,0,0,0-.4-1.365C1017.858,4414.69,1016.956,4414.929,1016.044,4415.136Zm6.692-2.05a.711.711,0,0,0,.513,1.326c.9-.35,1.784-.719,2.66-1.119a.711.711,0,0,0-.594-1.291C1024.466,4412.389,1023.605,4412.747,1022.736,4413.086Zm6.326-2.988a.711.711,0,0,0,.7,1.237c.839-.472,1.657-.968,2.469-1.484a.711.711,0,0,0-.767-1.2C1030.675,4409.157,1029.878,4409.64,1029.062,4410.1Zm5.837-3.859a.71.71,0,0,0,.872,1.122c.762-.587,1.5-1.191,2.232-1.819a.711.711,0,0,0-.931-1.075Q1036.009,4405.384,1034.9,4406.239Zm5.231-4.649a.711.711,0,0,0,1.023.987c.67-.691,1.319-1.393,1.952-2.119a.711.711,0,0,0-1.074-.93C1041.415,4400.235,1040.782,4400.917,1040.13,4401.59Zm4.522-5.347a.711.711,0,0,0,1.148.837c.566-.779,1.112-1.567,1.634-2.377a.711.711,0,0,0-1.2-.767C1045.731,4394.721,1045.2,4395.487,1044.652,4396.243Zm3.714-5.931a.711.711,0,0,0,1.257.663c.452-.85.875-1.711,1.279-2.585a.711.711,0,0,0-1.3-.585C1049.214,4388.652,1048.8,4389.487,1048.366,4390.312Zm2.829-6.4a.711.711,0,0,0,1.341.472c.323-.907.622-1.817.894-2.739a.711.711,0,0,0-1.365-.4C1051.8,4382.148,1051.508,4383.033,1051.195,4383.915Zm1.882-6.74a.711.711,0,0,0,1.394.276q.285-1.414.492-2.841a.711.711,0,0,0-1.408-.2C1053.423,4375.338,1053.262,4376.257,1053.077,4377.174Zm.9-6.944a.711.711,0,0,0,1.419.081q.079-1.44.084-2.881a.711.711,0,0,0-1.421,0C1054.055,4368.366,1054.027,4369.3,1053.976,4370.23Zm-.09-7a.711.711,0,0,0,1.416-.125c-.082-.958-.185-1.913-.322-2.864a.711.711,0,0,0-1.406.206C1053.706,4361.374,1053.807,4362.3,1053.886,4363.233Zm-1.079-6.917a.711.711,0,0,0,1.385-.32c-.219-.937-.458-1.869-.729-2.792a.71.71,0,0,0-1.362.4C1052.364,4354.5,1052.595,4355.407,1052.807,4356.316Zm-2.057-6.685a.711.711,0,0,0,1.322-.521c-.35-.9-.721-1.78-1.12-2.655a.711.711,0,0,0-1.292.594C1050.049,4347.9,1050.409,4348.759,1050.75,4349.631Zm-3-6.327a.711.711,0,0,0,1.236-.7c-.471-.836-.971-1.666-1.49-2.47a.711.711,0,0,0-1.192.774C1046.812,4341.688,1047.3,4342.494,1047.753,4343.3Zm-3.867-5.832a.711.711,0,0,0,1.123-.871c-.588-.763-1.195-1.5-1.823-2.23a.71.71,0,0,0-1.074.93C1042.723,4336.012,1043.314,4336.73,1043.886,4337.472Zm-4.656-5.225a.711.711,0,0,0,.987-1.023c-.691-.67-1.395-1.316-2.12-1.949a.71.71,0,0,0-.93,1.074C1037.872,4330.965,1038.557,4331.595,1039.23,4332.247Zm-5.349-4.513a.711.711,0,0,0,.831-1.153c-.779-.565-1.567-1.107-2.376-1.629a.711.711,0,0,0-.767,1.2C1032.356,4326.657,1033.123,4327.185,1033.881,4327.734Zm-5.939-3.708a.711.711,0,0,0,.663-1.257c-.847-.451-1.715-.877-2.588-1.276a.71.71,0,0,0-.586,1.294C1026.278,4323.173,1027.122,4323.589,1027.943,4324.026Zm-6.4-2.821a.711.711,0,0,0,.472-1.34c-.906-.322-1.817-.619-2.741-.891a.711.711,0,0,0-.4,1.365C1019.773,4320.6,1020.659,4320.892,1021.541,4321.2Zm-6.743-1.874a.71.71,0,0,0,.276-1.394q-1.414-.285-2.841-.49a.711.711,0,0,0-.2,1.407Q1013.425,4319.054,1014.8,4319.331Zm32.416,42.715c-3.525,2.25-2.98,6.438-2.557,9.684a13.374,13.374,0,0,1,.18,3.685,4.054,4.054,0,0,1-1.3,2.356,5.052,5.052,0,0,1-2.589,1.17,8.41,8.41,0,0,0-2.459.67c-.429.249-.425.548,0,.794a10.018,10.018,0,0,0,2.587.978,5.95,5.95,0,0,1,3.072,1.583,3.464,3.464,0,0,1,.3.37,42.372,42.372,0,0,0,3.1-15.968A42.924,42.924,0,0,0,1047.214,4362.046Zm-3.683,23.372a1.667,1.667,0,0,0-.43-1.49,4.611,4.611,0,0,0-2.355-1.169c-5.317-1.278-5.932-4.272-.022-5.218a3.647,3.647,0,0,0,1.867-.825,2.662,2.662,0,0,0,.848-1.55,12.6,12.6,0,0,0-.186-3.252c-.5-3.814-1.144-8.78,3.744-11.382a42.568,42.568,0,0,0-22.4-30.9c-5.039-2.167-7.087.043-10.559-.642a15,15,0,0,1-3.726-1.35c-2.325-1.264-2.984.881-5.917.273a6.989,6.989,0,0,0-5.032,1.312c-1.364,1.359,5.988,1.789,6.311,1.816,2.219.189,8.074,1.8,9.749,3.722a5.506,5.506,0,0,1,1.292,3.327c.242,3.315,1.148,3.775,1.951,4.183,1.084.55,2.044,1.038,2.023,4.086a11.011,11.011,0,0,0,.348,2.287c.426,1.922.764,4.317-2.193,3.5-2.344-.646-3.434-.2-2.965,2.346.515,2.8,0,3.363-1.468,5.72-.42.673-1.684,3.985.167,3.134a2.881,2.881,0,0,1,3.363.964c.687.724,1.611-.109.63-1.344-1-1.257-1.458-1.827-1.158-3.688.208-1.287,1.166-2.205,2.321-1.205a2.84,2.84,0,0,0,1.774.88c.832.083,1.207.12,1.59,1.795a12.525,12.525,0,0,1-.295,5.4c-.523,1.666-1.66,2.995-3.515,2.412a1.959,1.959,0,0,0-.992-.057,1.828,1.828,0,0,1-1.924-.629c-.75-.73-.386-1-1.058-.141-1.12,1.427-2.575,2.049-3.893.428-.637-.784-1.319-1.348-2.1-.375a3.194,3.194,0,0,0-.636,1.457c-.13.857.2,1.134.72,1.135,1.677,0,2.124-.984,3.647,1.3a8.541,8.541,0,0,1,1.32,3.555c.342,2.944-1.008,2.572-2.47,4.044a4.783,4.783,0,0,0-1.534,1.984c-.365,1.234-.371,2.334,1.057,2.158a10.417,10.417,0,0,0,2.645-.819,3.362,3.362,0,0,0,1.71-2.307c.27-.758.608-1.442.859-2.208.538-1.638,1.05-3.2,4.062-2.628a2.394,2.394,0,0,1,2.124,2.273c.136,1.417,1.223,1.172,1.648.437a5.374,5.374,0,0,0,.528-1.376c.322-1.194.507-1.884,2.448-1.815a6.006,6.006,0,0,0,3.474-1.07l.036-.02c2.1-1.14,6.238-2.011,4.607,1.638a9.926,9.926,0,0,1-4.912,4.473c-1.193.507-1.21,1.1-1.224,1.628-.032,1.174-.06,2.171-2.982,2.456a6.1,6.1,0,0,1-3.244-.79c-1.267-.582-2.425-1.113-3.859.728-2.356,3.024-5.852,3.128-8.806,5.415-2.594,2.009-4.432,3.8-4.867,7.228-.5,3.91.364,5.213,1.96,5.415,3.459.44,8.158-2.03,12.71-1.484a7.682,7.682,0,0,1,3.7,1.51,11.84,11.84,0,0,0,3.113,1.567,42.673,42.673,0,0,0,16.376-18.248Zm-78.076-2.607a2.545,2.545,0,0,1,1.406-.123c2.435.425,3.366,3.168,5.4,4.58,1.364.945,2.642,1.832,4.069,5.7a13.143,13.143,0,0,0,3.914,4.925,43.682,43.682,0,0,0,8.125,5.3c1.421.728,3.315,2.551,2.743,4.331a42.6,42.6,0,0,0,34.458-2.935,14.376,14.376,0,0,1-2.307-1.3,6.531,6.531,0,0,0-3.086-1.287c-4.437-.533-9.007,1.95-12.721,1.478-2.456-.311-3.82-2.009-3.187-7,.487-3.838,2.492-5.916,5.406-8.173,2.753-2.132,6.573-2.62,8.556-5.165,2.122-2.725,3.766-1.969,5.563-1.144a5.029,5.029,0,0,0,2.522.667c1.674-.164,1.686-.586,1.7-1.083.026-.954.056-2.034,2.085-2.9a8.39,8.39,0,0,0,4.174-3.746c.416-.929.086-.9-.8-.635a10.541,10.541,0,0,0-1.843.824l-.036.019a7.045,7.045,0,0,1-4.19,1.237c-.818-.028-.9.263-1.032.766a6.578,6.578,0,0,1-.672,1.721c-1.216,2.1-4.4,1.194-4.284-.563.053-.824-.125-1.3-.976-1.462-1.791-.338-2.114.642-2.452,1.674-.257.782-.6,1.471-.87,2.241a4.488,4.488,0,0,1-2.471,3.126,11.754,11.754,0,0,1-3.05.936c-2.639.325-3.236-1.774-2.589-3.967a5.651,5.651,0,0,1,1.89-2.584c1.277-1.286,2.3-.894,2.064-2.884a7.058,7.058,0,0,0-1.087-2.929c-1.064-1.591-1.045-.618-2.606-.7-1.337-.074-2.257-.962-1.989-2.726a4.669,4.669,0,0,1,.936-2.127c1.412-1.766,3.06-1.164,4.3.364.692.85,1.192.208,1.678-.412.754-.96,1.638-1.8,2.686-.524.693.845.9.813,1.2.767a3.162,3.162,0,0,1,1.625.107c1.03.324,1.474-.639,1.738-1.48a10.813,10.813,0,0,0,.267-4.661c-.156-.683-.215-.688-.347-.7a3.82,3.82,0,0,1-1.928-.722c-.62-.411-.6-.33-.7.4-.131.982.179,1.115.818,1.93,1.048,1.336,1.35,3.34-.492,3.941a2.047,2.047,0,0,1-2.153-.619c-.442-.465-1.08-.961-1.747-.654a1.982,1.982,0,0,1-2.985-1.893,5.941,5.941,0,0,1,1.025-3.279c1.267-2.03,1.716-2.345,1.28-4.716-.5-2.714.89-5.017,3.915-4.156,1.843.525,1.684.229,1.254-1.639a12.039,12.039,0,0,1-.382-2.6c.015-2.175-.577-2.476-1.246-2.815-1.141-.58-2.427-1.232-2.728-5.349a4.128,4.128,0,0,0-.948-2.495c-1.385-1.591-7.025-3.088-8.794-3.239-1.344-.115-8.683-.443-7.833-3.208.528-1.717,4.24-3.287,6.954-2.724s3.072-1.89,6.311-.128a13.326,13.326,0,0,0,3.321,1.2c1.911.377,2.469-.4,4.3-.509a42.707,42.707,0,0,0-26.623-.161c5.645,1.147,4.486,4.971-.71,5.511a10.881,10.881,0,0,0-4.909,1.7,9.625,9.625,0,0,0-3.348,3.693c-.74,1.549.386,1.732,1.752,1.8,4.825.254,5.111,2.206,8.711,3.12,4.273,1.085,4.1,2.834,3.828,5.491-.344,3.407.291,7.391-4.181,8.185-1.712.3-2.636,2.163-3.267,3.6a5.676,5.676,0,0,1-2.476,2.772c-3.665,1.906-3.882-2.958-3.106-5.32a12.787,12.787,0,0,1,2.524-3.978c1.058-1.283.6-3.546.539-5.13-.092-2.258-.468-1.976-1.314-.11a5.878,5.878,0,0,0-.412,2.423c-.024,4.43-4.236,6.2-5.771.352-.23-.875-.278-1.059-1.9-1.047-1.418.009-1.57.8-1.781,1.9a7.668,7.668,0,0,1-2.04,4.361c-1.087,1.111.188,1.461,1.085.426a6.05,6.05,0,0,1,3.591-2.212c2.036-.2,2.275,1.658,1.314,3.157-1.077,1.682-.336,2.2.285,2.63a3.646,3.646,0,0,1,.979,4.748,4,4,0,0,0-.4,2.334,2.849,2.849,0,0,1-.8,2.57,1.77,1.77,0,0,1-2.009.005,3.344,3.344,0,0,1-1.6-2.6c-.009-.219-.016-.564-.053-.862-.065-.516-.22-.881-.627-.15a3.605,3.605,0,0,0-.305.853c-.358,1.352-.959,2.086-2.394,2.181-.552.038-1.415.1-1.741.577-1.288,1.9-2.392,2.054-3.382,1.384a6.977,6.977,0,0,1-1.829-2.569c-.7-1.341-1.5-2.666-1.525-.046a33.329,33.329,0,0,0,.895,5.635h0c.337,1.844.666,5.13-.85,6.573Q965.082,4381.857,965.455,4382.81Zm24.322,24.22c.208-.973-1.316-2.2-2.05-2.58a45.27,45.27,0,0,1-8.4-5.484,14.494,14.494,0,0,1-4.325-5.515c-1.272-3.445-2.37-4.207-3.542-5.019-1.7-1.182-3.187-4.059-4.835-4.346a1.109,1.109,0,0,0-.63.036,42.624,42.624,0,0,0,23.785,22.907Zm-25.569-27.91a10.058,10.058,0,0,0,0-4.557v0c-.41-2.246-1.8-6.851-.041-8.48,1.6-1.487,2.7.782,3.324,1.99a6.3,6.3,0,0,0,1.363,2.041c.3.2.725.013,1.411-1a3.415,3.415,0,0,1,2.824-1.2c.748-.05.93-.417,1.117-1.128a4.741,4.741,0,0,1,.439-1.179c.638-1.146,1.93-2.01,2.8-.59a4.787,4.787,0,0,1,.529,2.234,1.762,1.762,0,0,0,.457,1.067c.946,1.075,1.185.2,1.121-.9a5.208,5.208,0,0,1,.543-3.03c1.847-3.812-4.181-2.842-1.18-7.525.222-.347.73-1.051.013-.981a4.67,4.67,0,0,0-2.658,1.74c-1.774,1.77-5.873.432-3.167-2.353a6.457,6.457,0,0,0,1.662-3.639c.34-1.768.582-3.03,3.169-3.048,2.719-.018,2.815.348,3.276,2.1.947,3.607,2.967,3.417,2.985,0a7.129,7.129,0,0,1,.534-3c1.587-3.5,3.859-3.387,4.023.637.084,2.067.593,4.321-.861,6.084a11.665,11.665,0,0,0-2.269,3.519,6.632,6.632,0,0,0-.181,2.837c.1.983.152,1.371,1.283.783a4.237,4.237,0,0,0,1.832-2.077c.852-1.947,2.038-4.03,4.321-4.436,3.257-.578,2.752-4.315,3.015-6.925.194-1.924.322-3.191-2.768-3.977-3.547-.9-4.05-2.85-8.434-3.082-2.42-.127-4.186-1.268-2.962-3.83a11.106,11.106,0,0,1,3.854-4.271,12.287,12.287,0,0,1,5.542-1.92c3.68-.381,4.545-2.005.274-2.766a5.89,5.89,0,0,0-2.041,0,13.9,13.9,0,0,0-2.67.781,42.554,42.554,0,0,0-22.487,50.083Zm-19.654,5.582a.71.71,0,0,0-.573-1.3,12.732,12.732,0,0,1-1.261.472.71.71,0,0,0,.435,1.353A13.878,13.878,0,0,0,944.553,4384.7Zm80.748-56.308a11.774,11.774,0,0,1,1.919,1.061,43.729,43.729,0,1,1-1.919-1.061Z" transform="translate(-850.7 0)" fill="#d7e8f2"/>
  </g>
</svg>
