<svg xmlns="http://www.w3.org/2000/svg" width="136.9" height="118.271"><path data-name="Path 2001" d="M25.974 64.366a.711.711 0 00-.573-1.3 12.613 12.613 0 01-1.261.473.71.71 0 00.435 1.353 13.88 13.88 0 001.399-.526zm0-11.313a.711.711 0 00-.573-1.3 12.737 12.737 0 01-1.261.473.71.71 0 00.435 1.353 13.883 13.883 0 001.399-.526zm4.83 60.786a.711.711 0 00.974-1.035q-1.025-.968-2.015-1.968a.711.711 0 00-1.011 1q1.009 1.021 2.053 2.003zm-1.35-108.78a.71.71 0 00-1.038-.97c-.649.648-1.316 1.433-1.921 2.13a.71.71 0 001.073.931c.597-.685 1.253-1.452 1.887-2.091zm-4.572 5.351a.711.711 0 00-1.122-.872q-.881 1.132-1.722 2.293a.711.711 0 001.152.832q.831-1.142 1.693-2.253zm-4.074 5.743a.713.713 0 00-1.2-.769c-.519.8-1.021 1.618-1.509 2.439a.711.711 0 001.223.724c.484-.805.978-1.607 1.487-2.394zm-3.538 6.084a.711.711 0 00-1.26-.657q-.664 1.272-1.282 2.566a.711.711 0 001.283.612q.61-1.272 1.26-2.52zm-2.973 6.381a.711.711 0 00-1.314-.541q-.545 1.328-1.044 2.671a.711.711 0 001.333.493q.49-1.32 1.025-2.622zm-.333 59.081a.712.712 0 00-1.3.579q.583 1.31 1.212 2.6a.711.711 0 001.276-.625q-.616-1.262-1.187-2.553zm3.148 6.3a.711.711 0 00-1.241.693q.7 1.252 1.443 2.479a.711.711 0 001.215-.737q-.729-1.207-1.416-2.437zm3.7 5.985a.711.711 0 00-1.172.8q.81 1.184 1.66 2.338a.711.711 0 001.143-.844q-.832-1.133-1.622-2.296zm4.229 5.629a.71.71 0 00-1.1.9q.911 1.107 1.864 2.181a.711.711 0 001.062-.944q-.925-1.053-1.821-2.139zm34.384 12.592a.712.712 0 00.58-1.3q-1.285-.576-2.542-1.2a.711.711 0 00-.633 1.272c.866.424 1.725.831 2.601 1.226zm-3-116.854a.71.71 0 00-.661-1.258c-.848.443-1.689.907-2.516 1.389a.711.711 0 00.717 1.227c.817-.474 1.64-.928 2.469-1.361zm-6.034 3.6a.712.712 0 00-.8-1.177q-1.193.8-2.348 1.655a.711.711 0 00.844 1.144q1.146-.844 2.313-1.63zm-5.607 4.233a.711.711 0 00-.919-1.084q-1.1.928-2.154 1.9a.711.711 0 00.963 1.045q1.047-.96 2.119-1.868zm-5.114 4.817a.711.711 0 00-1.031-.979q-.99 1.042-1.934 2.124a.711.711 0 001.071.934 73.293 73.293 0 011.904-2.089zm-4.56 5.344a.711.711 0 00-1.132-.86q-.87 1.141-1.692 2.32a.711.711 0 001.167.812 69.485 69.485 0 011.668-2.279zm-3.951 5.807a.711.711 0 00-1.219-.73q-.74 1.231-1.429 2.492a.711.711 0 001.249.678q.685-1.242 1.408-2.447zm-3.293 6.206a.711.711 0 00-1.291-.595q-.6 1.3-1.148 2.633a.711.711 0 101.315.539q.545-1.306 1.133-2.584zm.5 54.865a.711.711 0 00-1.278.623c.419.862.855 1.712 1.309 2.558a.711.711 0 001.249-.678 89.504 89.504 0 01-1.273-2.509zm3.406 6.146a.711.711 0 00-1.2.757 64.088 64.088 0 001.582 2.4.711.711 0 001.167-.812 79.874 79.874 0 01-1.543-2.352zm4.055 5.736a.71.71 0 00-1.113.883q.892 1.128 1.833 2.212a.71.71 0 001.074-.93q-.913-1.071-1.787-2.171zm4.656 5.261a.711.711 0 00-1.01 1 68.242 68.242 0 002.062 2 .711.711 0 00.967-1.042q-1.03-.957-2.018-1.957zm5.2 4.724a.71.71 0 00-.9 1.1q1.115.908 2.267 1.765a.711.711 0 00.847-1.141q-1.117-.843-2.208-1.73zm5.682 4.13a.713.713 0 00-.77 1.2q1.206.78 2.446 1.507a.711.711 0 00.717-1.229q-1.206-.72-2.387-1.484zm-32.3-81.344a.711.711 0 001.316.537q.533-1.3 1.114-2.584a.711.711 0 00-1.294-.588q-.593 1.3-1.134 2.629zm1.849 56.132a.711.711 0 10-1.294.588c.393.872.81 1.736 1.24 2.59a.711.711 0 001.269-.64 67.759 67.759 0 01-1.208-2.545zm3.223 6.251a.711.711 0 00-1.23.712c.477.826.971 1.653 1.483 2.457a.71.71 0 101.2-.759c-.49-.808-.98-1.6-1.451-2.416zm3.8 5.923a.71.71 0 00-1.159.822q.828 1.17 1.7 2.309a.71.71 0 101.129-.862q-.851-1.127-1.666-2.275zm4.323 5.555a.711.711 0 00-1.08.924q.931 1.091 1.9 2.148a.71.71 0 101.047-.961q-.949-1.045-1.863-2.117zm4.8 5.144a.711.711 0 10-.991 1.019q1.027 1 2.089 1.966a.711.711 0 00.953-1.055q-1.036-.951-2.042-1.936zm5.259 4.674a.711.711 0 00-.89 1.109q1.119.9 2.271 1.754a.711.711 0 00.846-1.142q-1.125-.845-2.218-1.727zm.9-112.944a.711.711 0 00-.863-1.129q-1.142.868-2.248 1.783a.713.713 0 00.906 1.1q1.091-.907 2.207-1.761zm-5.378 4.531a.71.71 0 00-.97-1.038q-1.05.979-2.062 2a.711.711 0 001.009 1q1.003-1.008 2.028-1.968zm-4.907 5.04a.711.711 0 00-1.067-.938q-.949 1.076-1.856 2.188a.711.711 0 001.1.9q.897-1.102 1.828-2.156zm-4.39 5.5a.711.711 0 00-1.153-.832q-.84 1.164-1.633 2.363a.711.711 0 001.186.782 68.125 68.125 0 011.605-2.323zm-3.827 5.9a.711.711 0 00-1.23-.712q-.721 1.243-1.391 2.51a.711.711 0 001.257.664q.668-1.253 1.368-2.472zm.9 15.833c-5.6-2.1-14.74-2.1-20.341 0-2.381.895-3.855 2.048-3.855 3.25 0 1.2 1.474 2.354 3.855 3.248 5.6 2.1 14.74 2.1 20.341 0 2.55-.958 3.836-2.093 3.851-3.23s-1.265-2.307-3.847-3.278zm5.274 3.365v33.116c0 1.854-1.826 3.468-4.777 4.576-5.934 2.23-15.406 2.23-21.34 0-2.94-1.1-4.763-2.708-4.777-4.556V41.647c.013-1.846 1.836-3.452 4.777-4.558 5.934-2.229 15.406-2.229 21.34 0 2.951 1.109 4.777 2.722 4.777 4.578a.572.572 0 01.001.103zm-1.42 33.163v-8.419a10.911 10.911 0 01-3.353 1.88c-5.934 2.228-15.406 2.228-21.34 0a10.9 10.9 0 01-3.356-1.882v8.374c0 1.2 1.473 2.355 3.855 3.249 5.6 2.1 14.74 2.1 20.341 0 2.35-.893 3.815-2.028 3.855-3.212zm0-11.034v-8.478a10.9 10.9 0 01-3.353 1.879c-5.934 2.229-15.406 2.229-21.34 0a10.894 10.894 0 01-3.356-1.882v8.4c0 1.2 1.473 2.356 3.855 3.251 5.6 2.1 14.74 2.1 20.341 0 2.327-.888 3.786-2.008 3.853-3.18zm0-11.092v-8.455a10.871 10.871 0 01-3.353 1.88c-5.934 2.229-15.406 2.229-21.34 0a10.885 10.885 0 01-3.356-1.882v8.372c0 1.2 1.473 2.357 3.855 3.251 5.6 2.1 14.74 2.1 20.341 0 2.327-.883 3.786-2.005 3.853-3.175zm57-44.975a.71.71 0 000 1.421c.939 0 1.867.027 2.8.079a.71.71 0 00.072-1.419 46.368 46.368 0 00-2.87-.091zm-3.953 1.577a.71.71 0 00-.117-1.416c-.958.075-1.913.182-2.866.312a.711.711 0 00.2 1.408q1.386-.2 2.786-.313zM75.6 10.473a.711.711 0 00-.32-1.386q-1.407.321-2.791.718a.71.71 0 00.4 1.364q1.348-.396 2.714-.706zm-6.7 2.033a.71.71 0 00-.513-1.325c-.9.345-1.781.715-2.659 1.108a.713.713 0 00.586 1.3 44.586 44.586 0 012.592-1.098zm-6.334 2.971a.711.711 0 00-.7-1.237c-.839.472-1.66.963-2.472 1.479a.712.712 0 00.767 1.2 44.91 44.91 0 012.411-1.452zm-5.85 3.847a.71.71 0 00-.865-1.127 51.073 51.073 0 00-2.24 1.818.711.711 0 00.93 1.074c.715-.62 1.44-1.204 2.18-1.775zm-5.242 4.638a.711.711 0 00-1.017-.993 48.347 48.347 0 00-1.96 2.116.711.711 0 001.074.931 47.423 47.423 0 011.909-2.064zm-4.532 5.332a.711.711 0 00-1.148-.837 53.619 53.619 0 00-1.638 2.37.711.711 0 001.192.774 49.932 49.932 0 011.599-2.317zm-3.729 5.921a.711.711 0 00-1.257-.664 52.95 52.95 0 00-1.284 2.581.711.711 0 001.292.593c.399-.861.815-1.693 1.257-2.521zm-2.846 6.4a.711.711 0 00-1.338-.48 49.46 49.46 0 00-.9 2.737.711.711 0 001.362.405 50.2 50.2 0 01.881-2.677zm-1.9 6.736a.711.711 0 00-1.392-.286 56.973 56.973 0 00-.5 2.84.711.711 0 001.406.205 59.38 59.38 0 01.492-2.774zm-.915 6.937a.711.711 0 00-1.419-.081q-.086 1.439-.091 2.88a.711.711 0 001.421 0q.01-1.416.094-2.815zm.073 7a.711.711 0 00-1.416.117c.075.954.185 1.917.315 2.866a.711.711 0 001.408-.2 55.01 55.01 0 01-.302-2.797zm1.061 6.917a.711.711 0 00-1.385.319c.213.938.455 1.866.721 2.791a.711.711 0 001.365-.4q-.382-1.359-.696-2.724zm2.041 6.695a.71.71 0 00-1.325.512c.346.9.72 1.783 1.115 2.661a.711.711 0 001.291-.593 63.997 63.997 0 01-1.075-2.595zm2.979 6.329a.711.711 0 00-1.236.7c.472.838.965 1.658 1.482 2.47a.712.712 0 001.2-.768c-.501-.802-.981-1.6-1.44-2.417zm3.852 5.842a.711.711 0 00-1.123.871c.588.762 1.19 1.5 1.818 2.234a.711.711 0 001.074-.931 67.19 67.19 0 01-1.763-2.188zm4.646 5.239a.711.711 0 00-.993 1.017 53.775 53.775 0 002.119 1.958.711.711 0 00.931-1.074 69.033 69.033 0 01-2.051-1.92zm5.338 4.526a.711.711 0 00-.837 1.148 47.835 47.835 0 002.375 1.637.712.712 0 00.767-1.2 67.76 67.76 0 01-2.299-1.599zm5.926 3.722a.71.71 0 00-.663 1.256c.85.453 1.708.876 2.581 1.281a.711.711 0 00.593-1.292 80.27 80.27 0 01-2.505-1.26zm6.4 2.838a.711.711 0 00-.48 1.337c.907.324 1.818.627 2.742.9a.711.711 0 00.4-1.365 78.03 78.03 0 01-2.657-.887zm6.734 1.889a.711.711 0 00-.276 1.395c.943.19 1.888.359 2.839.5a.711.711 0 00.2-1.408 87.954 87.954 0 01-2.758-.502zm6.943.908a.711.711 0 00-.081 1.419c.959.058 1.921.084 2.881.088a.711.711 0 000-1.421 68.909 68.909 0 01-2.796-.1zm7-.081a.71.71 0 00.117 1.416 56.405 56.405 0 002.869-.319.711.711 0 00-.206-1.406c-.923.112-1.842.215-2.775.295zm6.915-1.071a.71.71 0 00.32 1.384 50.497 50.497 0 002.789-.724.711.711 0 00-.4-1.365 61.44 61.44 0 01-2.704.691zm6.692-2.05a.711.711 0 00.513 1.326c.9-.35 1.784-.719 2.66-1.119a.711.711 0 00-.594-1.291c-.844.373-1.705.731-2.574 1.07zm6.326-2.988a.711.711 0 00.7 1.237 53.593 53.593 0 002.469-1.484.712.712 0 00-.767-1.2 59.28 59.28 0 01-2.397 1.435zm5.837-3.859a.71.71 0 00.872 1.122 54.48 54.48 0 002.232-1.819.711.711 0 00-.931-1.075q-1.058.903-2.167 1.758zm5.231-4.649a.711.711 0 001.023.987 54.339 54.339 0 001.952-2.119.711.711 0 00-1.074-.93 59.457 59.457 0 01-1.896 2.048zm4.522-5.347a.711.711 0 001.148.837 51.54 51.54 0 001.634-2.377.712.712 0 00-1.2-.767 51.955 51.955 0 01-1.577 2.293zm3.714-5.931a.711.711 0 001.257.663c.452-.85.875-1.711 1.279-2.585a.713.713 0 00-1.3-.585 52.307 52.307 0 01-1.231 2.493zm2.829-6.4a.711.711 0 001.341.472c.323-.907.622-1.817.894-2.739a.711.711 0 00-1.365-.4 49.49 49.49 0 01-.865 2.656zm1.882-6.74a.711.711 0 001.394.276q.285-1.414.492-2.841a.711.711 0 00-1.408-.2 45.51 45.51 0 01-.473 2.753zm.9-6.944a.711.711 0 001.419.081q.079-1.44.084-2.881a.711.711 0 00-1.421 0c.001.924-.027 1.858-.078 2.788zm-.09-7a.711.711 0 001.416-.125 49.953 49.953 0 00-.322-2.864.711.711 0 00-1.406.206c.136.915.237 1.841.316 2.774zm-1.079-6.917a.711.711 0 001.385-.32 51.553 51.553 0 00-.729-2.792.71.71 0 00-1.362.4c.267.887.498 1.794.71 2.703zm-2.057-6.685a.711.711 0 001.322-.521c-.35-.9-.721-1.78-1.12-2.655a.711.711 0 00-1.292.594c.393.842.753 1.701 1.094 2.573zm-3-6.327a.711.711 0 001.236-.7 48.14 48.14 0 00-1.49-2.47.711.711 0 00-1.192.774c.512.771 1 1.577 1.453 2.383zm-3.867-5.832a.711.711 0 001.123-.871 53.34 53.34 0 00-1.823-2.23.71.71 0 00-1.074.93c.618.702 1.209 1.42 1.781 2.162zm-4.656-5.225a.711.711 0 00.987-1.023 55.022 55.022 0 00-2.12-1.949.71.71 0 00-.93 1.074 43.986 43.986 0 012.07 1.889zm-5.349-4.513a.711.711 0 00.831-1.153 52.773 52.773 0 00-2.376-1.629.712.712 0 00-.767 1.2 40.863 40.863 0 012.319 1.573zm-5.939-3.708a.711.711 0 00.663-1.257 47.748 47.748 0 00-2.588-1.276.71.71 0 00-.586 1.294c.854.377 1.698.793 2.519 1.23zm-6.4-2.821a.711.711 0 00.472-1.34 52.142 52.142 0 00-2.741-.891.711.711 0 00-.4 1.365c.907.252 1.793.544 2.675.852zm-6.743-1.874a.71.71 0 00.276-1.394q-1.414-.285-2.841-.49a.711.711 0 00-.2 1.407q1.398.191 2.773.468zm32.416 42.715c-3.525 2.25-2.98 6.438-2.557 9.684a13.374 13.374 0 01.18 3.685 4.054 4.054 0 01-1.3 2.356 5.052 5.052 0 01-2.589 1.17 8.41 8.41 0 00-2.459.67c-.429.249-.425.548 0 .794a10.018 10.018 0 002.587.978 5.95 5.95 0 013.072 1.583 3.464 3.464 0 01.3.37 42.372 42.372 0 003.1-15.968 42.924 42.924 0 00-.328-5.331zm-3.683 23.372a1.667 1.667 0 00-.43-1.49 4.611 4.611 0 00-2.355-1.169c-5.317-1.278-5.932-4.272-.022-5.218a3.647 3.647 0 001.867-.825 2.662 2.662 0 00.848-1.55 12.6 12.6 0 00-.186-3.252c-.5-3.814-1.144-8.78 3.744-11.382a42.568 42.568 0 00-22.4-30.9c-5.039-2.167-7.087.043-10.559-.642a15 15 0 01-3.726-1.35c-2.325-1.264-2.984.881-5.917.273a6.989 6.989 0 00-5.032 1.312c-1.364 1.359 5.988 1.789 6.311 1.816 2.219.189 8.074 1.8 9.749 3.722a5.506 5.506 0 011.292 3.327c.242 3.315 1.148 3.775 1.951 4.183 1.084.55 2.044 1.038 2.023 4.086a11.011 11.011 0 00.348 2.287c.426 1.922.764 4.317-2.193 3.5-2.344-.646-3.434-.2-2.965 2.346.515 2.8 0 3.363-1.468 5.72-.42.673-1.684 3.985.167 3.134a2.881 2.881 0 013.363.964c.687.724 1.611-.109.63-1.344-1-1.257-1.458-1.827-1.158-3.688.208-1.287 1.166-2.205 2.321-1.205a2.84 2.84 0 001.774.88c.832.083 1.207.12 1.59 1.795a12.525 12.525 0 01-.295 5.4c-.523 1.666-1.66 2.995-3.515 2.412a1.959 1.959 0 00-.992-.057 1.828 1.828 0 01-1.924-.629c-.75-.73-.386-1-1.058-.141-1.12 1.427-2.575 2.049-3.893.428-.637-.784-1.319-1.348-2.1-.375a3.194 3.194 0 00-.636 1.457c-.13.857.2 1.134.72 1.135 1.677 0 2.124-.984 3.647 1.3a8.541 8.541 0 011.32 3.555c.342 2.944-1.008 2.572-2.47 4.044a4.783 4.783 0 00-1.534 1.984c-.365 1.234-.371 2.334 1.057 2.158a10.417 10.417 0 002.645-.819 3.362 3.362 0 001.71-2.307c.27-.758.608-1.442.859-2.208.538-1.638 1.05-3.2 4.062-2.628a2.394 2.394 0 012.124 2.273c.136 1.417 1.223 1.172 1.648.437a5.374 5.374 0 00.528-1.376c.322-1.194.507-1.884 2.448-1.815a6.006 6.006 0 003.474-1.07l.036-.02c2.1-1.14 6.238-2.011 4.607 1.638a9.926 9.926 0 01-4.912 4.473c-1.193.507-1.21 1.1-1.224 1.628-.032 1.174-.06 2.171-2.982 2.456a6.1 6.1 0 01-3.244-.79c-1.267-.582-2.425-1.113-3.859.728-2.356 3.024-5.852 3.128-8.806 5.415-2.594 2.009-4.432 3.8-4.867 7.228-.5 3.91.364 5.213 1.96 5.415 3.459.44 8.158-2.03 12.71-1.484a7.682 7.682 0 013.7 1.51 11.84 11.84 0 003.113 1.567 42.673 42.673 0 0016.376-18.248zM46.87 73.711a2.545 2.545 0 011.406-.123c2.435.425 3.366 3.168 5.4 4.58 1.364.945 2.642 1.832 4.069 5.7a13.143 13.143 0 003.914 4.925 43.682 43.682 0 008.125 5.3c1.421.728 3.315 2.551 2.743 4.331a42.6 42.6 0 0034.458-2.935 14.376 14.376 0 01-2.307-1.3 6.531 6.531 0 00-3.086-1.287c-4.437-.533-9.007 1.95-12.721 1.478-2.456-.311-3.82-2.009-3.187-7 .487-3.838 2.492-5.916 5.406-8.173 2.753-2.132 6.573-2.62 8.556-5.165 2.122-2.725 3.766-1.969 5.563-1.144a5.029 5.029 0 002.522.667c1.674-.164 1.686-.586 1.7-1.083.026-.954.056-2.034 2.085-2.9a8.39 8.39 0 004.174-3.746c.416-.929.086-.9-.8-.635a10.541 10.541 0 00-1.843.824l-.036.019a7.045 7.045 0 01-4.19 1.237c-.818-.028-.9.263-1.032.766a6.578 6.578 0 01-.672 1.721c-1.216 2.1-4.4 1.194-4.284-.563.053-.824-.125-1.3-.976-1.462-1.791-.338-2.114.642-2.452 1.674-.257.782-.6 1.471-.87 2.241a4.488 4.488 0 01-2.471 3.126 11.754 11.754 0 01-3.05.936c-2.639.325-3.236-1.774-2.589-3.967a5.651 5.651 0 011.89-2.584c1.277-1.286 2.3-.894 2.064-2.884a7.058 7.058 0 00-1.087-2.929c-1.064-1.591-1.045-.618-2.606-.7-1.337-.074-2.257-.962-1.989-2.726a4.669 4.669 0 01.936-2.127c1.412-1.766 3.06-1.164 4.3.364.692.85 1.192.208 1.678-.412.754-.96 1.638-1.8 2.686-.524.693.845.9.813 1.2.767a3.162 3.162 0 011.625.107c1.03.324 1.474-.639 1.738-1.48a10.813 10.813 0 00.267-4.661c-.156-.683-.215-.688-.347-.7a3.82 3.82 0 01-1.928-.722c-.62-.411-.6-.33-.7.4-.131.982.179 1.115.818 1.93 1.048 1.336 1.35 3.34-.492 3.941a2.047 2.047 0 01-2.153-.619c-.442-.465-1.08-.961-1.747-.654a1.982 1.982 0 01-2.985-1.893 5.941 5.941 0 011.025-3.279c1.267-2.03 1.716-2.345 1.28-4.716-.5-2.714.89-5.017 3.915-4.156 1.843.525 1.684.229 1.254-1.639a12.039 12.039 0 01-.382-2.6c.015-2.175-.577-2.476-1.246-2.815-1.141-.58-2.427-1.232-2.728-5.349a4.128 4.128 0 00-.948-2.495c-1.385-1.591-7.025-3.088-8.794-3.239-1.344-.115-8.683-.443-7.833-3.208.528-1.717 4.24-3.287 6.954-2.724s3.072-1.89 6.311-.128a13.326 13.326 0 003.321 1.2c1.911.377 2.469-.4 4.3-.509a42.707 42.707 0 00-26.623-.161c5.645 1.147 4.486 4.971-.71 5.511a10.881 10.881 0 00-4.909 1.7 9.625 9.625 0 00-3.348 3.693c-.74 1.549.386 1.732 1.752 1.8 4.825.254 5.111 2.206 8.711 3.12 4.273 1.085 4.1 2.834 3.828 5.491-.344 3.407.291 7.391-4.181 8.185-1.712.3-2.636 2.163-3.267 3.6a5.676 5.676 0 01-2.476 2.772c-3.665 1.906-3.882-2.958-3.106-5.32a12.787 12.787 0 012.524-3.978c1.058-1.283.6-3.546.539-5.13-.092-2.258-.468-1.976-1.314-.11a5.878 5.878 0 00-.412 2.423c-.024 4.43-4.236 6.2-5.771.352-.23-.875-.278-1.059-1.9-1.047-1.418.009-1.57.8-1.781 1.9a7.668 7.668 0 01-2.04 4.361c-1.087 1.111.188 1.461 1.085.426a6.05 6.05 0 013.591-2.212c2.036-.2 2.275 1.658 1.314 3.157-1.077 1.682-.336 2.2.285 2.63a3.646 3.646 0 01.979 4.748 4 4 0 00-.4 2.334 2.849 2.849 0 01-.8 2.57 1.77 1.77 0 01-2.009.005 3.344 3.344 0 01-1.6-2.6c-.009-.219-.016-.564-.053-.862-.065-.516-.22-.881-.627-.15a3.605 3.605 0 00-.305.853c-.358 1.352-.959 2.086-2.394 2.181-.552.038-1.415.1-1.741.577-1.288 1.9-2.392 2.054-3.382 1.384a6.977 6.977 0 01-1.829-2.569c-.7-1.341-1.5-2.666-1.525-.046a33.329 33.329 0 00.895 5.635c.337 1.844.666 5.13-.85 6.573q.331.962.704 1.915zm24.322 24.22c.208-.973-1.316-2.2-2.05-2.58a45.27 45.27 0 01-8.4-5.484 14.494 14.494 0 01-4.325-5.515c-1.272-3.445-2.37-4.207-3.542-5.019-1.7-1.182-3.187-4.059-4.835-4.346a1.109 1.109 0 00-.63.036A42.624 42.624 0 0071.195 97.93zm-25.569-27.91a10.058 10.058 0 000-4.557c-.41-2.246-1.8-6.851-.041-8.48 1.6-1.487 2.7.782 3.324 1.99a6.3 6.3 0 001.363 2.041c.3.2.725.013 1.411-1a3.415 3.415 0 012.824-1.2c.748-.05.93-.417 1.117-1.128a4.741 4.741 0 01.439-1.179c.638-1.146 1.93-2.01 2.8-.59a4.787 4.787 0 01.529 2.234 1.762 1.762 0 00.457 1.067c.946 1.075 1.185.2 1.121-.9a5.208 5.208 0 01.543-3.03c1.847-3.812-4.181-2.842-1.18-7.525.222-.347.73-1.051.013-.981a4.67 4.67 0 00-2.658 1.74c-1.774 1.77-5.873.432-3.167-2.353a6.457 6.457 0 001.662-3.639c.34-1.768.582-3.03 3.169-3.048 2.719-.018 2.815.348 3.276 2.1.947 3.607 2.967 3.417 2.985 0a7.129 7.129 0 01.534-3c1.587-3.5 3.859-3.387 4.023.637.084 2.067.593 4.321-.861 6.084a11.665 11.665 0 00-2.269 3.519 6.632 6.632 0 00-.181 2.837c.1.983.152 1.371 1.283.783a4.237 4.237 0 001.832-2.077c.852-1.947 2.038-4.03 4.321-4.436 3.257-.578 2.752-4.315 3.015-6.925.194-1.924.322-3.191-2.768-3.977-3.547-.9-4.05-2.85-8.434-3.082-2.42-.127-4.186-1.268-2.962-3.83a11.106 11.106 0 013.854-4.271 12.287 12.287 0 015.542-1.92c3.68-.381 4.545-2.005.274-2.766a5.89 5.89 0 00-2.041 0 13.9 13.9 0 00-2.67.781 42.554 42.554 0 00-22.487 50.083zm-19.654 5.582a.71.71 0 00-.573-1.3 12.732 12.732 0 01-1.261.472.71.71 0 00.435 1.353 13.878 13.878 0 001.404-.537zm80.748-56.308a11.774 11.774 0 011.919 1.061 43.729 43.729 0 11-1.919-1.061z" fill="#d7e8f2"/></svg>