<svg id="carsen_logo" xmlns="http://www.w3.org/2000/svg" width="52.871" height="58.103" viewBox="0 0 52.871 58.103">
  <path id="Path_67" data-name="Path 67" d="M23.822,283.266s-.4-.008-.527,0a1.251,1.251,0,0,0-.183.008.507.507,0,0,0-.441.482c-.008.076-.015.437-.015.5l.005,2.4.006,3.166s0,.359,0,.472a.581.581,0,0,0,.133.329.4.4,0,0,0,.119.09.9.9,0,0,0,.295.085,4.891,4.891,0,0,0,.605.027A21.492,21.492,0,1,1,2.331,312.317a1.165,1.165,0,0,0-2.331,0,23.812,23.812,0,1,0,24.66-23.8v-2.9a26.715,26.715,0,0,1-.838,53.417,1.165,1.165,0,0,0,0,2.331,29.05,29.05,0,0,0,0-58.1" transform="translate(0 -283.263)" fill="#f84cad"/>
  <path id="Path_68" data-name="Path 68" d="M39.057,361.107A18.605,18.605,0,0,0,57.318,346a.3.3,0,0,0-.061-.243.306.306,0,0,0-.227-.107H49.854a.3.3,0,0,0-.28.206,11.035,11.035,0,1,1,0-6.68.294.294,0,0,0,.28.205h1.82a.294.294,0,0,0,.295-.294.287.287,0,0,0-.031-.132,13.37,13.37,0,1,0-.549,8.7h3.1a16.261,16.261,0,1,1,.482-8.51.292.292,0,0,0,.287.232h1.781a.294.294,0,0,0,.294-.294.3.3,0,0,0-.022-.112,18.592,18.592,0,1,0-18.25,22.135" transform="translate(-15.19 -313.442)" fill="#f84cad"/>
</svg>
