<svg xmlns="http://www.w3.org/2000/svg" width="52.871" height="58.103"><path data-name="Path 67" d="M23.822.003s-.4-.008-.527 0a1.251 1.251 0 00-.183.008.507.507 0 00-.441.482c-.008.076-.015.437-.015.5l.005 2.4.006 3.166v.472a.581.581 0 00.133.329.4.4 0 00.119.09.9.9 0 00.295.085 4.891 4.891 0 00.605.027A21.492 21.492 0 112.331 29.054a1.165 1.165 0 00-2.331 0 23.812 23.812 0 1024.66-23.8v-2.9a26.715 26.715 0 01-.838 53.417 1.165 1.165 0 000 2.331 29.05 29.05 0 000-58.1" fill="#f84cad"/><path data-name="Path 68" d="M23.867 47.665a18.605 18.605 0 0018.261-15.107.3.3 0 00-.061-.243.306.306 0 00-.227-.107h-7.176a.3.3 0 00-.28.206 11.035 11.035 0 110-6.68.294.294 0 00.28.205h1.82a.294.294 0 00.295-.294.287.287 0 00-.031-.132 13.37 13.37 0 10-.549 8.7h3.1a16.261 16.261 0 11.482-8.51.292.292 0 00.287.232h1.781a.294.294 0 00.294-.294.3.3 0 00-.022-.112 18.592 18.592 0 10-18.25 22.135" fill="#f84cad"/></svg>