<svg xmlns="http://www.w3.org/2000/svg" width="122.895" height="22.138" viewBox="0 0 122.895 22.138">
  <path id="carsen_type" d="M254.018,382.67a26.659,26.659,0,0,1-6,.622q-12,0-12-11.276,0-10.449,12-10.45a26.78,26.78,0,0,1,6,.619v4.346a24.708,24.708,0,0,0-5.585-.62q-6.933,0-6.932,6.1,0,6.93,6.932,6.929a24.765,24.765,0,0,0,5.585-.621Zm2.588-6.144q0-6.685,9.432-6.684a27.86,27.86,0,0,1,5.048.413v-1.425q0-2.919-5.648-2.918a24.956,24.956,0,0,0-7.075,1.034V362.6a25.058,25.058,0,0,1,7.075-1.032q11.131,0,11.132,7.158v14.567H273.8l-2.357-1.534a12.509,12.509,0,0,1-6.042,1.534q-8.795,0-8.792-6.766m9.432-2.547q-3.95,0-3.95,2.484t3.31,2.482a9.426,9.426,0,0,0,5.688-1.694v-2.857a26.366,26.366,0,0,0-5.048-.414m14.753,9.313V361.566h4.242l.682,2.774a8.6,8.6,0,0,1,6.04-2.774v4.426a7.178,7.178,0,0,0-5.483,2.752v14.546h-5.481Zm14.069-1.036v-4.551a22.362,22.362,0,0,0,8.358,1.448q3.538,0,3.537-2.275,0-2.072-2.377-2.07h-3.932q-6.62,0-6.62-6.621,0-6.826,9.662-6.826A23.689,23.689,0,0,1,311.2,362.6v4.555a20.96,20.96,0,0,0-7.863-1.45q-4.446,0-4.448,2.277,0,2.067,2.586,2.067H305q7.244,0,7.243,6.622,0,6.827-9.228,6.828a25.03,25.03,0,0,1-8.15-1.243m39.557-7.7H320.2q0,4.387,7.161,4.385a35.248,35.248,0,0,0,6.577-.621v4.346a36.09,36.09,0,0,1-7.407.622q-11.813,0-11.815-11.113,0-10.613,10.824-10.613,10.8,0,8.874,12.993M320.2,370.546h9.061q.289-4.678-4.344-4.674-4.343,0-4.717,4.674m18.331,12.746V361.566h4.241l.683,2.774a13.731,13.731,0,0,1,7.944-2.774q7.514,0,7.511,8.089v13.637h-5.482v-13.7q0-3.6-3.579-3.6-2.877,0-5.834,2.752v14.546h-5.485Z" transform="translate(-236.02 -361.361)" fill="#fff"/>
</svg>
