<svg xmlns="http://www.w3.org/2000/svg" width="345.433" height="130.035" viewBox="0 0 345.433 130.035">
  <g id="contact-icon" transform="translate(0 0)">
    <path id="Path_2021" data-name="Path 2021" d="M2141.923,16417.428a1.132,1.132,0,0,1-.761-2.131c20.465-7.322,44.384-10.8,65.948-13.09a1.13,1.13,0,0,1,.239,2.248C2185.973,16406.727,2162.208,16410.174,2141.923,16417.428Zm136.458-50.682a1.889,1.889,0,0,1-3.777,0,10.76,10.76,0,1,1,10.759,10.758,1.889,1.889,0,0,1,0-3.777,6.979,6.979,0,1,0-6.981-6.98Zm6.612-24.059a22.954,22.954,0,0,1,22.955,22.951c0,6.023-3.793,16.008-8.357,24.574-4.888,9.174-10.922,16.854-14.6,16.854s-9.71-7.68-14.6-16.854c-4.564-8.566-8.357-18.551-8.357-24.574A22.954,22.954,0,0,1,2284.993,16342.688Zm0,3.777a19.175,19.175,0,0,0-19.178,19.174c0,5.406,3.586,14.705,7.9,22.8,4.306,8.082,9.075,14.848,11.278,14.848s6.972-6.766,11.278-14.848c4.314-8.1,7.9-17.4,7.9-22.8A19.175,19.175,0,0,0,2284.993,16346.465Zm100.851,56.1a1.889,1.889,0,0,1-3.777,0,10.759,10.759,0,1,1,10.759,10.758,1.888,1.888,0,0,1,0-3.775,6.98,6.98,0,1,0-6.981-6.982Zm6.612-24.057a22.953,22.953,0,0,1,22.955,22.949c0,6.023-3.793,16.006-8.357,24.572-4.888,9.174-10.922,16.854-14.6,16.854s-9.71-7.68-14.6-16.854c-4.564-8.566-8.357-18.549-8.357-24.572A22.953,22.953,0,0,1,2392.457,16378.5Zm0,3.775a19.176,19.176,0,0,0-19.178,19.174c0,5.406,3.586,14.707,7.9,22.8,4.306,8.08,9.075,14.848,11.278,14.848s6.972-6.768,11.278-14.85,7.9-17.395,7.9-22.8A19.175,19.175,0,0,0,2392.457,16382.279Zm-63.274,13.545a1.889,1.889,0,0,1-3.778,0,10.759,10.759,0,1,1,10.759,10.76,1.889,1.889,0,0,1,0-3.777,6.98,6.98,0,1,0-6.981-6.982Zm6.612-24.057a22.954,22.954,0,0,1,22.956,22.951c0,6.023-3.793,16.008-8.357,24.572-4.888,9.174-10.922,16.854-14.6,16.854s-9.71-7.68-14.6-16.854c-4.564-8.564-8.357-18.549-8.357-24.572A22.953,22.953,0,0,1,2335.794,16371.768Zm0,3.775a19.177,19.177,0,0,0-19.178,19.176c0,5.4,3.586,14.705,7.9,22.8,4.306,8.082,9.074,14.848,11.278,14.848s6.972-6.766,11.278-14.848c4.314-8.1,7.9-17.4,7.9-22.8A19.177,19.177,0,0,0,2335.794,16375.543Zm-111.761,9.342a1.889,1.889,0,0,1-3.778,0,10.759,10.759,0,1,1,10.759,10.756,1.889,1.889,0,0,1,0-3.777,6.979,6.979,0,1,0-6.982-6.979Zm6.612-24.061a22.955,22.955,0,0,1,22.955,22.951c0,6.023-3.793,16.008-8.357,24.574-4.888,9.174-10.922,16.854-14.6,16.854s-9.71-7.68-14.6-16.854c-4.564-8.566-8.357-18.551-8.357-24.574A22.955,22.955,0,0,1,2230.645,16360.824Zm0,3.777a19.176,19.176,0,0,0-19.178,19.174c0,5.406,3.586,14.705,7.9,22.8,4.306,8.082,9.075,14.848,11.278,14.848s6.972-6.766,11.278-14.848c4.314-8.1,7.9-17.4,7.9-22.8A19.175,19.175,0,0,0,2230.645,16364.6Zm-122.01,23.855a1.889,1.889,0,0,1-3.777,0,13.031,13.031,0,1,1,13.031,13.027,1.889,1.889,0,0,1,0-3.777,9.25,9.25,0,1,0-9.253-9.25Zm8.789-29.738a28.349,28.349,0,0,1,28.351,28.346c0,7.486-4.738,19.941-10.439,30.641-6.066,11.381-13.482,20.912-17.912,20.912s-11.846-9.531-17.911-20.912c-5.7-10.7-10.439-23.154-10.439-30.641A28.349,28.349,0,0,1,2117.425,16358.719Zm0,3.777a24.571,24.571,0,0,0-24.573,24.568c0,6.869,4.53,18.639,9.981,28.869,5.484,10.291,11.635,18.906,14.592,18.906s9.108-8.615,14.591-18.906c5.451-10.23,9.982-22,9.982-28.869A24.571,24.571,0,0,0,2117.425,16362.5Zm21.037,61.625a1.131,1.131,0,0,1-.584-2.186c23.251-6.3,50.828-8.17,74.874-8.865a1.128,1.128,0,0,1,.062,2.256C2188.965,16416.02,2161.519,16417.875,2138.461,16424.121Zm109.139-8.822a1.128,1.128,0,1,1,.062-2.256c22.873.625,47.251,2.43,69.605,7.432a1.129,1.129,0,0,1-.487,2.205C2294.584,16417.715,2270.313,16415.92,2247.6,16415.3Zm95.5,21.395a1.129,1.129,0,0,1,2.213.441,6.929,6.929,0,0,1-.245.906c-3.761,10.863-36.093,17.67-76.076,19.977-41.114,2.369-95.656,1.166-135.639-9.855a1.13,1.13,0,1,1,.6-2.178c39.745,10.957,94.043,12.133,134.914,9.775,39.022-2.252,70.486-8.52,74.018-18.32a5.339,5.339,0,0,0,.214-.746Zm-88.067-35.328a1.128,1.128,0,0,1-.062-2.256c5.363-.154,10.709-.273,16.074-.291a1.129,1.129,0,0,1,0,2.258C2265.7,16401.094,2260.376,16401.213,2255.034,16401.365Zm43.742.043a1.128,1.128,0,0,1,.062-2.256c3.445.107,6.857.4,10.294.574a1.13,1.13,0,0,1-.106,2.258C2305.6,16401.814,2302.2,16401.516,2298.776,16401.408Zm61.821,5.406a1.132,1.132,0,0,1,.318-2.242c1.758.252,3.478.639,5.228.914a1.129,1.129,0,0,1-.345,2.23C2364.056,16407.443,2362.343,16407.061,2360.6,16406.814Zm54.6,13.074a1.13,1.13,0,0,1,.868-2.086c7.291,3.045,18.439,8.764,18.439,17.965,0,10.492-18.084,19.824-47.321,26.43-28.775,6.5-68.5,10.525-112.353,10.525-38.059,0-73.011-3.029-100.4-8.082-28.052-5.176-48.239-12.518-55.817-20.953a1.132,1.132,0,0,1,1.682-1.514c7.242,8.063,26.974,15.16,54.542,20.246,27.234,5.021,62.042,8.035,99.988,8.035,43.706,0,83.252-4,111.858-10.461,28.143-6.359,45.55-14.937,45.55-24.227,0-7.982-10.8-13.27-17.04-15.879Z" transform="translate(-2089.074 -16342.688)" fill="#d7e8f2"/>
  </g>
</svg>
