<svg xmlns="http://www.w3.org/2000/svg" width="345.433" height="130.035"><path data-name="Path 2021" d="M52.849 74.74a1.132 1.132 0 01-.761-2.131c20.465-7.322 44.384-10.8 65.948-13.09a1.13 1.13 0 01.239 2.248c-21.376 2.272-45.141 5.719-65.426 12.973zm136.458-50.682a1.889 1.889 0 01-3.777 0 10.76 10.76 0 1110.759 10.758 1.889 1.889 0 010-3.777 6.979 6.979 0 10-6.981-6.98zm6.612-24.059a22.954 22.954 0 0122.955 22.951c0 6.023-3.793 16.008-8.357 24.574-4.888 9.174-10.922 16.854-14.6 16.854s-9.71-7.68-14.6-16.854c-4.564-8.566-8.357-18.551-8.357-24.574A22.954 22.954 0 01195.919 0zm0 3.777a19.175 19.175 0 00-19.178 19.174c0 5.406 3.586 14.705 7.9 22.8 4.306 8.082 9.075 14.848 11.278 14.848s6.972-6.766 11.278-14.848c4.314-8.1 7.9-17.4 7.9-22.8a19.175 19.175 0 00-19.178-19.173zm100.851 56.1a1.889 1.889 0 01-3.777 0 10.759 10.759 0 1110.759 10.758 1.888 1.888 0 010-3.775 6.98 6.98 0 10-6.981-6.982zm6.612-24.057a22.953 22.953 0 0122.955 22.949c0 6.023-3.793 16.006-8.357 24.572-4.888 9.174-10.922 16.854-14.6 16.854s-9.71-7.68-14.6-16.854c-4.564-8.566-8.357-18.549-8.357-24.572a22.953 22.953 0 0122.96-22.956zm0 3.775a19.176 19.176 0 00-19.178 19.174c0 5.406 3.586 14.707 7.9 22.8 4.306 8.08 9.075 14.848 11.278 14.848s6.972-6.768 11.278-14.85 7.9-17.395 7.9-22.8a19.175 19.175 0 00-19.177-19.175zm-63.274 13.545a1.889 1.889 0 01-3.778 0 10.759 10.759 0 1110.759 10.76 1.889 1.889 0 010-3.777 6.98 6.98 0 10-6.981-6.982zm6.612-24.057a22.954 22.954 0 0122.956 22.951c0 6.023-3.793 16.008-8.357 24.572-4.888 9.174-10.922 16.854-14.6 16.854s-9.71-7.68-14.6-16.854c-4.564-8.564-8.357-18.549-8.357-24.572A22.953 22.953 0 01246.72 29.08zm0 3.775a19.177 19.177 0 00-19.178 19.176c0 5.4 3.586 14.705 7.9 22.8 4.306 8.082 9.074 14.848 11.278 14.848s6.972-6.766 11.278-14.848c4.314-8.1 7.9-17.4 7.9-22.8a19.177 19.177 0 00-19.178-19.178zm-111.761 9.342a1.889 1.889 0 01-3.778 0 10.759 10.759 0 1110.759 10.756 1.889 1.889 0 010-3.777 6.979 6.979 0 10-6.982-6.979zm6.612-24.061a22.955 22.955 0 0122.955 22.951c0 6.023-3.793 16.008-8.357 24.574-4.888 9.174-10.922 16.854-14.6 16.854s-9.71-7.68-14.6-16.854c-4.564-8.566-8.357-18.551-8.357-24.574a22.955 22.955 0 0122.959-22.953zm0 3.777a19.176 19.176 0 00-19.178 19.174c0 5.406 3.586 14.705 7.9 22.8 4.306 8.082 9.075 14.848 11.278 14.848s6.972-6.766 11.278-14.848c4.314-8.1 7.9-17.4 7.9-22.8a19.175 19.175 0 00-19.178-19.177zM19.561 45.77a1.889 1.889 0 01-3.777 0 13.031 13.031 0 1113.031 13.027 1.889 1.889 0 010-3.777 9.25 9.25 0 10-9.253-9.25zm8.789-29.738a28.349 28.349 0 0128.351 28.346c0 7.486-4.738 19.941-10.439 30.641C40.196 86.4 32.78 95.931 28.35 95.931S16.504 86.4 10.439 75.019C4.739 64.319 0 51.865 0 44.378a28.349 28.349 0 0128.351-28.347zm0 3.777A24.571 24.571 0 003.777 44.377c0 6.869 4.53 18.639 9.981 28.869 5.484 10.291 11.635 18.906 14.592 18.906s9.108-8.615 14.591-18.906c5.451-10.23 9.982-22 9.982-28.869a24.571 24.571 0 00-24.572-24.565zm21.037 61.625a1.131 1.131 0 01-.584-2.186c23.251-6.3 50.828-8.17 74.874-8.865a1.128 1.128 0 01.062 2.256c-23.848.693-51.294 2.548-74.352 8.794zm109.139-8.822a1.128 1.128 0 11.062-2.256c22.873.625 47.251 2.43 69.605 7.432a1.13 1.13 0 01-.487 2.205c-22.196-4.966-46.467-6.761-69.18-7.381zm95.5 21.395a1.129 1.129 0 012.213.441 6.929 6.929 0 01-.245.906c-3.761 10.863-36.093 17.67-76.076 19.977-41.114 2.369-95.656 1.166-135.639-9.855a1.13 1.13 0 11.6-2.178c39.745 10.957 94.043 12.133 134.914 9.775 39.022-2.252 70.486-8.52 74.018-18.32a5.339 5.339 0 00.214-.746zm-88.067-35.328a1.128 1.128 0 01-.062-2.256c5.363-.154 10.709-.273 16.074-.291a1.129 1.129 0 010 2.258c-5.345.016-10.669.135-16.011.287zm43.742.043a1.128 1.128 0 01.062-2.256c3.445.107 6.857.4 10.294.574a1.13 1.13 0 01-.106 2.258c-3.425-.172-6.825-.47-10.249-.578zm61.821 5.406a1.132 1.132 0 01.318-2.242c1.758.252 3.478.639 5.228.914a1.129 1.129 0 01-.345 2.23c-1.741-.275-3.454-.657-5.197-.904zm54.6 13.074a1.13 1.13 0 01.868-2.086c7.291 3.045 18.439 8.764 18.439 17.965 0 10.492-18.084 19.824-47.321 26.43-28.775 6.5-68.5 10.525-112.353 10.525-38.059 0-73.011-3.029-100.4-8.082-28.052-5.176-48.239-12.518-55.817-20.953a1.132 1.132 0 011.682-1.514c7.242 8.063 26.974 15.16 54.542 20.246 27.234 5.021 62.042 8.035 99.988 8.035 43.706 0 83.252-4 111.858-10.461 28.143-6.359 45.55-14.937 45.55-24.227 0-7.982-10.8-13.27-17.04-15.879z" fill="#d7e8f2"/></svg>