<svg xmlns="http://www.w3.org/2000/svg" width="116.556" height="119" viewBox="0 0 116.556 119">
  <g id="customer-icon" transform="translate(-123.649 -1296.6)">
    <path id="Path_2002" data-name="Path 2002" d="M1869.391,1400.894a13.416,13.416,0,1,0,26.831,0,13.165,13.165,0,0,0-3.947-9.518,13.922,13.922,0,0,0-9.788-3.9h-13.1v13.416Zm8.946-50.033c.028.3.646.615,1.579.9a21.527,21.527,0,0,0,10.521,0c.417-.127,1.534-.406,1.534-.947a3.254,3.254,0,0,0-.931-2.06,4.436,4.436,0,0,0-2.221-1.3.626.626,0,1,1,.3-1.216,5.688,5.688,0,0,1,2.844,1.675,4.677,4.677,0,0,1,1.254,2.655.652.652,0,0,1,.051.275c0,.955-.975,1.662-2.467,2.117a22.717,22.717,0,0,1-11.246,0c-1.477-.45-2.449-1.148-2.467-2.089,0-.018,0-.036,0-.054a4.531,4.531,0,0,1,1.264-2.9,5.688,5.688,0,0,1,2.844-1.675.626.626,0,1,1,.3,1.216,4.437,4.437,0,0,0-2.221,1.3,3.254,3.254,0,0,0-.931,2.06C1878.339,1350.829,1878.338,1350.845,1878.337,1350.861Zm4.5-7.032a2.749,2.749,0,0,0,2.3,2.055,2.416,2.416,0,0,0,2.191-1.659c.594-1.439,1.042-3.388.113-4.787a2.774,2.774,0,0,0-4.5-.075C1881.979,1340.619,1882.339,1342.459,1882.834,1343.829Zm-1.177.422c-.652-1.806-.96-4.016.285-5.648a4.032,4.032,0,0,1,6.541.144c1.182,1.78.765,4.1,0,5.954a3.636,3.636,0,0,1-3.377,2.434,3.936,3.936,0,0,1-3.449-2.883Zm-5.73,61.039c.028.3.646.615,1.579.9a21.528,21.528,0,0,0,10.521,0c.834-.254,1.417-.532,1.551-.8a.63.63,0,0,1-.017-.143,3.252,3.252,0,0,0-.931-2.06,4.435,4.435,0,0,0-2.221-1.3.626.626,0,1,1,.3-1.216,5.688,5.688,0,0,1,2.844,1.676,4.676,4.676,0,0,1,1.253,2.655.621.621,0,0,1,.051.226v.048c0,.955-.975,1.662-2.467,2.116a22.717,22.717,0,0,1-11.246,0c-1.477-.45-2.449-1.148-2.467-2.088,0-.018,0-.036,0-.054a4.53,4.53,0,0,1,1.264-2.9,5.687,5.687,0,0,1,2.844-1.676.626.626,0,1,1,.3,1.216,4.435,4.435,0,0,0-2.221,1.3,3.253,3.253,0,0,0-.931,2.06C1875.929,1405.258,1875.928,1405.274,1875.927,1405.29Zm4.5-7.032a3.458,3.458,0,0,0,1.1,1.61,1.98,1.98,0,0,0,2.392.082,2.853,2.853,0,0,0,1-1.3c.594-1.439,1.042-3.388.113-4.787a2.774,2.774,0,0,0-4.5-.075C1879.569,1395.048,1879.929,1396.887,1880.424,1398.257Zm.337,2.605a4.7,4.7,0,0,1-1.514-2.184c-.652-1.806-.96-4.016.285-5.648a4.032,4.032,0,0,1,6.541.144c1.182,1.78.765,4.1,0,5.954a4.1,4.1,0,0,1-1.455,1.855A3.239,3.239,0,0,1,1880.761,1400.863Zm-45.8-12.546c.028.3.646.615,1.579.9a21.53,21.53,0,0,0,10.521,0c.834-.254,1.417-.532,1.551-.8a.635.635,0,0,1-.016-.143,3.254,3.254,0,0,0-.931-2.06,4.433,4.433,0,0,0-2.221-1.3.626.626,0,0,1,.3-1.216,5.69,5.69,0,0,1,2.844,1.676,4.676,4.676,0,0,1,1.253,2.654.624.624,0,0,1,.051.227v.048c0,.955-.975,1.662-2.467,2.117a22.717,22.717,0,0,1-11.246,0c-1.477-.45-2.449-1.148-2.467-2.089,0-.018,0-.036,0-.054a4.53,4.53,0,0,1,1.264-2.9,5.689,5.689,0,0,1,2.844-1.676.626.626,0,0,1,.3,1.216,4.434,4.434,0,0,0-2.221,1.3,3.254,3.254,0,0,0-.931,2.06C1834.964,1388.284,1834.964,1388.3,1834.962,1388.316Zm4.5-7.032a3.458,3.458,0,0,0,1.1,1.61,1.979,1.979,0,0,0,2.392.082,2.851,2.851,0,0,0,1-1.3c.594-1.439,1.042-3.388.113-4.787a2.774,2.774,0,0,0-4.5-.075C1838.6,1378.074,1838.964,1379.913,1839.459,1381.284Zm.337,2.605a4.7,4.7,0,0,1-1.514-2.184c-.652-1.806-.96-4.016.285-5.648a4.032,4.032,0,0,1,6.541.144c1.182,1.78.765,4.1,0,5.954a4.094,4.094,0,0,1-1.454,1.855A3.239,3.239,0,0,1,1839.8,1383.89Zm-45.655,21.4c.028.3.646.615,1.579.9a21.528,21.528,0,0,0,10.521,0c.834-.254,1.417-.532,1.551-.8a.631.631,0,0,1-.016-.143,3.254,3.254,0,0,0-.931-2.06,4.436,4.436,0,0,0-2.222-1.3.626.626,0,1,1,.3-1.216,5.688,5.688,0,0,1,2.844,1.676,4.676,4.676,0,0,1,1.254,2.655.623.623,0,0,1,.051.226v.048c0,.955-.975,1.662-2.467,2.116a22.717,22.717,0,0,1-11.246,0c-1.477-.45-2.449-1.148-2.467-2.088,0-.018,0-.036,0-.054a4.531,4.531,0,0,1,1.264-2.9,5.688,5.688,0,0,1,2.844-1.676.626.626,0,1,1,.3,1.216,4.436,4.436,0,0,0-2.221,1.3,3.252,3.252,0,0,0-.931,2.06C1794.143,1405.258,1794.142,1405.274,1794.141,1405.29Zm4.5-7.032a3.458,3.458,0,0,0,1.1,1.61,1.98,1.98,0,0,0,2.392.082,2.853,2.853,0,0,0,1-1.3c.594-1.439,1.042-3.388.113-4.787a2.774,2.774,0,0,0-4.5-.075C1797.783,1395.048,1798.143,1396.887,1798.638,1398.257Zm.337,2.605a4.7,4.7,0,0,1-1.514-2.184c-.652-1.806-.96-4.016.286-5.648a4.032,4.032,0,0,1,6.541.144c1.182,1.78.765,4.1,0,5.954a4.1,4.1,0,0,1-1.455,1.855A3.239,3.239,0,0,1,1798.975,1400.863Zm-7.837-50.1c.028.3.646.614,1.579.9a21.531,21.531,0,0,0,10.521,0c.834-.254,1.417-.532,1.551-.8a.629.629,0,0,1-.016-.143,3.253,3.253,0,0,0-.931-2.06,4.434,4.434,0,0,0-2.221-1.3.626.626,0,0,1,.3-1.216,5.689,5.689,0,0,1,2.844,1.676,4.679,4.679,0,0,1,1.254,2.654.632.632,0,0,1,.051.227v.048c0,.955-.975,1.662-2.467,2.117a22.715,22.715,0,0,1-11.246,0c-1.477-.45-2.449-1.148-2.467-2.089,0-.018,0-.036,0-.054a4.528,4.528,0,0,1,1.264-2.9,5.688,5.688,0,0,1,2.844-1.676.626.626,0,0,1,.3,1.216,4.435,4.435,0,0,0-2.221,1.3,3.253,3.253,0,0,0-.931,2.06C1791.14,1350.734,1791.139,1350.75,1791.138,1350.766Zm4.5-7.032a3.46,3.46,0,0,0,1.1,1.61,1.98,1.98,0,0,0,2.392.082,2.853,2.853,0,0,0,1-1.3c.594-1.439,1.042-3.388.113-4.787a2.774,2.774,0,0,0-4.5-.075c-.959,1.257-.6,3.1-.1,4.466Zm.337,2.605a4.7,4.7,0,0,1-1.514-2.184c-.652-1.806-.96-4.016.285-5.648a4.032,4.032,0,0,1,6.541.144c1.182,1.78.765,4.1,0,5.954a4.1,4.1,0,0,1-1.455,1.855A3.239,3.239,0,0,1,1795.973,1346.34Zm38.99-30.335c.028.3.646.614,1.579.9a21.53,21.53,0,0,0,10.521,0c.834-.254,1.417-.532,1.551-.8a.627.627,0,0,1-.016-.143,3.253,3.253,0,0,0-.931-2.06,4.434,4.434,0,0,0-2.221-1.3.626.626,0,0,1,.3-1.216,5.689,5.689,0,0,1,2.844,1.676,4.676,4.676,0,0,1,1.254,2.654.626.626,0,0,1,.051.227v.048c0,.955-.975,1.662-2.467,2.117a22.717,22.717,0,0,1-11.246,0c-1.477-.45-2.449-1.148-2.467-2.089,0-.018,0-.036,0-.054a4.53,4.53,0,0,1,1.264-2.9,5.689,5.689,0,0,1,2.844-1.676.626.626,0,0,1,.3,1.216,4.435,4.435,0,0,0-2.221,1.3,3.253,3.253,0,0,0-.931,2.06Q1834.964,1315.981,1834.962,1316Zm4.5-7.032a2.749,2.749,0,0,0,2.3,2.055,2.417,2.417,0,0,0,2.191-1.659c.594-1.439,1.042-3.388.113-4.787a2.774,2.774,0,0,0-4.5-.075C1838.6,1305.763,1838.964,1307.6,1839.459,1308.972Zm-1.177.422c-.652-1.806-.96-4.016.285-5.648a4.032,4.032,0,0,1,6.541.144c1.182,1.78.765,4.1,0,5.954a3.635,3.635,0,0,1-3.377,2.434A3.936,3.936,0,0,1,1838.283,1309.394Zm-22.751,91.536a14.671,14.671,0,0,1-29.342,0,14.411,14.411,0,0,1,4.33-10.415,15.168,15.168,0,0,1,10.661-4.256h2.365a46.161,46.161,0,0,1-8.184-26.007,14.654,14.654,0,1,1,8.961-27.691,46.605,46.605,0,0,1,23.44-16.845,14.695,14.695,0,1,1,27.946-.037,45.99,45.99,0,0,1,13.062,6.531,46.657,46.657,0,0,1,10.451,10.378,14.674,14.674,0,0,1,20.858,13.306,14.41,14.41,0,0,1-4.33,10.415,14.959,14.959,0,0,1-7.608,3.962,46.162,46.162,0,0,1-8.159,25.952h2.5a15.167,15.167,0,0,1,10.661,4.256,14.41,14.41,0,0,1,4.33,10.415,14.671,14.671,0,0,1-29.342,0h0V1398.1a46.343,46.343,0,0,1-52.609.115v2.714Zm62.924-14.706a44.994,44.994,0,0,0,6.235-12.326q.68-2.1,1.158-4.278a31.185,31.185,0,0,1-7.558,10.419,42.84,42.84,0,0,1-8.719,6.185Zm-10.317,1.365a45.513,45.513,0,0,1-3.061,4.957,33.2,33.2,0,0,1-13.526,11.467q2.124-.47,4.17-1.136a44.99,44.99,0,0,0,12.417-6.306v-8.982Zm-55.276-28.273h12.273a123.526,123.526,0,0,1,.874-14.25,88.422,88.422,0,0,0-13.146,2.671Zm0-12.361a89.767,89.767,0,0,1,13.172-2.648l.071-.009c.258-2.008.565-3.95.916-5.817a77.352,77.352,0,0,1,2.376-9.5,57.8,57.8,0,0,0-6.868,1.814,52.178,52.178,0,0,0-7.02,2.9,52.655,52.655,0,0,0-3.236,8.058,14.685,14.685,0,0,1,.592,4.138h0Zm-1-6.392a53.508,53.508,0,0,1,2.519-6.281,44.969,44.969,0,0,0-4.494,2.756A14.649,14.649,0,0,1,1811.866,1340.563Zm-2.444-4.112a46.206,46.206,0,0,1,5.527-3.31,46.028,46.028,0,0,1,3.51-5.809,35.166,35.166,0,0,1,10.082-9.665q-.186-.383-.348-.775a45.316,45.316,0,0,0-22.739,16.251,14.73,14.73,0,0,1,3.115,2.378Q1809.014,1335.967,1809.422,1336.451Zm-5.077-2.482a.624.624,0,0,1-.195-.094l-.019-.014a13.418,13.418,0,1,0-5.617,25.45h13.1v-13.416h0a13.43,13.43,0,0,0-7.265-11.926Zm21.544,25.347h31.728a122.648,122.648,0,0,0-.89-14.347,126.28,126.28,0,0,0-29.948,0A122.619,122.619,0,0,0,1825.888,1359.315Zm32.481,0h12.371v-11.55a88.231,88.231,0,0,0-13.245-2.7A123.472,123.472,0,0,1,1858.369,1359.315Zm-31.494-15.115a126.717,126.717,0,0,1,29.753,0q-.372-2.856-.873-5.522a75.876,75.876,0,0,0-2.492-9.859,62.243,62.243,0,0,0-7.4-.914l-4.114,4.114-4.113-4.113a62.283,62.283,0,0,0-7.394.914,75.813,75.813,0,0,0-2.48,9.8Q1827.254,1341.307,1826.876,1344.2Zm30.523.1.107.014a89.515,89.515,0,0,1,13.234,2.672v-1.088h0a14.679,14.679,0,0,1,.545-3.974A52.745,52.745,0,0,0,1868,1333.7a52.137,52.137,0,0,0-6.964-2.885,57.766,57.766,0,0,0-6.924-1.833,77.5,77.5,0,0,1,2.387,9.559C1856.841,1340.388,1857.144,1342.311,1857.4,1344.3Zm-5.968-21.961a45.753,45.753,0,0,1,2.405,5.828,58.756,58.756,0,0,1,7.431,1.939,53.448,53.448,0,0,1,6.146,2.474,44.831,44.831,0,0,0-2.93-4.741,34.462,34.462,0,0,0-9.908-9.528,15.744,15.744,0,0,1-2.679,3.563Zm6.939,38.235c-.018,3.888-.21,7.667-.553,11.279q-.143,1.506-.321,2.97a83.977,83.977,0,0,0,15.393-3.369,63.027,63.027,0,0,0,1.029-10.881Zm-.971,15.019c-.286,2.223-.631,4.366-1.03,6.414a14.543,14.543,0,0,1,.1,1.563,14.282,14.282,0,0,1-1.885,7.27,54.262,54.262,0,0,0,13.432-4.645,54.765,54.765,0,0,0,4.709-13.9A85.829,85.829,0,0,1,1857.4,1375.589Zm-1.419,4.381q.362-2.085.65-4.285-1.172.143-2.373.263A15.157,15.157,0,0,1,1855.98,1379.97Zm.747-5.053q.19-1.544.342-3.138c.34-3.574.529-7.329.547-11.209h-31.728c.018,3.872.207,7.62.545,11.188q.152,1.6.344,3.159,1.461.18,2.966.326a14.733,14.733,0,0,1,1.677-2l10.374-10.374,10.148,10.148a15.911,15.911,0,0,1,1.854,2.225q1.486-.144,2.93-.322Zm-3.739-46.912a44.78,44.78,0,0,0-2.117-5.11l-4.3,4.3A62.939,62.939,0,0,1,1852.988,1328.006Zm.657,64.271a33.216,33.216,0,0,1-5.163,9.93,12.666,12.666,0,0,1-2.974,2.718q.531-.044,1.059-.1c6.937-1.466,13.154-6.052,17.9-12.715a44.736,44.736,0,0,0,2.967-4.793,55.647,55.647,0,0,1-13.391,4.4Q1853.851,1392,1853.645,1392.276ZM1838,1404.925a12.66,12.66,0,0,1-2.981-2.726,33.6,33.6,0,0,1-5.241-10.168q-.135-.193-.264-.389a56.739,56.739,0,0,1-13.481-4.447,44.864,44.864,0,0,0,3.016,4.89c4.749,6.678,10.969,11.276,17.911,12.743q.519.055,1.041.1Zm-6.776-11.14a29.857,29.857,0,0,0,4.374,7.937,9.861,9.861,0,0,0,4.394,3.323q.877.034,1.762.034t1.763-.034a9.853,9.853,0,0,0,4.387-3.315,29.6,29.6,0,0,0,4.323-7.8l-.057.058a14.671,14.671,0,0,1-20.747,0C1831.353,1393.921,1831.287,1393.854,1831.221,1393.785Zm-4.035-11.528c-.42-2.125-.782-4.354-1.08-6.669a85.867,85.867,0,0,1-15.314-3.29,54.933,54.933,0,0,0,4.658,13.772,55.32,55.32,0,0,0,13.529,4.694,14.656,14.656,0,0,1-1.856-7.15Q1827.123,1382.935,1827.186,1382.257Zm-1.176-7.437q-.179-1.474-.323-2.991c-.342-3.606-.533-7.378-.551-11.258h-15.547a63.053,63.053,0,0,0,1.042,10.885A83.979,83.979,0,0,0,1826.01,1374.82Zm3.659-46.657a45.783,45.783,0,0,1,2.4-5.821l-.7-.7a14.663,14.663,0,0,1-2.488-3.309,34.448,34.448,0,0,0-9.816,9.431,44.76,44.76,0,0,0-2.979,4.81,53.407,53.407,0,0,1,6.2-2.493A58.672,58.672,0,0,1,1829.669,1328.163Zm2.961-5.262a44.747,44.747,0,0,0-2.114,5.1,62.968,62.968,0,0,1,6.413-.805Zm-5.755,52.784q.3,2.268.673,4.418a14.592,14.592,0,0,1,1.733-4.151Q1828.064,1375.83,1826.875,1375.685Zm44.809-34.984a14.628,14.628,0,0,1,1.993-3.617,44.954,44.954,0,0,0-4.558-2.8A53.5,53.5,0,0,1,1871.684,1340.7Zm-56.154,47.148v8.837a44.98,44.98,0,0,0,12.313,6.211q2.031.657,4.144,1.124a33.215,33.215,0,0,1-13.552-11.5A45.4,45.4,0,0,1,1815.53,1387.849Zm59.14-27.279a63.861,63.861,0,0,1-.968,10.6c1.484-.517,2.868-1.071,4.141-1.656,4.856-2.232,8.073-4.912,9.011-7.81q.022-.567.03-1.138Zm-1.124,11.451a56.122,56.122,0,0,1-4.4,13.581,42.14,42.14,0,0,0,8.637-6.114,28.39,28.39,0,0,0,8.865-14.818q.051-.487.091-.977c-1.525,2.422-4.5,4.632-8.58,6.508A48.466,48.466,0,0,1,1873.547,1372.021Zm-59.217,13.464a56.291,56.291,0,0,1-4.358-13.459,48.325,48.325,0,0,1-4.638-1.832c-4.071-1.874-7.041-4.081-8.564-6.5q.042.506.094,1.009a28.132,28.132,0,0,0,8.839,14.7A42.321,42.321,0,0,0,1814.33,1385.485Zm-4.515-14.307a63.9,63.9,0,0,1-.98-10.608h-12.214q.008.571.03,1.137c.938,2.895,4.149,5.572,9,7.8C1806.929,1370.1,1808.322,1370.657,1809.815,1371.178Zm45.106-53.538a35.179,35.179,0,0,1,10.175,9.761,46.025,46.025,0,0,1,3.46,5.74,46.117,46.117,0,0,1,5.59,3.354q.423-.506.89-.973a14.738,14.738,0,0,1,3.063-2.348,45.4,45.4,0,0,0-10.057-9.947,44.736,44.736,0,0,0-12.766-6.368Q1855.109,1317.251,1854.921,1317.639Zm-57.264,51.985q.476,2.181,1.159,4.278a44.99,44.99,0,0,0,6.259,12.355h9.108a43.182,43.182,0,0,1-8.987-6.3A30.965,30.965,0,0,1,1797.657,1369.625Zm34.651,4.5a13.416,13.416,0,1,0,18.973,18.973,13.168,13.168,0,0,0,3.94-9.525,13.916,13.916,0,0,0-4.166-9.674l-9.26-9.26-9.486,9.486Zm-.046-53.371,9.486,9.486,9.26-9.261a13.916,13.916,0,0,0,4.166-9.673,13.421,13.421,0,1,0-22.912,9.448Zm43.66,15.65a13.374,13.374,0,0,0-3.929,9.486h0v13.416h13.1a13.922,13.922,0,0,0,9.788-3.9,13.165,13.165,0,0,0,3.947-9.518,13.416,13.416,0,0,0-13.416-13.416A13.645,13.645,0,0,0,1875.922,1336.408Zm-65.574,74.008a13.373,13.373,0,0,0,3.93-9.486h0v-13.416h-13.1a13.921,13.921,0,0,0-9.788,3.9,13.165,13.165,0,0,0-3.947,9.518,13.416,13.416,0,0,0,22.9,9.486Z" transform="translate(-1659.875 0)"/>
  </g>
</svg>
