<svg xmlns="http://www.w3.org/2000/svg" width="116.556" height="119"><path data-name="Path 2002" d="M85.867 104.294a13.416 13.416 0 1026.831 0 13.165 13.165 0 00-3.947-9.518 13.922 13.922 0 00-9.788-3.9h-13.1v13.416zm8.946-50.033c.028.3.646.615 1.579.9a21.527 21.527 0 0010.521 0c.417-.127 1.534-.406 1.534-.947a3.254 3.254 0 00-.931-2.06 4.436 4.436 0 00-2.221-1.3.626.626 0 11.3-1.216 5.688 5.688 0 012.844 1.675 4.677 4.677 0 011.254 2.655.652.652 0 01.051.275c0 .955-.975 1.662-2.467 2.117a22.717 22.717 0 01-11.246 0c-1.477-.45-2.449-1.148-2.467-2.089v-.054a4.531 4.531 0 011.264-2.9 5.688 5.688 0 012.844-1.675.626.626 0 11.3 1.216 4.437 4.437 0 00-2.221 1.3 3.254 3.254 0 00-.931 2.06c-.005.011-.006.027-.007.043zm4.5-7.032a2.749 2.749 0 002.3 2.055 2.416 2.416 0 002.191-1.659c.594-1.439 1.042-3.388.113-4.787a2.774 2.774 0 00-4.5-.075c-.962 1.256-.602 3.096-.107 4.466zm-1.177.422c-.652-1.806-.96-4.016.285-5.648a4.032 4.032 0 016.541.144c1.182 1.78.765 4.1 0 5.954a3.636 3.636 0 01-3.377 2.434 3.936 3.936 0 01-3.449-2.883zm-5.73 61.039c.028.3.646.615 1.579.9a21.528 21.528 0 0010.521 0c.834-.254 1.417-.532 1.551-.8a.63.63 0 01-.017-.143 3.252 3.252 0 00-.931-2.06 4.435 4.435 0 00-2.221-1.3.626.626 0 11.3-1.216 5.688 5.688 0 012.844 1.676 4.676 4.676 0 011.253 2.655.621.621 0 01.051.226v.048c0 .955-.975 1.662-2.467 2.116a22.717 22.717 0 01-11.246 0c-1.477-.45-2.449-1.148-2.467-2.088v-.054a4.53 4.53 0 011.264-2.9 5.687 5.687 0 012.844-1.676.626.626 0 11.3 1.216 4.435 4.435 0 00-2.221 1.3 3.253 3.253 0 00-.931 2.06c-.007.008-.008.024-.009.04zm4.5-7.032a3.458 3.458 0 001.1 1.61 1.98 1.98 0 002.392.082 2.853 2.853 0 001-1.3c.594-1.439 1.042-3.388.113-4.787a2.774 2.774 0 00-4.5-.075c-.966 1.26-.606 3.099-.111 4.469zm.337 2.605a4.7 4.7 0 01-1.514-2.184c-.652-1.806-.96-4.016.285-5.648a4.032 4.032 0 016.541.144c1.182 1.78.765 4.1 0 5.954a4.1 4.1 0 01-1.455 1.855 3.239 3.239 0 01-3.863-.121zm-45.8-12.546c.028.3.646.615 1.579.9a21.53 21.53 0 0010.521 0c.834-.254 1.417-.532 1.551-.8a.635.635 0 01-.016-.143 3.254 3.254 0 00-.931-2.06 4.433 4.433 0 00-2.221-1.3.626.626 0 01.3-1.216 5.69 5.69 0 012.844 1.676 4.676 4.676 0 011.253 2.654.624.624 0 01.051.227v.048c0 .955-.975 1.662-2.467 2.117a22.717 22.717 0 01-11.246 0c-1.477-.45-2.449-1.148-2.467-2.089v-.054a4.53 4.53 0 011.264-2.9 5.689 5.689 0 012.844-1.676.626.626 0 01.3 1.216 4.434 4.434 0 00-2.221 1.3 3.254 3.254 0 00-.931 2.06c-.01.007-.01.023-.012.039zm4.5-7.032a3.458 3.458 0 001.1 1.61 1.979 1.979 0 002.392.082 2.851 2.851 0 001-1.3c.594-1.439 1.042-3.388.113-4.787a2.774 2.774 0 00-4.5-.075c-.972 1.259-.608 3.098-.113 4.469zm.337 2.605a4.7 4.7 0 01-1.514-2.184c-.652-1.806-.96-4.016.285-5.648a4.032 4.032 0 016.541.144c1.182 1.78.765 4.1 0 5.954a4.094 4.094 0 01-1.454 1.855 3.239 3.239 0 01-3.862-.121zm-45.655 21.4c.028.3.646.615 1.579.9a21.528 21.528 0 0010.521 0c.834-.254 1.417-.532 1.551-.8a.631.631 0 01-.016-.143 3.254 3.254 0 00-.931-2.06 4.436 4.436 0 00-2.222-1.3.626.626 0 11.3-1.216 5.688 5.688 0 012.844 1.676 4.676 4.676 0 011.254 2.655.623.623 0 01.051.226v.048c0 .955-.975 1.662-2.467 2.116a22.717 22.717 0 01-11.246 0c-1.477-.45-2.449-1.148-2.467-2.088v-.054a4.531 4.531 0 011.264-2.9 5.688 5.688 0 012.844-1.676.626.626 0 11.3 1.216 4.436 4.436 0 00-2.221 1.3 3.252 3.252 0 00-.931 2.06c-.013.008-.014.024-.015.04zm4.5-7.032a3.458 3.458 0 001.1 1.61 1.98 1.98 0 002.392.082 2.853 2.853 0 001-1.3c.594-1.439 1.042-3.388.113-4.787a2.774 2.774 0 00-4.5-.075c-.971 1.26-.611 3.099-.116 4.469zm.337 2.605a4.7 4.7 0 01-1.514-2.184c-.652-1.806-.96-4.016.286-5.648a4.032 4.032 0 016.541.144c1.182 1.78.765 4.1 0 5.954a4.1 4.1 0 01-1.455 1.855 3.239 3.239 0 01-3.869-.121zm-7.837-50.1c.028.3.646.614 1.579.9a21.531 21.531 0 0010.521 0c.834-.254 1.417-.532 1.551-.8a.629.629 0 01-.016-.143 3.253 3.253 0 00-.931-2.06 4.434 4.434 0 00-2.221-1.3.626.626 0 01.3-1.216 5.689 5.689 0 012.844 1.676 4.679 4.679 0 011.254 2.654.632.632 0 01.051.227v.048c0 .955-.975 1.662-2.467 2.117a22.715 22.715 0 01-11.246 0c-1.477-.45-2.449-1.148-2.467-2.089v-.054a4.528 4.528 0 011.264-2.9 5.688 5.688 0 012.844-1.676.626.626 0 01.3 1.216 4.435 4.435 0 00-2.221 1.3 3.253 3.253 0 00-.931 2.06c-.017.011-.018.027-.019.043zm4.5-7.032a3.46 3.46 0 001.1 1.61 1.98 1.98 0 002.392.082 2.853 2.853 0 001-1.3c.594-1.439 1.042-3.388.113-4.787a2.774 2.774 0 00-4.5-.075c-.959 1.257-.6 3.1-.1 4.466zm.337 2.605a4.7 4.7 0 01-1.514-2.184c-.652-1.806-.96-4.016.285-5.648a4.032 4.032 0 016.541.144c1.182 1.78.765 4.1 0 5.954a4.1 4.1 0 01-1.455 1.855 3.239 3.239 0 01-3.87-.117zm38.99-30.335c.028.3.646.614 1.579.9a21.53 21.53 0 0010.521 0c.834-.254 1.417-.532 1.551-.8a.627.627 0 01-.016-.143 3.253 3.253 0 00-.931-2.06 4.434 4.434 0 00-2.221-1.3.626.626 0 01.3-1.216 5.689 5.689 0 012.844 1.676 4.676 4.676 0 011.254 2.654.626.626 0 01.051.227v.048c0 .955-.975 1.662-2.467 2.117a22.717 22.717 0 01-11.246 0c-1.477-.45-2.449-1.148-2.467-2.089v-.054a4.53 4.53 0 011.264-2.9 5.689 5.689 0 012.844-1.676.626.626 0 01.3 1.216 4.435 4.435 0 00-2.221 1.3 3.253 3.253 0 00-.931 2.06q-.02.02-.022.039zm4.5-7.032a2.749 2.749 0 002.3 2.055 2.417 2.417 0 002.191-1.659c.594-1.439 1.042-3.388.113-4.787a2.774 2.774 0 00-4.5-.075c-.98 1.26-.616 3.097-.121 4.469zm-1.177.422c-.652-1.806-.96-4.016.285-5.648a4.032 4.032 0 016.541.144c1.182 1.78.765 4.1 0 5.954a3.635 3.635 0 01-3.377 2.434 3.936 3.936 0 01-3.465-2.881zm-22.751 91.536a14.671 14.671 0 01-29.342 0 14.411 14.411 0 014.33-10.415 15.168 15.168 0 0110.661-4.256h2.365a46.161 46.161 0 01-8.184-26.007 14.654 14.654 0 118.961-27.691 46.605 46.605 0 0123.44-16.845 14.695 14.695 0 1127.946-.037 45.99 45.99 0 0113.062 6.531 46.657 46.657 0 0110.451 10.378 14.674 14.674 0 0120.858 13.306 14.41 14.41 0 01-4.33 10.415 14.959 14.959 0 01-7.608 3.962 46.162 46.162 0 01-8.159 25.952h2.5a15.167 15.167 0 0110.661 4.256 14.41 14.41 0 014.33 10.415 14.671 14.671 0 01-29.342 0V101.5a46.343 46.343 0 01-52.609.115v2.714zm62.924-14.706a44.994 44.994 0 006.235-12.326q.68-2.1 1.158-4.278a31.185 31.185 0 01-7.558 10.419 42.84 42.84 0 01-8.719 6.185zm-10.317 1.365a45.513 45.513 0 01-3.061 4.957 33.2 33.2 0 01-13.526 11.467q2.124-.47 4.17-1.136a44.99 44.99 0 0012.417-6.306v-8.982zM29.355 62.713h12.273a123.526 123.526 0 01.874-14.25 88.422 88.422 0 00-13.146 2.671zm0-12.361a89.767 89.767 0 0113.172-2.648l.071-.009c.258-2.008.565-3.95.916-5.817a77.352 77.352 0 012.376-9.5 57.8 57.8 0 00-6.868 1.814 52.178 52.178 0 00-7.02 2.9 52.655 52.655 0 00-3.236 8.058 14.685 14.685 0 01.592 4.138zm-1-6.392a53.508 53.508 0 012.519-6.281 44.969 44.969 0 00-4.494 2.756 14.649 14.649 0 011.962 3.528zm-2.444-4.112a46.206 46.206 0 015.527-3.31 46.028 46.028 0 013.51-5.809 35.166 35.166 0 0110.082-9.665q-.186-.383-.348-.775A45.316 45.316 0 0021.943 36.54a14.73 14.73 0 013.115 2.378q.432.449.84.933zm-5.077-2.482a.624.624 0 01-.195-.094l-.019-.014a13.418 13.418 0 10-5.617 25.45h13.1V49.292a13.43 13.43 0 00-7.265-11.926zm21.544 25.347h31.728a122.648 122.648 0 00-.89-14.347 126.28 126.28 0 00-29.948 0 122.619 122.619 0 00-.904 14.349zm32.481 0H87.23v-11.55a88.231 88.231 0 00-13.245-2.7 123.472 123.472 0 01.86 14.252zM43.365 47.598a126.717 126.717 0 0129.753 0q-.372-2.856-.873-5.522a75.876 75.876 0 00-2.492-9.859 62.243 62.243 0 00-7.4-.914l-4.114 4.114-4.113-4.113a62.283 62.283 0 00-7.394.914 75.813 75.813 0 00-2.48 9.8q-.522 2.689-.9 5.582zm30.523.1l.107.014a89.515 89.515 0 0113.234 2.672v-1.088a14.679 14.679 0 01.545-3.974 52.745 52.745 0 00-3.298-8.222 52.137 52.137 0 00-6.964-2.885 57.766 57.766 0 00-6.924-1.833 77.5 77.5 0 012.387 9.559c.342 1.847.645 3.77.901 5.759zM67.92 25.737a45.753 45.753 0 012.405 5.828 58.756 58.756 0 017.431 1.939 53.448 53.448 0 016.146 2.474 44.831 44.831 0 00-2.93-4.741 34.462 34.462 0 00-9.908-9.528 15.744 15.744 0 01-2.679 3.563zm6.939 38.235a125.74 125.74 0 01-.553 11.279q-.143 1.506-.321 2.97a83.977 83.977 0 0015.393-3.369 63.027 63.027 0 001.029-10.881zm-.971 15.019a100.963 100.963 0 01-1.03 6.414 14.543 14.543 0 01.1 1.563 14.282 14.282 0 01-1.885 7.27 54.262 54.262 0 0013.432-4.645 54.765 54.765 0 004.709-13.9 85.829 85.829 0 01-15.338 3.296zm-1.419 4.381q.362-2.085.65-4.285-1.172.143-2.373.263a15.157 15.157 0 011.71 4.02zm.747-5.053q.19-1.544.342-3.138c.34-3.574.529-7.329.547-11.209H42.377c.018 3.872.207 7.62.545 11.188q.152 1.6.344 3.159 1.461.18 2.966.326a14.733 14.733 0 011.677-2l10.374-10.374 10.148 10.148a15.911 15.911 0 011.854 2.225q1.486-.144 2.93-.322zm-3.739-46.912a44.78 44.78 0 00-2.117-5.11l-4.3 4.3a62.939 62.939 0 016.404.809zm.657 64.271a33.216 33.216 0 01-5.163 9.93 12.666 12.666 0 01-2.974 2.718q.531-.044 1.059-.1c6.937-1.466 13.154-6.052 17.9-12.715a44.736 44.736 0 002.967-4.793 55.647 55.647 0 01-13.391 4.4q-.205.282-.411.558zm-15.658 12.647a12.66 12.66 0 01-2.981-2.726 33.6 33.6 0 01-5.241-10.168q-.135-.193-.264-.389a56.739 56.739 0 01-13.481-4.447 44.864 44.864 0 003.016 4.89c4.749 6.678 10.969 11.276 17.911 12.743q.519.055 1.041.1zM47.7 97.185a29.857 29.857 0 004.374 7.937 9.861 9.861 0 004.394 3.323q.877.034 1.762.034t1.763-.034a9.853 9.853 0 004.387-3.315 29.6 29.6 0 004.323-7.8l-.057.058a14.671 14.671 0 01-20.747 0 6.439 6.439 0 01-.202-.203zm-4.035-11.528c-.42-2.125-.782-4.354-1.08-6.669a85.867 85.867 0 01-15.314-3.29 54.933 54.933 0 004.658 13.772 55.32 55.32 0 0013.529 4.694 14.656 14.656 0 01-1.856-7.15q-.003-.679.06-1.357zm-1.176-7.437q-.179-1.474-.323-2.991a125.687 125.687 0 01-.551-11.258H26.068a63.053 63.053 0 001.042 10.885 83.979 83.979 0 0015.376 3.364zm3.659-46.657a45.783 45.783 0 012.4-5.821l-.7-.7a14.663 14.663 0 01-2.488-3.309 34.448 34.448 0 00-9.816 9.431 44.76 44.76 0 00-2.979 4.81 53.407 53.407 0 016.2-2.493 58.672 58.672 0 017.38-1.918zm2.961-5.262a44.747 44.747 0 00-2.114 5.1 62.968 62.968 0 016.413-.805zm-5.755 52.784q.3 2.268.673 4.418a14.592 14.592 0 011.733-4.151q-1.22-.122-2.409-.267zm44.809-34.984a14.628 14.628 0 011.993-3.617 44.954 44.954 0 00-4.558-2.8A53.5 53.5 0 0188.16 44.1zM32.009 91.249v8.837a44.98 44.98 0 0012.313 6.211q2.031.657 4.144 1.124a33.215 33.215 0 01-13.552-11.5 45.4 45.4 0 01-2.908-4.672zm59.14-27.279a63.861 63.861 0 01-.968 10.6 46.848 46.848 0 004.141-1.656c4.856-2.232 8.073-4.912 9.011-7.81q.022-.567.03-1.138zm-1.124 11.451a56.122 56.122 0 01-4.4 13.581 42.14 42.14 0 008.637-6.114 28.39 28.39 0 008.865-14.818q.051-.487.091-.977c-1.525 2.422-4.5 4.632-8.58 6.508a48.466 48.466 0 01-4.615 1.82zM30.808 88.885a56.291 56.291 0 01-4.358-13.459 48.325 48.325 0 01-4.638-1.832c-4.071-1.874-7.041-4.081-8.564-6.5q.042.506.094 1.009a28.132 28.132 0 008.839 14.7 42.321 42.321 0 008.625 6.082zm-4.515-14.307a63.9 63.9 0 01-.98-10.608H13.099q.008.571.03 1.137c.938 2.895 4.149 5.572 9 7.8a45.394 45.394 0 004.162 1.671zM71.399 21.04a35.179 35.179 0 0110.175 9.761 46.025 46.025 0 013.46 5.74 46.117 46.117 0 015.59 3.354q.423-.506.89-.973a14.738 14.738 0 013.063-2.348 45.4 45.4 0 00-10.057-9.947 44.736 44.736 0 00-12.766-6.368q-.169.392-.357.78zM14.135 73.025q.476 2.181 1.159 4.278a44.99 44.99 0 006.259 12.355h9.108a43.182 43.182 0 01-8.987-6.3 30.965 30.965 0 01-7.541-10.333zm34.651 4.5a13.416 13.416 0 1018.973 18.973 13.168 13.168 0 003.94-9.525 13.916 13.916 0 00-4.166-9.674l-9.26-9.26-9.486 9.486zm-.046-53.371l9.486 9.486 9.26-9.261a13.916 13.916 0 004.166-9.673 13.421 13.421 0 10-22.912 9.448zm43.66 15.65a13.374 13.374 0 00-3.929 9.486v13.416h13.1a13.922 13.922 0 009.788-3.9 13.165 13.165 0 003.947-9.518 13.416 13.416 0 00-13.416-13.416 13.645 13.645 0 00-9.492 3.936zm-65.574 74.008a13.373 13.373 0 003.93-9.486V90.91h-13.1a13.921 13.921 0 00-9.788 3.9 13.165 13.165 0 00-3.947 9.518 13.416 13.416 0 0022.9 9.486z"/></svg>