<svg xmlns="http://www.w3.org/2000/svg" width="138.23" height="46.15" viewBox="0 0 138.23 46.15">
  <g id="landing_logo" transform="translate(0 -283.263)">
    <g id="Group_10" data-name="Group 10" transform="translate(0 283.263)">
      <path id="Path_67" data-name="Path 67" d="M18.921,283.266s-.314-.006-.419,0a.985.985,0,0,0-.146.007.4.4,0,0,0-.35.383c-.007.06-.012.347-.012.4l0,1.907L18,288.473s0,.285,0,.375a.461.461,0,0,0,.106.261.313.313,0,0,0,.094.072.716.716,0,0,0,.234.067,3.881,3.881,0,0,0,.481.021,17.07,17.07,0,1,1-17.07,17.07.926.926,0,0,0-1.851,0,18.914,18.914,0,1,0,19.587-18.9v-2.3a21.219,21.219,0,0,1-.665,42.428.926.926,0,0,0,0,1.851,23.074,23.074,0,1,0,0-46.147" transform="translate(0 -283.263)" fill="#f84cad"/>
      <path id="Path_68" data-name="Path 68" d="M35.232,353.457a14.778,14.778,0,0,0,14.5-12,.236.236,0,0,0-.049-.193.243.243,0,0,0-.18-.085h-5.7a.235.235,0,0,0-.222.164,8.765,8.765,0,1,1,0-5.306.233.233,0,0,0,.222.163h1.445a.234.234,0,0,0,.234-.234.228.228,0,0,0-.024-.1,10.62,10.62,0,1,0-.436,6.912h2.458a12.916,12.916,0,1,1,.383-6.759.232.232,0,0,0,.228.185h1.415a.233.233,0,0,0,.233-.233.24.24,0,0,0-.017-.089,14.767,14.767,0,1,0-14.5,17.582" transform="translate(-16.275 -315.597)" fill="#f84cad"/>
    </g>
    <path id="Path_69" data-name="Path 69" d="M248.787,376.478a18.915,18.915,0,0,1-4.255.441q-8.516,0-8.513-8,0-7.412,8.513-7.413a19,19,0,0,1,4.255.439v3.083a17.529,17.529,0,0,0-3.962-.44q-4.919,0-4.918,4.331,0,4.916,4.918,4.915a17.567,17.567,0,0,0,3.962-.441Zm1.836-4.359q0-4.743,6.691-4.742a19.762,19.762,0,0,1,3.581.293v-1.011q0-2.071-4.006-2.07a17.7,17.7,0,0,0-5.019.733v-3.084a17.777,17.777,0,0,1,5.019-.732q7.9,0,7.9,5.078v10.334h-1.968l-1.672-1.088a8.874,8.874,0,0,1-4.286,1.088q-6.239,0-6.237-4.8m6.691-1.807q-2.8,0-2.8,1.762t2.348,1.76a6.687,6.687,0,0,0,4.035-1.2v-2.027a18.7,18.7,0,0,0-3.581-.294m10.466,6.607V361.507h3.009l.484,1.968a6.1,6.1,0,0,1,4.285-1.968v3.14a5.092,5.092,0,0,0-3.89,1.952v10.319H267.78Zm9.981-.735v-3.228a15.863,15.863,0,0,0,5.929,1.027q2.51,0,2.509-1.614,0-1.47-1.686-1.468h-2.789q-4.7,0-4.7-4.7,0-4.842,6.854-4.842a16.806,16.806,0,0,1,5.474.879v3.231a14.869,14.869,0,0,0-5.578-1.028q-3.154,0-3.156,1.616,0,1.466,1.834,1.466h2.5q5.139,0,5.138,4.7,0,4.843-6.547,4.844a17.758,17.758,0,0,1-5.782-.882m28.062-5.46H295.74q0,3.112,5.08,3.111a25,25,0,0,0,4.666-.441v3.083a25.606,25.606,0,0,1-5.254.441q-8.38,0-8.382-7.884,0-7.529,7.678-7.529,7.661,0,6.3,9.218m-10.083-2.847h6.428q.2-3.319-3.082-3.315-3.081,0-3.346,3.315m13,9.042V361.507h3.009l.485,1.968a9.742,9.742,0,0,1,5.635-1.968q5.331,0,5.328,5.738v9.674h-3.889V367.2a2.251,2.251,0,0,0-2.539-2.555,6.177,6.177,0,0,0-4.138,1.952v10.319h-3.891Z" transform="translate(-184.971 -62.66)" fill="#fff"/>
  </g>
</svg>
