<svg xmlns="http://www.w3.org/2000/svg" width="214.779" height="71.706"><path data-name="Path 67" d="M29.4.004s-.488-.009-.65 0a1.54 1.54 0 00-.226.01.626.626 0 00-.544.6c-.01.093-.018.539-.018.615l.006 2.964.008 3.907s-.006.443 0 .582a.717.717 0 00.164.406.487.487 0 00.146.112 1.115 1.115 0 00.364.1 6.04 6.04 0 00.747.033 26.523 26.523 0 11-26.52 26.522 1.438 1.438 0 10-2.877 0A29.388 29.388 0 1030.434 6.484V2.907a32.97 32.97 0 11-1.034 65.93 1.438 1.438 0 000 2.872 35.851 35.851 0 100-71.7" fill="#d83290"/><path data-name="Path 68" d="M29.456 58.825A22.961 22.961 0 0051.993 40.18a.367.367 0 00-.076-.3.378.378 0 00-.28-.132H42.78a.365.365 0 00-.345.254 13.618 13.618 0 110-8.244.362.362 0 00.345.253h2.245a.363.363 0 00.364-.363.354.354 0 00-.038-.163 16.5 16.5 0 10-.677 10.739h3.82a20.068 20.068 0 11.6-10.5.361.361 0 00.351.287h2.2a.363.363 0 00.363-.363.373.373 0 00-.027-.138 22.945 22.945 0 10-22.522 27.318" fill="#d83290"/><path data-name="Path 69" d="M99.156 47.475a29.386 29.386 0 01-6.611.686q-13.231 0-13.228-12.429 0-11.517 13.228-11.518a29.513 29.513 0 016.611.682v4.79A27.234 27.234 0 0093 29.003q-7.642 0-7.641 6.729 0 7.638 7.641 7.637a27.3 27.3 0 006.156-.685zm2.853-6.773q0-7.369 10.4-7.367a30.7 30.7 0 015.565.455v-1.571q0-3.217-6.225-3.216a27.506 27.506 0 00-7.8 1.14v-4.791a27.619 27.619 0 017.8-1.137q12.269 0 12.27 7.89v16.057h-3.061l-2.6-1.691a13.79 13.79 0 01-6.659 1.691q-9.694 0-9.691-7.458m10.4-2.807q-4.354 0-4.354 2.738t3.649 2.735a10.39 10.39 0 006.27-1.867v-3.15a29.06 29.06 0 00-5.565-.456m16.261 10.266v-23.95h4.676l.752 3.058a9.475 9.475 0 016.658-3.058v4.879a7.912 7.912 0 00-6.044 3.034V48.16h-6.042zm15.508-1.142v-5.016a24.648 24.648 0 009.212 1.6q3.9 0 3.9-2.508 0-2.284-2.62-2.282h-4.334q-7.3 0-7.3-7.3 0-7.524 10.65-7.524a26.11 26.11 0 018.505 1.366v5.02a23.1 23.1 0 00-8.667-1.6q-4.9 0-4.9 2.51 0 2.278 2.85 2.278h3.877q7.985 0 7.983 7.3 0 7.526-10.172 7.526a27.588 27.588 0 01-8.983-1.371m43.6-8.483H172.11q0 4.836 7.893 4.834a38.857 38.857 0 007.25-.685v4.791a39.78 39.78 0 01-8.164.686q-13.021 0-13.023-12.249 0-11.7 11.93-11.7 11.9 0 9.782 14.322m-15.667-4.424h9.987q.318-5.156-4.788-5.151-4.787 0-5.2 5.151m20.206 14.049V24.213h4.675l.753 3.058a15.136 15.136 0 018.756-3.058q8.283 0 8.279 8.916V48.16h-6.043v-15.1q0-3.969-3.945-3.97-3.171 0-6.43 3.034v16.034h-6.045z" fill="#07486d"/></svg>