<svg xmlns="http://www.w3.org/2000/svg" width="138.23" height="46.15"><g data-name="Group 10" fill="#f84cad"><path data-name="Path 67" d="M18.921.003s-.314-.006-.419 0a.985.985 0 00-.146.007.4.4 0 00-.35.383c-.007.06-.012.347-.012.4V2.7L18 5.21v.375a.461.461 0 00.106.261.313.313 0 00.094.072.716.716 0 00.234.067 3.881 3.881 0 00.481.021 17.07 17.07 0 11-17.07 17.07.926.926 0 00-1.851 0 18.914 18.914 0 1019.587-18.9v-2.3a21.219 21.219 0 01-.665 42.428.926.926 0 000 1.851 23.074 23.074 0 100-46.147"/><path data-name="Path 68" d="M18.957 37.86a14.778 14.778 0 0014.5-12 .236.236 0 00-.049-.193.243.243 0 00-.18-.085h-5.7a.235.235 0 00-.222.164 8.765 8.765 0 110-5.306.233.233 0 00.222.163h1.445a.234.234 0 00.234-.234.228.228 0 00-.024-.1 10.62 10.62 0 10-.436 6.912h2.458a12.916 12.916 0 11.383-6.759.232.232 0 00.228.185h1.415a.233.233 0 00.233-.233.24.24 0 00-.017-.089 14.767 14.767 0 10-14.5 17.582"/></g><path data-name="Path 69" d="M63.816 30.555a18.915 18.915 0 01-4.255.441q-8.516 0-8.513-8 0-7.412 8.513-7.413a19 19 0 014.255.439v3.083a17.529 17.529 0 00-3.962-.44q-4.919 0-4.918 4.331 0 4.916 4.918 4.915a17.567 17.567 0 003.962-.441zm1.836-4.359q0-4.743 6.691-4.742a19.762 19.762 0 013.581.293v-1.011q0-2.071-4.006-2.07a17.7 17.7 0 00-5.019.733v-3.084a17.777 17.777 0 015.019-.732q7.9 0 7.9 5.078v10.334H77.85l-1.672-1.088a8.874 8.874 0 01-4.286 1.088q-6.239 0-6.237-4.8m6.691-1.807q-2.8 0-2.8 1.762t2.348 1.76a6.687 6.687 0 004.035-1.2v-2.027a18.7 18.7 0 00-3.581-.294m10.466 6.607V15.584h3.009l.484 1.968a6.1 6.1 0 014.285-1.968v3.14a5.092 5.092 0 00-3.89 1.952v10.319h-3.893zm9.981-.735v-3.228a15.863 15.863 0 005.929 1.027q2.51 0 2.509-1.614 0-1.47-1.686-1.468h-2.789q-4.7 0-4.7-4.7 0-4.842 6.854-4.842a16.806 16.806 0 015.474.879v3.231a14.869 14.869 0 00-5.578-1.028q-3.154 0-3.156 1.616 0 1.466 1.834 1.466h2.5q5.139 0 5.138 4.7 0 4.843-6.547 4.844a17.758 17.758 0 01-5.782-.882m28.062-5.46h-10.088q0 3.112 5.08 3.111a25 25 0 004.666-.441v3.083a25.606 25.606 0 01-5.254.441q-8.38 0-8.382-7.884 0-7.529 7.678-7.529 7.661 0 6.3 9.218m-10.083-2.847h6.428q.2-3.319-3.082-3.315-3.081 0-3.346 3.315m13 9.042V15.584h3.009l.485 1.968a9.742 9.742 0 015.635-1.968q5.331 0 5.328 5.738v9.674h-3.889v-9.719a2.251 2.251 0 00-2.539-2.555 6.177 6.177 0 00-4.138 1.952v10.319h-3.891z" fill="#fff"/></svg>