<svg xmlns="http://www.w3.org/2000/svg" width="214.779" height="71.706" viewBox="0 0 214.779 71.706">
  <g id="landing-logo-dark" transform="translate(0 -283.263)">
    <path id="Path_67" data-name="Path 67" d="M29.4,283.267s-.488-.009-.65,0a1.54,1.54,0,0,0-.226.01.626.626,0,0,0-.544.6c-.01.093-.018.539-.018.615l.006,2.964.008,3.907s-.006.443,0,.582a.717.717,0,0,0,.164.406.487.487,0,0,0,.146.112,1.115,1.115,0,0,0,.364.1,6.04,6.04,0,0,0,.747.033,26.523,26.523,0,1,1-26.52,26.522,1.438,1.438,0,1,0-2.877,0,29.388,29.388,0,1,0,30.434-29.371V286.17A32.968,32.968,0,1,1,29.4,352.1a1.438,1.438,0,0,0,0,2.872,35.851,35.851,0,1,0,0-71.7" fill="#d83290"/>
    <path id="Path_68" data-name="Path 68" d="M43.411,369.814a22.961,22.961,0,0,0,22.537-18.645.367.367,0,0,0-.076-.3.378.378,0,0,0-.28-.132H56.735a.365.365,0,0,0-.345.254,13.618,13.618,0,1,1,0-8.244.362.362,0,0,0,.345.253H58.98a.363.363,0,0,0,.364-.363.354.354,0,0,0-.038-.163,16.5,16.5,0,1,0-.677,10.739h3.82a20.068,20.068,0,1,1,.6-10.5A.361.361,0,0,0,63.4,343h2.2a.363.363,0,0,0,.363-.363.373.373,0,0,0-.027-.138,22.945,22.945,0,1,0-22.522,27.318" transform="translate(-13.955 -27.726)" fill="#d83290"/>
    <path id="Path_69" data-name="Path 69" d="M255.858,384.849a29.386,29.386,0,0,1-6.611.686q-13.231,0-13.228-12.429,0-11.517,13.228-11.518a29.513,29.513,0,0,1,6.611.682v4.79a27.234,27.234,0,0,0-6.156-.683q-7.642,0-7.641,6.729,0,7.638,7.641,7.637a27.3,27.3,0,0,0,6.156-.685Zm2.853-6.773q0-7.369,10.4-7.367a30.7,30.7,0,0,1,5.565.455v-1.571q0-3.217-6.225-3.216a27.506,27.506,0,0,0-7.8,1.14v-4.791a27.619,27.619,0,0,1,7.8-1.137q12.269,0,12.27,7.89v16.057H277.66l-2.6-1.691a13.79,13.79,0,0,1-6.659,1.691q-9.694,0-9.691-7.458m10.4-2.807q-4.354,0-4.354,2.738t3.649,2.735a10.39,10.39,0,0,0,6.27-1.867v-3.15a29.06,29.06,0,0,0-5.565-.456m16.261,10.266v-23.95h4.676l.752,3.058a9.475,9.475,0,0,1,6.658-3.058v4.879a7.912,7.912,0,0,0-6.044,3.034v16.034h-6.042Zm15.508-1.142v-5.016a24.648,24.648,0,0,0,9.212,1.6q3.9,0,3.9-2.508,0-2.284-2.62-2.282h-4.334q-7.3,0-7.3-7.3,0-7.524,10.65-7.524a26.11,26.11,0,0,1,8.505,1.366v5.02a23.1,23.1,0,0,0-8.667-1.6q-4.9,0-4.9,2.51,0,2.278,2.85,2.278h3.877q7.985,0,7.983,7.3,0,7.526-10.172,7.526a27.588,27.588,0,0,1-8.983-1.371m43.6-8.483H328.812q0,4.836,7.893,4.834a38.857,38.857,0,0,0,7.25-.685v4.791a39.78,39.78,0,0,1-8.164.686q-13.021,0-13.023-12.249,0-11.7,11.93-11.7,11.9,0,9.782,14.322m-15.667-4.424H338.8q.318-5.156-4.788-5.151-4.787,0-5.2,5.151m20.206,14.049V361.587h4.675l.753,3.058a15.136,15.136,0,0,1,8.756-3.058q8.283,0,8.279,8.916v15.031h-6.043v-15.1q0-3.969-3.945-3.97-3.171,0-6.43,3.034v16.034h-6.045Z" transform="translate(-156.702 -54.111)" fill="#07486d"/>
  </g>
</svg>
