<svg xmlns="http://www.w3.org/2000/svg" width="1836.529" height="1095.589"><defs><linearGradient id="b" x1=".5" x2=".5" y2="1" gradientUnits="objectBoundingBox"><stop offset="0" stop-color="#fff" stop-opacity="0"/><stop offset=".494" stop-color="#fff"/><stop offset="1" stop-color="#fff" stop-opacity="0"/></linearGradient><linearGradient id="c" x1=".5" x2=".5" y2="1" gradientUnits="objectBoundingBox"><stop offset="0" stop-color="#fff" stop-opacity="0"/><stop offset=".494" stop-color="#fff"/><stop offset=".677" stop-color="#fff" stop-opacity=".639"/><stop offset="1" stop-color="#fff" stop-opacity="0"/></linearGradient><linearGradient id="e" x1=".886" y1=".021" x2=".047" y2=".97" gradientUnits="objectBoundingBox"><stop offset="0" stop-color="#ff76c3" stop-opacity="0"/><stop offset=".264" stop-color="#ff76c3"/><stop offset="1" stop-color="#ff76c3"/></linearGradient><linearGradient id="g" x1=".869" y1=".054" x2="0" y2=".953" gradientUnits="objectBoundingBox"><stop offset="0" stop-color="#ffa1d6" stop-opacity="0"/><stop offset=".278" stop-color="#ffa1d6"/><stop offset="1" stop-color="#ffa1d6"/></linearGradient><linearGradient id="i" x1=".832" y1=".089" x2=".021" y2=".896" gradientUnits="objectBoundingBox"><stop offset="0" stop-color="#ffa1d6" stop-opacity="0"/><stop offset=".251" stop-color="#ffa1d6"/><stop offset="1" stop-color="#ffa1d6"/></linearGradient><filter id="d" x="274.574" y="0" width="1477.49" height="947.108" filterUnits="userSpaceOnUse"><feOffset dy="3"/><feGaussianBlur stdDeviation="48" result="blur"/><feFlood flood-color="#ff76c3" flood-opacity=".502"/><feComposite operator="in" in2="blur"/><feComposite in="SourceGraphic"/></filter><filter id="f" x="275.191" y="90.652" width="1509.57" height="872.353" filterUnits="userSpaceOnUse"><feOffset dy="3"/><feGaussianBlur stdDeviation="48" result="blur-2"/><feFlood flood-color="#ffa1d6" flood-opacity=".502"/><feComposite operator="in" in2="blur-2"/><feComposite in="SourceGraphic"/></filter><filter id="h" x="275.191" y="205.268" width="1561.338" height="783.248" filterUnits="userSpaceOnUse"><feOffset dy="3"/><feGaussianBlur stdDeviation="48" result="blur-3"/><feFlood flood-color="#ffd4ec" flood-opacity=".522"/><feComposite operator="in" in2="blur-3"/><feComposite in="SourceGraphic"/></filter><clipPath id="a"><path data-name="Rectangle 85" fill="none" stroke="#707070" d="M0 0h1494.809v1079.347H0z"/></clipPath></defs><g data-name="Group z"><g data-name="Mask Group 4" transform="translate(0 16.242)" clip-path="url(#a)"><g data-name="Group 2" transform="translate(271.434 .325)" opacity=".34" fill="url(#b)"><path data-name="Rectangle 1" d="M0 0h.454v974.208H0z"/><path data-name="Rectangle 3" d="M74.478 0h.454v974.208h-.454z"/><path data-name="Rectangle 4" d="M148.956 0h2.271v974.208h-2.271z"/><path data-name="Rectangle 5" d="M372.39 0h.454v974.208h-.454z"/><path data-name="Rectangle 6" d="M446.868 0h.454v974.208h-.454z"/><path data-name="Rectangle 7" d="M522.254 15.441h.454v974.208h-.454z"/><path data-name="Rectangle 8" d="M596.732 15.441h.454v974.208h-.454z"/><path data-name="Rectangle 2" d="M969.121 0h.454v974.208h-.454z"/><path data-name="Rectangle 9" d="M223.434 0h.454v974.208h-.454z"/><path data-name="Rectangle 10" d="M297.912 0h.454v974.208h-.454z"/><path data-name="Rectangle 11" d="M671.21 0h.454v974.208h-.454z"/><path data-name="Rectangle 12" d="M745.688 0h.454v974.208h-.454z"/><path data-name="Rectangle 13" d="M820.166 15.441h.454v974.208h-.454z"/><path data-name="Rectangle 14" d="M894.643 15.441h.454v974.208h-.454z"/></g><g data-name="Group 1" transform="translate(106.129 202.188)" opacity=".34" fill="url(#c)"><path data-name="Rectangle 17" opacity=".5" d="M1274.299 0v.454H0V0z"/><path data-name="Rectangle 18" d="M1274.299 223.434v.454H0v-.454z"/><path data-name="Rectangle 19" d="M1274.299 297.912v.454H0v-.454z"/><path data-name="Rectangle 20" d="M1274.299 373.298v.454H0v-.454z"/><path data-name="Rectangle 21" d="M1274.299 447.776v.454H0v-.454z"/><path data-name="Rectangle 23" d="M1274.299 74.478v.454H0v-.454z"/><path data-name="Rectangle 24" d="M1274.299 148.956v.454H0v-.454z"/><path data-name="Rectangle 25" d="M1274.299 522.254v2.271H0v-2.271z"/><path data-name="Rectangle 26" d="M1274.299 596.732v.454H0v-.454z"/><path data-name="Rectangle 27" opacity=".5" d="M1274.299 671.21v.454H0v-.454z"/></g></g></g><g data-name="Group 281"><g filter="url(#d)" transform="translate(.004)"><path data-name="Path 1997" d="M-552.624-716.416c26.132 14.483 53.5 26.55 81.844 34.7a281.291 281.291 0 0043.095 8.823l5.432.693 5.455.435 5.448.43c.907.067 1.813.156 2.721.2l2.729.065c3.638.077 7.27.2 10.9.244l10.876-.352a226.519 226.519 0 0083.467-20.089c6.522-2.986 12.909-6.258 19.178-9.758q9.372-5.312 18.352-11.319c5.966-4.035 11.794-8.29 17.506-12.712q8.533-6.685 16.738-13.835c5.457-4.781 10.79-9.725 16.042-14.768q7.83-7.627 15.4-15.556 15.116-15.9 29.412-32.758c19.045-22.471 37.351-45.8 55.591-69.356 18.224-23.57 36.59-47.218 55.482-70.608 18.967-23.33 38.628-46.272 59.4-68.345 20.986-21.7 42.213-43.164 64.666-63.384l8.369-7.63c1.381-1.287 2.817-2.513 4.247-3.747l4.286-3.7 17.144-14.811L118.7-1117.9l4.385-3.586 2.2-1.79 2.245-1.73 8.99-6.9c11.882-9.336 24.218-18.087 36.451-26.956l18.713-12.806c1.569-1.053 3.11-2.146 4.7-3.165l4.772-3.062 9.542-6.124 4.771-3.06c1.589-1.022 3.173-2.051 4.8-3.012l9.7-5.867 9.7-5.865c3.247-1.931 6.557-3.763 9.843-5.629 6.6-3.688 13.116-7.51 19.84-10.974l10.015-5.309 5.007-2.653 5.072-2.531a808.15 808.15 0 01169.27-63.41l10.986-2.637c3.666-.855 7.353-1.626 11.026-2.441l5.515-1.2 5.536-1.1c3.693-.719 7.369-1.51 11.08-2.133q22.191-4.082 44.549-6.795c7.446-.891 14.89-1.751 22.328-2.488l11.133-1.137c3.726-.385 7.451-.779 11.183-1.105q11.192-.988 22.4-1.659 5.6-.337 11.2-.595 5.6-.225 11.207-.372-5.555.745-11.094 1.568-5.544.793-11.071 1.656-11.056 1.729-22.047 3.759l-10.98 2.054-11.02 2.084-10.987 2.077-10.95 2.155a846.4 846.4 0 00-86.14 22.066 884.264 884.264 0 00-162.455 69.868l-4.857 2.636-4.792 2.757-9.583 5.509c-6.431 3.594-12.659 7.546-18.962 11.358-3.133 1.939-6.314 3.793-9.427 5.764l-9.3 5.971-9.3 5.968c-1.56.977-3.078 2.024-4.6 3.061l-4.569 3.109-9.137 6.214-4.568 3.106c-1.523 1.034-3 2.142-4.5 3.209l-17.97 12.864c-11.759 8.885-23.614 17.634-35.027 26.968-11.608 9.077-22.775 18.713-34.1 28.139l-16.566 14.654-4.142 3.662c-1.381 1.22-2.769 2.431-4.1 3.7l-8.086 7.55c-21.821 19.842-42.516 40.935-62.963 62.2q-15.164 16-29.7 32.69c-9.7 11.114-19.2 22.449-28.649 33.854s-18.794 22.952-28.1 34.559l-27.967 34.934c-18.775 23.277-37.694 46.644-57.937 69.128-10.1 11.255-20.489 22.325-31.34 33.007q-8.154 8-16.649 15.7c-5.692 5.1-11.482 10.115-17.422 14.97-5.963 4.832-12.04 9.541-18.309 14.016-6.282 4.46-12.7 8.747-19.274 12.8q-9.9 6.031-20.244 11.349c-6.908 3.511-14.006 6.659-21.2 9.552a237.082 237.082 0 01-44.608 12.9c-7.6 1.45-15.284 2.384-22.96 3.07l-5.762.445-5.774.184-5.767.179-2.881.08c-.96.012-1.922-.046-2.882-.067l-11.51-.361c-3.825-.286-7.641-.656-11.453-.983l-2.858-.253c-.95-.112-1.9-.263-2.843-.393l-5.676-.811c-1.89-.278-3.783-.526-5.666-.831l-5.614-1.119a274.884 274.884 0 01-43.809-12.344 329.354 329.354 0 01-41.141-18.7c-3.334-1.728-6.561-3.659-9.82-5.512-3.274-1.827-6.438-3.848-9.642-5.784l-2.394-1.466-2.36-1.523-4.712-3.048c-3.127-2.069-6.182-4.233-9.267-6.333z" transform="translate(971.2 1457)" fill="url(#e)"/></g><g filter="url(#f)" transform="translate(.004)"><path data-name="Path 1998" d="M669.625-1216.018c-14.859 1.042-29.681 2.3-44.436 4.067-14.758 1.713-29.461 3.738-44.082 6.182-3.659.576-7.3 1.291-10.946 1.928l-5.468.977c-1.822.329-3.635.709-5.452 1.061l-10.892 2.153-10.842 2.376-5.416 1.2-5.394 1.292-10.782 2.579-10.721 2.812-5.358 1.405-5.326 1.522-10.648 3.038c-3.543 1.029-7.054 2.167-10.582 3.244l-5.284 1.637-2.641.818-2.622.88-10.481 3.532c-1.744.6-3.5 1.161-5.233 1.78l-5.194 1.89-10.391 3.761c-3.461 1.257-6.868 2.66-10.3 3.983-3.421 1.36-6.872 2.64-10.267 4.063l-10.174 4.281-5.085 2.138-5.037 2.253-10.07 4.5c-3.351 1.512-6.646 3.147-9.969 4.714-13.306 6.252-26.284 13.162-39.205 20.135l-9.59 5.421-4.792 2.711-4.73 2.821-9.458 5.639-9.332 5.847-4.663 2.926-4.614 3-9.214 6.026-9.094 6.209-4.541 3.111c-1.511 1.041-2.99 2.13-4.487 3.193l-8.954 6.41-8.834 6.579-4.412 3.294-4.36 3.368-8.72 6.73-8.6 6.893-4.293 3.452-4.241 3.523c-2.821 2.355-5.664 4.682-8.468 7.06l-8.364 7.189c-11.081 9.67-22.07 19.458-32.795 29.559-5.411 4.993-10.682 10.15-16.012 15.235-5.254 5.176-10.551 10.3-15.737 15.555-20.9 20.842-41.22 42.342-61.3 64.166-20.157 21.756-40.073 43.839-60.3 65.783C-18.871-806.236-39.44-784.442-61-763.465c-10.817 10.456-21.876 20.714-33.264 30.653s-23.122 19.544-35.332 28.594a455.89 455.89 0 01-37.94 25.437 369.969 369.969 0 01-40.764 21.013 305.236 305.236 0 01-88.362 23.868 316.17 316.17 0 01-90.928-2.771c-.934-.16-1.872-.284-2.8-.473l-2.783-.567-5.561-1.133c-1.852-.384-3.708-.743-5.554-1.148l-5.5-1.359-5.5-1.359-2.747-.679c-.916-.225-1.816-.517-2.723-.772l-10.856-3.183c-1.817-.5-3.591-1.136-5.375-1.74l-5.347-1.818c-3.561-1.217-7.139-2.377-10.625-3.8l-10.508-4.076c-1.76-.651-3.463-1.448-5.186-2.192l-5.154-2.26c-13.791-5.912-27.078-12.863-40.162-20.066-1.651-.871-3.253-1.835-4.852-2.8l-4.807-2.877-9.6-5.748c-6.285-4.021-12.5-8.14-18.713-12.235a549.158 549.158 0 0080.677 37.383 416.612 416.612 0 0042.233 12.977l10.732 2.488c.895.2 1.782.438 2.683.608l2.7.514 5.4 1.028 5.4 1.029c1.807.3 3.622.543 5.431.817l5.428.8 2.712.4c.9.135 1.817.2 2.725.31l10.892 1.186 10.916.764c1.816.163 3.641.155 5.461.23l5.461.171 2.728.078 2.73-.018 5.457-.034q10.907-.161 21.772-1.043c1.812-.1 3.615-.33 5.419-.527l5.41-.6c3.613-.331 7.187-.954 10.769-1.49a303.743 303.743 0 0042.238-9.717 302.344 302.344 0 0040.315-15.74 350.026 350.026 0 0037.949-20.994c12.251-7.742 24.115-16.153 35.61-25.1 22.946-17.962 44.551-37.829 65.372-58.617 20.785-20.85 40.961-42.469 60.9-64.455 20.02-21.9 39.9-44.08 60.136-66.036C53.86-921.48 64.07-932.4 74.447-943.19s20.821-21.534 31.535-32.039c5.319-5.285 10.768-10.455 16.165-15.669 5.484-5.134 10.9-10.33 16.477-15.374q16.563-15.292 33.88-29.8l8.681-7.22c2.91-2.387 5.863-4.726 8.792-7.091l4.4-3.538 4.46-3.47 8.93-6.923 9.059-6.761 4.54-3.365 4.606-3.28 9.218-6.546 9.342-6.374a752.75 752.75 0 0177.759-46.143c13.446-6.816 27.03-13.357 40.873-19.3 3.461-1.485 6.891-3.036 10.375-4.464l10.466-4.241 5.233-2.117 5.289-1.972 10.575-3.942a729.034 729.034 0 0186.464-25.272 735.731 735.731 0 01178.059-17.927z" transform="translate(971.14 1447.84)" fill="url(#g)"/></g><g filter="url(#h)" transform="translate(.004)"><path data-name="Path 1999" d="M721.393-1090c-14.745 2.226-29.45 4.6-44.073 7.366-7.322 1.315-14.61 2.8-21.9 4.25l-10.906 2.313-5.451 1.156-5.432 1.237-10.857 2.488-10.818 2.638c-7.222 1.7-14.381 3.665-21.557 5.533-3.593.911-7.149 1.974-10.723 2.954l-10.707 2.993c-7.1 2.143-14.208 4.219-21.275 6.432q-42.414 13.255-83.518 29.99c-27.364 11.164-54.264 23.391-80.459 36.944-13.139 6.69-26.061 13.792-38.843 21.122-12.8 7.3-25.394 14.947-37.837 22.829-12.46 7.858-24.668 16.11-36.777 24.5q-18.147 12.612-35.759 26-17.594 13.4-34.819 27.329c-11.471 9.3-22.779 18.821-34 28.468-22.477 19.26-44.575 39.065-66.707 59.01-22.207 19.861-44.5 39.825-67.6 59.093-23.17 19.169-47.128 37.742-72.74 54.2-25.588 16.438-52.751 30.9-81.437 41.744a375.715 375.715 0 01-43.844 13.7 384.288 384.288 0 01-45.114 8.167 405.3 405.3 0 01-45.651 2.782 397.171 397.171 0 01-45.535-2.571c-3.769-.449-7.548-.811-11.3-1.335l-11.231-1.791c-7.509-1.053-14.9-2.737-22.3-4.272l-5.549-1.166c-1.845-.411-3.665-.927-5.5-1.385l-10.971-2.832-5.48-1.416c-1.817-.509-3.61-1.1-5.416-1.639l-10.807-3.335a588.985 588.985 0 01-83.261-34.28l-19.875-10.45c-3.338-1.684-6.516-3.672-9.76-5.528l-9.682-5.652-9.651-5.681c-3.174-1.968-6.291-4.029-9.435-6.038q-9.425-6.045-18.777-12.164 9.9 5.222 19.735 10.507c3.288 1.745 6.544 3.541 9.852 5.242l10.043 4.873 10.012 4.9c3.349 1.608 6.628 3.347 10.061 4.778l20.354 9.01a636.745 636.745 0 0083.751 28.908 468.521 468.521 0 0086.653 14.691 411.406 411.406 0 0043.722.829l10.9-.588 2.724-.145 2.717-.249 5.43-.508 5.428-.506c1.808-.169 3.608-.444 5.411-.66l5.407-.689c1.8-.232 3.606-.436 5.4-.75a364.262 364.262 0 0042.546-8.986 362.219 362.219 0 0041.1-13.906 432.76 432.76 0 0076.6-41.082c24.285-16.14 47.414-34.26 69.929-53.314C38.406-752.919 60.453-772.781 82.6-792.7c22.208-19.855 44.507-39.8 67.4-59.17 22.918-19.332 46.354-38.19 70.625-55.987 48.471-35.67 100.173-67.253 154.567-93.073A940.226 940.226 0 01721.393-1090z" transform="translate(971.14 1436.27)" fill="url(#i)"/></g></g></svg>