<svg xmlns="http://www.w3.org/2000/svg" width="2007.469" height="1192"><defs><linearGradient id="b" x1=".5" x2=".5" y2="1" gradientUnits="objectBoundingBox"><stop offset="0" stop-color="#fff" stop-opacity="0"/><stop offset=".494" stop-color="#fff"/><stop offset="1" stop-color="#fff" stop-opacity="0"/></linearGradient><linearGradient id="c" x1=".5" x2=".5" y2="1" gradientUnits="objectBoundingBox"><stop offset="0" stop-color="#fff" stop-opacity="0"/><stop offset=".494" stop-color="#fff"/><stop offset=".677" stop-color="#fff" stop-opacity=".639"/><stop offset="1" stop-color="#fff" stop-opacity="0"/></linearGradient><linearGradient id="e" x1=".886" y1=".021" x2=".047" y2=".97" gradientUnits="objectBoundingBox"><stop offset="0" stop-color="#ff76c3" stop-opacity="0"/><stop offset=".264" stop-color="#ff76c3"/><stop offset="1" stop-color="#ff76c3"/></linearGradient><linearGradient id="g" x1=".869" y1=".054" x2="0" y2=".953" gradientUnits="objectBoundingBox"><stop offset="0" stop-color="#ffa1d6" stop-opacity="0"/><stop offset=".278" stop-color="#ffa1d6"/><stop offset="1" stop-color="#ffa1d6"/></linearGradient><linearGradient id="i" x1=".832" y1=".089" x2=".021" y2=".896" gradientUnits="objectBoundingBox"><stop offset="0" stop-color="#ffa1d6" stop-opacity="0"/><stop offset=".251" stop-color="#ffa1d6"/><stop offset="1" stop-color="#ffa1d6"/></linearGradient><filter id="d" x="316.848" y="0" width="1597.625" height="1013.676" filterUnits="userSpaceOnUse"><feOffset dy="3"/><feGaussianBlur stdDeviation="48" result="blur"/><feFlood flood-color="#ff76c3" flood-opacity=".502"/><feComposite operator="in" in2="blur"/><feComposite in="SourceGraphic"/></filter><filter id="f" x="317.527" y="99.807" width="1632.945" height="931.371" filterUnits="userSpaceOnUse"><feOffset dy="3"/><feGaussianBlur stdDeviation="48" result="blur-2"/><feFlood flood-color="#ffa1d6" flood-opacity=".502"/><feComposite operator="in" in2="blur-2"/><feComposite in="SourceGraphic"/></filter><filter id="h" x="317.527" y="226" width="1689.941" height="833.266" filterUnits="userSpaceOnUse"><feOffset dy="3"/><feGaussianBlur stdDeviation="48" result="blur-3"/><feFlood flood-color="#ffd4ec" flood-opacity=".522"/><feComposite operator="in" in2="blur-3"/><feComposite in="SourceGraphic"/></filter><clipPath id="a"><path data-name="Rectangle 85" transform="translate(-215 -138)" fill="none" stroke="#707070" d="M0 0h1645.781v1188.358H0z"/></clipPath></defs><g data-name="Group z"><g data-name="Mask Group 4" clip-path="url(#a)" transform="translate(215 141.642)"><g data-name="Group 2" transform="translate(-411.152 -120.642)" opacity=".34" fill="url(#b)"><path data-name="Rectangle 1" d="M495-17h.5v1072.6h-.5z"/><path data-name="Rectangle 3" d="M577-17h.5v1072.6h-.5z"/><path data-name="Rectangle 4" d="M659-17h2.5v1072.6H659z"/><path data-name="Rectangle 5" d="M905-17h.5v1072.6h-.5z"/><path data-name="Rectangle 6" d="M987-17h.5v1072.6h-.5z"/><path data-name="Rectangle 7" d="M1070 0h.5v1072.6h-.5z"/><path data-name="Rectangle 8" d="M1152 0h.5v1072.6h-.5z"/><path data-name="Rectangle 2" d="M1562-17h.5v1072.6h-.5z"/><path data-name="Rectangle 9" d="M741-17h.5v1072.6h-.5z"/><path data-name="Rectangle 10" d="M823-17h.5v1072.6h-.5z"/><path data-name="Rectangle 11" d="M1234-17h.5v1072.6h-.5z"/><path data-name="Rectangle 12" d="M1316-17h.5v1072.6h-.5z"/><path data-name="Rectangle 13" d="M1398 0h.5v1072.6h-.5z"/><path data-name="Rectangle 14" d="M1480 0h.5v1072.6h-.5z"/></g><g data-name="Group 1" transform="translate(-411.152 -94.642)" opacity=".34" fill="url(#c)"><path data-name="Rectangle 17" opacity=".5" d="M1716 179.25v.5H313v-.5z"/><path data-name="Rectangle 18" d="M1716 425.25v.5H313v-.5z"/><path data-name="Rectangle 19" d="M1716 507.25v.5H313v-.5z"/><path data-name="Rectangle 20" d="M1716 590.25v.5H313v-.5z"/><path data-name="Rectangle 21" d="M1716 672.25v.5H313v-.5z"/><path data-name="Rectangle 23" d="M1716 261.25v.5H313v-.5z"/><path data-name="Rectangle 24" d="M1716 343.25v.5H313v-.5z"/><path data-name="Rectangle 25" d="M1716 754.25v2.5H313v-2.5z"/><path data-name="Rectangle 26" d="M1716 836.25v.5H313v-.5z"/><path data-name="Rectangle 27" opacity=".5" d="M1716 918.25v.5H313v-.5z"/></g></g></g><g data-name="Group 281"><g filter="url(#d)" transform="translate(.003)"><path data-name="Path 1997" d="M-552.624-655.86c28.771 15.946 58.9 29.232 90.11 38.209a309.7 309.7 0 0047.447 9.714l5.981.763 6.006.479 6 .473c1 .074 2 .172 3 .225l3.005.072c4.006.085 8 .221 12 .269l11.974-.387a249.4 249.4 0 0091.9-22.118c7.181-3.288 14.213-6.89 21.115-10.743q10.318-5.848 20.206-12.462c6.569-4.443 12.985-9.127 19.274-14q9.395-7.36 18.429-15.232c6.008-5.264 11.88-10.707 17.662-16.259q8.62-8.4 16.96-17.127 16.643-17.507 32.383-36.067c20.968-24.741 41.123-50.431 61.205-76.361 20.065-25.951 40.285-51.987 61.086-77.739 20.883-25.686 42.529-50.945 65.4-75.248 23.106-23.893 46.476-47.524 71.2-69.786l9.214-8.4c1.52-1.417 3.1-2.767 4.676-4.125l4.719-4.078 18.876-16.307 19.312-15.8 4.828-3.948 2.417-1.971 2.472-1.905 9.9-7.6c13.082-10.279 26.664-19.914 40.132-29.679l20.6-14.1c1.728-1.159 3.424-2.363 5.177-3.485l5.254-3.371 10.506-6.742 5.253-3.369c1.75-1.125 3.493-2.258 5.287-3.316l10.683-6.46 10.675-6.459c3.575-2.126 7.219-4.143 10.837-6.2 7.266-4.061 14.441-8.269 21.844-12.082l11.027-5.845 5.513-2.921 5.584-2.787c59.391-30.012 121.958-53.817 186.366-69.814l12.1-2.9c4.036-.942 8.1-1.79 12.14-2.688l6.072-1.322 6.095-1.214c4.066-.792 8.113-1.663 12.2-2.348q24.432-4.494 49.048-7.481c8.2-.981 16.394-1.928 24.583-2.739l12.257-1.252c4.1-.424 8.2-.858 12.312-1.217q12.322-1.087 24.657-1.827 6.165-.37 12.333-.655 6.171-.248 12.339-.41-6.116.82-12.215 1.726-6.1.873-12.189 1.823-12.172 1.9-24.274 4.139l-12.089 2.262-12.133 2.3-12.1 2.287-12.056 2.373a931.88 931.88 0 00-94.84 24.295 973.562 973.562 0 00-178.863 76.924l-5.348 2.9-5.276 3.035-10.551 6.066c-7.08 3.957-13.937 8.308-20.877 12.505-3.449 2.135-6.952 4.176-10.379 6.346l-10.24 6.574-10.237 6.571c-1.718 1.076-3.389 2.228-5.065 3.37l-5.03 3.423-10.06 6.842-5.029 3.42c-1.677 1.138-3.3 2.358-4.953 3.533l-19.785 14.163c-12.947 9.782-26 19.415-38.565 29.692-12.78 9.994-25.075 20.6-37.547 30.981l-18.239 16.134-4.56 4.032c-1.521 1.343-3.049 2.677-4.518 4.079l-8.9 8.312c-24.025 21.846-46.81 45.069-69.322 68.477q-16.7 17.612-32.7 35.991c-10.683 12.237-21.135 24.716-31.542 37.273s-20.692 25.27-30.943 38.049l-30.792 38.462c-20.671 25.628-41.5 51.355-63.789 76.11-11.116 12.392-22.558 24.58-34.505 36.341q-8.978 8.808-18.331 17.285c-6.267 5.62-12.642 11.136-19.182 16.482-6.565 5.32-13.256 10.505-20.158 15.432-6.917 4.91-13.982 9.63-21.221 14.1q-10.9 6.641-22.289 12.495c-7.606 3.866-15.421 7.332-23.342 10.517a261.027 261.027 0 01-49.113 14.2c-8.37 1.6-16.828 2.625-25.279 3.38l-6.344.49-6.357.2-6.349.2-3.172.088c-1.057.013-2.116-.051-3.173-.074l-12.673-.4c-4.211-.315-8.413-.722-12.61-1.082l-3.147-.279c-1.046-.123-2.087-.29-3.13-.433l-6.249-.893c-2.081-.306-4.165-.579-6.238-.915l-6.181-1.232a302.645 302.645 0 01-48.234-13.591 362.616 362.616 0 01-45.3-20.593c-3.671-1.9-7.224-4.028-10.812-6.069-3.6-2.011-7.088-4.237-10.616-6.368l-2.636-1.614-2.6-1.677-5.188-3.356c-3.436-2.266-6.799-4.648-10.196-6.961z" transform="translate(1013.47 1457)" fill="url(#e)"/></g><g filter="url(#f)" transform="translate(.003)"><path data-name="Path 1998" d="M793-1216c-16.36 1.147-32.679 2.533-48.924 4.478-16.248 1.886-32.436 4.116-48.534 6.806-4.029.634-8.036 1.421-12.052 2.123l-6.02 1.076c-2.006.362-4 .781-6 1.168l-11.992 2.37-11.937 2.616-5.963 1.317-5.939 1.422-11.871 2.84-11.8 3.1-5.9 1.547-5.864 1.676-11.723 3.345c-3.9 1.133-7.767 2.386-11.651 3.572l-5.818 1.8-2.908.9-2.887.969-11.54 3.889c-1.92.656-3.85 1.278-5.761 1.96l-5.719 2.081-11.44 4.141c-3.81 1.384-7.562 2.929-11.344 4.385-3.767 1.5-7.566 2.907-11.3 4.473l-11.2 4.714-5.6 2.354-5.546 2.48-11.087 4.954c-3.689 1.665-7.317 3.465-10.976 5.19-14.65 6.883-28.939 14.491-43.165 22.169l-10.558 5.968-5.276 2.985-5.208 3.106-10.413 6.208-10.275 6.437-5.134 3.221-5.08 3.307-10.145 6.635-10.012 6.836-5 3.425c-1.664 1.146-3.292 2.345-4.94 3.515l-9.858 7.057-9.726 7.244-4.858 3.627-4.8 3.708-9.6 7.41-9.468 7.589-4.727 3.8-4.669 3.879c-3.106 2.593-6.236 5.155-9.323 7.773l-9.209 7.915c-12.2 10.647-24.3 21.423-36.107 32.544-5.957 5.5-11.761 11.175-17.629 16.774-5.785 5.7-11.617 11.341-17.326 17.126-23.008 22.947-45.383 46.619-67.49 70.647C101.5-837.4 79.576-813.082 57.3-788.922c-22.335 24.09-44.981 48.086-68.724 71.181-11.91 11.512-24.085 22.806-36.624 33.749s-25.457 21.518-38.9 31.482a501.941 501.941 0 01-41.769 28.01 407.346 407.346 0 01-44.871 23.135 336.065 336.065 0 01-97.291 26.279 348.1 348.1 0 01-100.111-3.051c-1.028-.176-2.061-.313-3.083-.521l-3.064-.624-6.123-1.248c-2.039-.423-4.083-.818-6.115-1.264l-6.06-1.5-6.054-1.5-3.025-.748c-1.009-.248-2-.569-3-.85l-11.952-3.5c-2-.552-3.954-1.251-5.918-1.916l-5.887-2c-3.921-1.34-7.86-2.617-11.7-4.179l-11.569-4.488c-1.938-.717-3.813-1.594-5.71-2.413l-5.675-2.488c-15.184-6.509-29.813-14.162-44.218-22.093-1.818-.959-3.581-2.02-5.342-3.084l-5.292-3.168-10.57-6.329c-6.92-4.427-13.763-8.962-20.6-13.471a604.621 604.621 0 0088.825 41.159 458.69 458.69 0 0046.5 14.288l11.816 2.739c.985.221 1.962.482 2.954.669l2.976.566 5.948 1.132 5.942 1.133c1.99.325 3.988.6 5.98.9l5.976.886 2.986.443c1 .149 2 .225 3 .341l11.992 1.306 12.019.841c2 .179 4.009.171 6.012.253l6.012.188 3 .086 3.006-.02 6.008-.037q12.009-.177 23.971-1.148c1.995-.113 3.98-.363 5.966-.58l5.956-.659c3.978-.364 7.913-1.05 11.857-1.641a334.409 334.409 0 0046.5-10.7 332.878 332.878 0 0044.387-17.33 385.386 385.386 0 0041.782-23.114c13.488-8.524 26.551-17.784 39.206-27.633 25.263-19.776 49.05-41.65 71.974-64.537 22.884-22.956 45.1-46.758 67.046-70.965 22.042-24.113 43.927-48.532 66.21-72.706 11.178-12.054 22.419-24.075 33.844-35.957s22.924-23.709 34.72-35.275c5.856-5.819 11.855-11.511 17.8-17.251 6.038-5.652 12-11.373 18.141-16.927q18.235-16.836 37.3-32.81l9.558-7.949c3.2-2.628 6.455-5.2 9.68-7.807l4.847-3.9 4.91-3.82 9.832-7.622 9.974-7.444 5-3.705 5.071-3.611 10.149-7.207 10.285-7.018a828.764 828.764 0 0185.612-50.8c14.8-7.5 29.76-14.706 45-21.249 3.811-1.635 7.587-3.343 11.423-4.915l11.523-4.67 5.761-2.331 5.823-2.171 11.643-4.34a802.666 802.666 0 0195.2-27.825A810.04 810.04 0 01793-1216z" transform="translate(1013.47 1457)" fill="url(#g)"/></g><g filter="url(#h)" transform="translate(.003)"><path data-name="Path 1999" d="M850-1090c-16.234 2.451-32.424 5.061-48.524 8.11-8.061 1.448-16.086 3.082-24.111 4.679l-12.007 2.547-6 1.273-5.981 1.362-11.953 2.739-11.911 2.9c-7.952 1.872-15.834 4.035-23.734 6.092-3.956 1-7.871 2.173-11.806 3.253l-11.788 3.3c-7.814 2.359-15.643 4.645-23.424 7.082q-46.7 14.593-91.953 33.019c-30.128 12.292-59.745 25.753-88.585 40.675-14.466 7.366-28.693 15.185-42.766 23.255-14.094 8.032-27.959 16.457-41.659 25.135-13.718 8.652-27.159 17.737-40.492 26.974q-19.98 13.886-39.371 28.626-19.371 14.757-38.336 30.089c-12.63 10.236-25.08 20.722-37.435 31.343-24.747 21.2-49.077 43.011-73.444 64.97-24.45 21.867-48.991 43.847-74.432 65.061C64.775-656.412 38.4-635.963 10.2-617.838c-28.172 18.1-58.079 34.026-89.662 45.96a413.672 413.672 0 01-48.272 15.089A423.1 423.1 0 01-177.4-547.8a446.24 446.24 0 01-50.262 3.063 437.3 437.3 0 01-50.134-2.831c-4.15-.495-8.31-.893-12.445-1.47l-12.365-1.972c-8.267-1.159-16.4-3.013-24.555-4.7l-6.11-1.284c-2.031-.453-4.035-1.021-6.052-1.525l-12.079-3.118-6.033-1.559c-2-.56-3.975-1.206-5.963-1.8l-11.9-3.672a648.469 648.469 0 01-91.67-37.742l-21.882-11.505c-3.675-1.854-7.174-4.043-10.746-6.086l-10.66-6.223-10.626-6.255c-3.494-2.167-6.926-4.436-10.388-6.648q-10.377-6.656-20.673-13.392 10.9 5.75 21.728 11.568c3.62 1.921 7.205 3.9 10.847 5.771l11.057 5.365 11.023 5.4c3.687 1.77 7.3 3.685 11.077 5.261l22.41 9.92c30.112 12.615 60.84 23.571 92.21 31.828a515.842 515.842 0 0095.4 16.175 452.955 452.955 0 0048.138.913l12-.647 3-.16 2.991-.274 5.978-.559 5.976-.557c1.991-.186 3.972-.489 5.957-.727l5.953-.759c1.983-.255 3.97-.48 5.94-.826a401.058 401.058 0 0046.843-9.894 398.812 398.812 0 0045.251-15.31 476.47 476.47 0 0084.343-45.238c26.738-17.77 52.2-37.72 76.992-58.7 24.86-20.907 49.133-42.775 73.522-64.7 24.451-21.86 49-43.819 74.2-65.146 25.233-21.284 51.036-42.047 77.758-61.642 53.371-39.273 110.295-74.043 170.181-102.474A1035.186 1035.186 0 01850-1090z" transform="translate(1013.47 1457)" fill="url(#i)"/></g></g></svg>