<svg xmlns="http://www.w3.org/2000/svg" width="43.861" height="48.2" viewBox="0 0 43.861 48.2">
  <g id="logo_mark_new" transform="translate(0 0)">
    <path id="Path_67" data-name="Path 67" d="M19.762,283.266s-.328-.006-.437,0a1.03,1.03,0,0,0-.152.007.421.421,0,0,0-.366.4c-.007.063-.012.362-.012.414l0,1.992L18.8,288.7s0,.3,0,.391a.482.482,0,0,0,.11.273.327.327,0,0,0,.1.075.748.748,0,0,0,.245.07,4.062,4.062,0,0,0,.5.022A17.828,17.828,0,1,1,1.934,307.365a.967.967,0,0,0-1.934,0,19.754,19.754,0,1,0,20.457-19.743v-2.4a22.162,22.162,0,0,1-.695,44.313.967.967,0,1,0,0,1.933,24.1,24.1,0,1,0,0-48.2" transform="translate(0 -283.263)" fill="#333"/>
    <path id="Path_68" data-name="Path 68" d="M35.888,354.769a15.434,15.434,0,0,0,15.149-12.533.246.246,0,0,0-.051-.2.254.254,0,0,0-.188-.089H44.844a.245.245,0,0,0-.232.171,9.154,9.154,0,1,1,0-5.542.244.244,0,0,0,.232.17h1.509a.244.244,0,0,0,.244-.244.238.238,0,0,0-.025-.109,11.091,11.091,0,1,0-.455,7.219h2.568a13.489,13.489,0,1,1,.4-7.06.243.243,0,0,0,.238.193H50.8a.244.244,0,0,0,.244-.244.251.251,0,0,0-.018-.093,15.423,15.423,0,1,0-15.139,18.362" transform="translate(-16.089 -315.228)" fill="#333"/>
  </g>
</svg>
