<svg id="logo_mark_mobile" xmlns="http://www.w3.org/2000/svg" width="20.02" height="22" viewBox="0 0 20.02 22">
  <path id="Path_67" data-name="Path 67" d="M9.02,283.264s-.15,0-.2,0a.465.465,0,0,0-.069,0,.192.192,0,0,0-.167.183c0,.029-.006.165-.006.189l0,.909,0,1.2s0,.136,0,.179a.22.22,0,0,0,.05.124.148.148,0,0,0,.045.034.341.341,0,0,0,.112.032,1.851,1.851,0,0,0,.229.01,8.138,8.138,0,1,1-8.137,8.138.441.441,0,0,0-.883,0,9.016,9.016,0,1,0,9.337-9.011v-1.1a10.115,10.115,0,0,1-.317,20.226.441.441,0,1,0,0,.882,11,11,0,1,0,0-22" transform="translate(0 -283.263)" fill="#f84cad"/>
  <path id="Path_68" data-name="Path 68" d="M27.5,338a7.045,7.045,0,0,0,6.914-5.72.112.112,0,0,0-.023-.092.116.116,0,0,0-.086-.041H31.591a.112.112,0,0,0-.106.078,4.178,4.178,0,1,1,0-2.529.111.111,0,0,0,.106.078h.689a.111.111,0,0,0,.112-.111.109.109,0,0,0-.012-.05,5.063,5.063,0,1,0-.208,3.295h1.172a6.157,6.157,0,1,1,.183-3.222.111.111,0,0,0,.109.088h.675a.111.111,0,0,0,.111-.111.115.115,0,0,0-.008-.042A7.04,7.04,0,1,0,27.5,338" transform="translate(-18.466 -319.952)" fill="#f84cad"/>
</svg>
