<svg xmlns="http://www.w3.org/2000/svg" width="48.323" height="53.104"><g data-name="Group 10" fill="#333"><path data-name="Path 67" d="M21.772.003s-.361-.007-.482 0a1.141 1.141 0 00-.168.008.464.464 0 00-.4.441c-.008.069-.014.4-.014.456v2.195l.006 2.893v.431a.531.531 0 00.122.3.362.362 0 00.108.083.823.823 0 00.269.077 4.474 4.474 0 00.553.024A19.642 19.642 0 112.13 26.554a1.065 1.065 0 00-2.13 0A21.764 21.764 0 1022.538 4.802V2.153a24.416 24.416 0 01-.765 48.821 1.065 1.065 0 000 2.13 26.55 26.55 0 100-53.1"/><path data-name="Path 68" d="M21.814 43.565a17 17 0 0016.691-13.808.271.271 0 00-.056-.222.28.28 0 00-.207-.1h-6.56a.27.27 0 00-.256.188 10.085 10.085 0 110-6.106.268.268 0 00.256.187h1.663a.269.269 0 00.269-.269.262.262 0 00-.028-.121 12.22 12.22 0 10-.5 7.953h2.829a14.862 14.862 0 11.442-7.775.267.267 0 00.262.212h1.628a.269.269 0 00.269-.268.276.276 0 00-.02-.1 16.993 16.993 0 10-16.68 20.231"/></g></svg>