<svg xmlns="http://www.w3.org/2000/svg" width="43.861" height="48.2"><g fill="#333"><path data-name="Path 67" d="M19.762.003s-.328-.006-.437 0a1.03 1.03 0 00-.152.007.421.421 0 00-.366.4 8.56 8.56 0 00-.012.414v1.992l.005 2.621v.391a.482.482 0 00.11.273.327.327 0 00.1.075.748.748 0 00.245.07 4.062 4.062 0 00.5.022A17.828 17.828 0 111.934 24.102a.967.967 0 00-1.934 0A19.754 19.754 0 1020.457 4.359v-2.4a22.162 22.162 0 01-.695 44.313.967.967 0 100 1.933 24.1 24.1 0 100-48.2"/><path data-name="Path 68" d="M19.799 39.541a15.434 15.434 0 0015.149-12.533.246.246 0 00-.051-.2.254.254 0 00-.188-.089h-5.954a.245.245 0 00-.232.171 9.154 9.154 0 110-5.542.244.244 0 00.232.17h1.509a.244.244 0 00.244-.244.238.238 0 00-.025-.109 11.091 11.091 0 10-.455 7.219h2.568a13.489 13.489 0 11.4-7.06.243.243 0 00.238.193h1.477a.244.244 0 00.244-.244.251.251 0 00-.018-.093 15.423 15.423 0 10-15.139 18.362"/></g></svg>