<svg id="logo_black" xmlns="http://www.w3.org/2000/svg" width="48.323" height="53.104" viewBox="0 0 48.323 53.104">
  <g id="Group_10" data-name="Group 10" transform="translate(0 0)">
    <path id="Path_67" data-name="Path 67" d="M21.772,283.266s-.361-.007-.482,0a1.141,1.141,0,0,0-.168.008.464.464,0,0,0-.4.441c-.008.069-.014.4-.014.456l0,2.195.006,2.893s0,.328,0,.431a.531.531,0,0,0,.122.3.362.362,0,0,0,.108.083.823.823,0,0,0,.269.077,4.474,4.474,0,0,0,.553.024A19.642,19.642,0,1,1,2.13,309.817a1.065,1.065,0,0,0-2.13,0,21.764,21.764,0,1,0,22.538-21.752v-2.649a24.416,24.416,0,0,1-.765,48.821,1.065,1.065,0,0,0,0,2.13,26.55,26.55,0,1,0,0-53.1" transform="translate(0 -283.263)" fill="#333"/>
    <path id="Path_68" data-name="Path 68" d="M37.457,357.908A17,17,0,0,0,54.148,344.1a.271.271,0,0,0-.056-.222.28.28,0,0,0-.207-.1H47.325a.27.27,0,0,0-.256.188,10.085,10.085,0,1,1,0-6.106.268.268,0,0,0,.256.187h1.663a.269.269,0,0,0,.269-.269.262.262,0,0,0-.028-.121,12.22,12.22,0,1,0-.5,7.953h2.829A14.862,14.862,0,1,1,52,337.835a.267.267,0,0,0,.262.212h1.628a.269.269,0,0,0,.269-.268.276.276,0,0,0-.02-.1,16.993,16.993,0,1,0-16.68,20.231" transform="translate(-15.643 -314.343)" fill="#333"/>
  </g>
</svg>
