<svg xmlns="http://www.w3.org/2000/svg" width="20.02" height="22"><path data-name="Path 67" d="M9.02.001h-.2a.465.465 0 00-.069 0 .192.192 0 00-.167.183l-.006.189v2.288a.22.22 0 00.05.124.148.148 0 00.045.034.341.341 0 00.112.032 1.851 1.851 0 00.229.01 8.138 8.138 0 11-8.137 8.138.442.442 0 00-.883 0 9.016 9.016 0 109.337-9.011v-1.1a10.115 10.115 0 01-.317 20.226.441.441 0 100 .882 11 11 0 100-22" fill="#f84cad"/><path data-name="Path 68" d="M9.034 18.048a7.045 7.045 0 006.914-5.72.112.112 0 00-.023-.092.116.116 0 00-.086-.041h-2.714a.112.112 0 00-.106.078 4.178 4.178 0 110-2.529.111.111 0 00.106.078h.689a.111.111 0 00.112-.111.109.109 0 00-.012-.05 5.063 5.063 0 10-.208 3.295h1.172a6.157 6.157 0 11.183-3.222.111.111 0 00.109.088h.675a.111.111 0 00.111-.111.115.115 0 00-.008-.042 7.04 7.04 0 10-6.914 8.379" fill="#f84cad"/></svg>