<svg xmlns="http://www.w3.org/2000/svg" width="56.021" height="10.092"><path d="M8.205 9.713a12.153 12.153 0 01-2.734.284q-5.472 0-5.47-5.14 0-4.763 5.47-4.763a12.207 12.207 0 012.734.282v1.981a11.262 11.262 0 00-2.546-.283q-3.161 0-3.16 2.783 0 3.159 3.16 3.159a11.288 11.288 0 002.546-.283zm1.18-2.8q0-3.047 4.3-3.047a12.7 12.7 0 012.3.188v-.65q0-1.33-2.574-1.33a11.376 11.376 0 00-3.225.471V.563a11.423 11.423 0 013.225-.47q5.074 0 5.074 3.263v6.64h-1.264l-1.075-.7a5.7 5.7 0 01-2.754.7q-4.009 0-4.008-3.084m4.3-1.161q-1.8 0-1.8 1.132t1.509 1.131a4.3 4.3 0 002.588-.775v-1.3a12.022 12.022 0 00-2.3-.189m6.725 4.245v-9.9h1.934l.311 1.265A3.919 3.919 0 0125.404.095v2.018a3.272 3.272 0 00-2.5 1.255v6.631h-2.5zm6.413-.472V7.449a10.193 10.193 0 003.81.66q1.613 0 1.612-1.037 0-.944-1.084-.944h-1.792a2.667 2.667 0 01-3.018-3.018q0-3.112 4.4-3.111a10.8 10.8 0 013.518.565v2.075a9.554 9.554 0 00-3.584-.661q-2.026 0-2.028 1.038 0 .942 1.179.942h1.6q3.3 0 3.3 3.019 0 3.112-4.207 3.112a11.41 11.41 0 01-3.715-.567m18.032-3.508h-6.479q0 2 3.264 2a16.064 16.064 0 003-.283v1.981a16.451 16.451 0 01-3.376.284q-5.385 0-5.386-5.066 0-4.838 4.934-4.838t4.045 5.923m-6.479-1.83h4.13q.132-2.132-1.98-2.13-1.98 0-2.15 2.13m8.356 5.81v-9.9h1.933l.311 1.265A6.26 6.26 0 0152.586.095q3.425 0 3.424 3.687v6.216h-2.5V3.754a1.447 1.447 0 00-1.631-1.642 3.969 3.969 0 00-2.659 1.255v6.631h-2.5z" fill="#fff"/></svg>