<svg xmlns="http://www.w3.org/2000/svg" width="134.17" height="44.794" viewBox="0 0 134.17 44.794">
  <g id="logo_header" transform="translate(0 -283.263)">
    <g id="Group_10" data-name="Group 10" transform="translate(0 283.263)">
      <path id="Path_67" data-name="Path 67" d="M18.365,283.266s-.3-.006-.406,0a.961.961,0,0,0-.141.006.391.391,0,0,0-.34.372c-.006.058-.012.337-.012.384l0,1.851,0,2.441s0,.277,0,.364a.448.448,0,0,0,.1.253.3.3,0,0,0,.091.07.7.7,0,0,0,.227.065,3.769,3.769,0,0,0,.466.02A16.569,16.569,0,1,1,1.8,305.662a.9.9,0,0,0-1.8,0,18.358,18.358,0,1,0,19.012-18.348v-2.235a20.6,20.6,0,0,1-.646,41.182.9.9,0,0,0,0,1.8,22.4,22.4,0,1,0,0-44.792" transform="translate(0 -283.263)" fill="#f84cad"/>
      <path id="Path_68" data-name="Path 68" d="M34.8,352.589a14.344,14.344,0,0,0,14.078-11.648.229.229,0,0,0-.047-.187.236.236,0,0,0-.175-.083H43.122a.228.228,0,0,0-.216.159,8.507,8.507,0,1,1,0-5.15.226.226,0,0,0,.216.158h1.4a.227.227,0,0,0,.227-.227.221.221,0,0,0-.024-.1,10.308,10.308,0,1,0-.423,6.709h2.386a12.536,12.536,0,1,1,.372-6.561.225.225,0,0,0,.221.179h1.373a.227.227,0,0,0,.226-.226.233.233,0,0,0-.017-.086A14.334,14.334,0,1,0,34.8,352.589" transform="translate(-16.398 -315.842)" fill="#f84cad"/>
    </g>
    <path id="Path_69" data-name="Path 69" d="M248.412,376.034a18.357,18.357,0,0,1-4.13.428q-8.266,0-8.263-7.764,0-7.195,8.263-7.2a18.438,18.438,0,0,1,4.13.426v2.992a17.014,17.014,0,0,0-3.846-.427q-4.774,0-4.773,4.2,0,4.772,4.773,4.771a17.052,17.052,0,0,0,3.846-.428Zm1.782-4.231q0-4.6,6.495-4.6a19.182,19.182,0,0,1,3.476.284V366.5q0-2.01-3.889-2.009a17.183,17.183,0,0,0-4.872.712v-2.993a17.254,17.254,0,0,1,4.872-.711q7.664,0,7.665,4.929v10.031h-1.91l-1.623-1.056a8.614,8.614,0,0,1-4.16,1.056q-6.056,0-6.054-4.659m6.495-1.754q-2.72,0-2.72,1.71t2.279,1.709a6.49,6.49,0,0,0,3.917-1.166v-1.968a18.155,18.155,0,0,0-3.476-.285m10.158,6.413V361.5h2.921l.47,1.91a5.919,5.919,0,0,1,4.159-1.91v3.048a4.943,4.943,0,0,0-3.776,1.9v10.016h-3.774Zm9.688-.713v-3.133a15.4,15.4,0,0,0,5.755,1q2.436,0,2.435-1.567,0-1.427-1.637-1.425h-2.707q-4.559,0-4.559-4.559,0-4.7,6.653-4.7a16.312,16.312,0,0,1,5.313.853v3.136a14.433,14.433,0,0,0-5.414-1q-3.061,0-3.063,1.568,0,1.423,1.781,1.423h2.422q4.988,0,4.987,4.56,0,4.7-6.354,4.7a17.236,17.236,0,0,1-5.612-.856m27.238-5.3h-9.787q0,3.021,4.931,3.02a24.269,24.269,0,0,0,4.529-.428v2.993a24.85,24.85,0,0,1-5.1.428q-8.134,0-8.136-7.652,0-7.307,7.453-7.308,7.436,0,6.111,8.947m-9.787-2.764h6.239q.2-3.221-2.991-3.218-2.991,0-3.248,3.218m12.622,8.776V361.5h2.92l.47,1.91a9.455,9.455,0,0,1,5.47-1.91q5.174,0,5.172,5.57v9.39h-3.775V367.03a2.185,2.185,0,0,0-2.464-2.48,6,6,0,0,0-4.017,1.9v10.016h-3.776Z" transform="translate(-186.47 -63.114)" fill="#fff"/>
  </g>
</svg>
