<svg xmlns="http://www.w3.org/2000/svg" width="1919.781" height="1080.358"><defs><linearGradient id="b" x1=".5" x2=".5" y2="1" gradientUnits="objectBoundingBox"><stop offset="0" stop-color="#fff" stop-opacity="0"/><stop offset=".494" stop-color="#fff"/><stop offset="1" stop-color="#fff" stop-opacity="0"/></linearGradient><linearGradient id="c" x1=".5" x2=".5" y2="1" gradientUnits="objectBoundingBox"><stop offset="0" stop-color="#fff" stop-opacity="0"/><stop offset=".494" stop-color="#fff"/><stop offset=".677" stop-color="#fff" stop-opacity=".639"/><stop offset="1" stop-color="#fff" stop-opacity="0"/></linearGradient><clipPath id="a"><path data-name="Rectangle 85" transform="translate(-539 -138)" fill="none" d="M0 0h1919.781v1080.358H0z"/></clipPath></defs><g data-name="Mask Group 4" transform="translate(539 138)" clip-path="url(#a)"><g data-name="Group 2" transform="translate(-411.152 -120.642)" opacity=".34" fill="url(#b)"><path data-name="Rectangle 1" d="M495-17h.5v1063h-.5z"/><path data-name="Rectangle 3" d="M577-17h.5v1063h-.5z"/><path data-name="Rectangle 4" d="M659-17h2.5v1063H659z"/><path data-name="Rectangle 5" d="M905-17h.5v1063h-.5z"/><path data-name="Rectangle 6" d="M987-17h.5v1063h-.5z"/><path data-name="Rectangle 7" d="M1070 0h.5v1063h-.5z"/><path data-name="Rectangle 8" d="M1152 0h.5v1063h-.5z"/><path data-name="Rectangle 2" d="M1562-17h.5v1063h-.5z"/><path data-name="Rectangle 9" d="M741-17h.5v1063h-.5z"/><path data-name="Rectangle 10" d="M823-17h.5v1063h-.5z"/><path data-name="Rectangle 11" d="M1234-17h.5v1063h-.5z"/><path data-name="Rectangle 12" d="M1316-17h.5v1063h-.5z"/><path data-name="Rectangle 13" d="M1398 0h.5v1063h-.5z"/><path data-name="Rectangle 14" d="M1480 0h.5v1063h-.5z"/></g><g data-name="Group 1" transform="translate(-852.152 -127.642)" opacity=".34" fill="url(#c)"><path data-name="Rectangle 17" opacity=".5" d="M2233 179.25v.5H313v-.5z"/><path data-name="Rectangle 18" d="M2233 425.25v.5H313v-.5z"/><path data-name="Rectangle 19" d="M2233 507.25v.5H313v-.5z"/><path data-name="Rectangle 20" d="M2233 590.25v.5H313v-.5z"/><path data-name="Rectangle 21" d="M2233 672.25v.5H313v-.5z"/><path data-name="Rectangle 23" d="M2233 261.25v.5H313v-.5z"/><path data-name="Rectangle 24" d="M2233 343.25v.5H313v-.5z"/><path data-name="Rectangle 25" d="M2233 754.25v2.5H313v-2.5z"/><path data-name="Rectangle 26" d="M2233 836.25v.5H313v-.5z"/><path data-name="Rectangle 27" opacity=".5" d="M2233 918.25v.5H313v-.5z"/></g></g></svg>