<svg xmlns="http://www.w3.org/2000/svg" width="98.15" height="32"><path data-name="Path 2021" d="M93.7 18.073h-8.64a1.07 1.07 0 00-1.06 1.06 1.07 1.07 0 001.06 1.06h8.656a1.07 1.07 0 001.06-1.06 1.074 1.074 0 00-1.076-1.06z"/><path data-name="Path 2022" d="M97.071 12H85.06A1.07 1.07 0 0084 13.06a1.07 1.07 0 001.06 1.06h12.03a1.07 1.07 0 001.06-1.06A1.087 1.087 0 0097.071 12z"/><path data-name="Path 2023" d="M97.071 24.126H85.06a1.07 1.07 0 00-1.06 1.06 1.07 1.07 0 001.06 1.06h12.03a1.07 1.07 0 001.06-1.06 1.087 1.087 0 00-1.079-1.06z"/><text transform="translate(0 26)" fill="#333" font-size="26" font-family="Muli-SemiBold, Muli" font-weight="600"><tspan x="0" y="0">menu</tspan></text></svg>