<svg xmlns="http://www.w3.org/2000/svg" width="225.938" height="187.042"><path data-name="Path 1991" d="M109.156 3.001l-.021 2.568c7.743 2.058 14.906 10.8 18.9 17.545-3.677-8.019-9.624-17.92-18.879-20.113zM1.178 187.042a1.2 1.2 0 010-2.39h223.581a1.2 1.2 0 010 2.39zm192.438-30.618a.239.239 0 01.082-.47l11.167 1.968a.239.239 0 01-.082.47zm-1.539-4.868a.238.238 0 01.094-.466l11.1 2.255a.238.238 0 01-.093.467zm-1.54-4.868a.238.238 0 01.106-.464l11.035 2.544a.238.238 0 01-.106.464zm-1.54-4.868a.238.238 0 01.119-.461l10.968 2.832a.238.238 0 01-.12.461zm-1.539-4.868a.239.239 0 01.131-.459l10.9 3.121a.239.239 0 01-.131.459zm-1.539-4.87a.239.239 0 01.141-.456l10.834 3.41a.24.24 0 01-.142.457zm-1.541-4.869a.239.239 0 01.155-.451l10.768 3.7a.24.24 0 01-.155.453zm-1.539-4.869a.238.238 0 01.166-.447l10.7 3.987a.238.238 0 01-.166.446zm-1.539-4.868a.239.239 0 01.177-.443l10.635 4.276a.239.239 0 01-.178.443zm-1.54-4.87a.239.239 0 01.189-.438l10.569 4.564a.239.239 0 01-.188.439zm-1.539-4.868a.239.239 0 01.2-.434l10.5 4.854a.238.238 0 01-.2.432zm-1.539-4.87a.238.238 0 01.211-.427l10.436 5.141a.239.239 0 01-.211.428zm-1.538-4.869a.238.238 0 01.22-.422l10.37 5.431a.238.238 0 01-.22.422zm-1.539-4.872a.237.237 0 01.231-.415l10.3 5.719a.238.238 0 01-.232.416zm-1.539-4.869a.238.238 0 01.241-.41l10.236 6.007a.238.238 0 01-.241.411zm-1.538-4.87a.238.238 0 01.25-.4l10.17 6.3a.238.238 0 01-.251.4zm-1.538-4.869a.239.239 0 01.26-.4l10.1 6.586a.239.239 0 01-.26.4zm-1.538-4.87a.239.239 0 01.269-.395l10.037 6.875a.239.239 0 01-.269.394zm-1.538-4.871a.238.238 0 01.278-.386l9.97 7.162a.239.239 0 01-.278.388zm-1.538-4.869a.239.239 0 01.286-.382l9.9 7.453a.237.237 0 01-.286.379zm-1.538-4.871a.24.24 0 01.3-.375l9.838 7.739a.24.24 0 01-.3.377zm-1.537-4.871a.238.238 0 01.3-.367l9.771 8.028a.238.238 0 01-.3.367zm-4.662-2.722a.715.715 0 011.367-.419l32.131 104.319a.715.715 0 01-1.366.419zM33.303 157.061a.239.239 0 01.082.47l-11.441 2.009a.239.239 0 01-.082-.47zm1.641-4.97a.238.238 0 01.093.467l-11.378 2.3a.237.237 0 01-.093-.465zm1.64-4.971a.238.238 0 01.106.464l-11.314 2.6a.239.239 0 01-.106-.465zm1.641-4.97a.238.238 0 01.117.461l-11.251 2.894a.237.237 0 01-.117-.459zm1.64-4.97a.238.238 0 01.13.458l-11.188 3.189a.239.239 0 01-.131-.459zm1.641-4.97a.238.238 0 01.142.455l-11.125 3.483a.238.238 0 01-.142-.455zm1.641-4.97a.239.239 0 01.153.452l-11.061 3.778a.239.239 0 01-.153-.452zm1.641-4.97a.239.239 0 01.165.448l-11 4.072a.239.239 0 01-.164-.448zm1.641-4.971a.239.239 0 01.175.444l-10.935 4.366a.237.237 0 01-.176-.44zm1.641-4.97a.239.239 0 01.187.439l-10.872 4.664a.239.239 0 01-.187-.439zm1.641-4.968a.238.238 0 01.2.433l-10.809 4.958a.238.238 0 01-.2-.433zm1.641-4.97a.238.238 0 01.209.427l-10.746 5.254a.238.238 0 01-.209-.428zm1.642-4.971a.24.24 0 01.321.1.238.238 0 01-.1.321l-10.683 5.548a.238.238 0 01-.218-.422zm1.641-4.968a.239.239 0 01.23.418l-10.62 5.844a.24.24 0 01-.229-.42zm1.642-4.969a.239.239 0 11.239.413L45.96 94.034a.239.239 0 01-.239-.414zm1.642-4.969a.238.238 0 01.248.407l-10.493 6.433a.238.238 0 01-.248-.407zm1.641-4.97a.239.239 0 01.258.4l-10.43 6.729a.239.239 0 01-.258-.4zm1.642-4.968a.24.24 0 01.267.4l-10.367 7.021a.238.238 0 01-.267-.394zm1.642-4.969a.238.238 0 01.276.389l-10.3 7.317a.239.239 0 01-.276-.389zm1.643-4.968a.239.239 0 01.284.383l-10.24 7.612a.238.238 0 01-.283-.383zm1.642-4.969a.238.238 0 01.292.376l-10.177 7.907a.239.239 0 01-.293-.376zm1.643-4.968a.238.238 0 01.3.369l-10.114 8.2a.239.239 0 01-.3-.371zm3.344-2.847a.716.716 0 011.36.447L37.398 156.875a.717.717 0 01-1.361-.448zm109.221 109.5a1.191 1.191 0 01.373 2.352l-14.154 2.26a1.191 1.191 0 01-.373-2.353zm6.179 6.167a1.19 1.19 0 012.277-.691l4.582 14.973a1.19 1.19 0 01-2.277.69zm23.8 3.645a1.194 1.194 0 012.249-.8l4.078 11.391a1.194 1.194 0 01-2.25.8zm-70.682-119.5l9.063-11.405c1.083-1.394 1.489-.975 2.5-.076q10.96 9.265 21.92 18.533c1.651 1.4 1.443 1.138 2.188 3.168l37.083 100.929c.359 1 1.043 2.244.436 3.292-.435.75-1.462.673-3.581.381l-23.91-3.293-35.916-120.008-9.015 11.344 21.168 89.951c1.318 4.554-2.006 2.333-3.843 1.2-12.217-7.572-34.9-11.5-49.142-12.334-3.272-.192-5.475-.06-5.388-4.166l3.572-119.344-2.913-3.551-14.941 139.107 12.688 2.453c1.009.141 1.3.089 1.344-.888l.438-10.642a1.191 1.191 0 012.38.094c-.147 3.643-.309 7.289-.438 10.931-.1 2.738-.963 3.466-3.89 2.9-4.59-.888-8.9-1.718-13.486-2.605l-13.376 11.485c-1.9 1.594-3.655.236-3.225-1.93l17.5-102.592-.062.049-9.041-11.463-36.014 118.021 27.775 5.45A1.193 1.193 0 0171.05 167l-28.882-5.666-21.757 3a26.477 26.477 0 01-2.764.323c-2.931.091-2.551-1.4-1.676-3.548L54.462 57.987q11.392-9.587 22.785-19.17c2.118-1.645 2.021-2.159 3.912.312l8.213 10.414 2.534-14.851 9.544-33.627a1.387 1.387 0 012.583-.3l2.841 3.461.067-2.24c.072-1.377.6-1.714 1.608-1.507 19.058 4.11 26.566 32.7 31.077 49.2zm32.949 9.724l-20.384-17.236 34.983 116.89 21.487 2.961c2.222.305 1.786.477 1.11-1.258l-37.2-101.358zM68.92 170.623a1.192 1.192 0 012.352.391l-1.522 9.039a1.192 1.192 0 01-2.352-.391zm-28.836-5.256a1.196 1.196 0 012.3.654l-4.081 14.3a1.196 1.196 0 01-2.3-.655zm-23.953 2.975a1.194 1.194 0 012.23.85l-4.3 11.235a1.194 1.194 0 01-2.231-.849zm60.437-9.483a1.193 1.193 0 012.361.344l-3.12 20.869a1.193 1.193 0 01-2.361-.346zm19.4-8.021a1.193 1.193 0 012.38.169l-2.082 29.217a1.193 1.193 0 01-2.38-.169zM76.974 42.153L56.487 59.392 18.931 160.116c-.526 1.536-1.132 2.332 1.174 1.94l21.2-3.014zm80.345 106.239a1.193 1.193 0 012.333-.494l6.785 31.989a1.193 1.193 0 01-2.333.5zm-15.072-6.5a1.19 1.19 0 012.361-.3l4.905 38.387a1.19 1.19 0 01-2.362.3zm-14.655-3.737a1.193 1.193 0 012.38-.159c.938 14.008 1.753 28.023 2.691 42.031a1.193 1.193 0 01-2.38.158c-.942-14.008-1.757-28.023-2.696-42.031zm-18.867-3.227a1.19 1.19 0 012.38 0l-.143 45.1a1.19 1.19 0 01-2.38 0zm.4-128.87l-.059 4.9c9.433 2.3 18.675 13.983 23.033 22.305q-.944-2.67-1.928-5.144c-3.802-7.996-12.182-19.624-21.051-22.061zm-.073 5.388l-.155 5.171c10.161 2.273 20.884 14.617 25.506 23.585q-.353-1.129-.71-2.23c-3.407-9.43-14.481-23.975-24.646-26.53zm-.169 5.656l-.155 5.175c10.615 2.184 22.57 14.588 27.47 23.927q-.278-.97-.558-1.92c-3.182-9.853-16.264-24.771-26.763-27.182zm-.17 5.658l-.155 5.177c10.932 2.068 23.93 14.227 29.166 23.767q-.326-1.214-.655-2.4h-.005c-3.559-9.976-17.651-24.292-28.356-26.544zm-.17 5.66l-.155 5.179c11.213 1.953 25.205 13.823 30.759 23.532q-.386-1.507-.774-2.986c-4.075-10.035-18.925-23.62-29.835-25.725zm-.169 5.66l-.155 5.181c11.457 1.837 26.372 13.356 32.258 23.177q-.4-1.625-.8-3.213c-4.429-10.118-20.209-23.183-31.308-25.146zm-.169 5.661l-.156 5.182c11.682 1.724 27.48 12.865 33.7 22.771q-.411-1.729-.822-3.422c-4.813-10.174-21.444-22.695-32.728-24.53zm-.17 5.662l-.155 5.183c11.881 1.611 28.475 12.317 35.073 22.242q-.409-1.757-.816-3.487c-5.172-10.216-22.65-22.226-34.106-23.939zm-.169 5.663l-.156 5.185c12.077 1.5 29.481 11.8 36.431 21.744q-.424-1.861-.846-3.688c-5.63-10.212-23.794-21.642-35.434-23.241zm-.17 5.664l-.155 5.185c12.265 1.4 30.43 11.258 37.758 21.186q-.425-1.89-.848-3.751c-6.013-10.208-24.953-21.133-36.76-22.62zm-.17 5.663l-.155 5.188c12.445 1.3 31.349 10.716 39.066 20.594l-.857-3.823c-6.434-10.167-26.082-20.575-38.059-21.959zm-.169 5.664l-.155 5.189c12.615 1.211 32.33 10.222 40.382 20.065l-.888-3.976c-6.876-10.103-27.194-19.993-39.344-21.278zm-.169 5.667l-.156 5.188c12.806 1.122 33.081 9.624 41.645 19.3q-.427-1.908-.847-3.8c-7.22-10.058-28.347-19.5-40.648-20.689zm-.17 5.666l-.156 5.189c12.978 1.035 34 9.119 42.945 18.686q-.457-2.035-.906-4.046c-7.837-9.877-29.37-18.726-41.888-19.83zm-.17 5.665l-.155 5.19c13.149.953 34.94 8.628 44.254 18.08q-.466-2.06-.924-4.1c-8.25-9.763-30.492-18.151-43.18-19.171zm-.169 5.668l-.156 5.19c13.328.873 35.844 8.127 45.562 17.425q-.47-2.058-.932-4.1c-8.636-9.634-31.634-17.582-44.48-18.516zm-.17 5.667l-.155 5.19c13.5.8 36.79 7.647 46.888 16.785q-.483-2.087-.957-4.157c-9.074-9.466-32.754-16.966-45.781-17.819zm-.17 5.667l-.155 5.19c13.721.725 37.6 7.128 48.2 16.013q-.479-2.036-.948-4.058c-9.469-9.3-33.9-16.366-47.1-17.146zm-.169 5.668l-.155 5.191c13.852.651 38.771 6.721 49.6 15.51q-.526-2.2-1.04-4.375c-10.033-9.034-34.975-15.616-48.4-16.327zm-.17 5.666l-.155 5.193c14.027.58 39.818 6.271 50.986 14.881q-.522-2.136-1.032-4.259c-10.226-8.941-36.262-15.177-49.8-15.815zm-.169 5.668l-.156 5.192c14.284.514 40.824 4.908 52.294 13.821q-.481-1.931-.952-3.849c-10.574-8.753-37.484-14.595-51.186-15.164zm-.17 5.669l-.075 2.512c-.036 1.922 1.765 1.64 3.138 1.719 14.539.853 36.066 4.638 48.865 11.865 1.328.638 1.124.217.572-1.989-10.982-9.112-38.47-13.602-52.506-14.107zm-19.174 19.027l14.031-130.64-6.266 22.079-20.368 119.382 12.6-10.822z" fill="#b3d0e1"/></svg>