<svg xmlns="http://www.w3.org/2000/svg" width="166" height="137.422"><path data-name="Path 1991" d="M80.198 2.205l-.015 1.887c5.689 1.512 10.952 7.933 13.884 12.891-2.699-5.893-7.069-13.166-13.869-14.778zM.865 137.423a.878.878 0 010-1.756h164.266a.878.878 0 010 1.756zm141.387-22.5a.175.175 0 01.06-.345l8.2 1.446a.175.175 0 01-.06.345zm-1.131-3.577a.175.175 0 01.069-.342l8.156 1.657a.175.175 0 01-.068.343zm-1.131-3.576a.175.175 0 01.078-.341l8.107 1.869a.175.175 0 01-.078.341zm-1.131-3.577a.175.175 0 01.088-.338l8.058 2.081a.175.175 0 01-.088.339zm-1.131-3.576a.176.176 0 01.1-.337l8.009 2.293a.176.176 0 01-.1.337zm-1.131-3.578a.175.175 0 01.1-.335l7.96 2.505a.176.176 0 01-.1.335zm-1.132-3.577a.176.176 0 01.114-.332l7.911 2.717a.176.176 0 01-.114.333zm-1.131-3.578a.175.175 0 01.122-.328l7.863 2.93a.175.175 0 01-.122.328zm-1.13-3.577a.175.175 0 01.13-.325l7.814 3.142a.176.176 0 01-.131.326zm-1.131-3.578a.175.175 0 01.139-.322l7.765 3.354a.176.176 0 01-.138.323zm-1.131-3.577a.176.176 0 01.147-.319l7.716 3.566a.175.175 0 01-.147.317zm-1.131-3.578a.175.175 0 01.155-.314l7.667 3.777a.175.175 0 01-.155.314zm-1.13-3.578a.175.175 0 01.162-.31l7.619 3.99a.175.175 0 01-.162.311zm-1.13-3.579a.174.174 0 01.17-.3l7.57 4.2a.175.175 0 01-.17.306zm-1.13-3.577a.175.175 0 01.177-.3l7.521 4.414a.175.175 0 01-.177.3zm-1.13-3.578a.176.176 0 01.184-.3l7.472 4.626a.176.176 0 01-.184.3zm-1.13-3.577a.175.175 0 01.191-.294l7.423 4.839a.175.175 0 01-.191.293zm-1.13-3.578a.176.176 0 01.2-.29l7.374 5.051a.176.176 0 01-.2.289zm-1.13-3.579a.175.175 0 01.2-.284l7.325 5.262a.176.176 0 01-.2.285zm-1.13-3.577a.175.175 0 01.21-.281l7.277 5.476a.175.175 0 01-.21.279zm-1.13-3.579a.175.175 0 01.217-.275l7.228 5.686a.176.176 0 01-.217.277zm-1.129-3.579a.175.175 0 01.222-.27l7.179 5.9a.175.175 0 01-.222.27zm-3.425-2a.525.525 0 011-.308l23.607 76.645a.525.525 0 01-1 .308zm-90.617 77.6a.175.175 0 01.06.345l-8.406 1.477a.176.176 0 01-.06-.346zm1.206-3.651a.175.175 0 01.068.343l-8.359 1.692a.174.174 0 01-.068-.342zm1.2-3.652a.175.175 0 01.078.341l-8.313 1.911a.175.175 0 01-.078-.342zm1.206-3.652a.175.175 0 01.086.339l-8.266 2.126a.174.174 0 01-.086-.338zm1.2-3.651a.176.176 0 01.1.337l-8.22 2.343a.176.176 0 01-.1-.337zm1.206-3.651a.175.175 0 01.1.334l-8.174 2.559a.175.175 0 01-.1-.334zm1.206-3.651a.175.175 0 01.113.332l-8.127 2.776a.175.175 0 01-.113-.332zm1.206-3.651a.175.175 0 01.121.329l-8.081 2.992a.175.175 0 01-.121-.329zm1.206-3.652a.175.175 0 01.129.326l-8.034 3.208a.174.174 0 01-.129-.324zm1.205-3.651a.175.175 0 01.137.323L27.46 86.28a.175.175 0 01-.137-.322zm1.206-3.65a.175.175 0 01.145.318l-7.941 3.643a.175.175 0 01-.145-.318zm1.205-3.651a.175.175 0 01.154.314l-7.9 3.86a.175.175 0 01-.154-.314zm1.207-3.652a.175.175 0 01.16.312l-7.849 4.076a.175.175 0 01-.16-.311zm1.206-3.65a.175.175 0 01.169.307l-7.8 4.293a.176.176 0 01-.168-.309zm1.206-3.651a.175.175 0 11.175.3l-7.756 4.51a.175.175 0 01-.176-.3zm1.207-3.651a.175.175 0 01.182.3l-7.709 4.726a.175.175 0 01-.182-.3zm1.206-3.651a.178.178 0 01.19.3l-7.663 4.943a.177.177 0 01-.189-.3zm1.207-3.65a.177.177 0 01.2.291l-7.616 5.158a.176.176 0 01-.2-.289zm1.206-3.65a.175.175 0 01.2.286l-7.57 5.376a.175.175 0 01-.2-.286zm1.207-3.65a.176.176 0 01.209.282l-7.524 5.592a.175.175 0 01-.208-.281zm1.207-3.651a.175.175 0 01.215.276l-7.477 5.81a.175.175 0 01-.215-.277zm1.207-3.65a.175.175 0 01.221.271l-7.431 6.027a.175.175 0 01-.221-.272zm2.457-2.092a.526.526 0 011 .329l-25.772 78.3a.526.526 0 01-1-.329zm80.246 80.448a.875.875 0 01.274 1.728l-10.4 1.661a.875.875 0 01-.274-1.729zm4.54 4.531a.874.874 0 011.673-.508l3.366 11a.874.874 0 01-1.673.507zm17.483 2.678a.878.878 0 011.653-.59l3 8.369a.877.877 0 01-1.653.589zm-51.931-87.8l6.659-8.379c.8-1.024 1.094-.716 1.838-.056q8.053 6.807 16.105 13.617a3.438 3.438 0 011.608 2.328l27.245 74.154c.264.732.767 1.649.32 2.418-.32.551-1.074.495-2.631.28l-17.567-2.419-26.388-88.172-6.623 8.334 15.552 66.088c.968 3.346-1.474 1.714-2.823.878-8.976-5.563-25.645-8.451-36.1-9.062-2.4-.141-4.023-.044-3.958-3.061l2.625-87.683-2.141-2.609-10.973 102.204 9.322 1.8c.741.1.952.065.988-.652l.322-7.819a.875.875 0 011.749.069c-.108 2.676-.227 5.355-.322 8.031-.072 2.012-.707 2.547-2.858 2.131-3.373-.653-6.535-1.263-9.908-1.915l-9.827 8.438c-1.4 1.171-2.685.174-2.369-1.417l12.86-75.376-.046.036-6.642-8.422-26.46 86.712 20.406 4a.877.877 0 01-.336 1.721l-21.22-4.163-15.985 2.2a19.483 19.483 0 01-2.031.237c-2.154.067-1.874-1.031-1.231-2.606l28.28-75.765q8.37-7.044 16.74-14.085c1.556-1.208 1.485-1.586 2.874.229l6.034 7.651 1.862-10.911L74.545.767a1.019 1.019 0 011.9-.224l2.087 2.543.049-1.646c.052-1.012.443-1.259 1.181-1.107 14 3.02 19.518 24.023 22.833 36.15zm24.208 7.144L111.815 30.97l25.7 85.88 15.787 2.176c1.633.224 1.312.35.815-.924l-27.329-74.469zm-76.162 81.724a.876.876 0 011.728.288l-1.118 6.641a.876.876 0 01-1.728-.287zm-21.186-3.862a.877.877 0 011.687.48l-3 10.51a.877.877 0 01-1.687-.481zm-17.6 2.187a.877.877 0 011.639.625l-3.159 8.254a.877.877 0 01-1.639-.624zm44.4-6.968a.877.877 0 011.735.253L55.686 132.3a.877.877 0 01-1.735-.254zm14.253-5.893a.877.877 0 011.749.124l-1.53 21.466a.876.876 0 01-1.748-.124zM56.541 30.969L41.489 43.635l-27.593 74c-.386 1.129-.832 1.713.863 1.425l15.576-2.214zm59.03 78.056a.876.876 0 011.714-.363l4.985 23.5a.876.876 0 01-1.714.364zm-11.074-4.775a.874.874 0 011.735-.219l3.6 28.2a.875.875 0 01-1.735.219zm-10.767-2.746a.876.876 0 011.749-.117c.689 10.292 1.288 20.589 1.977 30.881a.876.876 0 01-1.749.116c-.676-10.292-1.276-20.588-1.967-30.88zm-13.862-2.371a.874.874 0 011.748 0l-.1 33.139a.875.875 0 01-1.749 0zm.294-94.683l-.043 3.6C87.05 9.739 93.84 18.323 97.041 24.438q-.694-1.962-1.416-3.779c-2.78-5.874-8.937-14.417-15.453-16.208zm-.054 3.959l-.114 3.8c7.465 1.67 15.344 10.739 18.74 17.329q-.259-.83-.521-1.639C95.723 20.97 87.586 10.284 80.118 8.41zm-.125 4.156l-.114 3.8c7.8 1.6 16.583 10.718 20.183 17.58q-.2-.713-.41-1.411c-2.323-7.237-11.935-18.197-19.648-19.968zm-.125 4.157l-.114 3.8c8.032 1.52 17.582 10.453 21.429 17.462q-.24-.892-.481-1.767c-2.604-7.322-12.961-17.84-20.823-19.495zm-.125 4.158l-.114 3.805c8.239 1.435 18.519 10.156 22.6 17.289q-.283-1.107-.569-2.194c-2.979-7.371-13.89-17.352-21.906-18.9zm-.125 4.158l-.114 3.806c8.418 1.35 19.376 9.813 23.7 17.029q-.293-1.194-.587-2.361c-3.238-7.432-14.832-17.028-22.987-18.47zm-.124 4.159l-.114 3.808c8.583 1.266 20.19 9.452 24.758 16.73q-.3-1.27-.6-2.514c-3.523-7.479-15.742-16.674-24.032-18.023zm-.125 4.16l-.114 3.808c8.729 1.184 20.921 9.049 25.769 16.341q-.3-1.291-.6-2.562c-3.783-7.502-16.625-16.328-25.043-17.586zm-.124 4.161l-.114 3.809c8.873 1.106 21.66 8.668 26.767 15.976q-.312-1.367-.622-2.71c-4.122-7.502-17.467-15.899-26.019-17.074zm-.125 4.162l-.114 3.81c9.011 1.031 22.358 8.271 27.741 15.565q-.312-1.389-.623-2.756c-4.402-7.498-18.317-15.526-26.992-16.619zm-.125 4.161l-.114 3.812c9.143.958 23.032 7.873 28.7 15.13q-.316-1.415-.63-2.809c-4.71-7.469-19.144-15.116-27.944-16.132zm-.124 4.162l-.114 3.813c9.269.89 23.753 7.51 29.669 14.742l-.652-2.921c-5.033-7.424-19.964-14.689-28.891-15.634zm-.125 4.163l-.114 3.812c9.409.824 24.305 7.071 30.6 14.177l-.623-2.79c-5.291-7.389-20.813-14.323-29.851-15.199zm-.125 4.163l-.114 3.813c9.535.76 24.98 6.7 31.552 13.729q-.336-1.495-.665-2.973c-5.742-7.256-21.566-13.756-30.761-14.569zm-.125 4.162l-.114 3.813c9.661.7 25.671 6.339 32.514 13.284l-.679-3.014c-6.044-7.172-22.39-13.332-31.708-14.083zm-.125 4.164l-.114 3.813c9.792.642 26.335 5.971 33.475 12.8l-.685-3.01c-6.328-7.077-23.225-12.916-32.663-13.603zm-.125 4.164l-.114 3.813c9.921.584 27.03 5.619 34.449 12.332q-.355-1.534-.7-3.054c-6.652-6.956-24.053-12.462-33.621-13.092zm-.125 4.164l-.114 3.813c10.081.533 27.623 5.237 35.414 11.765l-.7-2.981c-6.957-6.833-24.908-12.024-34.6-12.6zm-.125 4.165l-.114 3.814c10.177.479 28.485 4.938 36.439 11.4q-.386-1.613-.764-3.214c-7.371-6.637-25.7-11.474-35.561-12zm-.125 4.163l-.114 3.815c10.306.426 29.255 4.607 37.46 10.933q-.383-1.569-.759-3.129c-7.513-6.569-26.642-11.151-36.587-11.62zm-.125 4.165l-.114 3.814c10.494.378 29.994 3.606 38.421 10.155q-.353-1.419-.7-2.828c-7.769-6.431-27.54-10.723-37.607-11.141zm-.125 4.165l-.055 1.846c-.026 1.413 1.3 1.205 2.306 1.263 10.682.626 26.5 3.407 35.9 8.717.976.469.826.159.42-1.461-8.051-6.697-28.243-9.996-38.551-10.364zM63.524 105.62L73.832 9.638l-4.6 16.221-14.964 87.712 9.26-7.951z" fill="#333"/></svg>