<svg xmlns="http://www.w3.org/2000/svg" width="1689.941" height="833.266"><defs><linearGradient id="b" x1=".832" y1=".089" x2=".021" y2=".896" gradientUnits="objectBoundingBox"><stop offset="0" stop-color="#ffa1d6" stop-opacity="0"/><stop offset=".251" stop-color="#ffd4ec"/><stop offset="1" stop-color="#ffd4ec"/></linearGradient><filter id="a" x="0" y="0" width="1689.941" height="833.266" filterUnits="userSpaceOnUse"><feOffset dy="3"/><feGaussianBlur stdDeviation="48" result="blur"/><feFlood flood-color="#ffd4ec" flood-opacity=".522"/><feComposite operator="in" in2="blur"/><feComposite in="SourceGraphic"/></filter></defs><g filter="url(#a)"><path data-name="Path 1999" d="M850-1090c-16.234 2.451-32.424 5.061-48.524 8.11-8.061 1.448-16.086 3.082-24.111 4.679l-12.007 2.547-6 1.273-5.981 1.362-11.953 2.739-11.911 2.9c-7.952 1.872-15.834 4.035-23.734 6.092-3.956 1-7.871 2.173-11.806 3.253l-11.788 3.3c-7.814 2.359-15.643 4.645-23.424 7.082q-46.7 14.593-91.953 33.019c-30.128 12.292-59.745 25.753-88.585 40.675-14.466 7.366-28.693 15.185-42.766 23.255-14.094 8.032-27.959 16.457-41.659 25.135-13.718 8.652-27.159 17.737-40.492 26.974q-19.98 13.886-39.371 28.626-19.371 14.757-38.336 30.089c-12.63 10.236-25.08 20.722-37.435 31.343-24.747 21.2-49.077 43.011-73.444 64.97-24.45 21.867-48.991 43.847-74.432 65.061C64.775-656.412 38.4-635.963 10.2-617.838c-28.172 18.1-58.079 34.026-89.662 45.96a413.672 413.672 0 01-48.272 15.089A423.1 423.1 0 01-177.4-547.8a446.24 446.24 0 01-50.262 3.063 437.3 437.3 0 01-50.134-2.831c-4.15-.495-8.31-.893-12.445-1.47l-12.365-1.972c-8.267-1.159-16.4-3.013-24.555-4.7l-6.11-1.284c-2.031-.453-4.035-1.021-6.052-1.525l-12.079-3.118-6.033-1.559c-2-.56-3.975-1.206-5.963-1.8l-11.9-3.672a648.469 648.469 0 01-91.67-37.742l-21.882-11.505c-3.675-1.854-7.174-4.043-10.746-6.086l-10.66-6.223-10.626-6.255c-3.494-2.167-6.926-4.436-10.388-6.648q-10.377-6.656-20.673-13.392 10.9 5.75 21.728 11.568c3.62 1.921 7.205 3.9 10.847 5.771l11.057 5.365 11.023 5.4c3.687 1.77 7.3 3.685 11.077 5.261l22.41 9.92c30.112 12.615 60.84 23.571 92.21 31.828a515.842 515.842 0 0095.4 16.175 452.955 452.955 0 0048.138.913l12-.647 3-.16 2.991-.274 5.978-.559 5.976-.557c1.991-.186 3.972-.489 5.957-.727l5.953-.759c1.983-.255 3.97-.48 5.94-.826a401.058 401.058 0 0046.843-9.894 398.812 398.812 0 0045.251-15.31 476.47 476.47 0 0084.343-45.238c26.738-17.77 52.2-37.72 76.992-58.7 24.86-20.907 49.133-42.775 73.522-64.7 24.451-21.86 49-43.819 74.2-65.146 25.233-21.284 51.036-42.047 77.758-61.642 53.371-39.273 110.295-74.043 170.181-102.474A1035.186 1035.186 0 01850-1090z" transform="translate(695.95 1231)" opacity=".75" fill="url(#b)"/></g></svg>