<svg xmlns="http://www.w3.org/2000/svg" width="88.601" height="109.588" viewBox="0 0 88.601 109.588">
  <g id="privacy_compliance" transform="translate(240.984 -2677.9)">
    <path id="Path_2006" data-name="Path 2006" d="M-174.914,2751.33c-.251,1.956-2.823,3.614-6.854,4.734-8.519,2.368-21.862,2.368-30.381,0-3.655-1.016-6.11-2.474-6.724-4.194a5.7,5.7,0,0,1-.15-1.892v-34.459a4.173,4.173,0,0,1,.113-1.326c.544-1.771,3.026-3.27,6.762-4.308,8.619-2.4,21.786-2.35,30.4.046,2.609.717,6.852,2.067,6.852,5.279V2750.2A9.522,9.522,0,0,1-174.914,2751.33Zm7.774,5.383a.581.581,0,0,1-1.08-.428c6.047-15.189,8.218-32.913,8.664-49.168a.581.581,0,0,1,1.162.031c-.45,16.414-2.64,34.226-8.746,49.565Zm-58.482-.428a.581.581,0,0,1-1.08.428c-6.106-15.338-8.3-33.15-8.746-49.565a.581.581,0,0,1,1.162-.031c.446,16.254,2.617,33.978,8.664,49.168Zm28.085,15.024a.934.934,0,0,1,1.867,0v10.354c-.041,4.735,2.163,4.437,5.95,3.187,11.153-3.615,19.53-12.337,25.336-25,6.219-13.558,9.491-31.611,10.07-52.748.183-6.67.9-10.392-6.352-11.25-7.406-.876-13.483-2.892-19.446-7.412a.932.932,0,0,1,1.123-1.488c5.713,4.331,11.446,6.209,18.541,7.048,8.5,1,8.2,5.542,7.993,13.153-.586,21.381-3.913,39.679-10.238,53.469-6.026,13.139-14.771,22.207-26.459,26-5.388,1.746-8.386,1.209-8.386-4.959v-10.354Zm-13.592,10.252a.931.931,0,0,1-.97,1.59c-22.756-13.957-28.145-51-28.831-75.994-.209-7.611-.249-12.148,8.25-13.153,13.083-1.547,17.972-6.042,22.567-10.058a33.741,33.741,0,0,1,7.4-5.365c3.987-1.941,6.952.463,6.952,4.68v13.985a.934.934,0,0,1-1.867,0v-14c0-2.825-1.579-4.253-4.361-2.9a31.254,31.254,0,0,0-6.9,4.995c-4.8,4.2-9.924,8.9-23.573,10.51-7.254.858-6.792,4.58-6.609,11.25C-238.4,2731.368-233.2,2768.023-211.129,2781.561Zm27.65-28.749a.583.583,0,0,1-.269-1.135,14.987,14.987,0,0,0,4.745-1.811.583.583,0,0,1,.684.943A16.074,16.074,0,0,1-183.479,2752.812Zm1.547-12.189a.583.583,0,0,1-.333-1.116,11.69,11.69,0,0,0,3.262-1.414.583.583,0,0,1,.684.943,12.741,12.741,0,0,1-3.613,1.587Zm1.51-12.85a.582.582,0,0,1-.419-1.085,8.3,8.3,0,0,0,1.839-.931.583.583,0,0,1,.684.943,9.418,9.418,0,0,1-2.1,1.072Zm-6.959-14.69a.582.582,0,0,1,.114-1.158,21.9,21.9,0,0,1,4.837.988c4.054,1.464,1.712,3.317-1.235,4.137a35.729,35.729,0,0,1-9.912,1.114.581.581,0,0,1,.018-1.162,34.664,34.664,0,0,0,9.583-1.073c1.688-.47,3.3-1.3,1.051-2.024a27.419,27.419,0,0,0-4.456-.821Zm9.808,5.253a18.7,18.7,0,0,1-4.2,1.651c-8.519,2.368-21.862,2.368-30.381,0a19.617,19.617,0,0,1-3.859-1.467c-1.365-.72-1.149-1.095-1.149.662v7.782c0,1.152,2.1,2.312,5.5,3.258,8.173,2.272,21.216,2.272,29.389,0,3.4-.946,5.5-2.106,5.5-3.258v-8c0-1.375.211-1.214-.813-.631Zm-4.691-6.657c-8.173-2.272-21.215-2.272-29.389,0-3.4.946-5.5,2.106-5.5,3.258s2.1,2.312,5.5,3.257c8.173,2.272,21.216,2.272,29.389,0,3.4-.945,5.5-2.106,5.5-3.257S-178.863,2712.624-182.264,2711.678Zm4.812,18.618a18.365,18.365,0,0,1-4.316,1.721c-8.519,2.369-21.862,2.369-30.381,0a18.944,18.944,0,0,1-4.133-1.615c-.97-.543-.875-.821-.875.6v7.978c0,1.152,2.1,2.312,5.5,3.258,8.173,2.272,21.216,2.272,29.389,0,3.4-.945,5.5-2.106,5.5-3.258v-8.318c0-1.037.128-.852-.691-.371Zm-.151,12.116a18.807,18.807,0,0,1-4.165,1.634c-8.518,2.368-21.862,2.368-30.381,0a19.867,19.867,0,0,1-3.792-1.431c-1.458-.759-1.216-1.153-1.216.746V2751c0,1.151,2.1,2.312,5.5,3.257,8.173,2.272,21.216,2.272,29.389,0,3.18-.883,5.225-1.956,5.477-3.033a5.59,5.59,0,0,0,.027-.977v-7.183C-176.76,2741.639-176.542,2741.812-177.6,2742.412Z" transform="translate(0 0)" fill="#d7e8f2"/>
  </g>
</svg>
