<svg xmlns="http://www.w3.org/2000/svg" width="84.597" height="121"><path data-name="Path 44" d="M43.146 8.972V37.01a.65.65 0 01-1.3 0V8.972a4.511 4.511 0 111.3 0zm33.114 11.21c-7.183 3.761-12.948 10.166-16.985 17.115a.647.647 0 01-1.12-.649c4.172-7.188 10.147-13.785 17.587-17.655a4.516 4.516 0 111.161 1.991 4.735 4.735 0 01-.643-.802zM65.553 5.747a4.514 4.514 0 01-5.3 7.184c-5.6 7.268-9.269 14.668-9.486 24.046a.645.645 0 01-1.29-.025c.222-9.64 3.967-17.307 9.728-24.785a4.513 4.513 0 116.346-6.419zm-.919.918a3.216 3.216 0 100 4.547 3.23 3.23 0 00-.001-4.547zm17.73 8.856a3.215 3.215 0 100 4.547 3.229 3.229 0 00.001-4.547zM8.856 18.995c7.439 3.87 13.411 10.467 17.587 17.655a.649.649 0 01-1.123.649c-4.034-6.949-9.8-13.354-16.987-17.115a4.395 4.395 0 01-.638.8 4.507 4.507 0 111.161-1.991zm13.931 27.286a.86.86 0 11-.864.86.858.858 0 01.864-.861zm-3.373 0a.86.86 0 11-.858.86.861.861 0 01.858-.861zm-3.367 0a.86.86 0 11-.865.86.858.858 0 01.865-.861zm-.509 4.969a.389.389 0 010-.778h53.531a.389.389 0 010 .778zm-4.5-9.426h62.531a1.944 1.944 0 011.94 1.939v37.386a1.944 1.944 0 01-1.94 1.939H11.033a1.94 1.94 0 01-1.936-1.939V43.763a1.94 1.94 0 011.936-1.94zm62.531 1.3H11.033a.642.642 0 00-.638.641v37.386a.642.642 0 00.638.641h62.531a.646.646 0 00.643-.641V43.765a.646.646 0 00-.638-.644zm-53.6-36.456a3.214 3.214 0 104.544 0 3.223 3.223 0 00-4.549-.003zm-.918-.918a4.513 4.513 0 116.345 6.419c5.757 7.478 9.5 15.146 9.728 24.785a.647.647 0 01-1.293.025c-.22-9.378-3.886-16.778-9.483-24.046a4.513 4.513 0 01-5.3-7.184zM2.239 15.524a3.214 3.214 0 104.543 0 3.222 3.222 0 00-4.549-.003zm31.575 73.563a.647.647 0 011.294 0l-.02 18.281a.647.647 0 01-1.294 0zm-7.872-.165a.65.65 0 011.3 0v11.011a.65.65 0 01-1.3 0zM44.777 2.235a3.216 3.216 0 100 4.547 3.232 3.232 0 00-.005-4.549zm4.682 86.728a.647.647 0 011.294 0l.021 18.4a.646.646 0 01-1.291 0zm7.869.069a.65.65 0 011.3 0v10.901a.65.65 0 01-1.3 0zm-15.476-.021a.65.65 0 011.3 0v31.351a.65.65 0 01-1.3 0z" fill="#d7e8f2"/></svg>