<svg xmlns="http://www.w3.org/2000/svg" width="120" height="65.22"><path data-name="Path 37" d="M60.309 63.888h56.825a1.542 1.542 0 001.535-1.535V2.866a1.542 1.542 0 00-1.535-1.535H60.309a1.542 1.542 0 00-1.535 1.535v59.487a1.542 1.542 0 001.535 1.535zm-5.822-21.953a.4.4 0 01-.231.761 10.374 10.374 0 01-6.968-6.944.4.4 0 01.767-.216 9.58 9.58 0 006.433 6.399zm-28.01 10.406a.4.4 0 01-.275.749c-6.212-2.3-12.641-6.122-16.485-11.647a.4.4 0 01.655-.456c3.748 5.388 10.052 9.114 16.106 11.354zm43.8-22.7a.663.663 0 111.326 0v6.478a.663.663 0 01-1.326 0zm-3.208-4.551a.663.663 0 111.326 0v15.578a.663.663 0 11-1.326 0zm-3.208-3.427a.663.663 0 111.326 0v22.432a.663.663 0 11-1.326 0zm-3.208-1.5a.663.663 0 111.326 0v25.425a.663.663 0 01-1.326 0zm48.061 22.373a.663.663 0 11-1.326 0v-6.8a.663.663 0 011.326 0zm-3.094 2.942a.663.663 0 11-1.326 0v-4.54a.663.663 0 111.326 0zm-3.094 2.574a.663.663 0 11-1.326 0V44.52a.663.663 0 111.326 0zm-3.094 2.239a.663.663 0 11-1.326 0v-2.929a.663.663 0 111.326 0zm-3.094 1.962a.663.663 0 11-1.326 0v-2.485a.663.663 0 111.326 0zm-3.094 1.718a.663.663 0 11-1.326 0v-2.136a.663.663 0 111.326 0zm-3.094 1.55a.663.663 0 01-1.326 0v-1.788a.663.663 0 011.326 0zm-3.014 1.381a.663.663 0 01-1.326 0v-1.54a.663.663 0 111.326 0zm-2.828 1.178a.663.663 0 11-1.326 0v-1.245a.663.663 0 111.326 0zm-2.828.858a.663.663 0 11-1.326 0v-1.024a.663.663 0 111.326 0zm-2.854.915a.663.663 0 11-1.326 0v-.883a.663.663 0 011.326 0zm-5.708 1.615a.663.663 0 11-1.326 0v-.5a.663.663 0 111.326 0zm2.828-.694a.663.663 0 11-1.326 0v-.891a.663.663 0 111.326 0zm37.828-29.069a.663.663 0 011.326 0v3.271a.663.663 0 11-1.326 0zm-3.094-4.408a.663.663 0 111.326 0v12.045a.663.663 0 11-1.326 0zm-3.094-3.961a.663.663 0 111.326 0v6.8a.663.663 0 11-1.326 0zm-3.094-2.942a.663.663 0 111.326 0v4.54a.663.663 0 11-1.326 0zm-3.094-2.574a.663.663 0 111.326 0v3.532a.663.663 0 11-1.326 0zm-3.094-2.239a.663.663 0 111.326 0v2.93a.663.663 0 01-1.326 0zm-3.094-1.962a.663.663 0 111.326 0v2.485a.663.663 0 11-1.326 0zm-3.094-1.718a.663.663 0 111.326 0v2.136a.663.663 0 11-1.326 0zm-3.094-1.549a.663.663 0 111.326 0v1.787a.663.663 0 11-1.326 0zm-3.041-1.381a.663.663 0 111.326 0v1.539a.663.663 0 11-1.326 0zm-2.828-1.179a.663.663 0 111.326 0v1.245a.663.663 0 11-1.326 0zm-2.828-1.018a.663.663 0 111.326 0v1.024a.663.663 0 11-1.326 0zm-2.854-.862a.663.663 0 011.326 0v.883a.663.663 0 01-1.326 0zm-5.682-1.509a.663.663 0 011.326 0v.5a.663.663 0 11-1.326 0zm2.881.694a.663.663 0 111.326 0v.891a.663.663 0 11-1.326 0zm8.479 32.137a.663.663 0 011.326 0v8.229a.663.663 0 11-1.326 0zM81.434 49.61a.663.663 0 11-1.326 0v-4.819a.663.663 0 111.326 0zm-2.841 3.735a.663.663 0 11-1.326 0v-3.7a.663.663 0 111.326 0zm-2.815 2.395a.663.663 0 11-1.326 0v-2.708a.663.663 0 111.326 0zm-2.868 2.381a.663.663 0 01-1.326 0v-2.487a.663.663 0 111.326 0zm-2.841 1.415a.663.663 0 11-1.326 0v-2.263a.663.663 0 111.326 0zm-2.841 1.3a.663.663 0 11-1.326 0v-1.781a.663.663 0 111.326 0zm-2.841.343a.663.663 0 11-1.326 0v-.752a.663.663 0 111.326 0zm-2.841.435a.663.663 0 11-1.326 0v-.43a.663.663 0 111.326 0zm24.245-35.072a.663.663 0 111.326 0v14.091a.663.663 0 11-1.326 0zm-2.841-4.948a.663.663 0 111.326 0v9.511a.663.663 0 11-1.326 0zm-2.841-5.281a.663.663 0 011.326 0v4.954a.663.663 0 11-1.326 0zm-2.841-3.735a.663.663 0 111.326 0v3.7a.663.663 0 11-1.326 0zm-2.841-2.395a.663.663 0 111.326 0v2.709a.663.663 0 01-1.326 0zm-2.841-2.38a.663.663 0 111.326 0v2.486a.663.663 0 11-1.326 0zm-2.841-1.416a.663.663 0 111.326 0v2.264a.663.663 0 01-1.326 0zm-2.841-1.3a.663.663 0 111.326 0v1.782a.663.663 0 01-1.326 0zm-2.841-.343a.663.663 0 011.326 0v.752a.663.663 0 11-1.326 0zm-2.841-.435a.663.663 0 011.326 0v.43a.663.663 0 11-1.326 0zm-2.747 58.488c-.309-.01-.8 0-1.092-.01a102.3 102.3 0 01-15.257-1.284C26.021 59.04 3.887 50.393-.001 33.664l.005-.319c1.581-5.9 9.322-15.471 22.3-22.387a74.9 74.9 0 0135.171-8.536 2.875 2.875 0 012.832-2.424h56.825a2.873 2.873 0 012.866 2.866v59.487a2.873 2.873 0 01-2.866 2.866H60.307a2.875 2.875 0 01-2.831-2.421zM57.44 4.342h-.036a28.563 28.563 0 00-.992 57.113c.341 0 .684.007 1.028.007v-14.2a15.265 15.265 0 01-10.136-4.268 13.968 13.968 0 01-.117-20.271 14.843 14.843 0 0110.253-4.171V4.342zm0 41.587V19.883a13.519 13.519 0 00-9.327 3.79 12.644 12.644 0 00.112 18.363 13.932 13.932 0 009.218 3.894zm-10.517 15a29.847 29.847 0 011.983-56.7 71.886 71.886 0 00-25.979 7.895c-12.514 6.669-19.992 15.756-21.6 21.4 3.883 16.01 25.514 24.3 40.007 26.662q2.7.441 5.585.736z" fill="#d7e8f2"/></svg>