<svg xmlns="http://www.w3.org/2000/svg" width="84.597" height="121" viewBox="0 0 84.597 121">
  <g id="risk-awareness" transform="translate(-631.125 -1688.067)">
    <path id="Path_44" data-name="Path 44" d="M8752.213,1697.039v28.038a.649.649,0,0,1-1.3,0v-28.038a4.511,4.511,0,1,1,1.3,0Zm33.114,11.21c-7.183,3.761-12.948,10.166-16.985,17.115a.647.647,0,0,1-1.12-.649c4.172-7.188,10.147-13.785,17.587-17.655a4.516,4.516,0,1,1,1.161,1.991A4.735,4.735,0,0,1,8785.327,1708.249Zm-10.707-14.435a4.514,4.514,0,0,1-5.3,7.184c-5.6,7.268-9.269,14.668-9.486,24.046a.645.645,0,0,1-1.29-.025c.222-9.64,3.967-17.307,9.728-24.785a4.513,4.513,0,1,1,6.346-6.419Zm-.919.918a3.216,3.216,0,1,0,0,4.547A3.23,3.23,0,0,0,8773.7,1694.732Zm17.73,8.856a3.215,3.215,0,1,0,0,4.547A3.229,3.229,0,0,0,8791.432,1703.588Zm-73.508,3.474c7.439,3.87,13.411,10.467,17.587,17.655a.649.649,0,0,1-1.123.649c-4.034-6.949-9.8-13.354-16.987-17.115a4.395,4.395,0,0,1-.638.8,4.507,4.507,0,1,1,1.161-1.991Zm13.931,27.286a.86.86,0,1,1-.864.86A.858.858,0,0,1,8731.854,1734.347Zm-3.373,0a.86.86,0,1,1-.858.86A.861.861,0,0,1,8728.481,1734.347Zm-3.367,0a.86.86,0,1,1-.865.86A.858.858,0,0,1,8725.114,1734.347Zm-.509,4.969a.389.389,0,0,1,0-.778h53.531a.389.389,0,0,1,0,.778Zm-4.5-9.426h62.531a1.944,1.944,0,0,1,1.94,1.939v37.386a1.944,1.944,0,0,1-1.94,1.939H8720.1a1.94,1.94,0,0,1-1.936-1.939v-37.386A1.94,1.94,0,0,1,8720.1,1729.89Zm62.531,1.3H8720.1a.642.642,0,0,0-.638.641v37.386a.642.642,0,0,0,.638.641h62.531a.646.646,0,0,0,.643-.641v-37.386A.646.646,0,0,0,8782.636,1731.188Zm-53.6-36.456a3.214,3.214,0,1,0,4.544,0A3.223,3.223,0,0,0,8729.031,1694.732Zm-.918-.918a4.513,4.513,0,1,1,6.345,6.419c5.757,7.478,9.5,15.146,9.728,24.785a.647.647,0,0,1-1.293.025c-.22-9.378-3.886-16.778-9.483-24.046a4.513,4.513,0,0,1-5.3-7.184Zm-16.812,9.774a3.214,3.214,0,1,0,4.543,0A3.222,3.222,0,0,0,8711.3,1703.588Zm31.575,73.563a.647.647,0,0,1,1.294,0l-.02,18.281a.647.647,0,0,1-1.294,0Zm-7.872-.165a.648.648,0,0,1,1.3,0V1788a.648.648,0,0,1-1.3,0Zm18.835-86.687a3.216,3.216,0,1,0,0,4.547A3.232,3.232,0,0,0,8753.839,1690.3Zm4.682,86.728a.647.647,0,0,1,1.294,0l.021,18.4a.646.646,0,0,1-1.291,0Zm7.869.069a.649.649,0,0,1,1.3,0V1788a.649.649,0,0,1-1.3,0Zm-15.476-.021a.649.649,0,0,1,1.3,0v31.351a.649.649,0,0,1-1.3,0Z" transform="translate(-8077.942 0)" fill="#d7e8f2"/>
  </g>
</svg>
