<svg xmlns="http://www.w3.org/2000/svg" width="209.934" height="117.998"><path data-name="Path 2002" d="M191.628 27.161a4.151 4.151 0 100 5.87 4.167 4.167 0 000-5.87zM83.478 56.499a4.665 4.665 0 011.181-1.065.671.671 0 01.7 1.145 3.365 3.365 0 00-.979.958 6.6 6.6 0 013.6 5.349c4.62 5.989 11.4 4.213 10.992 1.114-.16-1.206-2.567-3.679-3.179-4.426a64.037 64.037 0 01-5.046-6.831c-2.143-.713-8.248-2.764-10.154-2.764-1.654 0-2.969.042-4.189.1 2.759 1.729 5.127 3.3 7.077 6.415zm-19.8 7.335a.671.671 0 011.193.615 2.4 2.4 0 00.7 2.882.671.671 0 01-.778 1.093 3.745 3.745 0 01-1.111-4.584zm12.861-4.315a.672.672 0 01.158 1.334c-2.1.254-1.924 4.135.056 5a4.944 4.944 0 004.1-.465.67.67 0 01.62 1.187 6.207 6.207 0 01-5.254.507c-2.968-1.29-3.517-7.091.324-7.557zM41.325 87.227c1.193 3.608 7.549 1.626 9.614-.58-1.26-1.85-.93-4.131-.033-6.053-3.228 2.16-6.238 4.652-9.577 6.638zm11.254.94c-3.171 3.4-10.858 5.157-13.227.147-13.529 6.845-24.445-.391-37.827-.391a1.12 1.12 0 010-2.24c17.355 0 23.433 8.044 38.486-.439 5.89-3.319 10.632-7.974 17.07-10.5 7.729-3.037 18.281-3.024 24.92-7 2.328-1.394 4.629-3.539 3.42-6.088-1.322-2.785-5.511-3.614-8.154-3.614a51.2 51.2 0 00-15.837 2.626 70.886 70.886 0 01-9.365 2.226c-4.086.613-11.567-1.314-11.9-6.324a1.119 1.119 0 012.232-.148c.226 3.392 6.312 4.532 8.972 4.3-.3-3.321-1.1-7-4.5-8.489a.67.67 0 01.536-1.229c3.912 1.707 4.952 5.662 5.295 9.521q1.13-.2 2.252-.443c3.044-1.022 2.153-5.43 6.332-7.866a.671.671 0 01.672 1.161c-2.858 1.666-2.632 3.632-4.04 5.97.982-.267 1.941-.546 2.9-.825A53.142 53.142 0 0177.274 55.8a16.594 16.594 0 013.134.29 22.478 22.478 0 00-5.581-4.354c-.711-.444-1.448-.9-2.2-1.4-.563.04-1.177.081-1.893.123-2.043.124-7.561-.287-8.671-2.274a1.117 1.117 0 011.952-1.085c.461.824 5.592 1.188 6.588 1.128 2.71-.163 5.4-.411 8.118-.469.816-.052 1.076-1.4 1.082-2.031a.67.67 0 011.339.01 4.5 4.5 0 01-.459 2c2.4.1 7.407 1.79 9.919 2.605.857.278 1.968.82 2.865.426a2.058 2.058 0 001.02-1.008.67.67 0 011.218.557 3.463 3.463 0 01-1.157 1.377c2.87.913 8.4 3.115 10.944 2.873a4 4 0 001.827-7.5c-2.21-1.39-5.644-2.372-8.192-3.233-8.4-2.842-16.822-6.14-25.664-7.027-11.417-1.146-27.354-2.207-37.1 3.924-10.453 6.573-22.83 13.762-35.057 16.009a1.118 1.118 0 01-.4-2.2c11.875-2.183 24.11-9.314 34.269-15.7 10.286-6.468 26.5-5.462 38.512-4.256 9.04.907 17.583 4.228 26.163 7.131 2.747.929 6.258 1.948 8.664 3.46a6.233 6.233 0 01-2.807 11.614c-3.153.3-8.217-1.832-11.478-2.856.953 1.31 2.08 2.733 3.1 3.988 1.141 1.4 3.576 3.814 3.894 5.714.818 4.876-7.556 8.426-13.874 1.934a8.241 8.241 0 01-1.629 2.181c-1.209 4.88-4.441 12.038-9 14.714-2.606 1.529-6.359 1.36-8.431-1.007-3.205 3.162-9.783 9.348-14.88 7.131a7.006 7.006 0 01-.827-.424zm4.334-10.978a10.458 10.458 0 00-3.663 3.478c-1.334 2.17-1.6 4.726 1.048 5.876 4.039 1.756 10.435-4.708 13.055-7.3a9.952 9.952 0 011.123-5.183c-3.663.719-8.261 1.617-11.562 3.132zm14.475-3.7c-.718.991-2.007 3.638-1.847 5.392.233 2.549 4.078 2.816 6.046 1.66 3.352-1.967 5.908-7.094 7.144-10.615-3.492 1.956-7.447 2.809-11.339 3.568zM55.342 45.316a.671.671 0 011.162-.672c1.659 2.874.529 5.864-1.035 8.5a.671.671 0 01-1.156-.683c1.288-2.159 2.413-4.751 1.033-7.14zm82.216 61.439a3.927 3.927 0 115.552 0 3.942 3.942 0 01-5.548.006zm1.584-1.584a1.686 1.686 0 100-2.385 1.692 1.692 0 00.005 2.39zm62.221-2.392a5.023 5.023 0 117.1 0 5.043 5.043 0 01-7.095.005zm1.584-1.584a2.782 2.782 0 100-3.934 2.793 2.793 0 00.005 3.939zm-48.594 15.654a3.927 3.927 0 115.553 0 3.942 3.942 0 01-5.548.004zm1.584-1.584a1.686 1.686 0 100-2.384 1.693 1.693 0 00.005 2.388zm28.394-104.032a3.927 3.927 0 11-5.553 0 3.941 3.941 0 015.558.005zm-1.584 1.584a1.686 1.686 0 100 2.384 1.691 1.691 0 00.005-2.379zm-61.415 2.347a5.023 5.023 0 11-7.1 0 5.042 5.042 0 017.105.005zm-1.584 1.584a2.782 2.782 0 100 3.934 2.793 2.793 0 000-3.934zm47.788-15.61a3.927 3.927 0 11-5.554 0 3.943 3.943 0 015.559.006zm-1.584 1.584a1.686 1.686 0 100 2.384 1.693 1.693 0 00.004-2.378zm8.716 42.739l9.344-11.005a6.407 6.407 0 01-.952-7.38l-16.453-6.681a6.405 6.405 0 01-8.219 4.065l-3.361 6.416a5.392 5.392 0 012.361 2.716l9.982-1.819a4.123 4.123 0 114.632 3.93l-.2 8.76a6.368 6.368 0 012.861 1zm10.355-10.124l-9.313 10.968a6.36 6.36 0 011.527 2.444l5.032-1.789a4.833 4.833 0 11.491 1.25l-5.222 1.856a6.394 6.394 0 01-11.941 3.854l-6.543 2.326a6.392 6.392 0 01-7.014 7.783l-1.943 7.625a6.394 6.394 0 011.629 11.086l7.17 9.187a6.443 6.443 0 013.169-.021l2.424-8.3a4.848 4.848 0 115.229-8.034l6.359-4.882a6.393 6.393 0 1111.027-6.463l7.054-4.4a6.4 6.4 0 014.2-7.626l-6.729-16.419a6.427 6.427 0 01-6.6-.445zm-31.241-4.969l3.4-6.485a6.407 6.407 0 01-2.765-3.557l-16.4 6.8a6.414 6.414 0 01.573 4.394l8.882 1.892a5.376 5.376 0 016.316-3.045zm-6.692 4.338l-8.942-1.905a6.4 6.4 0 01-8.612 3.041l-5.95 16.734a6.393 6.393 0 01-2.155 12.045l6.811 16.927a6.392 6.392 0 019.4 8.489l16.762 6.229a6.411 6.411 0 013.188-3.835l-7.018-8.991a6.393 6.393 0 11-1.776-12.117l1.935-7.6a6.4 6.4 0 01-3.332-2.662l-9.493 4.6a4.552 4.552 0 11-.643-1.179l9.55-4.63a6.437 6.437 0 01.141-4.7l-6.18-3.4a6.387 6.387 0 11.661-1.168l6.176 3.4a6.4 6.4 0 0111.007.988l6.457-2.3a6.4 6.4 0 011.069-5.778l-9.76-7.763q-.1.1-.2.206a5.377 5.377 0 01-9.1-4.642zm23.376 9.769l.2-8.824a4.129 4.129 0 01-3.025-2.565l-9.92 1.807a5.383 5.383 0 01-.568 3.145l9.927 7.9a6.365 6.365 0 013.388-1.464zm24.167 16.638l-7 4.369a6.4 6.4 0 01-3.661 7.725l2.671 7.179a6.432 6.432 0 015.033.4l6.541-16.492a6.413 6.413 0 01-3.58-3.181zm-17.729 10.634l-6.317 4.849a4.857 4.857 0 01.695 3.329l11.908 3.259a6.435 6.435 0 012.229-2.235l-2.737-7.358a6.391 6.391 0 01-5.7-1.763c-.026-.027-.053-.053-.078-.081zm5.722 12.671l-11.729-3.21a4.853 4.853 0 01-5.124 2.776l-2.448 8.381a6.406 6.406 0 013.309 3.875l16.405-6.809a6.434 6.434 0 01-.414-5.013zm-47.363-18.821a2.309 2.309 0 100 3.266 2.318 2.318 0 00.005-3.266zm33.069 11.748a2.607 2.607 0 100 3.687 2.617 2.617 0 00.003-3.687zm4.49-47.066a1.883 1.883 0 100 2.663 1.89 1.89 0 00.003-2.663zm16 13.708a2.607 2.607 0 100 3.687 2.618 2.618 0 00.008-3.688zM150.795 74.71a4.151 4.151 0 100 5.871 4.167 4.167 0 00.008-5.872zm-12.3-29.6a4.151 4.151 0 100 5.871 4.168 4.168 0 00.011-5.874zm11.676-11.767c-2.88 2.881 1.485 7.359 4.422 4.422 2.916-2.904-1.507-7.329-4.411-4.424zm5.581 21.41a4.151 4.151 0 100 5.871 4.168 4.168 0 00.011-5.874zm28.677 9.622a4.151 4.151 0 100 5.87 4.168 4.168 0 00.011-5.872zm-10.312-16.483a4.151 4.151 0 100 5.871 4.168 4.168 0 00.011-5.874zm-38.839 35.616a4.151 4.151 0 100 5.87 4.166 4.166 0 00.011-5.873zm.6 8.261a6.394 6.394 0 01-9.245-8.2l-7.7-19.14a6.393 6.393 0 012.5-12.5l6.216-17.484a6.392 6.392 0 018.915-9.139l17.57-7.285c.514-7.983 12.355-7.8 12.762.082l17.62 7.155a6.392 6.392 0 018.931 9.107l7.183 17.524a6.391 6.391 0 01-.171 12.776l-6.968 17.568a6.392 6.392 0 01-9.016 9.022l-17.586 7.3a6.392 6.392 0 01-12.753 0l-18.257-6.784zm49.868-8.261a4.151 4.151 0 105.871 0 4.168 4.168 0 00-5.859-.003zm-56.328-56.347a4.151 4.151 0 105.87 0 4.166 4.166 0 00-5.87 0zm70.943 35.255a4.151 4.151 0 000-8.3c-5.527.004-5.401 8.305.001 8.305zm-82.612-7.086a4.151 4.151 0 105.871 0 4.168 4.168 0 00-5.87.005zm38.623 42.773a4.151 4.151 0 108.3 0c.002-5.417-8.304-5.498-8.304.006zm0-79.677c0 5.422 8.3 5.5 8.3 0 .002-5.415-8.304-5.497-8.304.006z" fill="#333"/></svg>