<svg xmlns="http://www.w3.org/2000/svg" width="302.6" height="170.083" viewBox="0 0 302.6 170.083">
  <g id="strategize-page-icon" transform="translate(-6313.332 -5980.439)">
    <path id="Path_2002" data-name="Path 2002" d="M6589.546,6019.6a5.983,5.983,0,1,0,0,8.461A6.006,6.006,0,0,0,6589.546,6019.6Zm-155.888,42.289a6.725,6.725,0,0,1,1.7-1.535.967.967,0,0,1,1.007,1.65,4.853,4.853,0,0,0-1.411,1.38c2.813,1.652,5.106,4.325,5.188,7.71,6.659,8.632,16.437,6.073,15.845,1.606-.23-1.737-3.7-5.3-4.582-6.379a92.228,92.228,0,0,1-7.273-9.846c-3.089-1.028-11.889-3.983-14.636-3.983-2.385,0-4.279.06-6.039.151,3.978,2.493,7.391,4.752,10.2,9.247Zm-28.535,10.574a.967.967,0,0,1,1.72.886,3.457,3.457,0,0,0,1,4.153.967.967,0,0,1-1.12,1.575A5.4,5.4,0,0,1,6405.123,6072.458Zm18.538-6.22a.968.968,0,0,1,.228,1.923c-3.024.366-2.772,5.96.081,7.2,1.881.817,4.167.24,5.907-.671a.965.965,0,0,1,.894,1.711c-2.283,1.194-5.126,1.795-7.572.731C6418.917,6075.272,6418.124,6066.91,6423.661,6066.238Zm-50.758,39.938c1.719,5.2,10.881,2.344,13.858-.836-1.817-2.667-1.341-5.955-.048-8.725C6382.056,6099.721,6377.721,6103.313,6372.9,6106.176Zm16.222,1.354c-4.572,4.9-15.65,7.434-19.065.213-19.5,9.866-35.235-.562-54.524-.562a1.615,1.615,0,0,1,0-3.229c25.017,0,33.776,11.6,55.475-.633,8.489-4.784,15.324-11.494,24.605-15.14,11.141-4.377,26.351-4.359,35.92-10.084,3.355-2.009,6.673-5.1,4.929-8.776-1.9-4.014-7.943-5.209-11.753-5.209-9.82,0-16.308,1.888-22.827,3.785a102.313,102.313,0,0,1-13.5,3.208c-5.889.883-16.673-1.9-17.157-9.116a1.612,1.612,0,0,1,3.217-.214c.326,4.889,9.1,6.533,12.932,6.2-.425-4.787-1.583-10.1-6.491-12.236a.966.966,0,0,1,.772-1.771c5.639,2.46,7.138,8.162,7.632,13.724q1.63-.281,3.246-.638c4.388-1.473,3.1-7.826,9.127-11.338a.967.967,0,0,1,.969,1.673c-4.119,2.4-3.795,5.234-5.823,8.605,1.415-.385,2.8-.787,4.18-1.189,6.759-1.967,13.484-3.923,23.724-3.923a23.83,23.83,0,0,1,4.518.418c-2.28-2.672-4.985-4.365-8.044-6.277-1.024-.64-2.087-1.3-3.165-2.02-.812.057-1.7.117-2.729.178-2.945.178-10.9-.414-12.5-3.279a1.61,1.61,0,0,1,2.813-1.564c.664,1.188,8.061,1.713,9.5,1.626,3.906-.235,7.78-.592,11.7-.677,1.178-.075,1.552-2.023,1.561-2.927a.965.965,0,0,1,1.93.015,6.5,6.5,0,0,1-.661,2.887c3.464.138,10.677,2.579,14.3,3.755,1.235.4,2.838,1.182,4.129.614a2.97,2.97,0,0,0,1.472-1.454.965.965,0,0,1,1.756.8,5,5,0,0,1-1.668,1.984c4.137,1.316,12.113,4.489,15.775,4.142,6.234-.592,7.441-7.786,2.633-10.81-3.187-2-8.135-3.418-11.808-4.66-12.1-4.1-24.248-8.849-36.992-10.128-16.457-1.652-39.428-3.182-53.479,5.656-15.067,9.474-32.907,19.836-50.532,23.076a1.61,1.61,0,0,1-.58-3.167c17.117-3.146,34.752-13.425,49.4-22.634,14.827-9.324,38.191-7.873,55.512-6.135,13.03,1.307,25.343,6.094,37.711,10.28,3.959,1.339,9.021,2.807,12.488,4.987a8.984,8.984,0,0,1-4.045,16.74c-4.546.432-11.845-2.64-16.544-4.117,1.373,1.887,3,3.939,4.475,5.749,1.644,2.017,5.154,5.5,5.612,8.236,1.18,7.029-10.892,12.146-20,2.787a11.878,11.878,0,0,1-2.348,3.144c-1.742,7.034-6.4,17.352-12.974,21.208-3.758,2.205-9.166,1.96-12.153-1.451-4.62,4.557-14.1,13.474-21.448,10.278a10.07,10.07,0,0,1-1.191-.611Zm6.247-15.822a15.082,15.082,0,0,0-5.279,5.012c-1.923,3.128-2.3,6.812,1.511,8.47,5.821,2.531,15.04-6.785,18.816-10.526a14.34,14.34,0,0,1,1.619-7.471c-5.279,1.036-11.908,2.331-16.667,4.516Zm20.864-5.334c-1.035,1.428-2.894,5.244-2.662,7.772.336,3.674,5.877,4.059,8.716,2.393,4.831-2.835,8.516-10.226,10.3-15.3C6427.548,6084.05,6421.847,6085.279,6416.236,6086.374Zm-23.129-40.609a.967.967,0,0,1,1.674-.969c2.393,4.143.763,8.453-1.491,12.245a.968.968,0,0,1-1.666-.984C6393.475,6052.944,6395.1,6049.208,6393.107,6045.765Zm118.507,88.559a5.66,5.66,0,1,1,8,0A5.683,5.683,0,0,1,6511.614,6134.324Zm2.284-2.284a2.43,2.43,0,1,0,0-3.437A2.44,2.44,0,0,0,6513.9,6132.04Zm89.686-3.448a7.24,7.24,0,1,1,10.239,0A7.268,7.268,0,0,1,6603.584,6128.592Zm2.284-2.284a4.009,4.009,0,1,0,0-5.67A4.026,4.026,0,0,0,6605.868,6126.309Zm-70.043,22.564a5.66,5.66,0,1,1,8,0A5.68,5.68,0,0,1,6535.825,6148.873Zm2.283-2.283a2.43,2.43,0,1,0,0-3.437A2.439,2.439,0,0,0,6538.108,6146.589Zm40.928-149.952a5.66,5.66,0,1,1-8,0A5.681,5.681,0,0,1,6579.036,5996.637Zm-2.284,2.284a2.43,2.43,0,1,0,0,3.436A2.438,2.438,0,0,0,6576.752,5998.921Zm-88.523,3.383a7.24,7.24,0,1,1-10.239,0A7.268,7.268,0,0,1,6488.229,6002.3Zm-2.284,2.284a4.01,4.01,0,1,0,0,5.67,4.024,4.024,0,0,0,0-5.67Zm68.881-22.5a5.66,5.66,0,1,1-8,0A5.683,5.683,0,0,1,6554.825,5982.087Zm-2.283,2.284a2.431,2.431,0,1,0,0,3.438A2.441,2.441,0,0,0,6552.542,5984.371Zm12.56,61.594,13.469-15.863a9.234,9.234,0,0,1-1.372-10.638l-23.715-9.629a9.233,9.233,0,0,1-11.847,5.86l-4.845,9.248a7.772,7.772,0,0,1,3.4,3.915l14.388-2.622a5.944,5.944,0,1,1,6.677,5.664l-.283,12.627a9.189,9.189,0,0,1,4.124,1.438Zm14.927-14.592-13.424,15.811h0a9.173,9.173,0,0,1,2.2,3.522l7.253-2.578a6.958,6.958,0,1,1,.707,1.8l-7.526,2.676a9.216,9.216,0,0,1-17.212,5.555l-9.432,3.353a9.214,9.214,0,0,1-10.11,11.218l-2.8,10.99a9.217,9.217,0,0,1,2.349,15.98l10.335,13.241a9.287,9.287,0,0,1,4.568-.03l3.494-11.963a6.988,6.988,0,1,1,7.537-11.58l9.166-7.037a9.215,9.215,0,1,1,15.895-9.315l10.168-6.343a9.226,9.226,0,0,1,6.047-10.992l-9.7-23.667a9.261,9.261,0,0,1-9.516-.642ZM6535,6024.21l4.9-9.348a9.232,9.232,0,0,1-3.984-5.127l-23.646,9.8a9.243,9.243,0,0,1,.827,6.334l12.8,2.727a7.747,7.747,0,0,1,9.1-4.39Zm-9.646,6.253-12.891-2.746a9.225,9.225,0,0,1-12.414,4.383l-8.576,24.121a9.214,9.214,0,0,1-3.105,17.361l9.816,24.4a9.214,9.214,0,0,1,13.546,12.236l24.16,8.978a9.239,9.239,0,0,1,4.6-5.528l-10.115-12.959a9.215,9.215,0,1,1-2.561-17.466l2.789-10.947a9.233,9.233,0,0,1-4.8-3.837l-13.684,6.633a6.56,6.56,0,1,1-.927-1.7l13.767-6.674a9.279,9.279,0,0,1,.2-6.77l-8.908-4.905a9.206,9.206,0,1,1,.953-1.684l8.9,4.9a9.22,9.22,0,0,1,15.866,1.424l9.306-3.309a9.232,9.232,0,0,1,1.542-8.328l-14.068-11.189c-.092.1-.186.2-.283.3a7.75,7.75,0,0,1-13.111-6.691Zm33.694,14.081.285-12.718a5.951,5.951,0,0,1-4.36-3.7l-14.3,2.6a7.757,7.757,0,0,1-.818,4.533l14.309,11.382A9.172,9.172,0,0,1,6559.046,6044.544Zm34.834,23.982-10.1,6.3a9.226,9.226,0,0,1-5.276,11.135l3.85,10.348a9.27,9.27,0,0,1,7.255.575l9.428-23.772a9.241,9.241,0,0,1-5.16-4.584Zm-25.555,15.329-9.105,6.99a7,7,0,0,1,1,4.8l17.164,4.7a9.286,9.286,0,0,1,3.213-3.222l-3.945-10.606a9.21,9.21,0,0,1-8.215-2.541c-.038-.039-.076-.077-.113-.116Zm8.249,18.264-16.906-4.627a6.994,6.994,0,0,1-7.385,4l-3.528,12.081a9.233,9.233,0,0,1,4.769,5.585l23.647-9.814a9.269,9.269,0,0,1-.6-7.225Zm-68.27-27.128a3.328,3.328,0,1,0,0,4.707A3.341,3.341,0,0,0,6508.3,6074.991Zm47.666,16.934a3.757,3.757,0,1,0,0,5.314A3.771,3.771,0,0,0,6555.971,6091.924Zm6.473-67.842a2.714,2.714,0,1,0,0,3.838A2.725,2.725,0,0,0,6562.443,6024.083Zm23.068,19.758a3.758,3.758,0,1,0,0,5.314A3.773,3.773,0,0,0,6585.512,6043.841Zm-54.812,44.284a5.983,5.983,0,1,0,0,8.462A6.007,6.007,0,0,0,6530.7,6088.125Zm-17.725-42.667a5.983,5.983,0,1,0,0,8.462A6.007,6.007,0,0,0,6512.976,6045.458ZM6529.8,6028.5c-4.152,4.152,2.141,10.608,6.374,6.374C6540.366,6030.684,6533.992,6024.31,6529.8,6028.5Zm8.045,30.86a5.983,5.983,0,1,0,0,8.461A6.007,6.007,0,0,0,6537.85,6059.357Zm41.335,13.869a5.983,5.983,0,1,0,0,8.461A6.007,6.007,0,0,0,6579.185,6073.226Zm-14.863-23.759a5.983,5.983,0,1,0,0,8.462A6.008,6.008,0,0,0,6564.321,6049.467Zm-55.983,51.337a5.983,5.983,0,1,0,0,8.461A6,6,0,0,0,6508.338,6100.8Zm.867,11.907a9.216,9.216,0,0,1-13.326-11.825l-11.1-27.588a9.214,9.214,0,0,1,3.6-18.015l8.96-25.2a9.213,9.213,0,0,1,12.849-13.173l25.325-10.5c.741-11.507,17.81-11.239,18.4.118l25.4,10.314a9.213,9.213,0,0,1,12.873,13.127l10.354,25.26a9.213,9.213,0,0,1-.246,18.416l-10.044,25.323a9.213,9.213,0,0,1-13,13l-25.35,10.523a9.213,9.213,0,0,1-18.382,0l-26.315-9.779Zm71.88-11.907a5.983,5.983,0,1,0,8.461,0A6.006,6.006,0,0,0,6581.085,6100.8Zm-81.208-81.208a5.983,5.983,0,1,0,8.461,0A6,6,0,0,0,6499.877,6019.6Zm102.258,50.817a5.983,5.983,0,0,0,0-11.965C6594.167,6058.448,6594.348,6070.413,6602.135,6070.413ZM6483.058,6060.2a5.983,5.983,0,1,0,8.462,0A6.007,6.007,0,0,0,6483.058,6060.2Zm55.671,61.654a5.983,5.983,0,1,0,11.966,0C6550.694,6114.038,6538.729,6113.92,6538.729,6121.854Zm0-114.846c0,7.815,11.966,7.934,11.966,0C6550.694,5999.193,6538.729,5999.074,6538.729,6007.007Z" transform="translate(0 0)" fill="#d7e8f2"/>
  </g>
</svg>
