<svg xmlns="http://www.w3.org/2000/svg" width="302.6" height="170.083"><path data-name="Path 2002" d="M276.214 39.161a5.983 5.983 0 100 8.461 6.006 6.006 0 000-8.461zM120.326 81.45a6.725 6.725 0 011.7-1.535.967.967 0 011.007 1.65 4.853 4.853 0 00-1.411 1.38c2.813 1.652 5.106 4.325 5.188 7.71 6.659 8.632 16.437 6.073 15.845 1.606-.23-1.737-3.7-5.3-4.582-6.379a92.228 92.228 0 01-7.273-9.846c-3.089-1.028-11.889-3.983-14.636-3.983-2.385 0-4.279.06-6.039.151 3.978 2.493 7.391 4.752 10.2 9.247zM91.791 92.024a.967.967 0 011.72.886 3.457 3.457 0 001 4.153.967.967 0 01-1.12 1.575 5.4 5.4 0 01-1.6-6.619zm18.538-6.22a.968.968 0 01.228 1.923c-3.024.366-2.772 5.96.081 7.2 1.881.817 4.167.24 5.907-.671a.965.965 0 01.894 1.711c-2.283 1.194-5.126 1.795-7.572.731-4.282-1.865-5.075-10.227.462-10.899zm-50.758 39.938c1.719 5.2 10.881 2.344 13.858-.836-1.817-2.667-1.341-5.955-.048-8.725-4.657 3.101-8.992 6.693-13.813 9.556zm16.222 1.354c-4.572 4.9-15.65 7.434-19.065.213-19.5 9.866-35.235-.562-54.524-.562a1.615 1.615 0 010-3.229c25.017 0 33.776 11.6 55.475-.633 8.489-4.784 15.324-11.494 24.605-15.14 11.141-4.377 26.351-4.359 35.92-10.084 3.355-2.009 6.673-5.1 4.929-8.776-1.9-4.014-7.943-5.209-11.753-5.209-9.82 0-16.308 1.888-22.827 3.785a102.313 102.313 0 01-13.5 3.208c-5.889.883-16.673-1.9-17.157-9.116a1.612 1.612 0 013.217-.214c.326 4.889 9.1 6.533 12.932 6.2-.425-4.787-1.583-10.1-6.491-12.236a.966.966 0 01.772-1.771c5.639 2.46 7.138 8.162 7.632 13.724q1.63-.281 3.246-.638c4.388-1.473 3.1-7.826 9.127-11.338a.967.967 0 01.969 1.673c-4.119 2.4-3.795 5.234-5.823 8.605 1.415-.385 2.8-.787 4.18-1.189 6.759-1.967 13.484-3.923 23.724-3.923a23.83 23.83 0 014.518.418c-2.28-2.672-4.985-4.365-8.044-6.277-1.024-.64-2.087-1.3-3.165-2.02-.812.057-1.7.117-2.729.178-2.945.178-10.9-.414-12.5-3.279a1.61 1.61 0 012.813-1.564c.664 1.188 8.061 1.713 9.5 1.626 3.906-.235 7.78-.592 11.7-.677 1.178-.075 1.552-2.023 1.561-2.927a.965.965 0 011.93.015 6.5 6.5 0 01-.661 2.887c3.464.138 10.677 2.579 14.3 3.755 1.235.4 2.838 1.182 4.129.614a2.97 2.97 0 001.472-1.454.965.965 0 011.756.8 5 5 0 01-1.668 1.984c4.137 1.316 12.113 4.489 15.775 4.142 6.234-.592 7.441-7.786 2.633-10.81-3.187-2-8.135-3.418-11.808-4.66-12.1-4.1-24.248-8.849-36.992-10.128-16.457-1.652-39.428-3.182-53.479 5.656C37.355 68.199 19.515 78.561 1.89 81.801a1.61 1.61 0 01-.58-3.167C18.427 75.488 36.062 65.209 50.71 56c14.827-9.324 38.191-7.873 55.512-6.135 13.03 1.307 25.343 6.094 37.711 10.28 3.959 1.339 9.021 2.807 12.488 4.987a8.984 8.984 0 01-4.045 16.74c-4.546.432-11.845-2.64-16.544-4.117 1.373 1.887 3 3.939 4.475 5.749 1.644 2.017 5.154 5.5 5.612 8.236 1.18 7.029-10.892 12.146-20 2.787a11.878 11.878 0 01-2.348 3.144c-1.742 7.034-6.4 17.352-12.974 21.208-3.758 2.205-9.166 1.96-12.153-1.451-4.62 4.557-14.1 13.474-21.448 10.278a10.07 10.07 0 01-1.191-.611zm6.247-15.822a15.082 15.082 0 00-5.279 5.012c-1.923 3.128-2.3 6.812 1.511 8.47 5.821 2.531 15.04-6.785 18.816-10.526a14.34 14.34 0 011.619-7.471c-5.279 1.036-11.908 2.331-16.667 4.516zm20.864-5.334c-1.035 1.428-2.894 5.244-2.662 7.772.336 3.674 5.877 4.059 8.716 2.393 4.831-2.835 8.516-10.226 10.3-15.3-5.042 2.806-10.743 4.035-16.354 5.13zM79.775 65.331a.967.967 0 011.674-.969c2.393 4.143.763 8.453-1.491 12.245a.968.968 0 01-1.666-.984c1.851-3.118 3.476-6.854 1.483-10.297zm118.507 88.559a5.66 5.66 0 118 0 5.683 5.683 0 01-8-.005zm2.284-2.284a2.43 2.43 0 100-3.437 2.44 2.44 0 00.002 3.432zm89.686-3.448a7.24 7.24 0 1110.239 0 7.268 7.268 0 01-10.239-.005zm2.284-2.284a4.009 4.009 0 100-5.67 4.026 4.026 0 000 5.666zm-70.043 22.564a5.66 5.66 0 118 0 5.68 5.68 0 01-8-.004zm2.283-2.283a2.43 2.43 0 100-3.437 2.439 2.439 0 000 3.432zm40.928-149.952a5.66 5.66 0 11-8 0 5.681 5.681 0 018-.005zm-2.284 2.284a2.43 2.43 0 100 3.436 2.438 2.438 0 000-3.441zm-88.523 3.383a7.24 7.24 0 11-10.239 0 7.268 7.268 0 0110.239-.009zm-2.284 2.284a4.01 4.01 0 100 5.67 4.024 4.024 0 000-5.67zm68.881-22.5a5.66 5.66 0 11-8 0 5.683 5.683 0 017.999-.006zm-2.283 2.284a2.431 2.431 0 100 3.438 2.441 2.441 0 00-.001-3.444zm12.56 61.594l13.469-15.863a9.234 9.234 0 01-1.372-10.638l-23.715-9.629a9.233 9.233 0 01-11.847 5.86l-4.845 9.248a7.772 7.772 0 013.4 3.915l14.388-2.622a5.944 5.944 0 116.677 5.664l-.283 12.627a9.189 9.189 0 014.124 1.438zm14.927-14.592l-13.424 15.811a9.173 9.173 0 012.2 3.522l7.253-2.578a6.958 6.958 0 11.707 1.8l-7.526 2.676a9.216 9.216 0 01-17.212 5.555l-9.432 3.353a9.214 9.214 0 01-10.11 11.218l-2.8 10.99a9.217 9.217 0 012.349 15.98l10.335 13.241a9.287 9.287 0 014.568-.03l3.494-11.963a6.988 6.988 0 117.537-11.58l9.166-7.037a9.215 9.215 0 1115.895-9.315l10.168-6.343a9.226 9.226 0 016.047-10.992l-9.7-23.667a9.261 9.261 0 01-9.516-.642zm-45.03-7.169l4.9-9.348a9.232 9.232 0 01-3.984-5.127l-23.646 9.8a9.243 9.243 0 01.827 6.334l12.8 2.727a7.747 7.747 0 019.1-4.39zm-9.646 6.253l-12.891-2.746a9.225 9.225 0 01-12.414 4.383l-8.576 24.121a9.214 9.214 0 01-3.105 17.361l9.816 24.4a9.214 9.214 0 0113.546 12.236l24.16 8.978a9.239 9.239 0 014.6-5.528l-10.115-12.959a9.215 9.215 0 11-2.561-17.466l2.789-10.947a9.233 9.233 0 01-4.8-3.837l-13.684 6.633a6.56 6.56 0 11-.927-1.7l13.767-6.674a9.279 9.279 0 01.2-6.77l-8.908-4.905a9.206 9.206 0 11.953-1.684l8.9 4.9a9.22 9.22 0 0115.866 1.424l9.306-3.309a9.232 9.232 0 011.542-8.328l-14.068-11.189c-.092.1-.186.2-.283.3a7.75 7.75 0 01-13.111-6.691zm33.694 14.081l.285-12.718a5.951 5.951 0 01-4.36-3.7l-14.3 2.6a7.757 7.757 0 01-.818 4.533l14.309 11.382a9.172 9.172 0 014.882-2.097zm34.834 23.982l-10.1 6.3a9.226 9.226 0 01-5.276 11.135l3.85 10.348a9.27 9.27 0 017.255.575l9.428-23.772a9.241 9.241 0 01-5.16-4.584zm-25.555 15.329l-9.105 6.99a7 7 0 011 4.8l17.164 4.7a9.286 9.286 0 013.213-3.222l-3.945-10.606a9.21 9.21 0 01-8.215-2.541l-.113-.116zm8.249 18.264l-16.906-4.627a6.994 6.994 0 01-7.385 4l-3.528 12.081a9.233 9.233 0 014.769 5.585l23.647-9.814a9.269 9.269 0 01-.6-7.225zm-68.27-27.128a3.328 3.328 0 100 4.707 3.341 3.341 0 00-.006-4.707zm47.666 16.934a3.757 3.757 0 100 5.314 3.771 3.771 0 00-.001-5.315zm6.473-67.842a2.714 2.714 0 100 3.838 2.725 2.725 0 00-.002-3.838zm23.068 19.758a3.758 3.758 0 100 5.314 3.773 3.773 0 00-.001-5.314zm-54.812 44.284a5.983 5.983 0 100 8.462 6.007 6.007 0 00-.001-8.462zm-17.725-42.667a5.983 5.983 0 100 8.462 6.007 6.007 0 000-8.462zm16.824-16.958c-4.152 4.152 2.141 10.608 6.374 6.374 4.192-4.19-2.182-10.564-6.374-6.374zm8.045 30.86a5.983 5.983 0 100 8.461 6.007 6.007 0 00.005-8.464zm41.335 13.869a5.983 5.983 0 100 8.461 6.007 6.007 0 00.005-8.464zm-14.863-23.759a5.983 5.983 0 100 8.462 6.008 6.008 0 00.004-8.465zm-55.983 51.337a5.983 5.983 0 100 8.461 6 6 0 00.004-8.468zm.867 11.907a9.216 9.216 0 01-13.326-11.825l-11.1-27.588a9.214 9.214 0 013.6-18.015l8.96-25.2a9.213 9.213 0 0112.849-13.173l25.325-10.5c.741-11.507 17.81-11.239 18.4.118l25.4 10.314a9.213 9.213 0 0112.873 13.127l10.354 25.26a9.213 9.213 0 01-.246 18.416l-10.044 25.323a9.213 9.213 0 01-13 13l-25.35 10.523a9.213 9.213 0 01-18.382 0l-26.315-9.779zm71.88-11.907a5.983 5.983 0 108.461 0 6.006 6.006 0 00-8.457-.007zM186.541 39.16a5.983 5.983 0 108.461 0 6 6 0 00-8.457.001zm102.258 50.817a5.983 5.983 0 000-11.965c-7.964-.003-7.783 11.962.004 11.962zM169.726 79.761a5.983 5.983 0 108.462 0 6.007 6.007 0 00-8.462 0zm55.671 61.654a5.983 5.983 0 1011.966 0c-.001-7.816-11.966-7.934-11.966 0zm0-114.846c0 7.815 11.966 7.934 11.966 0-.001-7.815-11.966-7.934-11.966-.001z" fill="#d7e8f2"/></svg>