<svg xmlns="http://www.w3.org/2000/svg" width="20.389" height="16.565"><g data-name="Group 4"><path data-name="Path 4" d="M20.388 1.961a8.715 8.715 0 01-2.408.66 4.156 4.156 0 001.839-2.31 8.353 8.353 0 01-2.65 1.012 4.179 4.179 0 00-7.23 2.858 4.3 4.3 0 00.1.953A11.831 11.831 0 011.42.762 4.181 4.181 0 002.7 6.348a4.128 4.128 0 01-1.888-.515v.046a4.2 4.2 0 003.349 4.107 4.171 4.171 0 01-1.1.138 3.7 3.7 0 01-.791-.071 4.22 4.22 0 003.906 2.912A8.4 8.4 0 011 14.747a7.828 7.828 0 01-1-.057 11.767 11.767 0 006.412 1.876 11.814 11.814 0 0011.9-11.894c0-.185-.006-.363-.015-.54a8.338 8.338 0 002.091-2.171z" fill="#fff"/></g></svg>