<svg xmlns="http://www.w3.org/2000/svg" width="143.663" height="131"><path data-name="Path 2004" d="M143.523 92.922a.785.785 0 01-1.309.867c-2.723-4.125-3.728-8.815-6.118-12.507-2.354-3.636-5.8-5.7-10.084-8.254l-.02-.012a145.241 145.241 0 01-12.851-8.585c-3.641-2.712-5.357-.411-4.668 3.14a10.2 10.2 0 002.8 4.844 10.319 10.319 0 002.89 2.216 3.68 3.68 0 001.929.329.785.785 0 01.16 1.562c-.442.045-.248.062.105.365a76.428 76.428 0 012.747 2.443 15.184 15.184 0 002.034 1.747 6.536 6.536 0 001.332.694.783.783 0 01-.559 1.463c-.623-.24-.446-.312-.5.313a3.5 3.5 0 01-.819 2 12.376 12.376 0 00-1.556 2.8c-1.017 2.512-1.686 6.662-.868 9.2a.784.784 0 01-1.494.479c-.886-2.747-.3-7.176.77-9.915.476-1.223.442-1.072-.863-1.247-2.244-.3-5.11-2.493-7.163-3.7-2.7-1.592-7.69-4.094-9.961-6.118a16.455 16.455 0 00-5.158-3.172c-3.534-1.214-5.6 1.6-3.529 4.577a19.68 19.68 0 003.714 3.574 62.763 62.763 0 005.6 3.977 67.047 67.047 0 016.659 4.693c.337.287.4.287.753-.022a.786.786 0 011.115 1.069c-1.558 2.334-2.133 1.932-3.82 3.37-.659.564-1.612-.248-1.265-.844.261-.449-.182-.733-.936-1.182-2.1-1.518-5.618-3.758-8.264-5.259a61.2 61.2 0 01-7.674-4.883c-1.908-1.479-4.351-4.262-6.519-4.957a3.24 3.24 0 00-3.424.916c-.933 1.4-.084.825.634.651 2-.485 3.79.73 5.074 2.152a14.54 14.54 0 011.984 2.873q.276.524.553 1.026c.207.376.1.268.241-.028a2.659 2.659 0 011.257-1.271.471.471 0 01.313.889 1.859 1.859 0 00-.752.86.47.47 0 01-.449.305c-.239 0-.28-.16-.07.2a29.874 29.874 0 006.54 8.05 35.017 35.017 0 006.5 4.39c.867.459.616.494 1.123-.261.182-.271.376-.537.58-.8a.784.784 0 011.242.958 7.268 7.268 0 00-1.586 3.176.784.784 0 01-1.549-.24c.161-1.023.567-.86-.353-1.342a36.763 36.763 0 01-6.974-4.688 33.725 33.725 0 01-8-10.5 12.909 12.909 0 00-1.756-2.553c-1.379-1.526-4.255-2.848-5.376-.214a5.348 5.348 0 00.2 3.345 31.23 31.23 0 003.238 7.163c.5.831.249.6 1.114.792 2.081.449 3.331 2.255 4.5 3.951.349.505.691 1 1.037 1.423a45.118 45.118 0 004.942 5.234c1.9 1.669 4.035 3.1 5.956 3.357a6.9 6.9 0 00.53-1.9.785.785 0 011.555.209 8.594 8.594 0 01-.737 2.537 6.4 6.4 0 00-.622 2.578.785.785 0 01-1.568-.067 8.224 8.224 0 01.275-1.865 14.842 14.842 0 01-6.421-3.671 46.659 46.659 0 01-5.127-5.425 24.003 24.003 0 01-1.111-1.521c-.905-1.309-1.865-2.7-3.195-3.191-1.513-.564-3.075-.041-3.036 1.857.042 2.031 1.767 4.2 2.9 5.82a61.653 61.653 0 007.391 9.033c8.678 8.188 21.858 14.51 33.556 17.252a.786.786 0 01-.356 1.531c-11.968-2.806-25.394-9.259-34.275-17.64a63.2 63.2 0 01-7.6-9.273c-1.383-1.964-3.135-4.2-3.186-6.693a3.376 3.376 0 011.516-3.138c.761-.456.777-.077.24-1.013a31.918 31.918 0 01-3.041-6.93 7.763 7.763 0 01-.207-4.178c.42-1.344.377-.464.36-1.978-.033-2.815 3.229-4.506 5.9-3.652 2.569.823 4.858 3.548 7 5.208a59.984 59.984 0 007.49 4.76 71.956 71.956 0 018.013 5.051 7.49 7.49 0 001.249.839c1.015.666 2.175.26 1.027-.742a56.635 56.635 0 00-6.16-4.293 64.3 64.3 0 01-5.733-4.074 24.94 24.94 0 01-3.822-3.566c-3.335-4.2-.017-9.061 5.137-7.29a18.209 18.209 0 015.693 3.485c2.151 1.917 7.169 4.438 9.715 5.94 2.036 1.2 5.283 3.763 7.539 3.529a2.139 2.139 0 002.082-2.409 4.975 4.975 0 00-1.778-2.427c-1.1-1.036-2.609-2.319-4.036-3.532a49.385 49.385 0 01-3.9-3.47 11.721 11.721 0 01-3.2-5.624c-.924-4.758 2.1-8.452 7.145-4.695a143.846 143.846 0 0012.722 8.5l.019.011c4.453 2.66 8.043 4.806 10.594 8.746 2.415 3.73 3.409 8.4 6.112 12.495zM49.978 38.58a.314.314 0 01.315.544l-.893.515.893.515a.314.314 0 01-.315.544l-.891-.515v1.03a.315.315 0 01-.63 0v-1.03l-.891.515a.314.314 0 01-.315-.544l.893-.515-.893-.515a.314.314 0 01.315-.544l.891.515v-1.03a.315.315 0 01.63 0v1.03zm48.967 0a.314.314 0 01.315.544l-.893.515.893.515a.314.314 0 01-.315.544l-.891-.515v1.03a.315.315 0 01-.629 0v-1.03l-.891.515a.314.314 0 01-.315-.544l.893-.515-.893-.515a.314.314 0 01.315-.544l.891.515v-1.03a.315.315 0 01.629 0v1.03l.891-.515zM32.718 22.253a2.219 2.219 0 000 3.127 2.22 2.22 0 003.127 0 2.22 2.22 0 000-3.127 2.22 2.22 0 00-3.126 0zm-1.113-1.113a3.8 3.8 0 015.353 0 3.8 3.8 0 010 5.353 3.8 3.8 0 01-5.353 0 3.8 3.8 0 01.006-5.353zm77.839 1.113a2.219 2.219 0 000 3.127 2.22 2.22 0 003.127 0 2.22 2.22 0 000-3.127 2.22 2.22 0 00-3.125 0zm-1.113-1.113a3.8 3.8 0 015.352 0 3.8 3.8 0 010 5.353 3.8 3.8 0 01-5.352 0 3.8 3.8 0 01.002-5.353zM78.452 1.369a.314.314 0 01.315-.544l.891.515V.31a.315.315 0 01.63 0v1.03l.891-.515a.314.314 0 01.315.544l-.893.515.893.515a.314.314 0 01-.315.543l-.891-.514v1.03a.315.315 0 01-.63 0v-1.03l-.891.514a.314.314 0 01-.315-.543l.893-.515zM55.974 8.375A1.376 1.376 0 0157.35 9.75a1.376 1.376 0 01-1.376 1.376 1.376 1.376 0 01-1.376-1.376 1.376 1.376 0 011.378-1.374zm-5 11.508a.314.314 0 01.315.543l-.893.516.893.515a.314.314 0 01-.315.544l-.891-.515v1.03a.315.315 0 01-.629 0v-1.03l-.891.515a.314.314 0 01-.315-.544l.893-.515-.893-.516a.314.314 0 01.315-.543l.891.515v-1.03a.315.315 0 01.629 0v1.03l.891-.515zm41.561-4.649a.314.314 0 01.312.544l-.893.515.893.516a.313.313 0 01-.312.543l-.892-.515v1.031a.315.315 0 01-.63 0v-1.031l-.893.515a.313.313 0 01-.312-.543l.893-.516-.893-.515a.314.314 0 01.312-.544l.893.516v-1.031a.315.315 0 01.63 0v1.031zM27.347 76.511c-1.027-.1-.8-1.658.223-1.553a4.331 4.331 0 002.968-.929c2.074-1.457 4.184-4.074 4.648-6.459a5 5 0 00-.928-4.074c-1.177-1.581-4.623 1.649-5.665 2.5-2.976 2.43-7.571 5.015-10.926 7.019l-.019.012c-13.57 8.106-9.25 10.229-16.2 20.761a.785.785 0 01-1.309-.867c7.117-10.782 2.69-12.867 16.706-21.241l.019-.011c3.28-1.959 7.837-4.518 10.741-6.891 1.884-1.539 5.742-5.134 7.915-2.217a6.511 6.511 0 011.211 5.3c-.622 3.2-2.918 5.5-5.27 7.537-.564.49-1.185 1.017-1.821 1.557-.828.7-4.812 3.857-5.55 5.2a2.11 2.11 0 001.818 3.164 6.594 6.594 0 004.379-1.59 89.12 89.12 0 019.416-5.54c3.392-1.8 5.354-4.52 9.152-5.826 4.473-1.538 8.106 2.2 5.84 6.235-1.163 2.07-3.6 3.848-5.334 5.283a57.76 57.76 0 01-4.925 3.412 64.176 64.176 0 00-6.669 4.722c-.289.25-.338.239.1.426a1.663 1.663 0 001.437-.113 4.7 4.7 0 00.82-.514c5.086-3.893 10.959-6.279 15.932-10.136 2.141-1.66 4.429-4.386 7-5.208 2.741-.878 6.112.934 5.885 3.892-.086 1.124-.137.458.269 1.456a7.265 7.265 0 01-.105 4.461 31.39 31.39 0 01-2.879 6.646c-.75 1.332-.7.744.266 1.412 1.981 1.364 1.437 4.559.3 6.454-9.573 15.953-26.219 26-44.033 30.175a.786.786 0 01-.357-1.531c17.393-4.078 33.694-13.87 43.043-29.45.8-1.326 1.382-3.7-.05-4.458-2.232-1.188-4.294 1.577-5.373 3.137-2.49 3.6-7.583 9.125-11.89 10.426-.948.287-.765-.027-.608.923a9.659 9.659 0 01.114 1.132.785.785 0 01-1.568.067c-.091-2-1.1-3.153-1.36-5.115a.785.785 0 011.555-.209 6.817 6.817 0 00.26 1.18c.271.852.242.794 1.139.529 3.888-1.151 8.824-6.585 11.066-9.826 1.008-1.458 2.073-3 3.673-3.686 1.668-.718 1.164.263 2.173-1.581a33.758 33.758 0 003.01-6.639 7.9 7.9 0 00.348-2.757 2.548 2.548 0 00-3.463-1.924c-1.612.626-3.031 2.622-3.814 4.1a33.731 33.731 0 01-8 10.5 36.835 36.835 0 01-6.969 4.685c-.9.474-.522.3-.358 1.346a.784.784 0 01-1.549.24 7.268 7.268 0 00-1.586-3.176.784.784 0 011.242-.958q.266.342.507.692c.556.811.273.857 1.152.392a35.2 35.2 0 006.54-4.413 29.854 29.854 0 006.527-8.028c.287-.5.142-.15-.191-.243a.471.471 0 01-.315-.288 1.86 1.86 0 00-.751-.86.471.471 0 01.313-.889 2.665 2.665 0 011.265 1.288c.129.277.029.381.224.028s.375-.689.563-1.043c.976-1.847 2.634-4.056 4.638-4.834a3.812 3.812 0 012.566-.141c.722.212 1.262.574.568-.6a3.227 3.227 0 00-3.5-1.022c-2.168.694-4.612 3.477-6.519 4.957-4.993 3.872-10.86 6.255-15.938 10.142a4.491 4.491 0 01-.76.51c-.557.263-.489.275-.162.717.258.351-.635 1.351-1.279.8-.564-.48-1.287-.852-1.9-1.29a5.877 5.877 0 01-1.921-2.08.784.784 0 011.3-.873c.165.248.1.227.33.027a64.621 64.621 0 016.893-4.895 56.262 56.262 0 004.777-3.308c1.474-1.223 4.226-3.136 5.078-5.238 1.172-2.891-1.305-4.532-4.072-3.581-3.467 1.191-5.679 4-8.925 5.727a88.248 88.248 0 00-9.232 5.417 8.078 8.078 0 01-5.46 1.885h-.048c1.439 3.011 2.306 7.982 1.29 11.132a.784.784 0 01-1.494-.479c.939-2.911-.013-7.743-1.456-10.466-.612-1.154-1.5-1.975-1.742-3.186-.168-.836.2-.941-.545-.653a.783.783 0 01-.559-1.463 6.542 6.542 0 001.332-.694 46.684 46.684 0 004.527-3.954c.381-.346.819-.556.3-.61zm34.567 26.211a.471.471 0 01-.811.479 2.561 2.561 0 00-1.115-.964.47.47 0 01.443-.83 3.429 3.429 0 011.487 1.316zm-5.384 6.327a.471.471 0 01-.874.35 2.256 2.256 0 00-1.052-1.111.471.471 0 01.417-.845 3.193 3.193 0 011.513 1.607zm-.624-9.963a.473.473 0 01-.9.291 2.831 2.831 0 00-1.183-1.129.471.471 0 01.192-.922 3.49 3.49 0 011.887 1.761zm6.157-7.495a.471.471 0 01-.69.642 2.544 2.544 0 00-1.341-.885.47.47 0 01.273-.9 3.424 3.424 0 011.758 1.144zm-10.779.718a.47.47 0 01-.9.272 3.612 3.612 0 00-1.22-1.675.47.47 0 01.505-.793 4.491 4.491 0 011.614 2.2zm-4.117-11.548a.47.47 0 01-.878.336 3.748 3.748 0 00-1.311-1.527l-.027-.021a.471.471 0 01.575-.745l.025.02a4.562 4.562 0 011.617 1.94zm-6.094 4.471a.472.472 0 01-.915.229 3.173 3.173 0 00-1.309-1.857.471.471 0 01.531-.778 4.118 4.118 0 011.697 2.407zm-14.53 18.282a.47.47 0 01.941 0c-.011 3.542-.733 8.419-3.587 10.852a.471.471 0 01-.612-.716c2.607-2.221 3.249-6.909 3.259-10.135zm5.045 9.809a.471.471 0 01-.889.31c-2.029-5.833-.444-9.479-1.807-14.625a.471.471 0 01.911-.24c1.371 5.164-.192 8.864 1.789 14.557zm9.02 1.29a.471.471 0 01-.815.472c-4.615-7.912-8.949-11.5-8.882-21.821a.47.47 0 01.941 0c-.065 10.023 4.266 13.645 8.757 21.345zm41.946-11.412a.471.471 0 01-.812-.479 3.429 3.429 0 011.484-1.315.47.47 0 01.442.83 2.557 2.557 0 00-1.115.964zm5.447 6.2a.471.471 0 01-.874-.35 3.193 3.193 0 011.509-1.606.471.471 0 01.417.845 2.253 2.253 0 00-1.049 1.11zm.646-10.021a.473.473 0 01-.9-.291 3.49 3.49 0 011.887-1.761.471.471 0 01.192.922 2.829 2.829 0 00-1.176 1.128zm-6.363-7.144a.471.471 0 01-.69-.642 3.426 3.426 0 011.758-1.144.47.47 0 01.273.9 2.544 2.544 0 00-1.341.885zm10.989.349a.47.47 0 01-.9-.272 4.491 4.491 0 011.614-2.2.47.47 0 01.505.793 3.614 3.614 0 00-1.219 1.675zM97.367 81.1a.47.47 0 01-.878-.336 4.561 4.561 0 011.617-1.94l.025-.02a.471.471 0 01.576.745l-.027.021a3.75 3.75 0 00-1.311 1.527zm6.131 4.363a.472.472 0 01-.915-.229 4.116 4.116 0 011.693-2.407.471.471 0 01.531.778 3.174 3.174 0 00-1.306 1.86zm12.674 18.054a.47.47 0 01.941 0c.01 3.226.652 7.915 3.259 10.135a.471.471 0 01-.612.716c-2.854-2.433-3.576-7.309-3.587-10.852zm-3.215 10.119a.471.471 0 01-.889-.31c1.98-5.693.418-9.393 1.785-14.555a.471.471 0 01.911.24c-1.359 5.144.225 8.791-1.803 14.623zm-9.094 1.453a.471.471 0 01-.815-.472c4.491-7.7 8.821-11.321 8.757-21.345a.47.47 0 01.941 0c.067 10.326-4.267 13.909-8.882 21.821z" fill="#d7e8f2"/><path data-name="Path 2005" d="M75.051 42.908a4.64 4.64 0 00-1.023-.765 15.3 15.3 0 00-1.829-.887 22.532 22.532 0 01-7.032-3.5 8.847 8.847 0 01-3.231-7.248 9.3 9.3 0 01.673-3.586 8.359 8.359 0 012.026-2.912 9.64 9.64 0 012.625-1.759 12.414 12.414 0 013.266-.955c.251-.039.444-.057.6-.067a.122.122 0 01-.068-.125v-3.683a1.858 1.858 0 011.58-1.756 3.336 3.336 0 01.889-.092 3.487 3.487 0 01.881.135 1.81 1.81 0 011.494 1.7v3.899c.084.014.185.032.309.057a11.7 11.7 0 013.2 1.118 9.486 9.486 0 012.533 1.947 8.689 8.689 0 011.616 2.5 9.945 9.945 0 01.736 2.987c.159 1.681-.461 2.113-1.57 2.217a7.644 7.644 0 01-.857.014h-2.873c-.312 0-.478 0-.632.01-1.513.044-2.388.07-2.613-1.674a4.153 4.153 0 00-.259-1.035 2.3 2.3 0 00-.42-.689 1.582 1.582 0 00-.192-.179 3.244 3.244 0 00-1.87-.606 2.482 2.482 0 00-1.72.494 1.152 1.152 0 00-.129.137c-1.3 1.613-.7 2.912.677 4.019a27.4 27.4 0 005.28 2.919 19.107 19.107 0 014.5 2.534q.157.146.312.309a9.355 9.355 0 012.409 6.348 9.253 9.253 0 01-2.313 6.39q-.146.157-.308.311a9.3 9.3 0 01-2.255 1.585 11.613 11.613 0 01-2.78.966 11.134 11.134 0 01-1.146.184c-.142.017-.033-.174-.127-.075s.086.072.092.437c0 .269.008.578.008.609v2.669a2.161 2.161 0 01-1.526 2.01 2.867 2.867 0 01-.973.158 2.785 2.785 0 01-.973-.183 2.082 2.082 0 01-1.4-2.008v-2.675c0-.136.006-.431.011-.679.006-.3.188-.234.1-.333s.02.1-.125.084a11.8 11.8 0 01-.99-.14 11.455 11.455 0 01-5.952-2.843 8.965 8.965 0 01-2.658-5.522c-.253-2.056.184-2.591 1.39-2.74a7.376 7.376 0 01.97-.02h3.778c1.943-.02 2.021-.021 2.42 2.052a2.866 2.866 0 001.1 1.748 4.05 4.05 0 002.29.8 2.606 2.606 0 001.929-.644 2.552 2.552 0 00.607-.877 3.072 3.072 0 00.241-1.088 2.808 2.808 0 00-.687-2.008zm-.265-2.057a6.119 6.119 0 011.357 1.029v.006a4.305 4.305 0 011.09 3.083 4.59 4.59 0 01-.359 1.622 4.055 4.055 0 01-.971 1.389 4.061 4.061 0 01-3 1.042 5.581 5.581 0 01-3.153-1.113 4.339 4.339 0 01-1.657-2.652c-.162-.844-.193-.844-.933-.836-.28 0-.374.006-.485.006h-2.786l-.541-.009a5.822 5.822 0 00-.764.014c-.147.018-.184.22-.08 1.065a7.5 7.5 0 002.206 4.623 9.976 9.976 0 005.182 2.45c.365.067.657.1.879.123.52.056.8.086 1.083.4.3.338.3.666.283 1.367 0 .118-.005.26-.005.65v2.675a.646.646 0 00.443.613 1.26 1.26 0 00.444.083 1.351 1.351 0 00.462-.075.723.723 0 00.525-.62v-3.237c-.01-.781-.016-1.13.308-1.476a1.432 1.432 0 011.055-.4 9.6 9.6 0 001-.161 10.139 10.139 0 002.422-.836 7.779 7.779 0 001.894-1.33q.122-.116.243-.246a7.754 7.754 0 001.914-5.355 7.848 7.848 0 00-2-5.327q-.117-.122-.248-.244a18.69 18.69 0 00-4.107-2.266 28.283 28.283 0 01-5.586-3.113c-2.047-1.652-2.929-3.62-.908-6.125a2.681 2.681 0 01.293-.313 3.953 3.953 0 012.772-.882 4.787 4.787 0 012.763.929 3.148 3.148 0 01.369.344 3.787 3.787 0 01.7 1.136 5.681 5.681 0 01.352 1.411c.051.395.43.383 1.085.364.249-.008.518-.016.673-.016h2.451l.445.008a6.651 6.651 0 00.692-.008c.171-.016.262-.126.219-.584a8.457 8.457 0 00-.624-2.541 7.2 7.2 0 00-1.34-2.066 7.983 7.983 0 00-2.134-1.641 10.176 10.176 0 00-2.792-.971c-.153-.031-.317-.054-.445-.072a1.105 1.105 0 01-.836-.361c-.251-.289-.246-.514-.236-.99v-4.015c0-.087-.181-.18-.418-.25a1.97 1.97 0 00-.493-.076 1.868 1.868 0 00-.495.051c-.233.059-.419.166-.439.32v3.657c0 .755 0 1.058-.39 1.373a1.226 1.226 0 01-.825.242 5.8 5.8 0 00-.592.058 10.927 10.927 0 00-2.872.837 8.135 8.135 0 00-2.217 1.486 6.875 6.875 0 00-1.668 2.389 7.831 7.831 0 00-.556 3.017 7.429 7.429 0 002.69 6.1 21.4 21.4 0 006.6 3.253l.041.015a16.729 16.729 0 012.014.982zm1.009-19.408c.021.028.017.022 0-.002zm-.043-.056c-.022-.015-.025-.013.018.036l.019.021-.043-.056z" fill="#d7e8f2"/></svg>