<svg xmlns="http://www.w3.org/2000/svg" width="18.713" height="20.565" viewBox="0 0 18.713 20.565">
  <g id="logo_mark" transform="translate(0 0)">
    <path id="Path_67" data-name="Path 67" d="M8.431,283.264s-.14,0-.187,0a.435.435,0,0,0-.065,0,.18.18,0,0,0-.156.171c0,.027-.005.155-.005.176l0,.85,0,1.12s0,.127,0,.167a.206.206,0,0,0,.047.116.139.139,0,0,0,.042.032.319.319,0,0,0,.1.03,1.732,1.732,0,0,0,.214.009,7.607,7.607,0,1,1-7.606,7.607.412.412,0,0,0-.825,0,8.428,8.428,0,1,0,8.728-8.423V284.1A9.455,9.455,0,0,1,8.432,303a.412.412,0,0,0,0,.825,10.282,10.282,0,1,0,0-20.563" transform="translate(0 -283.263)" fill="#f84cad"/>
    <path id="Path_68" data-name="Path 68" d="M27.044,337.081a6.585,6.585,0,0,0,6.463-5.347.105.105,0,0,0-.022-.086.108.108,0,0,0-.08-.038h-2.54a.1.1,0,0,0-.1.073,3.906,3.906,0,1,1,0-2.364.1.1,0,0,0,.1.073h.644a.1.1,0,0,0,.1-.1.1.1,0,0,0-.011-.047,4.732,4.732,0,1,0-.194,3.08h1.1a5.755,5.755,0,1,1,.171-3.012.1.1,0,0,0,.1.082h.631a.1.1,0,0,0,.1-.1.107.107,0,0,0-.008-.04,6.58,6.58,0,1,0-6.459,7.834" transform="translate(-18.597 -320.211)" fill="#f84cad"/>
  </g>
</svg>
