<svg xmlns="http://www.w3.org/2000/svg" width="14.15" height="14.247" viewBox="0 0 14.15 14.247">
  <g id="menu_dark" transform="translate(-13.5 -13)">
    <path id="Path_2021" data-name="Path 2021" d="M23.2,44.5H14.56a1.07,1.07,0,0,0-1.06,1.06h0a1.07,1.07,0,0,0,1.06,1.06h8.656a1.07,1.07,0,0,0,1.06-1.06h0A1.074,1.074,0,0,0,23.2,44.5Z" transform="translate(0 -25.427)" fill="#333"/>
    <path id="Path_2022" data-name="Path 2022" d="M26.571,13H14.56a1.07,1.07,0,0,0-1.06,1.06h0a1.07,1.07,0,0,0,1.06,1.06H26.59a1.07,1.07,0,0,0,1.06-1.06h0A1.087,1.087,0,0,0,26.571,13Z" fill="#333"/>
    <path id="Path_2023" data-name="Path 2023" d="M26.571,75.9H14.56a1.07,1.07,0,0,0-1.06,1.06h0a1.07,1.07,0,0,0,1.06,1.06H26.59a1.07,1.07,0,0,0,1.06-1.06h0A1.087,1.087,0,0,0,26.571,75.9Z" transform="translate(0 -50.774)" fill="#333"/>
  </g>
</svg>
