<svg xmlns="http://www.w3.org/2000/svg" width="38.479" height="43.336"><g data-name="1-1"><path data-name="Path 39" d="M3.427 4.972A4.972 4.972 0 108.399 0a4.972 4.972 0 00-4.972 4.972zm4.972-3.659A3.659 3.659 0 114.74 4.972a3.659 3.659 0 013.659-3.659zM.03 14.566l1.059 7.975a3.733 3.733 0 002.057 2.937L4.898 41.5a2.075 2.075 0 002.062 1.838h2.832a2.07 2.07 0 002.057-1.843l.836-7.668 1.961-18.357 9.76-.63a2.188 2.188 0 002.073-1.928 2.14 2.14 0 00-.49-1.624 2.162 2.162 0 00-1.488-.748L12.995 9.8l-1.9-.035a.8.8 0 00-.665.311l-2.07 2.582-2.062-2.578a.827.827 0 00-.652-.315H4.307A4.307 4.307 0 00.031 14.58zm2.049-2.49a3 3 0 012.232-1h1.112L7.511 13.7a1.1 1.1 0 001.716 0l2.088-2.626 1.628.031 11.454.735a.84.84 0 01.779.932.9.9 0 01-.875.748l-10.137.657a.849.849 0 00-.792.757l-2 18.746-.836 7.677a.757.757 0 01-.753.674H6.95a.757.757 0 01-.753-.674l-1.79-16.409a.657.657 0 00-.438-.547 2.438 2.438 0 01-1.59-2.026l-1.044-7.966a2.994 2.994 0 01.744-2.333zm14.487 18.877l4.333.315h.048a1.939 1.939 0 001.506-.713l1.4 6.653a1.948 1.948 0 003.8 0l2.447-11.1.994 3.755a1.952 1.952 0 001.891 1.427h.053l3.939-.3a1.65 1.65 0 00.035-3.283l-2.525-.245-2.676-10.108a1.948 1.948 0 00-3.782.079l-2.214 10.128-.814-3.795a1.948 1.948 0 00-3.7-.35l-1.668 4-3.064.263a1.628 1.628 0 00-1.5 1.633 1.646 1.646 0 001.5 1.641zm.092-1.961l3.5-.293a.657.657 0 00.551-.4l1.821-4.377a.639.639 0 01.643-.385.63.63 0 01.56.5l1.431 6.78a.657.657 0 00.639.521.657.657 0 00.639-.516l2.871-13.091a.635.635 0 01.613-.5.608.608 0 01.617.473l2.8 10.566a.657.657 0 00.573.486l2.976.289a.337.337 0 01.3.333.341.341 0 01-.306.333l-3.926.276a.639.639 0 01-.586-.438l-1.7-6.39a.657.657 0 00-1.278.026l-3.017 13.752a.648.648 0 01-.626.486.63.63 0 01-.613-.5l-1.808-8.579a.657.657 0 00-.582-.5h-.061a.657.657 0 00-.6.4l-.551 1.313a.63.63 0 01-.565.39l-4.3-.315a.333.333 0 01-.3-.324.32.32 0 01.293-.315z" fill="#fff"/></g></svg>