<svg xmlns="http://www.w3.org/2000/svg" width="32.684" height="32.664" viewBox="0 0 32.684 32.664">
  <g id="_2-4" data-name="2-4" transform="translate(-1.98 -2)">
    <path id="Path_66" data-name="Path 66" d="M27.444,15a2.725,2.725,0,0,0-2.722,2.722,2.7,2.7,0,0,0,.569,1.647A3.559,3.559,0,0,0,22,22.912v4.609a.544.544,0,0,0,.544.544h1.633v7.077a.544.544,0,0,0,.544.544h5.444a.544.544,0,0,0,.544-.544V28.066h1.633a.544.544,0,0,0,.544-.544V22.912A3.559,3.559,0,0,0,29.6,19.369a2.7,2.7,0,0,0,.569-1.647A2.725,2.725,0,0,0,27.444,15Zm0,1.089a1.633,1.633,0,1,1-1.633,1.633A1.633,1.633,0,0,1,27.444,16.089ZM31.8,22.912v4.065H30.71v-4.9H29.622V34.6H27.988V27.521H26.9V34.6H25.266V22.077H24.178v4.9H23.089V22.912a2.471,2.471,0,0,1,2.468-2.468h3.774A2.471,2.471,0,0,1,31.8,22.912Z" transform="translate(-9.121 -5.923)" fill="#fff"/>
    <path id="Path_67" data-name="Path 67" d="M48.208,2a4.348,4.348,0,0,0-3.436,7.023l-3.484,3.484.77.77,3.483-3.485A4.355,4.355,0,1,0,48.208,2ZM44.942,6.355a3.27,3.27,0,0,1,2.722-3.217v.6a1.633,1.633,0,0,0-1.089,1.533c0,1.149.921,1.436,1.47,1.608.615.192.708.266.708.57a.544.544,0,0,1-1.089,0H46.575a1.633,1.633,0,0,0,1.089,1.533v.6A3.27,3.27,0,0,1,44.942,6.355Zm3.811,3.217v-.6a1.633,1.633,0,0,0,1.089-1.533c0-1.151-.921-1.438-1.47-1.61-.615-.191-.708-.265-.708-.568a.544.544,0,0,1,1.089,0h1.089a1.633,1.633,0,0,0-1.089-1.533v-.6a3.263,3.263,0,0,1,0,6.435Z" transform="translate(-17.908 0)" fill="#fff"/>
    <path id="Path_68" data-name="Path 68" d="M49.444,24a4.36,4.36,0,0,0-4.318,3.811H44V28.9h1.126A4.355,4.355,0,1,0,49.444,24Zm0,7.622a3.266,3.266,0,0,1-.544-6.484v.6a1.633,1.633,0,0,0-1.089,1.533c0,1.149.921,1.436,1.47,1.608.615.192.708.266.708.57a.544.544,0,1,1-1.089,0H47.811a1.633,1.633,0,0,0,3.266,0c0-1.151-.921-1.438-1.47-1.61-.615-.191-.708-.265-.708-.568a.544.544,0,1,1,1.089,0h1.089a1.633,1.633,0,0,0-1.089-1.533v-.6a3.266,3.266,0,0,1-.544,6.484Z" transform="translate(-19.144 -10.023)" fill="#fff"/>
    <path id="Path_69" data-name="Path 69" d="M6.352,32.71A4.36,4.36,0,0,0,10.67,28.9H11.8V27.811H10.67a4.355,4.355,0,1,0-4.318,4.9Zm-.544-7.573v.6a1.633,1.633,0,0,0-1.089,1.533c0,1.149.921,1.436,1.47,1.608.615.192.708.266.708.57a.544.544,0,0,1-1.089,0H4.719a1.633,1.633,0,1,0,3.266,0c0-1.151-.921-1.438-1.47-1.61-.615-.191-.708-.265-.708-.568a.544.544,0,1,1,1.089,0H7.986A1.633,1.633,0,0,0,6.9,25.733v-.6a3.266,3.266,0,1,1-1.089,0Z" transform="translate(-0.006 -10.023)" fill="#fff"/>
    <path id="Path_70" data-name="Path 70" d="M47.734,43.877A4.341,4.341,0,0,0,44.527,45.3l-3.46-3.955-.82.718,3.633,4.152a4.355,4.355,0,1,0,3.854-2.333Zm-3.266,4.355a3.27,3.27,0,0,1,2.722-3.217v.6A1.633,1.633,0,0,0,46.1,47.144c0,1.149.921,1.436,1.47,1.608.615.192.708.266.708.57a.544.544,0,1,1-1.089,0H46.1a1.633,1.633,0,0,0,1.089,1.533v.6A3.27,3.27,0,0,1,44.468,48.233Zm3.811,3.217v-.6a1.633,1.633,0,0,0,1.089-1.533c0-1.151-.921-1.438-1.47-1.61-.615-.191-.708-.265-.708-.568a.544.544,0,0,1,1.089,0h1.089a1.633,1.633,0,0,0-1.089-1.533v-.6a3.263,3.263,0,0,1,0,6.435Z" transform="translate(-17.434 -17.924)" fill="#fff"/>
    <path id="Path_71" data-name="Path 71" d="M6.346,52.546a4.347,4.347,0,0,0,3.455-7l3.98-3.484-.716-.817L9.037,44.774a4.355,4.355,0,1,0-2.69,7.772Zm3.266-4.355a3.27,3.27,0,0,1-2.722,3.217v-.6A1.633,1.633,0,0,0,7.98,49.28c0-1.151-.921-1.438-1.47-1.61-.615-.191-.708-.265-.708-.568a.544.544,0,0,1,1.089,0H7.98a1.633,1.633,0,0,0-1.089-1.533v-.6A3.27,3.27,0,0,1,9.613,48.191ZM5.8,44.974v.6A1.633,1.633,0,0,0,4.713,47.1c0,1.149.921,1.436,1.47,1.608.615.192.708.266.708.57a.544.544,0,1,1-1.089,0H4.713A1.633,1.633,0,0,0,5.8,50.813v.6a3.263,3.263,0,0,1,0-6.435Z" transform="translate(0 -17.882)" fill="#fff"/>
    <path id="Path_72" data-name="Path 72" d="M6.352,10.71A4.335,4.335,0,0,0,9.268,9.581l3.207,3.665.82-.718L9.987,8.75a4.355,4.355,0,1,0-3.634,1.96ZM9.619,6.355A3.27,3.27,0,0,1,6.9,9.573v-.6A1.633,1.633,0,0,0,7.986,7.444c0-1.151-.921-1.438-1.47-1.61-.615-.191-.708-.265-.708-.568a.544.544,0,1,1,1.089,0H7.986A1.633,1.633,0,0,0,6.9,3.733v-.6A3.27,3.27,0,0,1,9.619,6.355ZM5.808,3.138v.6A1.633,1.633,0,0,0,4.719,5.266c0,1.149.921,1.436,1.47,1.608.615.192.708.266.708.57a.544.544,0,0,1-1.089,0H4.719A1.633,1.633,0,0,0,5.808,8.977v.6a3.263,3.263,0,0,1,0-6.435Z" transform="translate(-0.006 0)" fill="#fff"/>
  </g>
</svg>
