<svg xmlns="http://www.w3.org/2000/svg" width="35.192" height="38.6" viewBox="0 0 35.192 38.6">
  <g id="_4-2" data-name="4-2" transform="translate(-149.79 248.92)">
    <path id="Path_2" data-name="Path 2" d="M38.011,15.872a8.994,8.994,0,1,0,8.971,8.971,8.994,8.994,0,0,0-8.971-8.971ZM39,30.41v1.57H37.371V30.456A7.612,7.612,0,0,1,33.9,28.821L35.046,26.9a5.706,5.706,0,0,0,3.224,1.2c.866,0,1.322-.327,1.322-.875,0-1.607-5.222-1.326-5.222-4.868,0-1.584,1.331-2.712,3-3.081V17.714h1.626v1.52a5.641,5.641,0,0,1,2.938,1.534l-1.3,1.626a3.8,3.8,0,0,0-2.491-.962c-.8,0-1.239.322-1.239.884,0,1.382,5.222,1.2,5.222,4.706A3.716,3.716,0,0,1,39,30.387Zm-.861-14.934H21.848V17.06H17.671a.419.419,0,0,0,0,.834h4.186v2.818H19.517a.419.419,0,0,0,0,.834h2.335v2.823H17.661a.414.414,0,0,0,0,.829h4.186v2.786h-2.33a.414.414,0,1,0,0,.829h2.33v2.823H17.671a.419.419,0,0,0,0,.834h4.186V34.2H38.136a.626.626,0,0,1,.626.626v1.308a.626.626,0,0,1-.461.6L28.88,39.312a.617.617,0,0,1-.161,0H23.607L22.225,46.68H14.143V37.433a.668.668,0,0,1-.041-.212v-.461h-1.69a.622.622,0,0,1-.622-.626V34.826a.622.622,0,0,1,.622-.626H14.1V15.476h-1.69a.622.622,0,0,1-.622-.626V13.468a.617.617,0,0,1,.622-.622H14.1V8.7a.626.626,0,0,1,.626-.622h6.493a.626.626,0,0,1,.626.608v1.483h6.871a.543.543,0,0,1,.17.023L38.3,12.869a.622.622,0,0,1,.461.6V14.85a.626.626,0,0,1-.626.626Z" transform="translate(138 -257)" fill="#fff"/>
  </g>
</svg>
