<svg xmlns="http://www.w3.org/2000/svg" width="35.192" height="38.6"><g data-name="4-2"><path data-name="Path 2" d="M26.221 7.792a8.994 8.994 0 108.971 8.971 8.994 8.994 0 00-8.971-8.971zm.989 14.538v1.57h-1.629v-1.524a7.612 7.612 0 01-3.471-1.635l1.146-1.921a5.706 5.706 0 003.224 1.2c.866 0 1.322-.327 1.322-.875 0-1.607-5.222-1.326-5.222-4.868 0-1.584 1.331-2.712 3-3.081V9.634h1.626v1.52a5.641 5.641 0 012.938 1.534l-1.3 1.626a3.8 3.8 0 00-2.491-.962c-.8 0-1.239.322-1.239.884 0 1.382 5.222 1.2 5.222 4.706a3.716 3.716 0 01-3.126 3.365zm-.861-14.934H10.058V8.98H5.881a.419.419 0 000 .834h4.186v2.818h-2.34a.419.419 0 000 .834h2.335v2.823H5.871a.414.414 0 000 .829h4.186v2.786h-2.33a.414.414 0 100 .829h2.33v2.823H5.881a.419.419 0 000 .834h4.186v1.73h16.279a.626.626 0 01.626.626v1.308a.626.626 0 01-.461.6l-9.421 2.578a.617.617 0 01-.161 0h-5.112L10.435 38.6H2.353v-9.247a.668.668 0 01-.041-.212v-.461H.622A.622.622 0 010 28.054v-1.308a.622.622 0 01.622-.626H2.31V7.396H.62a.622.622 0 01-.622-.626V5.388a.617.617 0 01.622-.622h1.69V.62a.626.626 0 01.626-.622h6.493a.626.626 0 01.626.608v1.483h6.871a.543.543 0 01.17.023l9.414 2.677a.622.622 0 01.461.6V6.77a.626.626 0 01-.626.626z" fill="#fff"/></g></svg>