<svg xmlns="http://www.w3.org/2000/svg" width="39.714" height="41.332"><g data-name="4-3"><path data-name="Path 57" d="M28.45 23.39l-2.755.349-.245-1.937 2.732-.354zm.064.491l-2.755.354.271 1.943 2.755-.349zm.317 2.457l-2.755.349.248 1.938 2.755-.349zm5.759-5.708l-3.251.418-.726.092-1.9.243.877 6.843 2.627-.335-.629-4.9 3.251-.418zm.317 2.452l-2.755.349.253 1.943 2.755-.354zm.317 2.452l-2.755.349.248 1.943 2.755-.354zM16.89 19.468a.546.546 0 00-.611-.459l-7.486.964a.579.579 0 00-.363.211.542.542 0 00-.106.4l.459 3.729a.551.551 0 00.542.459h.069l7.486-.969a.533.533 0 00.363-.207.551.551 0 00.11-.4zm6.8-12.946a.459.459 0 00-.6.124l-3.077 4.188a2 2 0 00-.234 0 2.875 2.875 0 00-2.87 2.87.459.459 0 00.459.459h4.827a.459.459 0 00.459-.459 2.843 2.843 0 00-.8-1.979l2.025-4.592a.459.459 0 00-.193-.611zm-9.869.367a.459.459 0 00.611.032 8.588 8.588 0 014.51-1.869.459.459 0 00.409-.459V.46a.459.459 0 00-.486-.458 13.6 13.6 0 00-7.935 3.264.459.459 0 00-.032.666zm6.959-1.837a8.528 8.528 0 014.491 1.837.453.453 0 00.611-.037l2.9-2.953a.451.451 0 00-.028-.666A13.593 13.593 0 0020.877.002a.459.459 0 00-.491.459v4.132a.459.459 0 00.394.459zM6.59 14.145h4.225a.455.455 0 00.459-.459v-.11a8.482 8.482 0 011.876-5.355.459.459 0 00-.032-.606l-2.9-2.967a.482.482 0 00-.34-.138.459.459 0 00-.331.156A13.7 13.7 0 006.15 13.69a.459.459 0 00.44.455zm32.605 19.779a2.494 2.494 0 01-1.662.978l-25.9 3.306.326 2.342a.684.684 0 01-.588.781h-.092a.684.684 0 01-.68-.592l-.625-4.5a.684.684 0 01.23-.611l5.525-4.817.046-.037a1.935 1.935 0 10-2.273-3.132l-7.288 5.3a.68.68 0 01-1-.22v-.069a.753.753 0 01-.06-.2l-.987-7.463-2.783 5.91 1.148 9.644a.694.694 0 01-1.378.161l-1.15-9.83a.689.689 0 01.06-.372l3.807-8.087-.377-2.925a2.521 2.521 0 012.172-2.815l22.8-2.925v-.175a8.519 8.519 0 00-1.895-5.374.459.459 0 01.028-.606l2.907-2.967a.487.487 0 01.34-.138.459.459 0 01.331.156 13.676 13.676 0 013.4 8.445l1.143-.142a2.466 2.466 0 011.837.505 2.494 2.494 0 01.96 1.667l2.177 16.95a2.494 2.494 0 01-.499 1.852zm-.85-1.676l-2.176-16.955a1.143 1.143 0 00-1.13-1 .762.762 0 00-.147 0L5.841 18.035a1.148 1.148 0 00-.987 1.281l1.515 11.821 6.337-4.592a3.311 3.311 0 012.457-.6 3.256 3.256 0 012.163 1.318 3.311 3.311 0 01-.712 4.592l-5.231 4.565.06.432 25.915-3.325a1.153 1.153 0 00.987-1.277z" fill="#fff"/></g></svg>