<svg xmlns="http://www.w3.org/2000/svg" width="29.926" height="35.126" viewBox="0 0 29.926 35.126">
  <g id="_4-4" data-name="4-4" transform="translate(3.459 65.5)">
    <path id="Path_21" data-name="Path 21" d="M26.049,2.5a13.023,13.023,0,0,0-5.729,1.294,13.4,13.4,0,0,0-7.762,12.124v2.218L9.821,23.385a1.5,1.5,0,0,0,1.442,2.4h1.294V30.74a2.808,2.808,0,0,0,2.809,2.809l3.881-.591v3.918a.79.79,0,0,0,.961.739l13.935-2.477a1.222,1.222,0,0,0,.961-1.146V25.787A13.4,13.4,0,0,0,26.049,2.5Zm0,23.176a9.832,9.832,0,1,1,9.832-9.832A9.852,9.852,0,0,1,26.049,25.676ZM29.93,13.959h0l-.037-1.294a3.77,3.77,0,1,0-7.541,0v1.294h-.074a.994.994,0,0,0-1,1v5.471a.994.994,0,0,0,1,1H29.93a.994.994,0,0,0,1-1V14.957A.994.994,0,0,0,29.93,13.959Zm-3.253,3.992a.2.2,0,0,0-.111.185v1.22h0a.425.425,0,0,1-.222.407.465.465,0,0,1-.7-.407h0v-1.22c0-.074,0-.148-.074-.185a.921.921,0,0,1-.3-1.146.944.944,0,0,1,1.035-.554.941.941,0,0,1,.37,1.7Zm1.552-3.992H24.015V12.665a2.106,2.106,0,0,1,2.107-2.107,2.13,2.13,0,0,1,2.107,2.107v1.294Z" transform="translate(-13 -68)" fill="#fff"/>
  </g>
</svg>
