<svg xmlns="http://www.w3.org/2000/svg" width="38.506" height="40.668" viewBox="0 0 38.506 40.668">
  <g id="_4-5" data-name="4-5" transform="translate(-1028.574 597.438)">
    <path id="Path_22" data-name="Path 22" d="M23.84,3.062a.522.522,0,0,0-.13.013L5.479,7.254a.522.522,0,0,0-.406.509V21.676c0,7.343,4.7,12.622,9.332,16.027a38.887,38.887,0,0,0,9.258,5,.522.522,0,0,0,.342,0,39.108,39.108,0,0,0,9.25-5.016,25.984,25.984,0,0,0,6.6-6.865.522.522,0,0,0,.078-.126,16.854,16.854,0,0,0,2.648-9.016V7.764a.522.522,0,0,0-.406-.509L23.943,3.075a.522.522,0,0,0-.1-.013ZM23.827,4.12,41.535,8.18v13.5a15.637,15.637,0,0,1-1.934,7.51,5.84,5.84,0,0,0-1.5-1.875c-1.029-.879-2.925-1.381-4.811-1.956a14.681,14.681,0,0,1-4.331-1.789,3.563,3.563,0,0,1-1.077-1.7,1.705,1.705,0,0,1-.061-.464A13.8,13.8,0,0,0,29.2,19.669a7.389,7.389,0,0,0,1.219-4.1c0-.086.007-.458.012-.819s.015-.652-.006-.875A6.377,6.377,0,0,0,23.856,8.1a6.377,6.377,0,0,0-6.567,5.774c-.03.317-.071,1.4-.071,1.694a7.272,7.272,0,0,0,1.179,4A13.888,13.888,0,0,0,19.831,21.4a1.712,1.712,0,0,1-.061.462,3.566,3.566,0,0,1-1.077,1.7,14.683,14.683,0,0,1-4.331,1.789c-1.885.575-3.782,1.077-4.811,1.956a5.835,5.835,0,0,0-1.5,1.883,15.677,15.677,0,0,1-1.929-7.518V8.18L23.827,4.12Zm.029,5.028a5.266,5.266,0,0,1,5.527,4.827c0-.014.005.408,0,.763s-.012.7-.012.833a6.372,6.372,0,0,1-1.042,3.516,12.737,12.737,0,0,1-1.321,1.657.522.522,0,0,0-.126.136c-.186.188-.379.368-.577.534A4.017,4.017,0,0,1,23.818,22.5,4.022,4.022,0,0,1,21.3,21.38c-.186-.159-.366-.331-.541-.51a.522.522,0,0,0-.121-.129,12.859,12.859,0,0,1-1.371-1.747,6.224,6.224,0,0,1-1.008-3.423c0-.139.057-1.5.066-1.6a5.266,5.266,0,0,1,5.527-4.827Zm3.061,13.114a4.712,4.712,0,0,0,1.318,2.056c.983.949,2.862,1.46,4.752,2.036A17.054,17.054,0,0,1,37.424,28.1a4.655,4.655,0,0,1,1.329,1.717,2.124,2.124,0,0,1,.164.532,24.991,24.991,0,0,1-6.281,6.488,37.052,37.052,0,0,1-8.8,4.8,36.882,36.882,0,0,1-8.808-4.78,24.9,24.9,0,0,1-6.289-6.49,2.009,2.009,0,0,1,.166-.548A4.655,4.655,0,0,1,10.231,28.1a17.047,17.047,0,0,1,4.436-1.751c1.89-.576,3.769-1.087,4.752-2.036a4.713,4.713,0,0,0,1.317-2.054,4.916,4.916,0,0,0,3.082,1.277,4.957,4.957,0,0,0,3.1-1.28Z" transform="translate(1024 -600)" fill="#fff" stroke="#fff" stroke-width="1"/>
  </g>
</svg>
