<svg xmlns="http://www.w3.org/2000/svg" width="38.506" height="40.668"><g data-name="4-5"><path data-name="Path 22" d="M19.266.5a.522.522 0 00-.13.013L.905 4.692a.522.522 0 00-.406.509v13.913c0 7.343 4.7 12.622 9.332 16.027a38.887 38.887 0 009.258 5 .522.522 0 00.342 0 39.108 39.108 0 009.25-5.016 25.984 25.984 0 006.6-6.865.522.522 0 00.078-.126 16.854 16.854 0 002.648-9.016V5.202a.522.522 0 00-.406-.509L19.369.513a.522.522 0 00-.1-.013zm-.013 1.058l17.708 4.06v13.5a15.637 15.637 0 01-1.934 7.51 5.84 5.84 0 00-1.5-1.875c-1.029-.879-2.925-1.381-4.811-1.956a14.681 14.681 0 01-4.331-1.789 3.563 3.563 0 01-1.077-1.7 1.705 1.705 0 01-.061-.464 13.8 13.8 0 001.379-1.737 7.389 7.389 0 001.219-4.1c0-.086.007-.458.012-.819s.015-.652-.006-.875a6.377 6.377 0 00-6.569-5.775 6.377 6.377 0 00-6.567 5.774c-.03.317-.071 1.4-.071 1.694a7.272 7.272 0 001.179 4 13.888 13.888 0 001.434 1.832 1.712 1.712 0 01-.061.462 3.566 3.566 0 01-1.077 1.7 14.683 14.683 0 01-4.331 1.789c-1.885.575-3.782 1.077-4.811 1.956a5.835 5.835 0 00-1.5 1.883 15.677 15.677 0 01-1.929-7.518V5.618l17.705-4.06zm.029 5.028a5.266 5.266 0 015.527 4.827c0-.014.005.408 0 .763s-.012.7-.012.833a6.372 6.372 0 01-1.042 3.516 12.737 12.737 0 01-1.321 1.657.522.522 0 00-.126.136 8.484 8.484 0 01-.577.534 4.017 4.017 0 01-2.487 1.086 4.022 4.022 0 01-2.518-1.12 8.342 8.342 0 01-.541-.51.522.522 0 00-.121-.129 12.859 12.859 0 01-1.371-1.747 6.224 6.224 0 01-1.008-3.423c0-.139.057-1.5.066-1.6a5.266 5.266 0 015.527-4.827zM22.343 19.7a4.712 4.712 0 001.318 2.056c.983.949 2.862 1.46 4.752 2.036a17.054 17.054 0 014.437 1.746 4.655 4.655 0 011.329 1.717 2.124 2.124 0 01.164.532 24.991 24.991 0 01-6.281 6.488 37.052 37.052 0 01-8.8 4.8 36.882 36.882 0 01-8.808-4.78 24.9 24.9 0 01-6.289-6.49 2.009 2.009 0 01.166-.548 4.655 4.655 0 011.326-1.719 17.047 17.047 0 014.436-1.751c1.89-.576 3.769-1.087 4.752-2.036a4.713 4.713 0 001.317-2.054 4.916 4.916 0 003.082 1.277 4.957 4.957 0 003.1-1.28z" fill="#fff" stroke="#fff"/></g></svg>