<svg xmlns="http://www.w3.org/2000/svg" width="38.479" height="43.336" viewBox="0 0 38.479 43.336">
  <g id="_1-1" data-name="1-1" transform="translate(-6.021 -0.5)">
    <path id="Path_39" data-name="Path 39" d="M9.448,5.472A4.972,4.972,0,1,0,14.42.5,4.972,4.972,0,0,0,9.448,5.472ZM14.42,1.813a3.659,3.659,0,1,1-3.659,3.659A3.659,3.659,0,0,1,14.42,1.813ZM6.051,15.066l1.059,7.975a3.733,3.733,0,0,0,2.057,2.937L10.919,42a2.075,2.075,0,0,0,2.062,1.838h2.832a2.07,2.07,0,0,0,2.057-1.843l.836-7.668,1.961-18.357,9.76-.63A2.188,2.188,0,0,0,32.5,13.412h0a2.14,2.14,0,0,0-.49-1.624,2.162,2.162,0,0,0-1.488-.748L19.016,10.3l-1.9-.035a.8.8,0,0,0-.665.311l-2.07,2.582L12.319,10.58a.827.827,0,0,0-.652-.315H10.328a4.307,4.307,0,0,0-4.276,4.815ZM8.1,12.576a3,3,0,0,1,2.232-1h1.112L13.532,14.2a1.1,1.1,0,0,0,1.716,0l2.088-2.626,1.628.031,11.454.735a.84.84,0,0,1,.779.932.9.9,0,0,1-.875.748l-10.137.657a.849.849,0,0,0-.792.757l-2,18.746-.836,7.677a.757.757,0,0,1-.753.674H12.971a.757.757,0,0,1-.753-.674l-1.79-16.409a.657.657,0,0,0-.438-.547A2.438,2.438,0,0,1,8.4,22.875L7.356,14.909A2.994,2.994,0,0,1,8.1,12.576ZM22.587,31.453l4.333.315h.048a1.939,1.939,0,0,0,1.506-.713l1.4,6.653a1.948,1.948,0,0,0,3.8,0l2.447-11.1.994,3.755a1.952,1.952,0,0,0,1.891,1.427h.053l3.939-.3a1.65,1.65,0,0,0,.035-3.283h0l-2.525-.245L37.832,17.854a1.948,1.948,0,0,0-3.782.079L31.836,28.061l-.814-3.795a1.948,1.948,0,0,0-3.7-.35l-1.668,4-3.064.263a1.628,1.628,0,0,0-1.5,1.633,1.646,1.646,0,0,0,1.5,1.641Zm.092-1.961,3.5-.293a.657.657,0,0,0,.551-.4l1.821-4.377a.639.639,0,0,1,.643-.385.63.63,0,0,1,.56.5l1.431,6.78a.657.657,0,0,0,.639.521h0a.657.657,0,0,0,.639-.516l2.871-13.091a.635.635,0,0,1,.613-.5.608.608,0,0,1,.617.473l2.8,10.566a.657.657,0,0,0,.573.486l2.976.289a.337.337,0,0,1,.3.333.341.341,0,0,1-.306.333l-3.926.276a.639.639,0,0,1-.586-.438l-1.7-6.39a.657.657,0,0,0-1.278.026L32.4,37.437a.648.648,0,0,1-.626.486.63.63,0,0,1-.613-.5l-1.808-8.579a.657.657,0,0,0-.582-.5h-.061a.657.657,0,0,0-.6.4l-.551,1.313a.63.63,0,0,1-.565.39l-4.3-.315a.333.333,0,0,1-.3-.324.32.32,0,0,1,.293-.315Z" fill="#fff"/>
  </g>
</svg>
