<svg xmlns="http://www.w3.org/2000/svg" width="47.8" height="42.469" viewBox="0 0 47.8 42.469">
  <g id="_2-2" data-name="2-2" transform="translate(-9.2 -13.7)">
    <path id="Path_129" data-name="Path 129" d="M32.669,31.914A2,2,0,1,1,34.9,29.922a1.172,1.172,0,1,0,2.343,0,4.368,4.368,0,0,0-3.4-4.159V23.772a1.172,1.172,0,1,0-2.343,0v1.992a4.368,4.368,0,0,0-3.4,4.159,4.455,4.455,0,0,0,4.569,4.335,2,2,0,1,1-2.226,1.992,1.172,1.172,0,1,0-2.343,0,4.368,4.368,0,0,0,3.4,4.159V42.4a1.172,1.172,0,0,0,2.343,0V40.408a4.3,4.3,0,0,0-1.172-8.494Z" transform="translate(-7.829 -3.687)" fill="#fff"/>
    <path id="Path_130" data-name="Path 130" d="M57.941,40.9H47.807a1.172,1.172,0,1,0,0,2.343h7.205l-9.9,9.9-8.2-8.26a1.132,1.132,0,0,0-1.64,0L14.651,65.444a1.133,1.133,0,0,0,0,1.64,1.133,1.133,0,0,0,1.64,0L36.033,47.4l8.26,8.2a1.133,1.133,0,0,0,1.64,0L56.769,44.766v7.5a1.172,1.172,0,1,0,2.343,0V42.072A1.175,1.175,0,0,0,57.941,40.9Z" transform="translate(-2.112 -11.267)" fill="#fff"/>
    <path id="Path_131" data-name="Path 131" d="M21.209,44.688,23.2,42.7a13.348,13.348,0,1,1,15-13.3,13.568,13.568,0,0,1-1.23,5.565l1.757,1.757A15.408,15.408,0,0,0,40.539,29.4,15.67,15.67,0,1,0,21.209,44.688Z" fill="#fff"/>
    <path id="Path_132" data-name="Path 132" d="M46.755,55.2a13.519,13.519,0,0,1-6.385,4.159l-2.87,2.87A15.542,15.542,0,0,0,48.4,56.84Z" transform="translate(-11.722 -17.19)" fill="#fff"/>
  </g>
</svg>
