<svg xmlns="http://www.w3.org/2000/svg" width="39.714" height="41.332" viewBox="0 0 39.714 41.332">
  <g id="_4-3" data-name="4-3" transform="translate(-6.75 -4.998)">
    <path id="Path_57" data-name="Path 57" d="M35.2,28.388l-2.755.349L32.2,26.8l2.732-.354Zm.064.491-2.755.354.271,1.943,2.755-.349Zm.317,2.457-2.755.349.248,1.938,2.755-.349Zm5.759-5.708-3.251.418-.726.092-1.9.243.877,6.843,2.627-.335-.629-4.9,3.251-.418Zm.317,2.452-2.755.349.253,1.943,2.755-.354Zm.317,2.452-2.755.349.248,1.943,2.755-.354ZM23.64,24.466a.546.546,0,0,0-.611-.459l-7.486.964a.579.579,0,0,0-.363.211.542.542,0,0,0-.106.4l.459,3.729a.551.551,0,0,0,.542.459h.069l7.486-.969a.533.533,0,0,0,.363-.207.551.551,0,0,0,.11-.4Zm6.8-12.946a.459.459,0,0,0-.6.124l-3.077,4.188a2,2,0,0,0-.234,0,2.875,2.875,0,0,0-2.87,2.87.459.459,0,0,0,.459.459h4.827a.459.459,0,0,0,.459-.459,2.843,2.843,0,0,0-.8-1.979l2.025-4.592a.459.459,0,0,0-.193-.611Zm-9.869.367a.459.459,0,0,0,.611.032,8.588,8.588,0,0,1,4.51-1.869.459.459,0,0,0,.409-.459V5.458A.459.459,0,0,0,25.615,5,13.6,13.6,0,0,0,17.68,8.264a.459.459,0,0,0-.032.666ZM27.53,10.05a8.528,8.528,0,0,1,4.491,1.837.453.453,0,0,0,.611-.037l2.9-2.953a.451.451,0,0,0-.028-.666A13.593,13.593,0,0,0,27.627,5a.459.459,0,0,0-.491.459V9.591A.459.459,0,0,0,27.53,10.05ZM13.34,19.143h4.225a.455.455,0,0,0,.459-.459v-.11A8.482,8.482,0,0,1,19.9,13.219a.459.459,0,0,0-.032-.606l-2.9-2.967a.482.482,0,0,0-.34-.138.459.459,0,0,0-.331.156A13.7,13.7,0,0,0,12.9,18.688.459.459,0,0,0,13.34,19.143ZM45.945,38.922a2.494,2.494,0,0,1-1.662.978l-25.9,3.306.326,2.342a.684.684,0,0,1-.588.781h-.092a.684.684,0,0,1-.68-.592l-.625-4.5a.684.684,0,0,1,.23-.611l5.525-4.817.046-.037a1.935,1.935,0,1,0-2.273-3.132l-7.288,5.3a.68.68,0,0,1-1-.22h0v-.069a.753.753,0,0,1-.06-.2l-.987-7.463-2.783,5.91,1.148,9.644a.694.694,0,0,1-1.378.161L6.754,35.873a.689.689,0,0,1,.06-.372l3.807-8.087-.377-2.925a2.521,2.521,0,0,1,2.172-2.815l22.8-2.925v-.175A8.519,8.519,0,0,0,33.321,13.2a.459.459,0,0,1,.028-.606l2.907-2.967a.487.487,0,0,1,.34-.138.459.459,0,0,1,.331.156,13.676,13.676,0,0,1,3.4,8.445l1.143-.142a2.466,2.466,0,0,1,1.837.505,2.494,2.494,0,0,1,.96,1.667l2.177,16.95h0A2.494,2.494,0,0,1,45.945,38.922Zm-.85-1.676h0L42.919,20.291a1.143,1.143,0,0,0-1.13-1,.762.762,0,0,0-.147,0L12.591,23.033a1.148,1.148,0,0,0-.987,1.281l1.515,11.821,6.337-4.592a3.311,3.311,0,0,1,2.457-.6,3.256,3.256,0,0,1,2.163,1.318,3.311,3.311,0,0,1-.712,4.592l-5.231,4.565.06.432,25.915-3.325a1.153,1.153,0,0,0,.987-1.277Z" transform="translate(0 0)" fill="#fff"/>
  </g>
</svg>
