<svg xmlns="http://www.w3.org/2000/svg" width="134.17" height="44.794"><g fill="#333"><g data-name="Group 10"><path data-name="Path 67" d="M18.365.003s-.3-.006-.406 0a.961.961 0 00-.141.006.391.391 0 00-.34.372 8.7 8.7 0 00-.012.384v4.656a.448.448 0 00.1.253.3.3 0 00.091.07.7.7 0 00.227.065 3.769 3.769 0 00.466.02A16.569 16.569 0 111.8 22.399a.9.9 0 00-1.8 0A18.358 18.358 0 1019.012 4.051V1.816a20.6 20.6 0 01-.646 41.182.9.9 0 000 1.8 22.4 22.4 0 100-44.792"/><path data-name="Path 68" d="M18.402 36.747A14.344 14.344 0 0032.48 25.099a.229.229 0 00-.047-.187.236.236 0 00-.175-.083h-5.534a.228.228 0 00-.216.159 8.507 8.507 0 110-5.15.226.226 0 00.216.158h1.4a.227.227 0 00.227-.227.221.221 0 00-.024-.1 10.308 10.308 0 10-.423 6.709h2.386a12.536 12.536 0 11.372-6.561.225.225 0 00.221.179h1.373a.227.227 0 00.226-.226.233.233 0 00-.017-.086 14.334 14.334 0 10-14.063 17.063"/></g><path data-name="Path 69" d="M61.942 29.657a18.357 18.357 0 01-4.13.428q-8.266 0-8.263-7.764 0-7.195 8.263-7.2a18.438 18.438 0 014.13.426v2.992a17.014 17.014 0 00-3.846-.427q-4.774 0-4.773 4.2 0 4.772 4.773 4.771a17.052 17.052 0 003.846-.428zm1.782-4.231q0-4.6 6.495-4.6a19.182 19.182 0 013.476.284v-.987q0-2.01-3.889-2.009a17.183 17.183 0 00-4.872.712v-2.993a17.254 17.254 0 014.872-.711q7.664 0 7.665 4.929v10.031h-1.91l-1.623-1.056a8.614 8.614 0 01-4.16 1.056q-6.056 0-6.054-4.659m6.495-1.754q-2.72 0-2.72 1.71t2.279 1.709a6.49 6.49 0 003.917-1.166v-1.968a18.155 18.155 0 00-3.476-.285m10.158 6.413V15.123h2.921l.47 1.91a5.919 5.919 0 014.159-1.91v3.048a4.943 4.943 0 00-3.776 1.9v10.016h-3.774zm9.688-.713v-3.133a15.4 15.4 0 005.755 1q2.436 0 2.435-1.567 0-1.427-1.637-1.425h-2.707q-4.559 0-4.559-4.559 0-4.7 6.653-4.7a16.312 16.312 0 015.313.853v3.136a14.433 14.433 0 00-5.414-1q-3.061 0-3.063 1.568 0 1.423 1.781 1.423h2.422q4.988 0 4.987 4.56 0 4.7-6.354 4.7a17.236 17.236 0 01-5.612-.856m27.238-5.3h-9.787q0 3.021 4.931 3.02a24.269 24.269 0 004.529-.428v2.993a24.85 24.85 0 01-5.1.428q-8.134 0-8.136-7.652 0-7.307 7.453-7.308 7.436 0 6.111 8.947m-9.787-2.764h6.239q.2-3.221-2.991-3.218-2.991 0-3.248 3.218m12.622 8.776V15.123h2.92l.47 1.91a9.455 9.455 0 015.47-1.91q5.174 0 5.172 5.57v9.39h-3.775v-9.43a2.185 2.185 0 00-2.464-2.48 6 6 0 00-4.017 1.9v10.016h-3.776z"/></g></svg>