<svg xmlns="http://www.w3.org/2000/svg" width="40.762" height="44.794"><g fill="#333"><path data-name="Path 67" d="M18.365.003s-.3-.006-.406 0a.961.961 0 00-.141.006.391.391 0 00-.34.372 8.7 8.7 0 00-.012.384v4.656a.448.448 0 00.1.253.3.3 0 00.091.07.7.7 0 00.227.065 3.769 3.769 0 00.466.02A16.569 16.569 0 111.8 22.399a.9.9 0 00-1.8 0A18.358 18.358 0 1019.012 4.051V1.816a20.6 20.6 0 01-.646 41.182.9.9 0 000 1.8 22.4 22.4 0 100-44.792"/><path data-name="Path 68" d="M18.402 36.747A14.344 14.344 0 0032.48 25.099a.229.229 0 00-.047-.187.236.236 0 00-.175-.083h-5.534a.228.228 0 00-.216.159 8.507 8.507 0 110-5.15.226.226 0 00.216.158h1.4a.227.227 0 00.227-.227.221.221 0 00-.024-.1 10.308 10.308 0 10-.423 6.709h2.386a12.536 12.536 0 11.372-6.561.225.225 0 00.221.179h1.373a.227.227 0 00.226-.226.233.233 0 00-.017-.086 14.334 14.334 0 10-14.063 17.063"/></g></svg>