<svg xmlns="http://www.w3.org/2000/svg" width="33.127" height="36.728" viewBox="0 0 33.127 36.728">
  <g id="_2-3" data-name="2-3" transform="translate(264.536 39.833)">
    <path id="Path_78" data-name="Path 78" d="M40.688,32.1a8.452,8.452,0,0,0-3.577-14.593V12.214c0-3.448-5.728-6.047-13.324-6.047s-13.324,2.6-13.324,6.047V30.5c0,3.447,5.728,6.047,13.324,6.047a29.035,29.035,0,0,0,5.106-.45L27.956,41.9a.838.838,0,0,0,1.318.813L35.1,38.5l5.806,4.244a.937.937,0,0,0,.931.039.863.863,0,0,0,.392-.845Zm1.227-6.368a6.8,6.8,0,1,1-6.8-6.8A6.8,6.8,0,0,1,41.915,25.732Zm-14.78-2.807a28.7,28.7,0,0,1-3.347.2c-5.48,0-10.245-1.54-11.648-3.567V14.382c1.833,1.94,6.3,3.279,11.648,3.279s9.815-1.339,11.648-3.279v2.894C32,17.277,28.3,19.283,27.135,22.926Zm-15-2.13c2.06,1.889,6.449,3.165,11.648,3.165a29.705,29.705,0,0,0,3.091-.161,8.34,8.34,0,0,0,.408,5.154,28.553,28.553,0,0,1-3.5.215c-5.48,0-10.245-1.54-11.648-3.567V20.8ZM23.788,7.843c6.864,0,11.648,2.3,11.648,4.371v.594c-.556,2.01-5.095,4.016-11.648,4.016S12.694,14.817,12.14,12.807v-.592C12.14,10.146,16.924,7.843,23.788,7.843Zm0,27.024c-6.864,0-11.648-2.3-11.648-4.371V26.841c2.06,1.889,6.449,3.165,11.648,3.165a29.292,29.292,0,0,0,3.876-.256,8.523,8.523,0,0,0,1.876,2.341l-.362,2.242A26.876,26.876,0,0,1,23.788,34.867ZM35.6,36.791a.838.838,0,0,0-.985,0l-4.684,3.383,1.13-7a8.454,8.454,0,0,0,8.1.008l1.1,7.022ZM34.72,21.7l-.874,2.689H31.019a.419.419,0,0,0-.246.758l2.287,1.662L32.187,29.5a.41.41,0,0,0,.152.468.444.444,0,0,0,.493,0l2.287-1.662,2.287,1.662a.419.419,0,0,0,.645-.468l-.874-2.689,2.287-1.662a.419.419,0,0,0-.246-.758H36.391L35.517,21.7a.419.419,0,0,0-.8,0Zm.968,3.238a.419.419,0,0,0,.4.289h1.842l-1.491,1.083a.419.419,0,0,0-.152.468l.569,1.752-1.491-1.083a.419.419,0,0,0-.493,0l-1.49,1.083.569-1.752a.419.419,0,0,0-.152-.468l-1.491-1.083H34.15a.419.419,0,0,0,.4-.289l.569-1.752Zm-19.2-6.387-1.448-.535a.209.209,0,0,0-.282.2v1.412a.21.21,0,0,0,.137.2l1.448.535a.205.205,0,0,0,.072.013.207.207,0,0,0,.12-.038.209.209,0,0,0,.09-.172V18.751A.21.21,0,0,0,16.49,18.555Zm-.282,1.308-1.029-.38v-.965l1.029.38ZM14.9,25.986l1.448.535a.205.205,0,0,0,.072.013.207.207,0,0,0,.12-.038.209.209,0,0,0,.09-.172V24.913a.21.21,0,0,0-.137-.2l-1.448-.535a.209.209,0,0,0-.282.2v1.412A.21.21,0,0,0,14.9,25.986Zm.282-1.308,1.029.38v.965l-1.029-.38Zm1.311,5.781-1.448-.535a.209.209,0,0,0-.282.2v1.412a.21.21,0,0,0,.137.2l1.448.535a.205.205,0,0,0,.072.013.207.207,0,0,0,.12-.038.209.209,0,0,0,.09-.172V30.655A.21.21,0,0,0,16.49,30.459Zm-.282,1.308-1.029-.38v-.965l1.029.38Z" transform="translate(-275 -46)" fill="#fff"/>
  </g>
</svg>
