<svg xmlns="http://www.w3.org/2000/svg" width="40.559" height="39.859" viewBox="0 0 40.559 39.859">
  <g id="_2-5" data-name="2-5" transform="translate(-3.001 -4.001)">
    <path id="Path_58" data-name="Path 58" d="M42.168,20.084a3.5,3.5,0,0,0-3.427,2.8H33.077a7.608,7.608,0,0,0-.322-1.608,7.742,7.742,0,0,0-.846-1.811l3.385-3.5a3.553,3.553,0,1,0-.958-1.028l-3.357,3.406A7.734,7.734,0,0,0,30,17.427a7.581,7.581,0,0,0-3.916-1.538V10.923a3.5,3.5,0,1,0-1.4,0v5.014a7.6,7.6,0,0,0-3.147.993,7.426,7.426,0,0,0-.769.51c-.112.084-.217.182-.322.273L16.5,14.14a3.455,3.455,0,0,0,.49-1.748,3.5,3.5,0,1,0-1.4,2.8l3.881,3.5a7.532,7.532,0,0,0-1.783,4.9v.7a7.692,7.692,0,0,0,1.727,4.2l-3.825,3.5a3.5,3.5,0,1,0,1.4,2.8,3.455,3.455,0,0,0-.462-1.7l3.9-3.594a7.692,7.692,0,0,0,4.252,1.8v5.664a3.5,3.5,0,1,0,1.4,0V31.273A7.6,7.6,0,0,0,30,29.763c.133-.1.245-.2.371-.308l3.916,3.559a3.544,3.544,0,1,0,.937-1.042l-3.874-3.5a7.581,7.581,0,0,0,1.685-4.2h5.706a3.5,3.5,0,1,0,3.427-4.2Zm-16.783,2.8a2.643,2.643,0,0,1,2.8,2.448,2.532,2.532,0,0,1-2.1,2.364v1.483h-1.4V27.693a2.532,2.532,0,0,1-2.1-2.364h1.4c0,.566.643,1.049,1.4,1.049s1.4-.483,1.4-1.049-.643-1.049-1.4-1.049a2.643,2.643,0,0,1-2.8-2.448,2.532,2.532,0,0,1,2.1-2.364V17.987h1.4v1.483a2.532,2.532,0,0,1,2.1,2.364h-1.4c0-.566-.643-1.049-1.4-1.049s-1.4.483-1.4,1.049S24.63,22.882,25.385,22.882Z" transform="translate(-2.105)" fill="#fff"/>
    <path id="Path_59" data-name="Path 59" d="M9.923,29.8a3.5,3.5,0,1,0,0,1.4h5.664V29.8Z" transform="translate(0 -6.915)" fill="#fff"/>
  </g>
</svg>
