<svg xmlns="http://www.w3.org/2000/svg" width="40.559" height="39.859"><g data-name="1-1" fill="#fff"><path data-name="Path 58" d="M37.062 16.083a3.5 3.5 0 00-3.427 2.8h-5.664a7.608 7.608 0 00-.322-1.608 7.742 7.742 0 00-.846-1.811l3.385-3.5a3.553 3.553 0 10-.958-1.028l-3.357 3.406a7.734 7.734 0 00-.979-.916 7.581 7.581 0 00-3.916-1.538V6.922a3.5 3.5 0 10-1.4 0v5.014a7.6 7.6 0 00-3.147.993 7.426 7.426 0 00-.769.51c-.112.084-.217.182-.322.273l-3.946-3.573a3.455 3.455 0 00.49-1.748 3.5 3.5 0 10-1.4 2.8l3.881 3.5a7.532 7.532 0 00-1.783 4.9v.7a7.692 7.692 0 001.727 4.2l-3.825 3.5a3.5 3.5 0 101.4 2.8 3.455 3.455 0 00-.462-1.7l3.9-3.594a7.692 7.692 0 004.252 1.8v5.664a3.5 3.5 0 101.4 0v-5.689a7.6 7.6 0 003.92-1.51c.133-.1.245-.2.371-.308l3.916 3.559a3.544 3.544 0 10.937-1.042l-3.874-3.5a7.581 7.581 0 001.685-4.2h5.706a3.5 3.5 0 103.427-4.2zm-16.783 2.8a2.643 2.643 0 012.8 2.448 2.532 2.532 0 01-2.1 2.364v1.483h-1.4v-1.486a2.532 2.532 0 01-2.1-2.364h1.4c0 .566.643 1.049 1.4 1.049s1.4-.483 1.4-1.049-.643-1.049-1.4-1.049a2.643 2.643 0 01-2.8-2.448 2.532 2.532 0 012.1-2.364v-1.481h1.4v1.483a2.532 2.532 0 012.1 2.364h-1.4c0-.566-.643-1.049-1.4-1.049s-1.4.483-1.4 1.049.645 1.048 1.4 1.048z"/><path data-name="Path 59" d="M6.922 18.884a3.5 3.5 0 100 1.4h5.664v-1.4z"/></g></svg>