<svg xmlns="http://www.w3.org/2000/svg" width="31.35" height="40.592"><g data-name="1-3" fill="#fff"><path data-name="Path 42" d="M12.118 27.363h5.3a.725.725 0 000-1.45h-5.3a.725.725 0 000 1.45z"/><path data-name="Path 43" d="M22.856 29.357H12.118a.725.725 0 000 1.45h10.738a.725.725 0 000-1.45z"/><path data-name="Path 44" d="M9.514 25.913h-1.02a.725.725 0 000 1.45h1.02a.725.725 0 000-1.45z"/><path data-name="Path 45" d="M9.514 29.357h-1.02a.725.725 0 000 1.45h1.02a.725.725 0 000-1.45z"/><path data-name="Path 46" d="M10.249 16.694a2.223 2.223 0 001.991-1.238l1.274.516a2.221 2.221 0 004.382-.513v-.076l1.888-1.592a2.221 2.221 0 10-.823-1.2l-1.637 1.38a2.219 2.219 0 00-3.638.506l-1.274-.516a2.221 2.221 0 10-2.161 2.734zm10.852-5.459a.772.772 0 11-.772.772.772.772 0 01.773-.773zm-5.426 3.453a.771.771 0 11-.772.771.771.771 0 01.772-.772zm-5.426-.987a.772.772 0 11-.771.771.772.772 0 01.771-.771z"/><path data-name="Path 47" d="M23.105 16.037a.725.725 0 00-.725-.725h-2.628a.725.725 0 00-.725.725v7.43a.725.725 0 00.725.725h2.628a.725.725 0 00.725-.725zm-1.359 6.7h-1.268v-5.98h1.268z"/><path data-name="Path 48" d="M17.668 19.481a.725.725 0 00-.725-.725h-2.628a.725.725 0 00-.725.725v3.987a.725.725 0 00.725.725h2.628a.725.725 0 00.725-.725zm-2.628.725h1.268v2.537h-1.267z"/><path data-name="Path 49" d="M12.232 18.484a.725.725 0 00-.725-.725H8.879a.725.725 0 00-.725.725v4.983a.725.725 0 00.725.725h2.628a.725.725 0 00.725-.725zm-1.359 4.258H9.605v-3.533h1.268z"/><path data-name="Path 50" d="M31.35 8.5a.738.738 0 00-.225-.513L23.355.226a.751.751 0 00-.518-.223H.75A.766.766 0 000 .751v39.1a.766.766 0 00.75.747H30.6a.766.766 0 00.75-.748zm-7.792-6l5.3 5.3h-5.3zM1.45 39.142V1.45h20.658v7.061a.733.733 0 00.728.731H29.9v29.9z"/></g></svg>