<svg xmlns="http://www.w3.org/2000/svg" width="47.518" height="37.314" viewBox="0 0 47.518 37.314">
  <g id="_1-5" data-name="1-5" transform="translate(-2.5 -12.7)">
    <path id="Path_121" data-name="Path 121" d="M43.915,12.7a6.127,6.127,0,0,0-6.1,6.1,5.972,5.972,0,0,0,1.751,4.252l-5.8,9.654a5.669,5.669,0,0,0-4.1.3l-4.352-5.352a6.07,6.07,0,1,0-9.353.75L10.2,38.059a5.637,5.637,0,0,0-1.6-.25,6.1,6.1,0,1,0,6.1,6.1,5.933,5.933,0,0,0-1.7-4.2l5.752-9.7a5.669,5.669,0,0,0,4.1-.3l4.352,5.352a6.1,6.1,0,1,0,11.054,3.5,5.972,5.972,0,0,0-1.751-4.252l5.752-9.654a5.711,5.711,0,0,0,1.651.25,6.1,6.1,0,0,0,0-12.2ZM8.6,46.813a2.9,2.9,0,1,1,2.9-2.9A2.9,2.9,0,0,1,8.6,46.813Zm8.853-22.658a2.9,2.9,0,1,1,2.9,2.9A2.9,2.9,0,0,1,17.456,24.154ZM32.161,41.461a2.9,2.9,0,1,1,2.9-2.9A2.9,2.9,0,0,1,32.161,41.461ZM43.915,21.7a2.9,2.9,0,1,1,2.9-2.9A2.9,2.9,0,0,1,43.915,21.7Z" transform="translate(0 0)" fill="#fff"/>
  </g>
</svg>
