<svg xmlns="http://www.w3.org/2000/svg" width="39.267" height="39.253"><g data-name="2-1"><g data-name="Group 7" fill="#fff"><path data-name="Path 40" d="M16.37 2.619a13.738 13.738 0 1013.738 13.738A13.738 13.738 0 0016.37 2.619zm0 1.308a12.417 12.417 0 0110.15 5.279l-1.635 1.635a2.582 2.582 0 00-1.319-.373 2.617 2.617 0 00-2.617 2.617 2.582 2.582 0 00.371 1.321l-4.288 4.284a2.537 2.537 0 00-2.642 0l-2.97-2.971a2.582 2.582 0 00.371-1.321 2.612 2.612 0 00-5.141-.654H4.223A12.447 12.447 0 0116.37 3.927zm5.888 9.159a1.308 1.308 0 111.308 1.308 1.308 1.308 0 01-1.308-1.308zm-6.542 6.542a1.308 1.308 0 11-1.308 1.308 1.308 1.308 0 011.308-1.308zm-6.542-3.925a1.308 1.308 0 111.308-1.308 1.308 1.308 0 01-1.308 1.308zm7.2 13.084A12.421 12.421 0 014.01 15.049h2.64a2.617 2.617 0 002.524 1.963 2.582 2.582 0 001.321-.371l2.975 2.978a2.582 2.582 0 00-.371 1.321 2.617 2.617 0 105.234 0 2.582 2.582 0 00-.371-1.321l4.284-4.284a2.582 2.582 0 001.321.371 2.617 2.617 0 002.617-2.617 2.582 2.582 0 00-.371-1.321l1.426-1.425A12.418 12.418 0 0116.37 28.787z"/><path data-name="Path 41" d="M32.723 1.31a2.617 2.617 0 00-2.617 2.617 2.582 2.582 0 00.371 1.321l-1.148 1.149a16.355 16.355 0 10-4.083 23.686l1.977 1.974.925.925 5.266 5.266a3.43 3.43 0 004.85-4.85l-5.266-5.266-.925-.925-1.977-1.974a16.3 16.3 0 000-17.752l1.308-1.308a2.582 2.582 0 001.32.372 2.617 2.617 0 002.524-1.963h4.018V3.273h-4.018a2.617 2.617 0 00-2.525-1.963zm4.613 33.013a2.121 2.121 0 11-3 3l-5.266-5.266 3-3zm-8-8l1.811 1.811-3 3-1.811-1.811c.092-.071.179-.149.27-.221s.2-.16.294-.241c.143-.12.285-.242.423-.367a7.79 7.79 0 00.209-.2q.4-.377.779-.779c.065-.07.131-.138.2-.209.125-.139.247-.28.367-.423q.123-.145.241-.294c.067-.086.145-.176.215-.268zm-.726-1.228c-.206.288-.419.57-.643.841-.065.079-.135.156-.2.234q-.3.349-.62.678-.139.144-.283.283-.327.32-.678.62c-.078.065-.154.137-.234.2-.271.224-.553.437-.841.643a15.07 15.07 0 113.5-3.5zm4.113-19.86a1.308 1.308 0 111.31-1.308 1.308 1.308 0 01-1.31 1.308z"/></g></g></svg>