<svg xmlns="http://www.w3.org/2000/svg" width="39.267" height="39.253" viewBox="0 0 39.267 39.253">
  <g id="_2-1" data-name="2-1" transform="translate(-1.293 -1.997)">
    <g id="Group_7" data-name="Group 7" transform="translate(1.293 1.997)">
      <path id="Path_40" data-name="Path 40" d="M19.738,6A13.738,13.738,0,1,0,33.476,19.738,13.738,13.738,0,0,0,19.738,6Zm0,1.308a12.417,12.417,0,0,1,10.15,5.279l-1.635,1.635a2.582,2.582,0,0,0-1.319-.373,2.617,2.617,0,0,0-2.617,2.617,2.582,2.582,0,0,0,.371,1.321L20.4,22.071a2.537,2.537,0,0,0-2.642,0L14.788,19.1a2.582,2.582,0,0,0,.371-1.321,2.612,2.612,0,0,0-5.141-.654H7.591A12.447,12.447,0,0,1,19.738,7.308Zm5.888,9.159a1.308,1.308,0,1,1,1.308,1.308A1.308,1.308,0,0,1,25.626,16.467Zm-6.542,6.542a1.308,1.308,0,1,1-1.308,1.308A1.308,1.308,0,0,1,19.084,23.009Zm-6.542-3.925a1.308,1.308,0,1,1,1.308-1.308A1.308,1.308,0,0,1,12.542,19.084Zm7.2,13.084A12.421,12.421,0,0,1,7.378,18.43h2.64a2.617,2.617,0,0,0,2.524,1.963,2.582,2.582,0,0,0,1.321-.371L16.838,23a2.582,2.582,0,0,0-.371,1.321,2.617,2.617,0,1,0,5.234,0A2.582,2.582,0,0,0,21.33,23l4.284-4.284a2.582,2.582,0,0,0,1.321.371,2.617,2.617,0,0,0,2.617-2.617,2.582,2.582,0,0,0-.371-1.321l1.426-1.425A12.418,12.418,0,0,1,19.738,32.168Z" transform="translate(-3.368 -3.381)" fill="#fff"/>
      <path id="Path_41" data-name="Path 41" d="M34.7,3.307a2.617,2.617,0,0,0-2.617,2.617,2.582,2.582,0,0,0,.371,1.321L31.306,8.394A16.355,16.355,0,1,0,27.223,32.08L29.2,34.054l.925.925,5.266,5.266a3.43,3.43,0,0,0,4.85-4.85l-5.266-5.266-.925-.925L32.073,27.23a16.3,16.3,0,0,0,0-17.752l1.308-1.308a2.582,2.582,0,0,0,1.32.372,2.617,2.617,0,0,0,2.524-1.963h4.018V5.27H37.225A2.617,2.617,0,0,0,34.7,3.307ZM39.313,36.32a2.121,2.121,0,1,1-3,3l-5.266-5.266,3-3Zm-8-8,1.811,1.811-3,3-1.811-1.811c.092-.071.179-.149.27-.221s.2-.16.294-.241c.143-.12.285-.242.423-.367.071-.065.139-.131.209-.2q.4-.377.779-.779c.065-.07.131-.138.2-.209.125-.139.247-.28.367-.423q.123-.145.241-.294C31.163,28.5,31.241,28.41,31.311,28.318Zm-.726-1.228c-.206.288-.419.57-.643.841-.065.079-.135.156-.2.234q-.3.349-.62.678-.139.144-.283.283-.327.32-.678.62c-.078.065-.154.137-.234.2-.271.224-.553.437-.841.643a15.07,15.07,0,1,1,3.5-3.5ZM34.7,7.232A1.308,1.308,0,1,1,36.01,5.924,1.308,1.308,0,0,1,34.7,7.232Z" transform="translate(-1.977 -1.997)" fill="#fff"/>
    </g>
  </g>
</svg>
