<svg xmlns="http://www.w3.org/2000/svg" width="33.067" height="29.026"><g data-name="2-3"><g data-name="Group 8" fill="#fff"><path data-name="Path 51" d="M5.836 0a3.46 3.46 0 103.46 3.46A3.461 3.461 0 005.836 0z"/><path data-name="Path 52" d="M28.147 16.682a7.961 7.961 0 10-3.512 3.512l2.841 2.841 3.512-3.512zm-2.118 1.394a7.048 7.048 0 110-9.968 7.076 7.076 0 01.001 9.969z"/><path data-name="Path 53" d="M31.608 20.142l-3.512 3.512.723.723a2.483 2.483 0 003.512-3.512z"/><path data-name="Path 54" d="M16.992 9.034a5.77 5.77 0 108.16 8.16 5.77 5.77 0 00-8.16-8.16zm4.08 3.615a1.742 1.742 0 011.756 1.756 1.781 1.781 0 01-1.291 1.7v.31a.465.465 0 11-.93 0v-.362a1.781 1.781 0 01-1.291-1.7.465.465 0 01.93 0 .826.826 0 10.826-.826 1.742 1.742 0 01-1.756-1.756 1.781 1.781 0 011.291-1.7v-.31a.465.465 0 11.93 0v.31a1.722 1.722 0 011.291 1.7.465.465 0 11-.93 0 .827.827 0 10-1.653 0 .828.828 0 00.827.883z"/><path data-name="Path 55" d="M2.272 28.561a.463.463 0 00.465.465h6.2a.463.463 0 00.465-.465v-6.973h.775a1.554 1.554 0 001.549-1.549v-8.883a2.832 2.832 0 00-2.843-2.841H2.841A2.866 2.866 0 000 11.156v8.935a1.554 1.554 0 001.549 1.549h.775v6.921z"/></g></g></svg>