<svg xmlns="http://www.w3.org/2000/svg" width="44.56" height="44.56"><g data-name="2-4"><g data-name="Group 5" fill="#fff"><path data-name="Path 32" d="M44.56 20.953h-4.428A17.921 17.921 0 0023.608 4.428V0h-2.655v4.428A17.922 17.922 0 004.428 20.953H0v2.655h4.428a17.922 17.922 0 0016.525 16.524v4.428h2.655v-4.428a17.921 17.921 0 0016.524-16.524h4.428zM22.28 37.545A15.265 15.265 0 1137.545 22.28 15.282 15.282 0 0122.28 37.545z"/><path data-name="Path 33" d="M24.939 22.925a7.932 7.932 0 003.292-6.228 5.95 5.95 0 00-11.9 0 7.928 7.928 0 003.291 6.228c-4.664 1.183-8.117 5.23-8.117 8.229 0 3.546 21.551 3.546 21.551 0 .001-2.998-3.455-7.046-8.117-8.229zm-2.66 10.886l-3.012-3.018 2.541-6.143h-.031l-.988-1.131a4.378 4.378 0 001.491.275 4.448 4.448 0 001.491-.273l-.988 1.13h-.024l2.542 6.143z"/></g></g></svg>