<svg xmlns="http://www.w3.org/2000/svg" width="42.163" height="42.133" viewBox="0 0 42.163 42.133">
  <g id="_3-1" data-name="3-1" transform="translate(0.056)">
    <path id="Path_79" data-name="Path 79" d="M17.187,105.98a.658.658,0,1,0,.466-.191A.658.658,0,0,0,17.187,105.98Z" transform="translate(-11.438 -70.967)" fill="#fff"/>
    <path id="Path_80" data-name="Path 80" d="M21.44,101.791a.658.658,0,1,0,.908.021A.658.658,0,0,0,21.44,101.791Z" transform="translate(-14.292 -68.17)" fill="#fff"/>
    <path id="Path_81" data-name="Path 81" d="M25.678,97.517a.658.658,0,1,0,.466-.193A.658.658,0,0,0,25.678,97.517Z" transform="translate(-17.134 -65.288)" fill="#fff"/>
    <path id="Path_82" data-name="Path 82" d="M34.163,89.047a.658.658,0,1,0,.8-.111A.658.658,0,0,0,34.163,89.047Z" transform="translate(-22.828 -59.604)" fill="#fff"/>
    <path id="Path_83" data-name="Path 83" d="M29.918,93.287a.658.658,0,1,0,.466-.193A.658.658,0,0,0,29.918,93.287Z" transform="translate(-19.978 -62.451)" fill="#fff"/>
    <path id="Path_84" data-name="Path 84" d="M4.279,61.88H.658a.658.658,0,1,0,0,1.317H4.279a.658.658,0,1,0,0-1.317Z" transform="translate(-0.038 -41.511)" fill="#fff"/>
    <path id="Path_85" data-name="Path 85" d="M.658,55.207H1.975a.658.658,0,1,0,0-1.317H.658a.658.658,0,1,0,0,1.317Z" transform="translate(-0.038 -36.151)" fill="#fff"/>
    <path id="Path_86" data-name="Path 86" d="M.658,71.177H1.975a.658.658,0,1,0,0-1.317H.658a.658.658,0,1,0,0,1.317Z" transform="translate(-0.038 -46.865)" fill="#fff"/>
    <path id="Path_87" data-name="Path 87" d="M117.279,61.88h-3.621a.658.658,0,0,0,0,1.317h3.621a.658.658,0,0,0,0-1.317Z" transform="translate(-75.842 -41.511)" fill="#fff"/>
    <path id="Path_88" data-name="Path 88" d="M121.975,53.89h-1.317a.658.658,0,0,0,0,1.317h1.317a.658.658,0,0,0,0-1.317Z" transform="translate(-80.538 -36.151)" fill="#fff"/>
    <path id="Path_89" data-name="Path 89" d="M121.975,69.86h-1.317a.658.658,0,0,0,0,1.317h1.317a.658.658,0,0,0,0-1.317Z" transform="translate(-80.538 -46.865)" fill="#fff"/>
    <path id="Path_90" data-name="Path 90" d="M58.9,86.83a.658.658,0,0,0-.658.658v.658H52.317v-.658a.658.658,0,0,0-1.317,0v.885a1.136,1.136,0,0,0,1.175,1.086h6.2a1.136,1.136,0,0,0,1.178-1.09v-.882A.658.658,0,0,0,58.9,86.83Z" transform="translate(-34.25 -58.249)" fill="#fff"/>
    <path id="Path_91" data-name="Path 91" d="M60.267,98.81H55.658a.658.658,0,0,0,0,1.317h4.608a.658.658,0,0,0,0-1.317Z" transform="translate(-36.934 -66.285)" fill="#fff"/>
    <path id="Path_92" data-name="Path 92" d="M60.95,106.79H57.658a.658.658,0,0,0,0,1.317H60.95a.658.658,0,0,0,0-1.317Z" transform="translate(-38.275 -71.639)" fill="#fff"/>
    <path id="Path_93" data-name="Path 93" d="M2.837,6.057a1.224,1.224,0,0,1-.951-.033,1.06,1.06,0,0,1-.589-.6.658.658,0,0,0-1.244.428,2.377,2.377,0,0,0,1.3,1.369,2.633,2.633,0,0,0,.313.112V7.9a.658.658,0,1,0,1.317,0V7.383a2.3,2.3,0,0,0,.372-.118,1.926,1.926,0,0,0,.81-.635.622.622,0,0,0,.053-.086A1.587,1.587,0,0,0,4.4,5.184,2.309,2.309,0,0,0,2.56,3.8c-.438-.125-.816-.23-.961-.471a.481.481,0,0,1,0-.507,1.052,1.052,0,0,1,1.037-.257.987.987,0,0,1,.711.616.659.659,0,0,0,1.267-.359,2.284,2.284,0,0,0-1.636-1.5V.658a.658.658,0,1,0-1.317,0v.658A1.916,1.916,0,0,0,.483,2.1a1.791,1.791,0,0,0,0,1.912,2.677,2.677,0,0,0,1.728,1.05c.586.165.869.27.951.527S2.978,6,2.837,6.057Z" transform="translate(-0.053)" fill="#fff"/>
    <path id="Path_94" data-name="Path 94" d="M116.837,6.057a1.224,1.224,0,0,1-.951-.033,1.06,1.06,0,0,1-.589-.6.658.658,0,0,0-1.244.428,2.2,2.2,0,0,0,.329.619.658.658,0,0,0,.148.234.681.681,0,0,0,.207.138,2.538,2.538,0,0,0,.606.379,2.633,2.633,0,0,0,.313.112V7.9a.658.658,0,1,0,1.317,0V7.383a2.3,2.3,0,0,0,.372-.118,1.7,1.7,0,0,0,1.057-2.08A2.309,2.309,0,0,0,116.557,3.8c-.438-.125-.816-.23-.961-.471a.481.481,0,0,1,0-.507,1.052,1.052,0,0,1,1.037-.257.987.987,0,0,1,.711.616.659.659,0,0,0,1.267-.359,2.284,2.284,0,0,0-1.633-1.5V.658a.658.658,0,1,0-1.317,0v.658a1.916,1.916,0,0,0-1.178.793,1.791,1.791,0,0,0,0,1.912,2.677,2.677,0,0,0,1.728,1.05c.586.165.869.27.951.527S116.978,6,116.837,6.057Z" transform="translate(-76.529)" fill="#fff"/>
    <path id="Path_95" data-name="Path 95" d="M18.188,26.777a.639.639,0,1,0-.464-.2A.658.658,0,0,0,18.188,26.777Z" transform="translate(-11.814 -17.093)" fill="#fff"/>
    <path id="Path_96" data-name="Path 96" d="M26.657,35.217a.658.658,0,1,0-.467-.194A.658.658,0,0,0,26.657,35.217Z" transform="translate(-17.478 -22.741)" fill="#fff"/>
    <path id="Path_97" data-name="Path 97" d="M22.387,30.977a.658.658,0,1,0-.467-.194A.658.658,0,0,0,22.387,30.977Z" transform="translate(-14.614 -19.897)" fill="#fff"/>
    <path id="Path_98" data-name="Path 98" d="M14.368,21.4a.66.66,0,1,0,.137.718.659.659,0,0,0-.137-.718Z" transform="translate(-8.922 -14.224)" fill="#fff"/>
    <path id="Path_99" data-name="Path 99" d="M107.218,26.79a.633.633,0,1,0-.464-.191A.658.658,0,0,0,107.218,26.79Z" transform="translate(-71.538 -17.106)" fill="#fff"/>
    <path id="Path_100" data-name="Path 100" d="M102.934,30.977a.658.658,0,1,0-.464-.194A.658.658,0,0,0,102.934,30.977Z" transform="translate(-68.65 -19.897)" fill="#fff"/>
    <path id="Path_101" data-name="Path 101" d="M98.657,35.217a.658.658,0,1,0-.467-.194A.658.658,0,0,0,98.657,35.217Z" transform="translate(-65.779 -22.741)" fill="#fff"/>
    <path id="Path_102" data-name="Path 102" d="M111.87,21.388a.658.658,0,1,0,.138.713A.658.658,0,0,0,111.87,21.388Z" transform="translate(-74.327 -14.215)" fill="#fff"/>
    <path id="Path_103" data-name="Path 103" d="M115.756,104.5a1.218,1.218,0,0,1,.951.033,1.06,1.06,0,0,1,.589.6.658.658,0,0,0,1.244-.428,2.377,2.377,0,0,0-1.3-1.369,2.688,2.688,0,0,0-.313-.112v-.563a.658.658,0,0,0-1.317,0v.5a2.342,2.342,0,0,0-.372.118,1.7,1.7,0,0,0-1.053,2.08,2.309,2.309,0,0,0,1.843,1.389c.438.125.816.23.961.471a.481.481,0,0,1,0,.507,1.052,1.052,0,0,1-1.037.257.987.987,0,0,1-.711-.616.659.659,0,1,0-1.267.359,2.284,2.284,0,0,0,1.636,1.517v.658a.658.658,0,0,0,1.317,0v-.658a1.919,1.919,0,0,0,1.178-.8,1.791,1.791,0,0,0,0-1.912,2.677,2.677,0,0,0-1.728-1.05c-.586-.165-.869-.27-.951-.527S115.615,104.561,115.756,104.5Z" transform="translate(-76.482 -68.425)" fill="#fff"/>
    <path id="Path_104" data-name="Path 104" d="M1.75,104.5a1.218,1.218,0,0,1,.951.033,1.06,1.06,0,0,1,.589.6.658.658,0,0,0,1.244-.428,2.377,2.377,0,0,0-1.3-1.369,2.689,2.689,0,0,0-.313-.112v-.563a.658.658,0,0,0-1.317,0v.5a2.343,2.343,0,0,0-.372.118,1.7,1.7,0,0,0-1.057,2.08,2.309,2.309,0,0,0,1.843,1.389c.438.125.816.23.961.471a.481.481,0,0,1,0,.507,1.052,1.052,0,0,1-1.037.257.987.987,0,0,1-.711-.616.659.659,0,0,0-1.267.359,2.284,2.284,0,0,0,1.639,1.517v.658a.658.658,0,0,0,1.317,0v-.658a1.919,1.919,0,0,0,1.178-.8,1.791,1.791,0,0,0,0-1.912,2.677,2.677,0,0,0-1.728-1.05c-.586-.165-.869-.27-.951-.527S1.608,104.561,1.75,104.5Z" transform="translate(0 -68.425)" fill="#fff"/>
    <path id="Path_105" data-name="Path 105" d="M95.476,93.237a.658.658,0,1,0,.647-.2A.658.658,0,0,0,95.476,93.237Z" transform="translate(-63.961 -62.401)" fill="#fff"/>
    <path id="Path_106" data-name="Path 106" d="M99.708,97.517a.658.658,0,1,0,.466-.193A.658.658,0,0,0,99.708,97.517Z" transform="translate(-66.796 -65.288)" fill="#fff"/>
    <path id="Path_107" data-name="Path 107" d="M103.948,101.747a.658.658,0,1,0,.466-.193A.658.658,0,0,0,103.948,101.747Z" transform="translate(-69.64 -68.126)" fill="#fff"/>
    <path id="Path_108" data-name="Path 108" d="M91.22,89.036a.658.658,0,1,0,.466-.193A.658.658,0,0,0,91.22,89.036Z" transform="translate(-61.103 -59.599)" fill="#fff"/>
    <path id="Path_109" data-name="Path 109" d="M108.2,105.984a.658.658,0,1,0,.718-.144A.658.658,0,0,0,108.2,105.984Z" transform="translate(-72.494 -70.968)" fill="#fff"/>
    <path id="Path_110" data-name="Path 110" d="M49.184,26.819H48.022A9.743,9.743,0,0,0,47.1,24.6l.823-.82a1.745,1.745,0,0,0,.507-1.248,2.047,2.047,0,0,0-.612-1.432l-.932-.928a1.916,1.916,0,0,0-2.689-.1l-.823.82a9.809,9.809,0,0,0-2.232-.928V18.808A1.906,1.906,0,0,0,39.164,17H37.847a1.906,1.906,0,0,0-1.975,1.824V19.96a9.8,9.8,0,0,0-2.235.922l-.823-.82a1.916,1.916,0,0,0-2.689.105l-.928.925a2.047,2.047,0,0,0-.612,1.435,1.745,1.745,0,0,0,.507,1.248l.823.82a9.737,9.737,0,0,0-.925,2.222H27.827A1.906,1.906,0,0,0,26,28.791v1.317a1.906,1.906,0,0,0,1.83,1.975h1.162a9.733,9.733,0,0,0,.925,2.222l-.823.8a1.741,1.741,0,0,0-.507,1.248,2.054,2.054,0,0,0,.612,1.435l.932.938a1.919,1.919,0,0,0,2.689.1l.724-.721.395.388H43.1l.379-.372.724.724a1.754,1.754,0,0,0,1.248.5,2.051,2.051,0,0,0,1.438-.622l.932-.925a2.047,2.047,0,0,0,.606-1.317,1.745,1.745,0,0,0-.5-1.379l-.823-.82a9.75,9.75,0,0,0,.925-2.222h1.162a1.906,1.906,0,0,0,1.83-1.975V28.768A1.906,1.906,0,0,0,49.184,26.819ZM32.91,30.457a.658.658,0,0,1,0-1.317h1.017a.658.658,0,0,1,0,1.317Zm2.824,3.038-.721.718a.658.658,0,0,1-.932-.928l.718-.718a.658.658,0,0,1,.932.928Zm0-6.461a.658.658,0,0,1-.932,0l-.721-.718a.658.658,0,1,1,.932-.928l.721.718a.658.658,0,0,1,0,.928Zm2.113-2.821a.658.658,0,1,1,1.317,0v1.014a.658.658,0,0,1-1.317,0Zm1.317,11.168a.658.658,0,0,1-1.317,0V34.367a.658.658,0,0,1,1.317,0Zm1.195-4.888a1.975,1.975,0,1,1-.506-2.141,1.975,1.975,0,0,1,.506,2.141Zm.918-4.381L42,25.394a.658.658,0,0,1,.932.928l-.721.718a.658.658,0,1,1-.932-.928Zm1.646,8.111a.658.658,0,0,1-.932,0L41.27,33.5a.658.658,0,1,1,.932-.928l.721.718a.658.658,0,0,1,.007.918ZM44.1,30.457H43.084a.658.658,0,0,1,0-1.317H44.1a.658.658,0,0,1,0,1.317Z" transform="translate(-17.477 -11.401)" fill="#fff"/>
    <path id="Path_111" data-name="Path 111" d="M62.662,53.89a.658.658,0,1,0,.6.382A.658.658,0,0,0,62.662,53.89Z" transform="translate(-41.633 -36.151)" fill="#fff"/>
  </g>
</svg>
