<svg xmlns="http://www.w3.org/2000/svg" width="42.163" height="42.133"><g data-name="3-1" fill="#fff"><path data-name="Path 79" d="M5.805 35.013a.658.658 0 10.466-.191.658.658 0 00-.466.191z"/><path data-name="Path 80" d="M7.204 33.621a.658.658 0 10.908.021.658.658 0 00-.908-.021z"/><path data-name="Path 81" d="M8.6 32.229a.658.658 0 10.466-.193.658.658 0 00-.466.193z"/><path data-name="Path 82" d="M11.391 29.443a.658.658 0 10.8-.111.658.658 0 00-.8.111z"/><path data-name="Path 83" d="M9.996 30.836a.658.658 0 10.466-.193.658.658 0 00-.466.193z"/><path data-name="Path 84" d="M4.297 20.369H.676a.659.659 0 100 1.317h3.621a.659.659 0 100-1.317z"/><path data-name="Path 85" d="M.676 19.056h1.317a.659.659 0 100-1.317H.676a.659.659 0 100 1.317z"/><path data-name="Path 86" d="M.676 24.312h1.317a.659.659 0 100-1.317H.676a.659.659 0 100 1.317z"/><path data-name="Path 87" d="M41.493 20.369h-3.621a.659.659 0 000 1.317h3.621a.659.659 0 000-1.317z"/><path data-name="Path 88" d="M41.493 17.739h-1.317a.659.659 0 000 1.317h1.317a.659.659 0 000-1.317z"/><path data-name="Path 89" d="M41.493 22.995h-1.317a.659.659 0 000 1.317h1.317a.659.659 0 000-1.317z"/><path data-name="Path 90" d="M24.706 28.581a.658.658 0 00-.658.658v.658h-5.925v-.658a.659.659 0 00-1.317 0v.885a1.136 1.136 0 001.175 1.086h6.2a1.136 1.136 0 001.178-1.09v-.882a.658.658 0 00-.653-.657z"/><path data-name="Path 91" d="M23.389 32.525H18.78a.659.659 0 000 1.317h4.608a.659.659 0 000-1.317z"/><path data-name="Path 92" d="M22.731 35.151h-3.292a.659.659 0 000 1.317h3.292a.659.659 0 000-1.317z"/><path data-name="Path 93" d="M2.84 6.057a1.224 1.224 0 01-.951-.033 1.06 1.06 0 01-.589-.6.658.658 0 00-1.244.428 2.377 2.377 0 001.3 1.369 2.633 2.633 0 00.313.112V7.9a.659.659 0 101.317 0v-.517a2.3 2.3 0 00.372-.118 1.926 1.926 0 00.81-.635.622.622 0 00.053-.086 1.587 1.587 0 00.182-1.36A2.309 2.309 0 002.563 3.8c-.438-.125-.816-.23-.961-.471a.481.481 0 010-.507 1.052 1.052 0 011.037-.257.987.987 0 01.711.616.659.659 0 001.267-.359 2.284 2.284 0 00-1.636-1.5V.658a.659.659 0 10-1.317 0v.658A1.916 1.916 0 00.486 2.1a1.791 1.791 0 000 1.912 2.677 2.677 0 001.728 1.05c.586.165.869.27.951.527s-.184.411-.325.468z"/><path data-name="Path 94" d="M40.364 6.057a1.224 1.224 0 01-.951-.033 1.06 1.06 0 01-.589-.6.658.658 0 00-1.244.428 2.2 2.2 0 00.329.619.658.658 0 00.148.234.681.681 0 00.207.138 2.538 2.538 0 00.606.379 2.633 2.633 0 00.313.112V7.9a.659.659 0 101.317 0v-.517a2.3 2.3 0 00.372-.118 1.7 1.7 0 001.057-2.08A2.309 2.309 0 0040.084 3.8c-.438-.125-.816-.23-.961-.471a.481.481 0 010-.507 1.052 1.052 0 011.037-.257.987.987 0 01.711.616.659.659 0 001.267-.359 2.284 2.284 0 00-1.633-1.5V.658a.659.659 0 10-1.317 0v.658a1.916 1.916 0 00-1.178.793 1.791 1.791 0 000 1.912 2.677 2.677 0 001.728 1.05c.586.165.869.27.951.527s-.184.402-.325.459z"/><path data-name="Path 95" d="M6.43 9.684a.639.639 0 10-.464-.2.658.658 0 00.464.2z"/><path data-name="Path 96" d="M9.235 12.476a.658.658 0 10-.467-.194.658.658 0 00.467.194z"/><path data-name="Path 97" d="M7.829 11.08a.658.658 0 10-.467-.194.658.658 0 00.467.194z"/><path data-name="Path 98" d="M5.502 7.176a.66.66 0 10.137.718.659.659 0 00-.137-.718z"/><path data-name="Path 99" d="M35.736 9.684a.633.633 0 10-.464-.191.658.658 0 00.464.191z"/><path data-name="Path 100" d="M34.34 11.08a.658.658 0 10-.464-.194.658.658 0 00.464.194z"/><path data-name="Path 101" d="M32.934 12.476a.658.658 0 10-.467-.194.658.658 0 00.467.194z"/><path data-name="Path 102" d="M37.599 7.173a.658.658 0 10.138.713.658.658 0 00-.138-.713z"/><path data-name="Path 103" d="M39.33 36.075a1.218 1.218 0 01.951.033 1.06 1.06 0 01.589.6.658.658 0 001.244-.428 2.377 2.377 0 00-1.3-1.369 2.688 2.688 0 00-.313-.112v-.563a.659.659 0 00-1.317 0v.5a2.342 2.342 0 00-.372.118 1.7 1.7 0 00-1.053 2.08 2.309 2.309 0 001.843 1.389c.438.125.816.23.961.471a.481.481 0 010 .507 1.052 1.052 0 01-1.037.257.987.987 0 01-.711-.616.659.659 0 10-1.267.359 2.284 2.284 0 001.636 1.517v.658a.659.659 0 001.317 0v-.658a1.919 1.919 0 001.178-.8 1.791 1.791 0 000-1.912 2.677 2.677 0 00-1.728-1.05c-.586-.165-.869-.27-.951-.527s.189-.393.33-.454z"/><path data-name="Path 104" d="M1.806 36.075a1.218 1.218 0 01.951.033 1.06 1.06 0 01.589.6.658.658 0 001.244-.428 2.377 2.377 0 00-1.3-1.369 2.689 2.689 0 00-.313-.112v-.563a.659.659 0 00-1.317 0v.5a2.343 2.343 0 00-.372.118 1.7 1.7 0 00-1.057 2.08 2.309 2.309 0 001.843 1.389c.438.125.816.23.961.471a.481.481 0 010 .507 1.052 1.052 0 01-1.037.257.987.987 0 01-.711-.616.659.659 0 00-1.267.359 2.284 2.284 0 001.639 1.517v.658a.659.659 0 001.317 0v-.658a1.919 1.919 0 001.178-.8 1.791 1.791 0 000-1.912 2.677 2.677 0 00-1.728-1.05c-.586-.165-.869-.27-.951-.527s.189-.393.331-.454z"/><path data-name="Path 105" d="M31.571 30.836a.658.658 0 10.647-.2.658.658 0 00-.647.2z"/><path data-name="Path 106" d="M32.968 32.229a.658.658 0 10.466-.193.658.658 0 00-.466.193z"/><path data-name="Path 107" d="M34.364 33.621a.658.658 0 10.466-.193.658.658 0 00-.466.193z"/><path data-name="Path 108" d="M30.173 29.437a.658.658 0 10.466-.193.658.658 0 00-.466.193z"/><path data-name="Path 109" d="M35.762 35.016a.658.658 0 10.718-.144.658.658 0 00-.718.144z"/><path data-name="Path 110" d="M31.763 15.418h-1.162a9.743 9.743 0 00-.922-2.219l.823-.82a1.745 1.745 0 00.507-1.248 2.047 2.047 0 00-.612-1.432l-.932-.928a1.916 1.916 0 00-2.689-.1l-.823.82a9.809 9.809 0 00-2.232-.928V7.407a1.906 1.906 0 00-1.978-1.808h-1.317a1.906 1.906 0 00-1.975 1.824v1.136a9.8 9.8 0 00-2.235.922l-.823-.82a1.916 1.916 0 00-2.689.105l-.928.925a2.047 2.047 0 00-.612 1.435 1.745 1.745 0 00.507 1.248l.823.82a9.737 9.737 0 00-.925 2.222h-1.163a1.906 1.906 0 00-1.827 1.974v1.317a1.906 1.906 0 001.83 1.975h1.162a9.733 9.733 0 00.925 2.222l-.823.8a1.741 1.741 0 00-.507 1.248 2.054 2.054 0 00.612 1.435l.932.938a1.919 1.919 0 002.689.1l.724-.721.395.388h9.161l.379-.372.724.724a1.754 1.754 0 001.248.5 2.051 2.051 0 001.438-.622l.932-.925a2.047 2.047 0 00.606-1.317 1.745 1.745 0 00-.5-1.379l-.823-.82a9.75 9.75 0 00.925-2.222h1.162a1.906 1.906 0 001.83-1.975v-1.317a1.906 1.906 0 00-1.837-1.949zm-16.274 3.638a.659.659 0 010-1.317h1.017a.659.659 0 010 1.317zm2.824 3.038l-.721.718a.658.658 0 01-.932-.928l.718-.718a.658.658 0 01.932.928zm0-6.461a.658.658 0 01-.932 0l-.721-.718a.658.658 0 11.932-.928l.721.718a.658.658 0 010 .928zm2.113-2.821a.659.659 0 111.317 0v1.014a.659.659 0 01-1.317 0zm1.317 11.168a.659.659 0 01-1.317 0v-1.014a.659.659 0 011.317 0zm1.195-4.888a1.975 1.975 0 11-.506-2.141 1.975 1.975 0 01.506 2.141zm.918-4.381l.723-.718a.658.658 0 01.932.928l-.721.718a.658.658 0 11-.932-.928zm1.646 8.111a.658.658 0 01-.932 0l-.721-.723a.658.658 0 11.932-.928l.721.718a.658.658 0 01.007.918zm1.177-3.766h-1.016a.659.659 0 010-1.317h1.016a.659.659 0 010 1.317z"/><path data-name="Path 111" d="M21.085 17.739a.658.658 0 10.6.382.658.658 0 00-.6-.382z"/></g></svg>