<svg id="_3-3" data-name="3-3" xmlns="http://www.w3.org/2000/svg" width="30" height="50.666" viewBox="0 0 30 50.666">
  <g id="Group_27" data-name="Group 27">
    <path id="Path_139" data-name="Path 139" d="M28.479,12.518a17.336,17.336,0,0,1-5.294-6.341A5.6,5.6,0,0,0,20.74,3.252a1.97,1.97,0,0,0-.631-2l-.016-.016-.016-.016-.016-.016-.012-.016v0l-.016-.016-.016-.02,0,0L20,1.135l-.016-.016-.016-.02-.016-.016-.016-.02-.016-.016-.016-.016,0,0-.016-.016-.016-.02L19.853.975h0l-.016-.02L19.817.939,19.8.919l0,0L19.781.9l-.02-.016-.02-.02,0-.008L19.725.843l-.02-.016-.02-.02L19.678.8,19.67.787l-.02-.02L19.63.751,19.614.735l0,0-.02-.02-.02-.02-.02-.02h0l-.02-.02-.02-.02-.024-.02h0l-.016-.02-.02-.02-.024-.02-.008,0L19.4.531l-.02-.02-.024-.02L19.346.479,19.338.471,19.29.432,19.274.416l0,0-.024-.02L19.222.368,19.2.348h0l-.02-.02-.024-.02L19.13.284l0,0-.02-.016-.024-.02L19.058.22,19.046.212,19.03.2,19.006.176l-.024-.02L18.966.144,18.958.132,18.93.112,18.906.088l-.02-.016-.008,0L18.854.044l-.028-.02L18.8,0V.056l0,.02V.112h0V.148l0,.016V.236l0,.016v.1l0,.024h0V.507h0V.579h0l0,.02V.631l0,.048V.7l0,.016,0,.028,0,.016h0V.771l0,.016V.8l0,0,0,.016h0l0,.028,0,.012h0l0,.016h0l0,.012a.2.2,0,0,0-.016.044v0l0,.008,0,.008,0,.008,0,.012h0l-.008.012a.3.3,0,0,1-.036.072l0,.012h0l-.008.016-.016.028-.008.016h0l-.012.012a3.886,3.886,0,0,1-.332.42A13.752,13.752,0,0,0,7.088,3.72c-8.606,6.345-7.6,26.506-4.3,34.133a4.4,4.4,0,0,1,.611-.044H8.8a24,24,0,0,0,.22-3.3h-1.3V31.488A3.018,3.018,0,0,1,8.1,30a6.057,6.057,0,0,1,1.838-5.066,3.328,3.328,0,0,1-.12-.891,3.464,3.464,0,1,1,6.812.891A6.067,6.067,0,0,1,18.467,30a3.018,3.018,0,0,1,.388,1.486v3.025h-1.3a24,24,0,0,0,.22,3.3h4.343a4.288,4.288,0,0,1,1.362.22c.531-1.37.887-3.68-.02-7.3-1.706-6.8-8.9-12.526-8.8-16.038.028-1.075,2.213-.951,2.245-.18.056,1.486.927,2.829,4.127,1.966,4.575-1.235,4.958,6.469,8.3.04C30.114,15.011,30.605,13.94,28.479,12.518ZM7.192,48.784h.076a8.453,8.453,0,0,1,1.586-5.278h-.38a.437.437,0,0,1-.436-.436h0a.437.437,0,0,1,.436-.436h.951C11.507,39.7,11.279,35.9,11.343,32.2H10.025v-.715a.72.72,0,0,1,.715-.719h-.2c-.615-2.753.615-4.307,2.082-4.663V24.987a1.153,1.153,0,1,1,1.33,0v1.119c1.466.356,2.693,1.91,2.078,4.663h-.2a.718.718,0,0,1,.715.719V32.2H15.227c.064,3.7-.164,7.5,1.918,10.432H18.1a.436.436,0,0,1,.432.436h0a.436.436,0,0,1-.432.436h-.384A8.453,8.453,0,0,1,19.3,48.784h.076a.9.9,0,0,1,.839.939h0a.9.9,0,0,1-.839.943H7.192a.9.9,0,0,1-.839-.943h0A.9.9,0,0,1,7.192,48.784ZM3.4,39.711H8.342c-.076.22-.16.436-.256.643a2.747,2.747,0,0,0-2.357,2.717,2.691,2.691,0,0,0,.164.935c-.1.224-.188.447-.268.675H3.4A2.493,2.493,0,0,1,.919,42.2h0A2.493,2.493,0,0,1,3.4,39.711Zm14.823,0h3.888A2.493,2.493,0,0,1,24.6,42.2h0a2.493,2.493,0,0,1-2.485,2.485H20.944c-.08-.228-.168-.455-.268-.675a2.691,2.691,0,0,0,.164-.935,2.747,2.747,0,0,0-2.357-2.717C18.391,40.146,18.3,39.93,18.227,39.711Zm7.292,10.955-1.586-4.483a4.335,4.335,0,0,1-1.818.4h-.679c.044.26.076.519.1.779a3.312,3.312,0,0,1,.987,2.361,3.2,3.2,0,0,1-.136.943ZM5.134,46.583H3.4a4.335,4.335,0,0,1-1.818-.4L0,50.666H4.179a3.324,3.324,0,0,1,.851-3.3C5.058,47.1,5.094,46.843,5.134,46.583Z" fill="#fff" fill-rule="evenodd"/>
  </g>
</svg>
