<svg xmlns="http://www.w3.org/2000/svg" width="45" height="45"><g data-name="3-4" fill="#fff"><path data-name="Path 27" d="M0 11.186a.562.562 0 00.165.4l2.75 2.75a.562.562 0 00.8 0L7.249 10.8l3.539 3.539a.562.562 0 00.8 0l2.75-2.75a.562.562 0 000-.8L10.8 7.249l3.539-3.539a.562.562 0 000-.8L11.589.16a.562.562 0 00-.8 0L7.249 3.7 3.71.161a.579.579 0 00-.8 0L.16 2.911a.562.562 0 000 .8L3.7 7.249.161 10.788a.562.562 0 00-.161.398zm4.9-3.539a.562.562 0 000-.8L1.361 3.308l1.955-1.955L6.852 4.9a.562.562 0 00.8 0l3.539-3.539 1.954 1.955L9.6 6.852a.562.562 0 000 .8l3.539 3.539-1.954 1.954L7.647 9.6a.562.562 0 00-.8 0l-3.539 3.539-1.955-1.954z"/><path data-name="Path 28" d="M44.844 33.657a.562.562 0 00-.165-.4l-2.75-2.75a.562.562 0 00-.8 0l-3.539 3.539-3.535-3.537a.562.562 0 00-.8 0l-2.75 2.75a.562.562 0 000 .8l3.539 3.539-3.535 3.535a.562.562 0 000 .8l2.75 2.75a.562.562 0 00.8 0l3.539-3.539 3.539 3.539a.562.562 0 00.8 0l2.75-2.75a.562.562 0 000-.8l-3.548-3.539 3.539-3.539a.562.562 0 00.166-.398zm-4.9 3.539a.562.562 0 000 .8l3.539 3.539-1.955 1.955-3.539-3.539a.562.562 0 00-.8 0L33.65 43.49l-1.951-1.959 3.539-3.539a.562.562 0 000-.8l-3.539-3.535 1.958-1.958 3.542 3.542a.562.562 0 00.8 0l3.532-3.542 1.955 1.955z"/><path data-name="Path 29" d="M38.419 0a6.589 6.589 0 00-6.58 6.582c0 4.922 5.923 11.193 6.175 11.457a.562.562 0 00.407.175h.005a.563.563 0 00.409-.182c.252-.275 6.167-6.783 6.167-11.449A6.589 6.589 0 0038.419 0zm-.007 16.807c-1.338-1.511-5.45-6.461-5.45-10.225a5.457 5.457 0 1110.914 0c-.001 3.566-4.137 8.672-5.465 10.225z"/><path data-name="Path 30" d="M38.418 3.563a3.125 3.125 0 103.125 3.125 3.128 3.128 0 00-3.125-3.125zm0 5.125a2 2 0 112-2 2 2 0 01-2 2z"/><path data-name="Path 31" d="M30.344 20.498a.563.563 0 001.125 0v-6.4a.562.562 0 00-.562-.562H24.5a.563.563 0 100 1.125h5.047L.165 44.04a.566.566 0 10.8.8l29.379-29.389z"/></g></svg>