<svg xmlns="http://www.w3.org/2000/svg" width="45" height="45" viewBox="0 0 45 45">
  <g id="_3-4" data-name="3-4" transform="translate(-10 -10)">
    <path id="Path_27" data-name="Path 27" d="M10,21.186a.562.562,0,0,0,.165.4l2.75,2.75a.562.562,0,0,0,.8,0L17.249,20.8l3.539,3.539a.562.562,0,0,0,.8,0l2.75-2.75a.562.562,0,0,0,0-.8L20.8,17.249l3.539-3.539a.562.562,0,0,0,0-.8l-2.75-2.75a.562.562,0,0,0-.8,0L17.249,13.7l-3.539-3.539a.579.579,0,0,0-.8,0l-2.75,2.75a.562.562,0,0,0,0,.8L13.7,17.249l-3.539,3.539A.562.562,0,0,0,10,21.186Zm4.9-3.539a.562.562,0,0,0,0-.8l-3.539-3.539,1.955-1.955L16.852,14.9a.562.562,0,0,0,.8,0l3.539-3.539,1.954,1.955L19.6,16.852a.562.562,0,0,0,0,.8l3.539,3.539-1.954,1.954L17.647,19.6a.562.562,0,0,0-.8,0l-3.539,3.539-1.955-1.954Z" fill="#fff"/>
    <path id="Path_28" data-name="Path 28" d="M78.445,67.258a.562.562,0,0,0-.165-.4l-2.75-2.75a.562.562,0,0,0-.8,0l-3.539,3.539L67.656,64.11a.562.562,0,0,0-.8,0l-2.75,2.75a.562.562,0,0,0,0,.8l3.539,3.539L64.11,74.734a.562.562,0,0,0,0,.8l2.75,2.75a.562.562,0,0,0,.8,0l3.539-3.539,3.539,3.539a.562.562,0,0,0,.8,0l2.75-2.75a.562.562,0,0,0,0-.8L74.74,71.195l3.539-3.539A.562.562,0,0,0,78.445,67.258Zm-4.9,3.539a.562.562,0,0,0,0,.8l3.539,3.539-1.955,1.955-3.539-3.539a.562.562,0,0,0-.8,0l-3.539,3.539L65.3,75.132l3.539-3.539a.562.562,0,0,0,0-.8L65.3,67.258,67.258,65.3,70.8,68.842a.562.562,0,0,0,.8,0L75.132,65.3l1.955,1.955Z" transform="translate(-23.601 -23.601)" fill="#fff"/>
    <path id="Path_29" data-name="Path 29" d="M73.18,10A6.589,6.589,0,0,0,66.6,16.582c0,4.922,5.923,11.193,6.175,11.457a.562.562,0,0,0,.407.175h.005a.563.563,0,0,0,.409-.182c.252-.275,6.167-6.783,6.167-11.449A6.589,6.589,0,0,0,73.18,10Zm-.007,16.807c-1.338-1.511-5.45-6.461-5.45-10.225a5.457,5.457,0,1,1,10.914,0C78.636,20.148,74.5,25.254,73.172,26.807Z" transform="translate(-24.761)" fill="#fff"/>
    <path id="Path_30" data-name="Path 30" d="M75.869,16.335a3.125,3.125,0,1,0,3.125,3.125A3.128,3.128,0,0,0,75.869,16.335Zm0,5.125a2,2,0,1,1,2-2A2,2,0,0,1,75.869,21.46Z" transform="translate(-27.451 -2.772)" fill="#fff"/>
    <path id="Path_31" data-name="Path 31" d="M40.344,41.022a.563.563,0,0,0,1.125,0v-6.4a.562.562,0,0,0-.562-.562H34.5a.563.563,0,1,0,0,1.125h5.047L10.165,64.564a.562.562,0,1,0,.8.8L40.344,35.975Z" transform="translate(0 -10.524)" fill="#fff"/>
  </g>
</svg>
