<svg xmlns="http://www.w3.org/2000/svg" width="33.621" height="21.712" viewBox="0 0 33.621 21.712">
  <g id="_4-2" data-name="4-2" transform="translate(-3.745 -20.13)">
    <g id="Group_1" data-name="Group 1" transform="translate(3.745 20.13)">
      <path id="Path_5" data-name="Path 5" d="M37.339,30.87a19.506,19.506,0,0,0-3.892-5.292,19.092,19.092,0,0,0-5.2-3.678A18.324,18.324,0,0,0,21,20.148a.253.253,0,0,0-.091-.018H20.2a.253.253,0,0,0-.091.018,18.336,18.336,0,0,0-7.24,1.752,19.089,19.089,0,0,0-5.2,3.678A19.506,19.506,0,0,0,3.772,30.87a.262.262,0,0,0,0,.233,19.506,19.506,0,0,0,3.892,5.292,19.089,19.089,0,0,0,5.2,3.678,18.336,18.336,0,0,0,7.24,1.752.261.261,0,0,0,.091.018h.712A.261.261,0,0,0,21,41.824a18.336,18.336,0,0,0,7.24-1.752,19.087,19.087,0,0,0,5.2-3.678A19.506,19.506,0,0,0,37.339,31.1.261.261,0,0,0,37.339,30.87ZM33.051,35.99a17.977,17.977,0,0,1-12.495,5.281,18,18,0,0,1-12.48-5.262,19.988,19.988,0,0,1-3.732-5.023,19.924,19.924,0,0,1,3.732-5.019A17.973,17.973,0,0,1,20.556,20.7a17.988,17.988,0,0,1,12.48,5.266,19.923,19.923,0,0,1,3.732,5.019A19.841,19.841,0,0,1,33.051,35.99Z" transform="translate(-3.745 -20.13)" fill="#fff"/>
      <path id="Path_6" data-name="Path 6" d="M36.747,29.18a7.567,7.567,0,1,0,7.567,7.567A7.575,7.575,0,0,0,36.747,29.18Zm-.283,13.171V40.617H34.951a.282.282,0,1,1,0-.564h1.8a1.512,1.512,0,1,0,0-3.023,2.078,2.078,0,0,1-.283-4.136V31.143a.283.283,0,0,1,.567,0v1.734h1.512a.282.282,0,0,1,0,.563h-1.8a1.512,1.512,0,0,0,0,3.024A2.078,2.078,0,0,1,37.03,40.6v1.752a.283.283,0,0,1-.567,0Z" transform="translate(-19.936 -25.891)" fill="#fff"/>
    </g>
  </g>
</svg>
