<svg xmlns="http://www.w3.org/2000/svg" width="33.077" height="33" viewBox="0 0 33.077 33">
  <g id="_4-4" data-name="4-4" transform="translate(-0.962 -1.075)">
    <g id="Group_21" data-name="Group 21" transform="translate(0.963 1.075)">
      <g id="Group_10" data-name="Group 10" transform="translate(12.483 13.728)">
        <g id="Group_9" data-name="Group 9">
          <path id="Path_60" data-name="Path 60" d="M29.955,36.509a4,4,0,1,0-4.055-4A4.06,4.06,0,0,0,29.955,36.509Zm0-6.958a3.056,3.056,0,0,1,3.053,3,3.023,3.023,0,0,1-3.053,3,3,3,0,1,1,0-6.007Z" transform="translate(-25.9 -28.5)" fill="#fff"/>
        </g>
      </g>
      <g id="Group_12" data-name="Group 12" transform="translate(11.563)">
        <g id="Group_11" data-name="Group 11">
          <path id="Path_61" data-name="Path 61" d="M26.234,7.245l-.5,2.853a.476.476,0,0,0,.2.5.537.537,0,0,0,.551.05l2.6-1.352,2.6,1.352a.556.556,0,0,0,.551-.05.476.476,0,0,0,.2-.5l-.5-2.853,2.1-2.052a.508.508,0,0,0,.15-.5.485.485,0,0,0-.4-.35l-2.9-.4-1.3-2.6a.518.518,0,0,0-.9,0l-1.3,2.6-2.9.4a.485.485,0,0,0-.4.35.453.453,0,0,0,.15.5Zm1.452-2.353c.15,0,.3-.15.4-.25l.951-2,.951,1.952a.4.4,0,0,0,.4.25l2.152.35-1.552,1.5a.7.7,0,0,0-.15.451l.35,2.152-1.9-1a.375.375,0,0,0-.25-.05.451.451,0,0,0-.25.05l-1.9,1,.35-2.152a.5.5,0,0,0-.15-.451l-1.552-1.5Z" transform="translate(-24.063 -1.075)" fill="#fff"/>
        </g>
      </g>
      <g id="Group_14" data-name="Group 14" transform="translate(0 2.716)">
        <g id="Group_13" data-name="Group 13">
          <path id="Path_62" data-name="Path 62" d="M9.141,16.111a.476.476,0,0,0,.2-.5l-.5-2.853,2.1-2.052a.508.508,0,0,0,.15-.5.485.485,0,0,0-.4-.35l-2.9-.4L6.488,6.8a.575.575,0,0,0-.451-.3.481.481,0,0,0-.451.3l-1.3,2.6-2.9.4a.485.485,0,0,0-.4.35.453.453,0,0,0,.15.5l2.1,2.1-.5,2.853a.476.476,0,0,0,.2.5.537.537,0,0,0,.551.05l2.6-1.352,2.6,1.352C8.79,16.261,8.99,16.211,9.141,16.111ZM6.287,13.758a.375.375,0,0,0-.451,0l-1.9,1,.35-2.152a.5.5,0,0,0-.15-.451l-1.552-1.5,2.152-.3c.15,0,.3-.15.4-.25l.951-1.952L7.038,10.1a.4.4,0,0,0,.4.25l2.152.3-1.552,1.5a.7.7,0,0,0-.15.451l.35,2.152Z" transform="translate(-0.963 -6.5)" fill="#fff"/>
        </g>
      </g>
      <g id="Group_16" data-name="Group 16" transform="translate(22.926 2.803)">
        <g id="Group_15" data-name="Group 15">
          <path id="Path_63" data-name="Path 63" d="M56.893,10.292a.485.485,0,0,0-.4-.35l-2.9-.4-1.3-2.6a.518.518,0,0,0-.9,0l-1.3,2.6-2.9.4a.485.485,0,0,0-.4.35.453.453,0,0,0,.15.5l2.1,2.052-.5,2.853a.476.476,0,0,0,.2.5.537.537,0,0,0,.551.05l2.6-1.352,2.6,1.352a.556.556,0,0,0,.551-.05.476.476,0,0,0,.2-.5l-.5-2.853,2.1-2.052A.865.865,0,0,0,56.893,10.292Zm-3.154,2a.7.7,0,0,0-.15.451l.35,2.152-1.9-1a.375.375,0,0,0-.25-.05.451.451,0,0,0-.25.05l-1.9,1,.35-2.152a.5.5,0,0,0-.15-.451l-1.552-1.5,2.152-.3c.15,0,.3-.15.4-.25l.951-1.952.951,1.952a.4.4,0,0,0,.4.25l2.152.3Z" transform="translate(-46.763 -6.675)" fill="#fff"/>
        </g>
      </g>
      <g id="Group_18" data-name="Group 18" transform="translate(7.427 10.374)">
        <g id="Group_17" data-name="Group 17">
          <path id="Path_64" data-name="Path 64" d="M34.321,32.662h-.451a9.925,9.925,0,0,0,.15-1.752,9.11,9.11,0,1,0-9.11,9.11,8.946,8.946,0,0,0,3.6-.751,5.856,5.856,0,1,0,5.807-6.608ZM24.91,22.851A8.107,8.107,0,0,1,33.02,30.96a7.923,7.923,0,0,1-.25,1.9,5.939,5.939,0,0,0-2.853,1.8,5.107,5.107,0,0,0-3.354-1.2h-3.3a5.2,5.2,0,0,0-4.555,2.7A8.1,8.1,0,0,1,24.91,22.851ZM19.454,36.917a4.176,4.176,0,0,1,3.8-2.453h3.3a4.138,4.138,0,0,1,2.753,1,5.745,5.745,0,0,0-.851,2.753A8.017,8.017,0,0,1,19.454,36.917Zm14.867,6.507a4.856,4.856,0,1,1,4.856-4.856A4.86,4.86,0,0,1,34.321,43.425Z" transform="translate(-15.8 -21.8)" fill="#fff"/>
        </g>
      </g>
      <g id="Group_20" data-name="Group 20" transform="translate(22.817 24.838)">
        <g id="Group_19" data-name="Group 19">
          <path id="Path_65" data-name="Path 65" d="M52.479,50.8,48.825,54l-1.4-1.652a.5.5,0,1,0-.751.651l1.7,2.052a.807.807,0,0,0,.35.2.723.723,0,0,0,.35-.1L53.13,51.6a.487.487,0,0,0,.05-.7A.5.5,0,0,0,52.479,50.8Z" transform="translate(-46.545 -50.695)" fill="#fff"/>
        </g>
      </g>
    </g>
  </g>
</svg>
