<svg xmlns="http://www.w3.org/2000/svg" width="33.077" height="33"><g data-name="4-4"><g data-name="Group 21"><g data-name="Group 10"><g data-name="Group 9"><path data-name="Path 60" d="M16.539 21.737a4 4 0 10-4.055-4 4.06 4.06 0 004.055 4zm0-6.958a3.056 3.056 0 013.053 3 3.023 3.023 0 01-3.053 3 3.003 3.003 0 110-6.007z" fill="#fff"/></g></g><g data-name="Group 12"><g data-name="Group 11"><path data-name="Path 61" d="M13.735 6.17l-.5 2.853a.476.476 0 00.2.5.537.537 0 00.551.05l2.6-1.352 2.6 1.352a.556.556 0 00.551-.05.476.476 0 00.2-.5l-.5-2.853 2.1-2.052a.508.508 0 00.15-.5.485.485 0 00-.4-.35l-2.9-.4-1.3-2.6a.518.518 0 00-.9 0l-1.3 2.6-2.9.4a.485.485 0 00-.4.35.453.453 0 00.15.5zm1.452-2.353c.15 0 .3-.15.4-.25l.951-2 .951 1.952a.4.4 0 00.4.25l2.152.35-1.552 1.5a.7.7 0 00-.15.451l.35 2.152-1.9-1a.375.375 0 00-.25-.05.451.451 0 00-.25.05l-1.9 1 .35-2.152a.5.5 0 00-.15-.451l-1.552-1.5z" fill="#fff"/></g></g><g data-name="Group 14"><g data-name="Group 13"><path data-name="Path 62" d="M8.179 12.327a.476.476 0 00.2-.5l-.5-2.853 2.1-2.052a.508.508 0 00.15-.5.485.485 0 00-.4-.35l-2.9-.4-1.303-2.656a.575.575 0 00-.451-.3.481.481 0 00-.451.3l-1.3 2.6-2.9.4a.485.485 0 00-.4.35.453.453 0 00.15.5l2.1 2.1-.5 2.853a.476.476 0 00.2.5.537.537 0 00.551.05l2.6-1.352 2.6 1.352c.103.108.303.058.454-.042zM5.325 9.974a.375.375 0 00-.451 0l-1.9 1 .35-2.152a.5.5 0 00-.15-.451l-1.552-1.5 2.152-.3c.15 0 .3-.15.4-.25l.951-1.952.951 1.947a.4.4 0 00.4.25l2.152.3-1.552 1.5a.7.7 0 00-.15.451l.35 2.152z" fill="#fff"/></g></g><g data-name="Group 16"><g data-name="Group 15"><path data-name="Path 63" d="M33.057 6.42a.485.485 0 00-.4-.35l-2.9-.4-1.3-2.6a.518.518 0 00-.9 0l-1.3 2.6-2.9.4a.485.485 0 00-.4.35.453.453 0 00.15.5l2.1 2.052-.5 2.853a.476.476 0 00.2.5.537.537 0 00.551.05l2.6-1.352 2.6 1.352a.556.556 0 00.551-.05.476.476 0 00.2-.5l-.5-2.853 2.1-2.052a.865.865 0 00.048-.5zm-3.154 2a.7.7 0 00-.15.451l.35 2.152-1.9-1a.375.375 0 00-.25-.05.451.451 0 00-.25.05l-1.9 1 .35-2.152a.5.5 0 00-.15-.451l-1.552-1.5 2.152-.3c.15 0 .3-.15.4-.25l.951-1.952.951 1.952a.4.4 0 00.4.25l2.152.3z" fill="#fff"/></g></g><g data-name="Group 18"><g data-name="Group 17"><path data-name="Path 64" d="M25.949 21.236h-.451a9.925 9.925 0 00.15-1.752 9.11 9.11 0 10-9.11 9.11 8.946 8.946 0 003.6-.751 5.856 5.856 0 105.807-6.608zm-9.411-9.811a8.107 8.107 0 018.11 8.109 7.923 7.923 0 01-.25 1.9 5.939 5.939 0 00-2.853 1.8 5.107 5.107 0 00-3.354-1.2h-3.3a5.2 5.2 0 00-4.555 2.7 8.1 8.1 0 016.202-13.309zm-5.456 14.066a4.176 4.176 0 013.8-2.453h3.3a4.138 4.138 0 012.753 1 5.745 5.745 0 00-.851 2.753 8.017 8.017 0 01-9.002-1.3zm14.867 6.507a4.856 4.856 0 114.856-4.856 4.86 4.86 0 01-4.856 4.857z" fill="#fff"/></g></g><g data-name="Group 20"><g data-name="Group 19"><path data-name="Path 65" d="M28.752 24.943l-3.654 3.2-1.4-1.652a.5.5 0 10-.751.651l1.7 2.052a.807.807 0 00.35.2.723.723 0 00.35-.1l4.056-3.551a.487.487 0 00.05-.7.5.5 0 00-.701-.1z" fill="#fff"/></g></g></g></g></svg>