<svg xmlns="http://www.w3.org/2000/svg" width="26" height="30"><g data-name="1-1"><path data-name="Path 119" d="M6.5 14h-2A1.5 1.5 0 003 15.5v4A1.5 1.5 0 004.5 21h2A1.5 1.5 0 008 19.5V19a1.5 1.5 0 00-1.5-1.5H6a.5.5 0 000 1h.5a.5.5 0 01.5.5v.5a.5.5 0 01-.5.5h-2a.5.5 0 01-.5-.5v-4a.5.5 0 01.5-.5h2a.5.5 0 01.5.5v.5a.5.5 0 001 0v-.5A1.5 1.5 0 006.5 14zm15 10h2a2.5 2.5 0 002.5-2.5v-19A2.5 2.5 0 0023.5 0h-20A3.5 3.5 0 000 3.5v23A3.5 3.5 0 003.5 30h22a.5.5 0 000-1h-22a2.5 2.5 0 010-5H5v2H3.5a.5.5 0 000 1H5v.5a.52.52 0 00.24.43.51.51 0 00.48 0l1.78-.89 1.78.89a.54.54 0 00.22.05.48.48 0 00.26-.07.52.52 0 00.24-.41V27h15.5a.5.5 0 000-1H10v-2zM9 26.69l-1.28-.64a.51.51 0 00-.44 0L6 26.69V24h3zM9.5 23h-6A3.5 3.5 0 001 24.06V3.5A2.5 2.5 0 013.5 1h20A1.5 1.5 0 0125 2.5v19a1.5 1.5 0 01-1.5 1.5zm2-9h-1A1.5 1.5 0 009 15.5v4a1.5 1.5 0 001.5 1.5h1a2.5 2.5 0 002.5-2.5v-2a2.5 2.5 0 00-2.5-2.5zm1.5 4.5a1.5 1.5 0 01-1.5 1.5h-1a.5.5 0 01-.5-.5v-4a.5.5 0 01.5-.5h1a1.5 1.5 0 011.5 1.5zm3.75-4.5h-.25a1.5 1.5 0 00-1.5 1.5v5a.5.5 0 001 0v-2h.75a2.25 2.25 0 000-4.5zm0 3.5H16v-2a.5.5 0 01.5-.5h.25a1.25 1.25 0 010 2.5zm6.25 3a.5.5 0 001 0 3 3 0 00-1.12-2.32A2.22 2.22 0 0024 16.25 2.25 2.25 0 0021.75 14h-.25a1.5 1.5 0 00-1.5 1.5v5a.5.5 0 001 0v-2a2 2 0 012 2zm-2-3v-2a.5.5 0 01.5-.5h.25a1.25 1.25 0 110 2.5zm-3-10v-3a.5.5 0 00-.5-.5h-9a.5.5 0 00-.5.5v3a.5.5 0 00.5.5h9a.5.5 0 00.5-.5zM17 7H9V5h8z" fill="#fff"/></g></svg>