<svg xmlns="http://www.w3.org/2000/svg" width="31.163" height="31.163"><g data-name="1-2"><path data-name="Path 1" d="M13.083 3.664a.836.836 0 01.065-.869L14.902.348a.836.836 0 011.36 0l1.753 2.446a.836.836 0 01-.68 1.324h-.452v2.43a.309.309 0 01-.309.309h-.033a8.765 8.765 0 00-1.906 0 .309.309 0 01-.325-.306V4.123h-.456a.833.833 0 01-.771-.459zm7.883 4.847a.306.306 0 00.114.224 8.852 8.852 0 011.334 1.347.325.325 0 00.224.114h.016a.325.325 0 00.218-.091l1.722-1.717.325.325a.836.836 0 001.415-.455l.491-2.97a.836.836 0 00-.976-.976l-2.944.508a.836.836 0 00-.455 1.415l.325.325-1.718 1.718a.306.306 0 00-.092.234zm-15.912.2a.836.836 0 001.181 0l.325-.325 1.718 1.718a.306.306 0 00.218.091h.016a.325.325 0 00.237-.114 8.846 8.846 0 011.334-1.334.309.309 0 00.026-.459L8.394 6.573l.325-.325a.836.836 0 00-.455-1.415l-2.97-.492a.836.836 0 00-.976.976l.491 2.97a.833.833 0 00.247.426zm1.18 13.735a.836.836 0 00-1.415.455l-.491 2.97a.836.836 0 00.976.976l2.97-.491a.836.836 0 00.455-1.415l-.325-.325 1.718-1.722a.309.309 0 00-.039-.485 8.862 8.862 0 01-1.334-1.334.309.309 0 00-.459-.026l-1.717 1.722zm21.26-9.363a.833.833 0 00-.452.742v.455h-2.43a.309.309 0 00-.306.325 8.715 8.715 0 010 1.906.309.309 0 00.306.325h2.43v.458a.836.836 0 001.321.68l2.446-1.754a.836.836 0 000-1.36l-2.446-1.715a.846.846 0 00-.869-.065zm-4.59 13.26l2.97.491a.836.836 0 00.976-.976l-.508-2.957a.836.836 0 00-1.415-.455l-.325.325-1.718-1.718a.309.309 0 00-.472.026 8.852 8.852 0 01-1.334 1.334.309.309 0 00-.026.459l1.719 1.722-.325.325a.836.836 0 00.455 1.415zm-5.57.7h-.452v-2.43a.309.309 0 00-.325-.306 8.751 8.751 0 01-1.906 0 .309.309 0 00-.325.306v2.43h-.5a.836.836 0 00-.68 1.321L14.9 30.81a.836.836 0 001.36 0l1.754-2.446a.836.836 0 00-.68-1.321zM.346 16.261l2.448 1.754a.836.836 0 001.321-.68v-.452h2.43a.309.309 0 00.306-.325 8.712 8.712 0 010-1.906.309.309 0 00-.306-.325H4.116v-.5a.836.836 0 00-1.321-.68L.349 14.901a.836.836 0 000 1.36zm8.644-2.6a11.679 11.679 0 0113.179 0 1.321 1.321 0 01.569.9 1.3 1.3 0 01-1.279 1.471 1.334 1.334 0 01-.752-.231 9.054 9.054 0 00-1.662-.888 3.7 3.7 0 01.283 1.5 3.761 3.761 0 01-3.748 3.67 3.878 3.878 0 01-.485-.029 3.741 3.741 0 01-2.977-5.14 9.064 9.064 0 00-1.662.891 1.334 1.334 0 01-.752.231 1.3 1.3 0 01-1.282-1.471 1.321 1.321 0 01.569-.908zm5.026 2.671a1.565 1.565 0 101.565-1.565 1.565 1.565 0 00-1.565 1.565z" fill="#fff"/></g></svg>