<svg xmlns="http://www.w3.org/2000/svg" width="31.163" height="31.163" viewBox="0 0 31.163 31.163">
  <g id="_1-2" data-name="1-2" transform="translate(-2.106 -2.106)">
    <path id="Path_1" data-name="Path 1" d="M15.189,5.77a.836.836,0,0,1,.065-.869l1.754-2.447a.836.836,0,0,1,1.36,0L20.121,4.9a.836.836,0,0,1-.68,1.324h-.452v2.43a.309.309,0,0,1-.309.309h-.033a8.765,8.765,0,0,0-1.906,0,.309.309,0,0,1-.325-.306V6.229H15.96A.833.833,0,0,1,15.189,5.77Zm7.883,4.847a.306.306,0,0,0,.114.224,8.852,8.852,0,0,1,1.334,1.347.325.325,0,0,0,.224.114h.016a.325.325,0,0,0,.218-.091L26.7,10.494l.325.325a.836.836,0,0,0,1.415-.455l.491-2.97a.836.836,0,0,0-.976-.976l-2.944.508a.836.836,0,0,0-.455,1.415l.325.325-1.718,1.718A.306.306,0,0,0,23.071,10.618Zm-15.912.2a.836.836,0,0,0,1.181,0l.325-.325,1.718,1.718a.306.306,0,0,0,.218.091h.016a.325.325,0,0,0,.237-.114,8.846,8.846,0,0,1,1.334-1.334.309.309,0,0,0,.026-.459L10.5,8.679l.325-.325a.836.836,0,0,0-.455-1.415L7.4,6.447a.836.836,0,0,0-.976.976l.491,2.97h0a.833.833,0,0,0,.247.426ZM8.34,24.552a.836.836,0,0,0-1.415.455l-.491,2.97a.836.836,0,0,0,.976.976l2.97-.491a.836.836,0,0,0,.455-1.415l-.325-.325L12.228,25a.309.309,0,0,0-.039-.485,8.862,8.862,0,0,1-1.334-1.334.309.309,0,0,0-.459-.026L8.679,24.877ZM29.6,15.189a.833.833,0,0,0-.452.742v.455h-2.43a.309.309,0,0,0-.306.325,8.715,8.715,0,0,1,0,1.906.309.309,0,0,0,.306.325h2.43V19.4a.836.836,0,0,0,1.321.68l2.446-1.754a.836.836,0,0,0,0-1.36l-2.446-1.715a.846.846,0,0,0-.869-.065ZM25.01,28.449l2.97.491a.836.836,0,0,0,.976-.976l-.508-2.957a.836.836,0,0,0-1.415-.455l-.325.325-1.718-1.718a.309.309,0,0,0-.472.026,8.852,8.852,0,0,1-1.334,1.334.309.309,0,0,0-.026.459L24.877,26.7l-.325.325a.836.836,0,0,0,.455,1.415Zm-5.57.7h-.452v-2.43a.309.309,0,0,0-.325-.306,8.751,8.751,0,0,1-1.906,0,.309.309,0,0,0-.325.306v2.43h-.5a.836.836,0,0,0-.68,1.321l1.754,2.446a.836.836,0,0,0,1.36,0l1.754-2.446a.836.836,0,0,0-.68-1.321ZM2.452,18.367,4.9,20.121a.836.836,0,0,0,1.321-.68v-.452h2.43a.309.309,0,0,0,.306-.325,8.712,8.712,0,0,1,0-1.906.309.309,0,0,0-.306-.325H6.222v-.5a.836.836,0,0,0-1.321-.68L2.455,17.007a.836.836,0,0,0,0,1.36Zm8.644-2.6a11.679,11.679,0,0,1,13.179,0,1.321,1.321,0,0,1,.569.9,1.3,1.3,0,0,1-1.279,1.471,1.334,1.334,0,0,1-.752-.231,9.054,9.054,0,0,0-1.662-.888,3.7,3.7,0,0,1,.283,1.5,3.761,3.761,0,0,1-3.748,3.67,3.878,3.878,0,0,1-.485-.029,3.741,3.741,0,0,1-2.977-5.14,9.064,9.064,0,0,0-1.662.891,1.334,1.334,0,0,1-.752.231,1.3,1.3,0,0,1-1.282-1.471,1.321,1.321,0,0,1,.569-.908Zm5.026,2.671a1.565,1.565,0,1,0,1.565-1.565,1.565,1.565,0,0,0-1.565,1.565Z" fill="#fff"/>
  </g>
</svg>
