<svg xmlns="http://www.w3.org/2000/svg" width="29.926" height="35.126"><g data-name="2-1"><path data-name="Path 21" d="M16.508 0a13.023 13.023 0 00-5.729 1.294 13.4 13.4 0 00-7.762 12.124v2.218L.28 20.885a1.5 1.5 0 001.442 2.4h1.294v4.955a2.808 2.808 0 002.809 2.809l3.881-.591v3.918a.79.79 0 00.961.739l13.935-2.477a1.222 1.222 0 00.961-1.146v-8.205A13.4 13.4 0 0016.508 0zm0 23.176a9.832 9.832 0 119.832-9.832 9.852 9.852 0 01-9.832 9.832zm3.881-11.717l-.037-1.294a3.77 3.77 0 10-7.541 0v1.294h-.074a.994.994 0 00-1 1v5.471a.994.994 0 001 1h7.652a.994.994 0 001-1v-5.473a.994.994 0 00-1-.998zm-3.253 3.992a.2.2 0 00-.111.185v1.22a.425.425 0 01-.222.407.465.465 0 01-.7-.407v-1.22c0-.074 0-.148-.074-.185a.921.921 0 01-.3-1.146.944.944 0 011.035-.554.941.941 0 01.37 1.7zm1.552-3.992h-4.214v-1.294a2.106 2.106 0 012.107-2.107 2.13 2.13 0 012.107 2.107v1.294z" fill="#fff"/></g></svg>