<svg xmlns="http://www.w3.org/2000/svg" width="31.449" height="30.548"><g data-name="2-2"><g data-name="Group 28" fill="#fff"><path data-name="Path 140" d="M10.697 21.64c1.538.109 2.92.877 4.442 1.062 3.913.3 5.921 0 5.985 2.185.045 1.511-7.914.574-7.458.667a11.062 11.062 0 001.836.541c8.885-.049 12.05-1.38 12.989.729.96 2.155-3.007 2.411-10.361 3.126-.429.042-2.375.8-3.855.545s-6.087-2.972-6.6-3.161a7.753 7.753 0 00-1.092-.273V22.7a14.013 14.013 0 001.661-.624 4.874 4.874 0 011.518-.416 9.263 9.263 0 01.935-.02z"/><path data-name="Path 141" d="M5.546 21.684a.507.507 0 01.574.542v4.754h-.01c0 .476-.189.662-.665.663H.541c-.477 0-.54-.188-.541-.665v-4.633c0-.477.105-.664.582-.665z"/><path data-name="Path 142" d="M20.751 8.907c-1.538-.109-2.92-.877-4.442-1.062-3.913-.3-5.921 0-5.985-2.185-.045-1.511 7.914-.574 7.458-.667a11.063 11.063 0 00-1.835-.538c-8.885.049-12.05 1.38-12.989-.729C1.998 1.571 5.965 1.315 13.319.6c.429-.042 2.375-.8 3.855-.545s6.087 2.972 6.6 3.161a7.756 7.756 0 001.092.273V7.85a14.012 14.012 0 00-1.661.624 4.873 4.873 0 01-1.518.416 9.263 9.263 0 01-.936.017z"/><path data-name="Path 143" d="M25.903 8.864a.507.507 0 01-.574-.542v-4.75h.01c0-.476.189-.662.665-.663h4.906c.477 0 .54.188.541.665v4.624c0 .477-.105.664-.582.665z"/><path data-name="Path 144" d="M15.866 10.95c-2.725-2.853-6.437-1.43-6.475 2.288s6.4 8.109 6.4 8.109 6.428-4.252 6.4-8.109-3.911-4.878-6.325-2.288z"/></g></g></svg>