<svg xmlns="http://www.w3.org/2000/svg" width="23.603" height="36.574" viewBox="0 0 23.603 36.574">
  <g id="_2-5" data-name="2-5" transform="translate(-13.288 -13.735)">
    <g id="Group_6" data-name="Group 6" transform="translate(13.538 14)">
      <path id="Path_34" data-name="Path 34" d="M27.772,998.083a.747.747,0,0,0-.74.74v18.692a.747.747,0,0,0,.74.74H49.3a.747.747,0,0,0,.74-.74V998.823a.747.747,0,0,0-.74-.74Zm.011.751h21.5v18.67h-21.5Z" transform="translate(-27.031 -982.197)" fill="#fff" stroke="#fff" stroke-width="0.5"/>
      <path id="Path_35" data-name="Path 35" d="M46.829,966.4a9.37,9.37,0,0,0-9.174,4.99.376.376,0,1,0,.667.346A8.624,8.624,0,0,1,54.2,973.2a8.51,8.51,0,0,1-2.853,9.123.376.376,0,1,0,.469.587,9.285,9.285,0,0,0-4.991-16.51Z" transform="translate(-32.313 -966.362)" fill="#fff" stroke="#fff" stroke-width="0.5"/>
      <path id="Path_36" data-name="Path 36" d="M43.828,1006.88a.376.376,0,0,0-.314.542l2.89,6.055a.376.376,0,0,0,.678,0l2.89-6.055a.376.376,0,1,0-.678-.324l-2.55,5.346-2.551-5.344a.376.376,0,0,0-.364-.218Z" transform="translate(-35.239 -986.588)" fill="#fff" stroke="#fff" stroke-width="0.5"/>
      <path id="Path_37" data-name="Path 37" d="M49.62,1018.97a.376.376,0,0,0-.37.38v4.542a.376.376,0,1,0,.751,0v-4.542a.376.376,0,0,0-.381-.38Z" transform="translate(-38.122 -992.623)" fill="#fff" stroke="#fff" stroke-width="0.5"/>
      <path id="Path_38" data-name="Path 38" d="M43.854,1018.98a.376.376,0,1,0,0,.751h5.779a.376.376,0,1,0,0-.751Z" transform="translate(-35.241 -992.628)" fill="#fff" stroke="#fff" stroke-width="0.5"/>
    </g>
  </g>
</svg>
