<svg xmlns="http://www.w3.org/2000/svg" width="23.603" height="36.574"><g data-name="2-5"><g data-name="Group 6" fill="#fff" stroke="#fff" stroke-width=".5"><path data-name="Path 34" d="M.991 16.151a.747.747 0 00-.74.74v18.692a.747.747 0 00.74.74h21.528a.747.747 0 00.74-.74V16.891a.747.747 0 00-.74-.74zm.011.751h21.5v18.67h-21.5z"/><path data-name="Path 35" d="M14.766.303a9.37 9.37 0 00-9.174 4.99.376.376 0 10.667.346 8.624 8.624 0 0115.878 1.464 8.51 8.51 0 01-2.853 9.123.376.376 0 10.469.587A9.285 9.285 0 0014.762.303z"/><path data-name="Path 36" d="M8.839 20.557a.376.376 0 00-.314.542l2.89 6.055a.376.376 0 00.678 0l2.89-6.055a.376.376 0 10-.678-.324l-2.55 5.346-2.551-5.344a.376.376 0 00-.364-.218z"/><path data-name="Path 37" d="M11.748 26.612a.376.376 0 00-.37.38v4.542a.376.376 0 10.751 0v-4.542a.376.376 0 00-.381-.38z"/><path data-name="Path 38" d="M8.863 26.617a.376.376 0 100 .751h5.779a.376.376 0 100-.751z"/></g></g></svg>