<svg xmlns="http://www.w3.org/2000/svg" width="18.713" height="20.565"><g fill="#333"><path data-name="Path 67" d="M8.431.001h-.187a.435.435 0 00-.065 0 .18.18 0 00-.156.171l-.005.176v2.137a.206.206 0 00.047.116.139.139 0 00.042.032.319.319 0 00.1.03 1.732 1.732 0 00.214.009 7.607 7.607 0 11-7.606 7.607.412.412 0 00-.825 0 8.428 8.428 0 108.728-8.423V.837a9.455 9.455 0 01-.286 18.9.412.412 0 000 .825 10.282 10.282 0 100-20.563"/><path data-name="Path 68" d="M8.447 16.87a6.585 6.585 0 006.463-5.347.105.105 0 00-.022-.086.108.108 0 00-.08-.038h-2.54a.1.1 0 00-.1.073 3.906 3.906 0 110-2.364.1.1 0 00.1.073h.644a.1.1 0 00.1-.1.1.1 0 00-.011-.047 4.732 4.732 0 10-.194 3.08h1.1a5.755 5.755 0 11.171-3.012.1.1 0 00.1.082h.631a.1.1 0 00.1-.1.107.107 0 00-.008-.04 6.58 6.58 0 10-6.459 7.834"/></g></svg>