<svg xmlns="http://www.w3.org/2000/svg" width="14.15" height="14.247"><g fill="#fff"><path data-name="Path 2021" d="M9.7 6.073H1.06A1.07 1.07 0 000 7.133a1.07 1.07 0 001.06 1.06h8.656a1.07 1.07 0 001.06-1.06A1.074 1.074 0 009.7 6.073z"/><path data-name="Path 2022" d="M13.071 0H1.06A1.07 1.07 0 000 1.06a1.07 1.07 0 001.06 1.06h12.03a1.07 1.07 0 001.06-1.06A1.087 1.087 0 0013.071 0z"/><path data-name="Path 2023" d="M13.071 12.126H1.06A1.07 1.07 0 000 13.186a1.07 1.07 0 001.06 1.06h12.03a1.07 1.07 0 001.06-1.06 1.087 1.087 0 00-1.079-1.06z"/></g></svg>