<svg xmlns="http://www.w3.org/2000/svg" width="33.621" height="21.712"><g data-name="2-3"><g data-name="Group 1" fill="#fff"><path data-name="Path 5" d="M33.594 10.74a19.506 19.506 0 00-3.892-5.292 19.092 19.092 0 00-5.2-3.678A18.324 18.324 0 0017.255.018.253.253 0 0017.164 0h-.709a.253.253 0 00-.091.018 18.336 18.336 0 00-7.24 1.752 19.089 19.089 0 00-5.2 3.678A19.506 19.506 0 00.027 10.74a.262.262 0 000 .233 19.506 19.506 0 003.892 5.292 19.089 19.089 0 005.2 3.678 18.336 18.336 0 007.24 1.752.261.261 0 00.091.018h.712a.261.261 0 00.093-.019 18.336 18.336 0 007.24-1.752 19.087 19.087 0 005.2-3.678 19.506 19.506 0 003.899-5.294.261.261 0 000-.23zm-4.288 5.12a17.977 17.977 0 01-12.495 5.281 18 18 0 01-12.48-5.262 19.988 19.988 0 01-3.732-5.023 19.924 19.924 0 013.732-5.019A17.973 17.973 0 0116.811.57a17.988 17.988 0 0112.48 5.266 19.923 19.923 0 013.732 5.019 19.841 19.841 0 01-3.717 5.005z"/><path data-name="Path 6" d="M16.811 3.289a7.567 7.567 0 107.567 7.567 7.575 7.575 0 00-7.567-7.567zm-.283 13.171v-1.734h-1.513a.282.282 0 110-.564h1.8a1.512 1.512 0 100-3.023 2.078 2.078 0 01-.283-4.136V5.252a.283.283 0 01.567 0v1.734h1.512a.282.282 0 010 .563h-1.8a1.512 1.512 0 000 3.024 2.078 2.078 0 01.283 4.136v1.752a.283.283 0 01-.567 0z"/></g></g></svg>