<svg xmlns="http://www.w3.org/2000/svg" width="38.201" height="36.159"><g data-name="2-4"><path data-name="Path 56" d="M0 34.209a1.949 1.949 0 011.949-1.949h7.309a1.95 1.95 0 110 3.9H1.949A1.949 1.949 0 010 34.209zm1.949-3.9h7.309a1.95 1.95 0 000-3.9H1.949a1.95 1.95 0 000 3.9zm0-5.847h7.309a1.95 1.95 0 100-3.9H1.949a1.95 1.95 0 000 3.9zm0-5.847h7.309a1.95 1.95 0 100-3.9H1.949a1.95 1.95 0 000 3.9zM22.757 32.26h-7.313a1.95 1.95 0 100 3.9h7.313a1.95 1.95 0 100-3.9zm0-5.847h-7.313a1.95 1.95 0 100 3.9h7.313a1.95 1.95 0 100-3.9zm-9.258-3.9a1.949 1.949 0 001.949 1.949h7.309a1.95 1.95 0 100-3.9h-7.313a1.949 1.949 0 00-1.944 1.953zm22.753 9.747h-7.309a1.95 1.95 0 100 3.9h7.309a1.95 1.95 0 100-3.9zm-7.309-5.847a1.95 1.95 0 000 3.9h7.309a1.95 1.95 0 100-3.9zM20.122 0h-2.043a1.064 1.064 0 00-1.064 1.064v11.558h-.7a.877.877 0 00-.667.288.846.846 0 00-.055 1.037l2.818 3.933a.846.846 0 001.38 0l2.818-3.929a.846.846 0 000-.982.893.893 0 00-.733-.343h-.686V1.068A1.064 1.064 0 0020.122 0zm13.5 0h-2.048a1.064 1.064 0 00-1.064 1.064v17.4h-.7a.877.877 0 00-.667.288.846.846 0 00-.051 1.056l2.818 3.929a.846.846 0 001.38 0l2.81-3.943a.846.846 0 000-.982.893.893 0 00-.733-.343h-.678V1.068A1.064 1.064 0 0033.617 0zM6.632 0H4.584a1.064 1.064 0 00-1.076 1.068v5.707h-.69a.877.877 0 00-.667.288A.846.846 0 002.1 8.12l2.818 3.929a.846.846 0 001.38 0L9.11 8.1a.846.846 0 000-.982.893.893 0 00-.733-.343h-.686V1.068A1.064 1.064 0 006.627 0z" fill="#fff"/></g></svg>