<svg xmlns="http://www.w3.org/2000/svg" width="32.684" height="32.665"><g data-name="2-5" fill="#fff"><path data-name="Path 66" d="M16.343 7.077a2.725 2.725 0 00-2.722 2.722 2.7 2.7 0 00.569 1.647 3.559 3.559 0 00-3.291 3.543v4.609a.544.544 0 00.544.544h1.633v7.077a.544.544 0 00.544.544h5.444a.544.544 0 00.544-.544v-7.076h1.633a.544.544 0 00.544-.544v-4.61a3.559 3.559 0 00-3.286-3.543 2.7 2.7 0 00.569-1.647 2.725 2.725 0 00-2.725-2.722zm0 1.089a1.633 1.633 0 11-1.633 1.633 1.633 1.633 0 011.633-1.633zm4.356 6.823v4.065h-1.09v-4.9h-1.088v12.523h-1.634v-7.079h-1.088v7.079h-1.634V14.154h-1.088v4.9h-1.089v-4.065a2.471 2.471 0 012.468-2.468h3.774a2.471 2.471 0 012.469 2.468z"/><path data-name="Path 67" d="M28.32 0a4.348 4.348 0 00-3.436 7.023L21.4 10.507l.77.77 3.483-3.485A4.355 4.355 0 1028.32 0zm-3.266 4.355a3.27 3.27 0 012.722-3.217v.6a1.633 1.633 0 00-1.089 1.533c0 1.149.921 1.436 1.47 1.608.615.192.708.266.708.57a.544.544 0 01-1.089 0h-1.089a1.633 1.633 0 001.089 1.533v.6a3.27 3.27 0 01-2.722-3.227zm3.811 3.217v-.6a1.633 1.633 0 001.089-1.533c0-1.151-.921-1.438-1.47-1.61-.615-.191-.708-.265-.708-.568a.544.544 0 011.089 0h1.089a1.633 1.633 0 00-1.089-1.533v-.6a3.263 3.263 0 010 6.435z"/><path data-name="Path 68" d="M28.32 11.977a4.36 4.36 0 00-4.318 3.811h-1.126v1.089h1.126a4.355 4.355 0 104.318-4.9zm0 7.622a3.266 3.266 0 01-.544-6.484v.6a1.633 1.633 0 00-1.089 1.533c0 1.149.921 1.436 1.47 1.608.615.192.708.266.708.57a.544.544 0 11-1.089 0h-1.089a1.633 1.633 0 003.266 0c0-1.151-.921-1.438-1.47-1.61-.615-.191-.708-.265-.708-.568a.544.544 0 111.089 0h1.089a1.633 1.633 0 00-1.089-1.533v-.6a3.266 3.266 0 01-.544 6.484z"/><path data-name="Path 69" d="M4.366 20.687a4.36 4.36 0 004.318-3.81h1.13v-1.089h-1.13a4.355 4.355 0 10-4.318 4.9zm-.544-7.573v.6a1.633 1.633 0 00-1.089 1.533c0 1.149.921 1.436 1.47 1.608.615.192.708.266.708.57a.544.544 0 01-1.089 0H2.733a1.633 1.633 0 103.266 0c0-1.151-.921-1.438-1.47-1.61-.615-.191-.708-.265-.708-.568a.544.544 0 111.089 0H6a1.633 1.633 0 00-1.086-1.537v-.6a3.266 3.266 0 11-1.089 0z"/><path data-name="Path 70" d="M28.32 23.953a4.341 4.341 0 00-3.207 1.423l-3.46-3.955-.82.718 3.633 4.152a4.355 4.355 0 103.854-2.333zm-3.266 4.355a3.27 3.27 0 012.722-3.217v.6a1.633 1.633 0 00-1.09 1.529c0 1.149.921 1.436 1.47 1.608.615.192.708.266.708.57a.544.544 0 11-1.089 0h-1.089a1.633 1.633 0 001.089 1.533v.6a3.27 3.27 0 01-2.721-3.222zm3.811 3.217v-.6a1.633 1.633 0 001.089-1.533c0-1.151-.921-1.438-1.47-1.61-.615-.191-.708-.265-.708-.568a.544.544 0 011.089 0h1.089a1.633 1.633 0 00-1.089-1.533v-.6a3.263 3.263 0 010 6.435z"/><path data-name="Path 71" d="M4.366 32.664a4.347 4.347 0 003.455-7l3.98-3.484-.716-.817-4.028 3.529a4.355 4.355 0 10-2.69 7.772zm3.266-4.355a3.27 3.27 0 01-2.722 3.217v-.6A1.633 1.633 0 006 29.398c0-1.151-.921-1.438-1.47-1.61-.615-.191-.708-.265-.708-.568a.544.544 0 011.089 0H6a1.633 1.633 0 00-1.089-1.533v-.6a3.27 3.27 0 012.722 3.222zM3.82 25.092v.6a1.633 1.633 0 00-1.087 1.526c0 1.149.921 1.436 1.47 1.608.615.192.708.266.708.57a.544.544 0 11-1.089 0H2.733a1.633 1.633 0 001.087 1.535v.6a3.263 3.263 0 010-6.435z"/><path data-name="Path 72" d="M4.366 8.71a4.335 4.335 0 002.916-1.129l3.207 3.665.82-.718L8.001 6.75a4.355 4.355 0 10-3.634 1.96zm3.267-4.355a3.27 3.27 0 01-2.719 3.218v-.6A1.633 1.633 0 006 5.444c0-1.151-.921-1.438-1.47-1.61-.615-.191-.708-.265-.708-.568a.544.544 0 111.089 0H6a1.633 1.633 0 00-1.086-1.533v-.6a3.27 3.27 0 012.719 3.222zM3.822 1.138v.6a1.633 1.633 0 00-1.089 1.528c0 1.149.921 1.436 1.47 1.608.615.192.708.266.708.57a.544.544 0 01-1.089 0H2.733a1.633 1.633 0 001.089 1.533v.6a3.263 3.263 0 010-6.435z"/></g></svg>