<svg xmlns="http://www.w3.org/2000/svg" width="40.1" height="41.483" viewBox="0 0 40.1 41.483">
  <g id="_3-1" data-name="3-1" transform="translate(-3 -2)">
    <path id="Path_73" data-name="Path 73" d="M27.988,21.359l2.074-4.84h6.222V2H19V16.519h6.914Zm2.42-6.914a1.037,1.037,0,1,1,1.037-1.037A1.038,1.038,0,0,1,30.408,14.445ZM21.074,5.457V4.074H23.84a.691.691,0,0,1,.656.473l1.917,5.75h4.511l.988-3.457H26.605V5.457h6.222a.691.691,0,0,1,.664.882l-1.383,4.84a.691.691,0,0,1-.664.5H25.914a.691.691,0,0,1-.656-.473l-1.917-5.75Zm4.148,7.951a1.037,1.037,0,1,1,1.037,1.037A1.038,1.038,0,0,1,25.222,13.408Z" transform="translate(-4.938)" fill="#fff"/>
    <path id="Path_74" data-name="Path 74" d="M15.445,28.124,13.371,21.9h4.84V19.136H14.062a1.383,1.383,0,0,1-1.383-1.383V6H3V21.9H9.222ZM9.914,10.84H11.3v1.383H9.914Zm-5.531,0H8.531v1.383H4.383Zm0,3.457H11.3v1.383H4.383Z" transform="translate(0 -1.234)" fill="#fff"/>
    <path id="Path_75" data-name="Path 75" d="M39,19.445V22.21h4.84l-2.074,5.531,6.222-5.531H54.21V7H43.84V18.062a1.383,1.383,0,0,1-1.383,1.383Zm8.611-6.712,1.068-2.276,1.068,2.276,2.389.365-1.728,1.771.408,2.5L48.679,16.19l-2.136,1.181.408-2.5L45.222,13.1Z" transform="translate(-11.11 -1.543)" fill="#fff"/>
    <path id="Path_76" data-name="Path 76" d="M37.359,57.148A4.148,4.148,0,0,0,33.21,53H31.422l-3.254,3.254a.691.691,0,0,1-.978,0L23.936,53H22.148A4.148,4.148,0,0,0,18,57.148v2.074H37.359Z" transform="translate(-4.629 -15.74)" fill="#fff"/>
    <path id="Path_77" data-name="Path 77" d="M29.531,48.924,32.3,46.159V44.316a5.531,5.531,0,1,0-5.531,0v1.843Z" transform="translate(-6.481 -9.876)" fill="#fff"/>
  </g>
</svg>
