<svg xmlns="http://www.w3.org/2000/svg" width="40.1" height="41.483"><g data-name="3-1" fill="#fff"><path data-name="Path 73" d="M20.05 19.359l2.074-4.84h6.222V0H11.062v14.519h6.914zm2.42-6.914a1.037 1.037 0 111.037-1.037 1.038 1.038 0 01-1.037 1.037zm-9.334-8.988V2.074h2.766a.691.691 0 01.656.473l1.917 5.75h4.511l.988-3.457h-5.307V3.457h6.222a.691.691 0 01.664.882l-1.383 4.84a.691.691 0 01-.664.5h-5.53a.691.691 0 01-.656-.473l-1.917-5.75zm4.148 7.951a1.037 1.037 0 111.037 1.037 1.038 1.038 0 01-1.037-1.037z"/><path data-name="Path 74" d="M12.445 24.89l-2.074-6.224h4.84v-2.764h-4.149a1.383 1.383 0 01-1.383-1.383V2.766H0v15.9h6.222zM6.914 7.606H8.3v1.383H6.914zm-5.531 0h4.148v1.383H1.383zm0 3.457H8.3v1.383H1.383z"/><path data-name="Path 75" d="M24.89 15.902v2.765h4.84l-2.074 5.531 6.222-5.531H40.1V3.457H29.73v11.062a1.383 1.383 0 01-1.383 1.383zm8.611-6.712l1.068-2.276 1.068 2.276 2.389.365-1.728 1.771.408 2.5-2.137-1.179-2.136 1.181.408-2.5-1.729-1.771z"/><path data-name="Path 76" d="M29.73 39.408a4.148 4.148 0 00-4.149-4.148h-1.788l-3.254 3.254a.691.691 0 01-.978 0l-3.254-3.254h-1.788a4.148 4.148 0 00-4.148 4.148v2.074H29.73z"/><path data-name="Path 77" d="M20.05 37.048l2.769-2.765V32.44a5.531 5.531 0 10-5.531 0v1.843z"/></g></svg>