<svg xmlns="http://www.w3.org/2000/svg" width="42.3" height="42.3" viewBox="0 0 42.3 42.3">
  <g id="_1-3" data-name="1-3" transform="translate(-1 -1)">
    <g id="Group_25" data-name="Group 25" transform="translate(1 1)">
      <path id="Path_126" data-name="Path 126" d="M22.614,13a9.614,9.614,0,1,0,9.614,9.614A9.613,9.613,0,0,0,22.614,13Zm0,15.382a5.768,5.768,0,1,1,5.768-5.768A5.775,5.775,0,0,1,22.614,28.382Z" transform="translate(10.073 10.073)" fill="#fff"/>
      <path id="Path_127" data-name="Path 127" d="M10.614,20.227A9.614,9.614,0,1,0,1,10.614,9.612,9.612,0,0,0,10.614,20.227Zm0-15.382a5.768,5.768,0,1,1-5.768,5.768A5.775,5.775,0,0,1,10.614,4.845Z" transform="translate(-1 -1)" fill="#fff"/>
      <path id="Path_128" data-name="Path 128" d="M16.382,43.03,10.05,36.7,42.737,4.012,40.018,1.293,7.332,33.979,1,27.648V43.03Z" transform="translate(-1 -0.73)" fill="#fff"/>
    </g>
  </g>
</svg>
