<svg data-name="1-2" xmlns="http://www.w3.org/2000/svg" width="32" height="32"><g data-name="99-Photography"><path data-name="Path 118" d="M16 0a16 16 0 1016 16A16 16 0 0016 0zm12.63 10H16a6 6 0 00-1.16.11l4.49-7.7a14 14 0 019.3 7.59zM20 16a4 4 0 11-.73-2.29l.08.11A4 4 0 0120 16zM16 2a8.243 8.243 0 011.22.06L11.14 12.5a6 6 0 00-.54.9L6.19 6A14 14 0 0116 2zM2 16a13.908 13.908 0 012.808-8.377L10 16.3a6 6 0 001.54 3.7h-9A13.94 13.94 0 012 16zm1.37 6H16a6 6 0 001.16-.11l-4.49 7.7A14 14 0 013.37 22zM16 30a8.243 8.243 0 01-1.22-.06l6.08-10.44a6 6 0 00.94-2l5 7.44A14 14 0 0116 30zm5-17.23l-.14-.21-.08-.12a5.751 5.751 0 00-.37-.45h9A13.86 13.86 0 0128 23.19z" fill="#fff"/></g></svg>