<svg xmlns="http://www.w3.org/2000/svg" width="39.093" height="39.065"><g data-name="1-3" fill="#fff"><path data-name="Path 79" d="M5.382 32.464a.61.61 0 10.432-.178.61.61 0 00-.432.178z"/><path data-name="Path 80" d="M6.68 31.172a.61.61 0 10.842.019.61.61 0 00-.842-.019z"/><path data-name="Path 81" d="M7.974 29.879a.61.61 0 10.432-.179.61.61 0 00-.432.179z"/><path data-name="Path 82" d="M10.561 27.3a.61.61 0 10.738-.1.61.61 0 00-.738.1z"/><path data-name="Path 83" d="M9.264 28.59a.61.61 0 10.432-.179.61.61 0 00-.432.179z"/><path data-name="Path 84" d="M3.985 18.886H.627a.61.61 0 100 1.221h3.358a.61.61 0 100-1.221z"/><path data-name="Path 85" d="M.627 17.668h1.221a.61.61 0 000-1.221H.627a.61.61 0 000 1.221z"/><path data-name="Path 86" d="M.627 22.542h1.221a.61.61 0 000-1.221H.627a.61.61 0 000 1.221z"/><path data-name="Path 87" d="M38.472 18.886h-3.358a.61.61 0 100 1.221h3.357a.61.61 0 100-1.221z"/><path data-name="Path 88" d="M38.472 16.447h-1.221a.61.61 0 000 1.221h1.221a.61.61 0 000-1.221z"/><path data-name="Path 89" d="M38.472 21.321h-1.221a.61.61 0 000 1.221h1.221a.61.61 0 000-1.221z"/><path data-name="Path 90" d="M22.907 26.5a.61.61 0 00-.61.61v.61h-5.494v-.61a.61.61 0 00-1.221 0v.821a1.053 1.053 0 001.09 1.007h5.753a1.053 1.053 0 001.093-1.01v-.818a.61.61 0 00-.611-.61z"/><path data-name="Path 91" d="M21.686 30.156h-4.273a.61.61 0 000 1.221h4.273a.61.61 0 000-1.221z"/><path data-name="Path 92" d="M21.075 32.592h-3.052a.61.61 0 100 1.221h3.052a.61.61 0 000-1.221z"/><path data-name="Path 93" d="M2.633 5.616a1.135 1.135 0 01-.882-.031.983.983 0 01-.55-.552.61.61 0 00-1.154.4 2.2 2.2 0 001.2 1.27 2.441 2.441 0 00.29.1v.522a.61.61 0 001.221 0v-.479a2.136 2.136 0 00.345-.11 1.785 1.785 0 00.751-.589.577.577 0 00.049-.079 1.471 1.471 0 00.177-1.26 2.141 2.141 0 00-1.704-1.289c-.406-.116-.757-.214-.891-.436a.446.446 0 010-.47.976.976 0 01.961-.238.916.916 0 01.659.571.611.611 0 001.176-.334 2.118 2.118 0 00-1.517-1.391V.61a.61.61 0 10-1.221 0v.61a1.776 1.776 0 00-1.092.727 1.66 1.66 0 000 1.773 2.482 2.482 0 001.6.974c.543.153.806.25.882.488s-.169.379-.3.434z"/><path data-name="Path 94" d="M37.425 5.616a1.135 1.135 0 01-.882-.031.983.983 0 01-.546-.552.61.61 0 00-1.154.4 2.036 2.036 0 00.305.574.61.61 0 00.137.217.632.632 0 00.192.128 2.353 2.353 0 00.562.351 2.442 2.442 0 00.29.1v.522a.61.61 0 001.221 0v-.479a2.136 2.136 0 00.345-.11 1.578 1.578 0 00.98-1.929 2.141 2.141 0 00-1.709-1.288c-.406-.116-.757-.214-.891-.436a.446.446 0 010-.47.976.976 0 01.961-.238.916.916 0 01.659.571.611.611 0 101.175-.333 2.118 2.118 0 00-1.514-1.392V.61a.61.61 0 00-1.221 0v.61a1.776 1.776 0 00-1.093.736 1.66 1.66 0 000 1.773 2.482 2.482 0 001.6.974c.543.153.806.25.882.488s-.168.37-.299.425z"/><path data-name="Path 95" d="M5.962 8.979a.593.593 0 10-.43-.183.61.61 0 00.43.183z"/><path data-name="Path 96" d="M8.562 11.567a.61.61 0 10-.433-.18.61.61 0 00.433.18z"/><path data-name="Path 97" d="M7.259 10.273a.61.61 0 10-.433-.18.61.61 0 00.433.18z"/><path data-name="Path 98" d="M5.101 6.65a.612.612 0 10.127.666.611.611 0 00-.127-.666z"/><path data-name="Path 99" d="M33.134 8.983a.587.587 0 10-.43-.177.61.61 0 00.43.177z"/><path data-name="Path 100" d="M31.84 10.273a.61.61 0 10-.43-.18.61.61 0 00.43.18z"/><path data-name="Path 101" d="M30.536 11.567a.61.61 0 10-.433-.18.61.61 0 00.433.18z"/><path data-name="Path 102" d="M34.861 6.65a.61.61 0 10.128.661.61.61 0 00-.128-.661z"/><path data-name="Path 103" d="M36.466 33.449a1.129 1.129 0 01.882.031.983.983 0 01.546.552.61.61 0 001.154-.4 2.2 2.2 0 00-1.2-1.27 2.49 2.49 0 00-.29-.1v-.522a.61.61 0 10-1.221 0v.464a2.172 2.172 0 00-.345.11 1.578 1.578 0 00-.977 1.929 2.141 2.141 0 001.709 1.288c.406.116.757.214.891.436a.446.446 0 010 .47.976.976 0 01-.961.238.916.916 0 01-.659-.571.611.611 0 00-1.175.333 2.118 2.118 0 001.517 1.407v.61a.61.61 0 101.221 0v-.61a1.779 1.779 0 001.093-.739 1.66 1.66 0 000-1.773 2.482 2.482 0 00-1.6-.974c-.543-.153-.806-.25-.882-.488s.166-.366.297-.421z"/><path data-name="Path 104" d="M1.674 33.449a1.129 1.129 0 01.882.031.983.983 0 01.546.552.61.61 0 001.154-.4 2.2 2.2 0 00-1.2-1.27 2.5 2.5 0 00-.29-.1v-.522a.61.61 0 00-1.221 0v.464a2.172 2.172 0 00-.345.11 1.578 1.578 0 00-.98 1.929 2.141 2.141 0 001.707 1.287c.406.116.757.214.891.436a.446.446 0 010 .47.976.976 0 01-.961.238.916.916 0 01-.659-.571.611.611 0 10-1.175.333 2.118 2.118 0 001.52 1.407v.61a.61.61 0 001.221 0v-.61a1.779 1.779 0 001.093-.739 1.66 1.66 0 000-1.773 2.482 2.482 0 00-1.6-.974c-.543-.153-.806-.25-.882-.488s.168-.365.299-.42z"/><path data-name="Path 105" d="M29.273 28.591a.61.61 0 10.6-.183.61.61 0 00-.6.183z"/><path data-name="Path 106" d="M30.568 29.879A.61.61 0 1031 29.7a.61.61 0 00-.432.179z"/><path data-name="Path 107" d="M31.862 31.172a.61.61 0 10.432-.179.61.61 0 00-.432.179z"/><path data-name="Path 108" d="M27.976 27.293a.61.61 0 10.432-.179.61.61 0 00-.432.179z"/><path data-name="Path 109" d="M33.158 32.467a.61.61 0 10.666-.134.61.61 0 00-.666.134z"/><path data-name="Path 110" d="M29.455 14.291h-1.082a9.034 9.034 0 00-.858-2.06l.763-.76a1.618 1.618 0 00.47-1.157 1.9 1.9 0 00-.568-1.328l-.864-.861a1.776 1.776 0 00-2.493-.095l-.763.76a9.1 9.1 0 00-2.069-.861V6.867a1.767 1.767 0 00-1.831-1.676h-1.221a1.767 1.767 0 00-1.831 1.691v1.056a9.089 9.089 0 00-2.072.855l-.763-.76a1.776 1.776 0 00-2.493.1l-.861.858a1.9 1.9 0 00-.568 1.331 1.618 1.618 0 00.47 1.157l.763.76a9.028 9.028 0 00-.858 2.06H9.649a1.767 1.767 0 00-1.694 1.824v1.221a1.767 1.767 0 001.7 1.831h1.077a9.025 9.025 0 00.858 2.06l-.763.739a1.615 1.615 0 00-.47 1.157 1.9 1.9 0 00.568 1.331l.864.87a1.779 1.779 0 002.493.095l.671-.668.366.36h8.494l.351-.345.671.671a1.627 1.627 0 001.157.464 1.9 1.9 0 001.334-.577l.864-.858a1.9 1.9 0 00.562-1.221 1.618 1.618 0 00-.467-1.279l-.763-.76a9.04 9.04 0 00.858-2.06h1.075a1.767 1.767 0 001.7-1.831v-1.221a1.767 1.767 0 00-1.7-1.811zm-15.094 3.377a.61.61 0 110-1.221h.943a.61.61 0 010 1.221zm2.619 2.817l-.668.665a.61.61 0 01-.864-.861l.665-.665a.61.61 0 01.864.861zm0-5.991a.61.61 0 01-.864 0l-.668-.665a.61.61 0 11.864-.861l.668.665a.61.61 0 010 .861zm1.959-2.616a.61.61 0 111.221 0v.94a.61.61 0 11-1.221 0zm1.221 10.355a.61.61 0 11-1.221 0v-.942a.61.61 0 011.221 0zm1.108-4.532a1.831 1.831 0 11-.469-1.985 1.831 1.831 0 01.469 1.985zm.851-4.062l.668-.665a.61.61 0 01.864.861l-.668.665a.61.61 0 11-.864-.861zm1.526 7.52a.61.61 0 01-.864 0l-.668-.665a.61.61 0 11.864-.861l.668.665a.61.61 0 01.006.851zm1.093-3.491h-.943a.61.61 0 010-1.221h.943a.61.61 0 010 1.221z"/><path data-name="Path 111" d="M19.55 16.447a.61.61 0 10.555.354.61.61 0 00-.555-.354z"/></g></svg>