<svg xmlns="http://www.w3.org/2000/svg" width="38.185" height="43.861"><g data-name="3-2"><path data-name="Path 145" d="M11.325 22.623l-2.992 5.159s-1.65-1-.5-3.31a6.622 6.622 0 014.057-2.991 6.521 6.521 0 01.1 5.019c-1.141 2.308-2.941 1.61-2.941 1.61zM.908 26.556l3.788 4.431s1.4-1.166-.1-3.18A6.713 6.713 0 00.17 25.579a6.13 6.13 0 00.8 4.73c1.505 2.014 3.115 1.092 3.115 1.092zm16.089-15.162l5.822 7.152s1.879-1.685-.459-4.909a10.621 10.621 0 00-6.479-3.808 10.549 10.549 0 001.58 7.357c2.343 3.23 4.526 1.964 4.526 1.964zm15.85 10.7s2.118 1.042 4.1-2.123a9.88 9.88 0 001-6.978 9.9 9.9 0 00-5.822 3.987c-1.979 3.185-.115 4.615-.115 4.615l4.984-7.053zm-7.1-19.872l1.73 10.532s2.856-.608 2.363-5.194S25.51 0 25.51 0a12.294 12.294 0 00-2.632 8.3c.488 4.59 3.414 4.571 3.414 4.571zm4.167 26.69c1.236-3.055 3.584-8.9 3.584-8.9l-4.85 7.541a91.364 91.364 0 00-2.039-17.33s.384 9.644-.194 17.789c-.792-4.057-2.328-8.2-5.243-10.9 0 0 2.273 3.638 3.359 11.773h-6.477V32.4h2.6l1.59 11.464h10.045l1.59-11.464h2.592v-3.492zM7.642 36.783c.284-7.915 2.273-11.209 2.273-11.209A23.127 23.127 0 006.426 34.1a13.557 13.557 0 00-3.02-4.222 21.626 21.626 0 012.567 6.838v.07H3.286l.8 7.078h5.208l.8-7.078z" fill="#fff"/></g></svg>