<svg xmlns="http://www.w3.org/2000/svg" width="39.666" height="45.179"><g data-name="3-3"><g data-name="Group 4" fill="#fff"><path data-name="Path 23" d="M33.121 21.041a1.12 1.12 0 01.352.7h1.056a2.26 2.26 0 00-.7-1.548 2.061 2.061 0 00-1.126-.493v-1.192h-1.059v1.2a2.746 2.746 0 00-1.126.493 1.9 1.9 0 00-.7 1.548 2.26 2.26 0 00.7 1.548 2.657 2.657 0 001.619.563 1.681 1.681 0 01.985.352 1.12 1.12 0 01.352.7.866.866 0 01-.352.7 1.583 1.583 0 01-1.9 0 1.12 1.12 0 01-.352-.7h-1.056a2.26 2.26 0 00.7 1.548 2.829 2.829 0 001.126.563v1.2h1.056v-1.2a2.438 2.438 0 001.126-.563 1.9 1.9 0 00.7-1.548 2.26 2.26 0 00-.7-1.548 2.657 2.657 0 00-1.619-.563 1.681 1.681 0 01-.985-.352 1.12 1.12 0 01-.352-.7.977.977 0 01.352-.7 1.583 1.583 0 011.903-.008z"/><path data-name="Path 24" d="M32.558 15.904l3.448-4.5a.531.531 0 00.07-.563.471.471 0 00-.493-.281H20.877a.563.563 0 000 1.126h13.652l-3.307 4.293a7.448 7.448 0 00-6.474 7.389 4.328 4.328 0 00.07.985l-3.378 4.432a4.069 4.069 0 00-.844 2.533V41.73l-5 2.111V31.315a4.216 4.216 0 00-.844-2.533L1.595 11.611h6.052a.563.563 0 100-1.126H.539a.712.712 0 00-.493.281.531.531 0 00.07.563l13.723 18.156a3.088 3.088 0 01.633 1.9v13.3a.459.459 0 00.493.493.259.259 0 00.211-.07l6.052-2.533a.529.529 0 00.352-.493V31.315a3.088 3.088 0 01.633-1.9l2.885-3.73a7.469 7.469 0 107.459-9.782zm-.352 13.863a6.4 6.4 0 116.4-6.4 6.427 6.427 0 01-6.399 6.4z"/><path data-name="Path 25" d="M7.717 13.441l3.307 3.307 3.307-3.307-.774-.774-2.04 2.04V9.359h-1.055v5.348l-2.045-2.041z"/><path data-name="Rectangle 1" d="M10.461 6.896h1.056v1.056h-1.056z"/><path data-name="Rectangle 2" d="M10.461 4.785h1.056v1.056h-1.056z"/><path data-name="Path 26" d="M20.384 8.656l-.774-.7-2.041 2.037V4.574h-1.055v5.419l-2.045-2.041-.7.7 3.307 3.307z"/><path data-name="Rectangle 3" d="M16.513 2.111h1.056v1.056h-1.056z"/><path data-name="Rectangle 4" d="M16.513 0h1.056v1.056h-1.056z"/></g></g></svg>