<svg xmlns="http://www.w3.org/2000/svg" width="39.666" height="45.179" viewBox="0 0 39.666 45.179">
  <g id="_3-3" data-name="3-3" transform="translate(-4.334 -0.4)">
    <g id="Group_4" data-name="Group 4" transform="translate(4.334 0.4)">
      <path id="Path_23" data-name="Path 23" d="M50.007,29.233a1.12,1.12,0,0,1,.352.7h1.056a2.26,2.26,0,0,0-.7-1.548,2.061,2.061,0,0,0-1.126-.493V26.7H48.53v1.2a2.746,2.746,0,0,0-1.126.493,1.9,1.9,0,0,0-.7,1.548,2.26,2.26,0,0,0,.7,1.548,2.657,2.657,0,0,0,1.619.563,1.681,1.681,0,0,1,.985.352,1.12,1.12,0,0,1,.352.7.866.866,0,0,1-.352.7,1.583,1.583,0,0,1-1.9,0,1.12,1.12,0,0,1-.352-.7H46.7a2.26,2.26,0,0,0,.7,1.548,2.829,2.829,0,0,0,1.126.563v1.2h1.056v-1.2a2.438,2.438,0,0,0,1.126-.563,1.9,1.9,0,0,0,.7-1.548,2.26,2.26,0,0,0-.7-1.548,2.657,2.657,0,0,0-1.619-.563,1.681,1.681,0,0,1-.985-.352,1.12,1.12,0,0,1-.352-.7.977.977,0,0,1,.352-.7A1.583,1.583,0,0,1,50.007,29.233Z" transform="translate(-16.886 -8.192)" fill="#fff"/>
      <path id="Path_24" data-name="Path 24" d="M36.892,20.719l3.448-4.5a.531.531,0,0,0,.07-.563.471.471,0,0,0-.493-.281H25.211a.563.563,0,0,0,0,1.126H38.863l-3.307,4.293a7.448,7.448,0,0,0-6.474,7.389,4.328,4.328,0,0,0,.07.985L25.774,33.6a4.069,4.069,0,0,0-.844,2.533V46.545l-5,2.111V36.13a4.216,4.216,0,0,0-.844-2.533L5.929,16.426h6.052a.563.563,0,1,0,0-1.126H4.873a.712.712,0,0,0-.493.281.531.531,0,0,0,.07.563L18.173,34.3a3.088,3.088,0,0,1,.633,1.9V49.5a.459.459,0,0,0,.493.493.259.259,0,0,0,.211-.07l6.052-2.533a.529.529,0,0,0,.352-.493V36.13a3.088,3.088,0,0,1,.633-1.9l2.885-3.73a7.469,7.469,0,1,0,7.459-9.782Zm-.352,13.863a6.4,6.4,0,1,1,6.4-6.4A6.427,6.427,0,0,1,36.541,34.582Z" transform="translate(-4.334 -4.815)" fill="#fff"/>
      <path id="Path_25" data-name="Path 25" d="M15.3,17.782l3.307,3.307,3.307-3.307-.774-.774L19.1,19.048V13.7H18.045v5.348L16,17.007Z" transform="translate(-7.583 -4.341)" fill="#fff"/>
      <rect id="Rectangle_1" data-name="Rectangle 1" width="1.056" height="1.056" transform="translate(10.461 6.896)" fill="#fff"/>
      <rect id="Rectangle_2" data-name="Rectangle 2" width="1.056" height="1.056" transform="translate(10.461 4.785)" fill="#fff"/>
      <path id="Path_26" data-name="Path 26" d="M30.515,10.982l-.774-.7L27.7,12.319V6.9H26.645v5.419L24.6,10.278l-.7.7,3.307,3.307Z" transform="translate(-10.131 -2.326)" fill="#fff"/>
      <rect id="Rectangle_3" data-name="Rectangle 3" width="1.056" height="1.056" transform="translate(16.513 2.111)" fill="#fff"/>
      <rect id="Rectangle_4" data-name="Rectangle 4" width="1.056" height="1.056" transform="translate(16.513)" fill="#fff"/>
    </g>
  </g>
</svg>
