<svg xmlns="http://www.w3.org/2000/svg" width="40.56" height="40.559"><g data-name="4-2" fill="#fff"><path data-name="Path 122" d="M0 31.518a9.042 9.042 0 1013.11-8.064l1.757-2.828a.508.508 0 10-.867-.531l-1.83 2.951A9.016 9.016 0 000 31.518zm4.159 6.357a4.854 4.854 0 013.46-4.561.507.507 0 00.1-.93 3.007 3.007 0 112.792.035.507.507 0 00.07.933 4.876 4.876 0 013.346 4.522 7.972 7.972 0 01-9.765 0zm4.882-14.38a8.016 8.016 0 015.82 13.54 5.886 5.886 0 00-3.071-4.261 4.016 4.016 0 10-5.364-.079 5.848 5.848 0 00-3.205 4.331 8.016 8.016 0 015.82-13.531z"/><path data-name="Path 123" d="M31.519 22.476a8.979 8.979 0 00-3.128.569l-1.836-2.95a.507.507 0 10-.862.535l1.757 2.828a9.024 9.024 0 104.068-.978zm-4.883 15.4a4.854 4.854 0 013.461-4.56.507.507 0 00.1-.93 3.007 3.007 0 112.792.035.507.507 0 00.07.933 4.876 4.876 0 013.346 4.522 7.972 7.972 0 01-9.765 0zm10.7-.844a5.885 5.885 0 00-3.071-4.261 4.016 4.016 0 10-5.362-.076 5.848 5.848 0 00-3.205 4.331 8.027 8.027 0 1111.641 0z"/><path data-name="Path 124" d="M20.28 5.16a4.6 4.6 0 104.6 4.6 4.6 4.6 0 00-4.6-4.6zm0 8.184a3.585 3.585 0 113.585-3.585 3.589 3.589 0 01-3.585 3.585z"/><path data-name="Path 125" d="M29.585 8.268a.507.507 0 00.443-.61 9.892 9.892 0 00-1.37-3.3.507.507 0 00-.744-.119 1.5 1.5 0 01-2.109-2.109.507.507 0 00-.119-.744 9.892 9.892 0 00-3.3-1.37.507.507 0 00-.61.443 1.5 1.5 0 01-2.983 0 .507.507 0 00-.206-.357.514.514 0 00-.4-.085 9.892 9.892 0 00-3.3 1.37.507.507 0 00-.119.744 1.5 1.5 0 01-2.109 2.109.507.507 0 00-.744.119 9.892 9.892 0 00-1.37 3.3.507.507 0 00.443.61 1.5 1.5 0 010 2.983.507.507 0 00-.443.61 9.892 9.892 0 001.37 3.3.507.507 0 00.346.225.5.5 0 00.4-.106 1.5 1.5 0 012.109 2.109.507.507 0 00.119.744 9.892 9.892 0 003.3 1.37.507.507 0 00.61-.443 1.5 1.5 0 012.983 0 .507.507 0 00.5.454.515.515 0 00.106-.011 9.892 9.892 0 003.3-1.37.507.507 0 00.119-.744 1.5 1.5 0 012.109-2.109.5.5 0 00.4.106.507.507 0 00.346-.225 9.892 9.892 0 001.37-3.3.507.507 0 00-.443-.61 1.5 1.5 0 010-2.983zm-.667 3.866a8.875 8.875 0 01-.852 2.053 2.516 2.516 0 00-3.359 3.359 8.875 8.875 0 01-2.053.852 2.515 2.515 0 00-4.75 0 8.875 8.875 0 01-2.053-.852 2.516 2.516 0 00-3.359-3.359 8.875 8.875 0 01-.852-2.053 2.515 2.515 0 000-4.75 8.874 8.874 0 01.852-2.053 2.516 2.516 0 003.359-3.359 8.875 8.875 0 012.053-.852 2.515 2.515 0 004.75 0 8.875 8.875 0 012.053.852 2.516 2.516 0 003.363 3.359 8.875 8.875 0 01.852 2.053 2.515 2.515 0 000 4.75z"/></g></svg>