<svg id="_4-3" data-name="4-3" xmlns="http://www.w3.org/2000/svg" width="32" height="32" viewBox="0 0 32 32">
  <g id="_99-Photography" data-name="99-Photography">
    <path id="Path_118" data-name="Path 118" d="M16,0A16,16,0,1,0,32,16,16,16,0,0,0,16,0ZM28.63,10H16a6,6,0,0,0-1.16.11l4.49-7.7A14,14,0,0,1,28.63,10ZM20,16a4,4,0,1,1-.73-2.29l.08.11A4,4,0,0,1,20,16ZM16,2a8.243,8.243,0,0,1,1.22.06L11.14,12.5h0a6,6,0,0,0-.54.9L6.19,6A14,14,0,0,1,16,2ZM2,16A13.908,13.908,0,0,1,4.808,7.623L10,16.3A6,6,0,0,0,11.54,20h-9A13.94,13.94,0,0,1,2,16Zm1.37,6H16a6,6,0,0,0,1.16-.11l-4.49,7.7A14,14,0,0,1,3.37,22ZM16,30a8.243,8.243,0,0,1-1.22-.06L20.86,19.5h0a6,6,0,0,0,.94-2l5,7.44A14,14,0,0,1,16,30Zm5-17.23-.14-.21-.08-.12h0a5.751,5.751,0,0,0-.37-.45h9A13.86,13.86,0,0,1,28,23.19Z" fill="#fff"/>
  </g>
</svg>
