<svg xmlns="http://www.w3.org/2000/svg" width="45.196" height="45.196"><g data-name="4-4"><path data-name="Path 1" d="M18.974 5.314a1.213 1.213 0 01.094-1.26L21.611.506a1.213 1.213 0 011.972 0l2.543 3.548a1.213 1.213 0 01-.986 1.92h-.656v3.525a.448.448 0 01-.448.448h-.042a12.711 12.711 0 00-2.765 0 .448.448 0 01-.472-.444V5.98h-.663a1.208 1.208 0 01-1.12-.666zm11.432 7.03a.443.443 0 00.165.326 12.838 12.838 0 011.935 1.953.472.472 0 00.326.165h.024a.472.472 0 00.316-.132l2.491-2.491.472.472a1.213 1.213 0 002.052-.661l.712-4.308a1.213 1.213 0 00-1.415-1.415l-4.27.741a1.213 1.213 0 00-.661 2.052l.472.472-2.491 2.487a.444.444 0 00-.128.34zm-23.077.293a1.213 1.213 0 001.713 0l.472-.472 2.491 2.491a.444.444 0 00.316.132h.024a.472.472 0 00.344-.165 12.829 12.829 0 011.935-1.929.448.448 0 00.038-.665l-2.491-2.491.472-.472a1.213 1.213 0 00-.661-2.052l-4.308-.72a1.213 1.213 0 00-1.416 1.417l.712 4.308a1.208 1.208 0 00.359.618zm1.713 19.916a1.213 1.213 0 00-2.048.661l-.712 4.308a1.213 1.213 0 001.412 1.415l4.308-.712a1.213 1.213 0 00.661-2.052l-.472-.472 2.491-2.491a.448.448 0 00-.057-.7 12.853 12.853 0 01-1.931-1.938.448.448 0 00-.665-.038l-2.491 2.491zm30.839-13.579a1.208 1.208 0 00-.656 1.076v.661H35.7a.448.448 0 00-.444.472 12.64 12.64 0 010 2.765.448.448 0 00.444.472h3.525v.665a1.213 1.213 0 001.916.986l3.548-2.543a1.213 1.213 0 000-1.972l-3.548-2.487a1.227 1.227 0 00-1.26-.094zm-6.663 19.232l4.308.712a1.213 1.213 0 001.415-1.415l-.736-4.289a1.213 1.213 0 00-2.052-.661l-.472.472-2.487-2.491a.448.448 0 00-.684.038 12.838 12.838 0 01-1.934 1.934.448.448 0 00-.038.665l2.491 2.491-.472.472a1.213 1.213 0 00.661 2.052zm-8.078 1.019h-.656V35.7a.448.448 0 00-.472-.444 12.692 12.692 0 01-2.765 0 .448.448 0 00-.472.444v3.525h-.721a1.213 1.213 0 00-.986 1.916l2.543 3.548a1.213 1.213 0 001.972 0l2.543-3.548a1.213 1.213 0 00-.986-1.916zM.502 23.584l3.548 2.543a1.213 1.213 0 001.916-.986v-.656h3.528a.448.448 0 00.444-.472 12.636 12.636 0 010-2.765.448.448 0 00-.444-.472H5.97v-.722a1.213 1.213 0 00-1.916-.986L.507 21.611a1.213 1.213 0 000 1.972zm12.537-3.775a16.939 16.939 0 0119.114 0 1.916 1.916 0 01.826 1.3 1.887 1.887 0 01-1.855 2.135 1.934 1.934 0 01-1.09-.335 13.131 13.131 0 00-2.411-1.288 5.369 5.369 0 01.41 2.17 5.454 5.454 0 01-5.439 5.323 5.624 5.624 0 01-.7-.042 5.426 5.426 0 01-4.317-7.455 13.145 13.145 0 00-2.411 1.293 1.934 1.934 0 01-1.09.335 1.887 1.887 0 01-1.859-2.133 1.916 1.916 0 01.826-1.316zm7.29 3.874a2.269 2.269 0 102.265-2.27 2.269 2.269 0 00-2.269 2.269z" fill="#fff"/></g></svg>