<svg xmlns="http://www.w3.org/2000/svg" width="42.874" height="57.019"><g data-name="4-5"><g data-name="Group 24"><path data-name="Path 120" d="M7.798 19.85a13.47 13.47 0 1126.941 0 14.6 14.6 0 01-1.756 6.69 39.5 39.5 0 00-3.9 13.942c-.367 3.124-.574 4.89-2.676 5.294v5.757a3.561 3.561 0 01-1.666 3.009 2.575 2.575 0 01-.71 1.727 2.385 2.385 0 01-1.727.751H20.24a2.386 2.386 0 01-1.727-.751 2.577 2.577 0 01-.71-1.728 3.585 3.585 0 01-1.5-1.947 3.524 3.524 0 01-.163-1.062v-5.758c-2.094-.407-2.3-2.173-2.667-5.292a39.513 39.513 0 00-3.967-14.07 13.615 13.615 0 01-1.708-6.562zm12.989 1.929a2.62 2.62 0 01-1.366-.582 2.355 2.355 0 01-.8-1.522c-.2-1.748 2.172-1.505 2.212-.419.023.615.884.552.453-.145a3.792 3.792 0 00-.253-.353 8.914 8.914 0 00-1.006-1.041 4.068 4.068 0 01-1.265-1.926 2.857 2.857 0 01-.032-1.539 2.116 2.116 0 01.852-1.205 2.537 2.537 0 011.16-.409v-.741a.613.613 0 111.222-.009v.763a2.323 2.323 0 01.468.119 2.111 2.111 0 011.4 1.984 1.083 1.083 0 01-2.092.3c-.167-.554-.749-.378-.408.326a4.076 4.076 0 001.039 1.163 3.4 3.4 0 011.565 2.9 2.539 2.539 0 01-.671 1.616 2.4 2.4 0 01-1.27.7v.832c0 .7-1.22.722-1.211 0zm2.013-1.166a1.893 1.893 0 00.5-1.206 2.887 2.887 0 00-1.347-2.385 4.531 4.531 0 01-1.193-1.368c-.755-1.562 1.181-2.213 1.61-.794.133.439.836.216.826-.088a1.468 1.468 0 00-.988-1.4 2.929 2.929 0 00-1.374-.129 1.682 1.682 0 00-1.477 1.178 2.208 2.208 0 00.032 1.19 3.415 3.415 0 001.067 1.615 9.638 9.638 0 011.087 1.127 2.564 2.564 0 01.528.947.916.916 0 01-1.281.947 1 1 0 01-.6-.971c-.007-.194-1.022-.539-.924.323a1.706 1.706 0 00.578 1.1 2.364 2.364 0 002.956-.086zM20.8.32a.324.324 0 01.648 0v3.432a.324.324 0 01-.648 0zm10.655 2.1a.324.324 0 01.537.362l-2.01 2.972a.324.324 0 01-.537-.362zm7.968 6.395a.323.323 0 01.286.58l-3.48 1.716a.323.323 0 01-.286-.58zm3.126 8.946a.324.324 0 010 .648H38.53a.324.324 0 010-.648zm-2.532 9.085a.323.323 0 01-.286.58L36.25 25.71a.323.323 0 01.286-.58zM3.441 27.882a.323.323 0 01-.286-.58l3.48-1.716a.323.323 0 01.286.58zM.315 18.936a.324.324 0 010-.648h4.019a.324.324 0 010 .648zm2.532-9.085a.323.323 0 01.286-.58l3.481 1.716a.323.323 0 01-.286.58zm7.491-6.805a.324.324 0 01.537-.362l2.01 2.972a.324.324 0 01-.537.362zm6.511 49.123c1.946.7 6.594.647 8.682.467a2.878 2.878 0 00.22-1.105c0-.061.006-.1-.078-.093-2.242.2-6.767.256-8.9-.46a5.234 5.234 0 00.081 1.193zm8.475.872a29.154 29.154 0 01-8.334-.423 2.92 2.92 0 002.7 1.821h3.157a2.884 2.884 0 001.512-.427 2.948 2.948 0 00.97-.969zm-8.546-2.474c1.865.739 6.823.669 8.86.484.12-.011.113-.015.113-.074V49.97c0-.1.014-.116-.172-.1-2.271.2-6.7.238-8.8-.468zm0-1.575c1.865.739 6.823.669 8.86.484.126-.011.113-.032.113-.139v-.924c-.006-.124.011-.132-.215-.113-2.284.193-6.673.229-8.758-.472zm0-1.575c1.842.729 6.7.671 8.782.491.237-.02.194-.057.191-.219v-1.822a41.043 41.043 0 01-8.973-.006zm7.269 7.458a3.53 3.53 0 01-1.2.211H19.69a3.523 3.523 0 01-1.2-.211 1.92 1.92 0 00.491.945 1.74 1.74 0 001.259.548h2.064a1.738 1.738 0 001.258-.548 1.921 1.921 0 00.489-.942zm3.9-11.482a59.339 59.339 0 01-13.346.033 2.1 2.1 0 001.8 1.735 37.318 37.318 0 009.988-.052 2.138 2.138 0 001.562-1.714zm-13.453-.372c3.033.421 10.636.587 13.561-.045.158-.7.259-1.553.378-2.571a40.106 40.106 0 013.938-14.1c-5.26-1.232-16.955-1.254-22.2 0a40.1 40.1 0 013.939 14.1 25.6 25.6 0 00.388 2.615zm6.771-34.464a.195.195 0 010-.389 11.679 11.679 0 0111.679 11.678.2.2 0 01-.389 0A11.289 11.289 0 0021.269 8.56zm11.4 17.156a13.421 13.421 0 001.424-5.866 12.822 12.822 0 10-24.227 5.868c5.264-1.32 17.528-1.295 22.805.001z" fill="#fff"/></g></g></svg>