<svg xmlns="http://www.w3.org/2000/svg" width="56.1" height="52.267" viewBox="0 0 56.1 52.267">
  <g id="_1-1" data-name="1-1" transform="translate(-1.7 -5)">
    <path id="Path_138" data-name="Path 138" d="M36.951,23.758h0v-.232l.639-9.64v-.116h0a1.576,1.576,0,0,1,3.136.058h0l.581,8.769a1.071,1.071,0,0,0,.29.7l3.891,4.646.058.058h0a1.663,1.663,0,0,1-.116,2.091,1.543,1.543,0,0,1-2.149.058h0l-5.4-4.53c-.116-.058-.174-.174-.29-.232a2.281,2.281,0,0,1-.639-1.626ZM39.332,5a18.529,18.529,0,0,0-17.48,12.486,21.254,21.254,0,0,1,4.7,1.045A13.7,13.7,0,1,1,41.481,37a20.866,20.866,0,0,1,.174,2.73c0,.7-.058,1.394-.116,2.091A18.476,18.476,0,0,0,39.332,5Zm-2.5,34.671A17.568,17.568,0,1,1,19.3,22.132,17.573,17.573,0,0,1,36.835,39.671ZM22.607,38.625a27.143,27.143,0,0,0-2.962-1.336,6.525,6.525,0,0,1-1.626-.929,1.417,1.417,0,0,1,.348-2.5,2.713,2.713,0,0,1,.987-.174h.465a7.04,7.04,0,0,1,3.252.755,1.1,1.1,0,0,0,.523.174c.232,0,.348-.174.465-.581a19.594,19.594,0,0,0,.581-1.975.676.676,0,0,0-.465-.929,8.242,8.242,0,0,0-2.323-.7c-1.045-.174-1.045-.174-1.045-1.22,0-1.452,0-1.51-1.336-1.51h-.813c-.7,0-.813.116-.871.871v.929c0,.929,0,.929-.929,1.278A4.951,4.951,0,0,0,13.2,35.431a4.856,4.856,0,0,0,2.73,4.588,29.614,29.614,0,0,0,3.368,1.51,4.178,4.178,0,0,1,1.22.7,1.692,1.692,0,0,1-.407,2.962,3.833,3.833,0,0,1-1.568.348,1.976,1.976,0,0,1-.581-.058,9.488,9.488,0,0,1-3.31-.987,1.337,1.337,0,0,0-.523-.174c-.232,0-.348.174-.465.581l-.523,1.742c-.232.755-.116.987.581,1.336a10.826,10.826,0,0,0,2.962.871c.813.116.813.174.813.987V51c0,.465.232.755.7.755h1.626a.616.616,0,0,0,.7-.7V49.485a.845.845,0,0,1,.7-.929,5.374,5.374,0,0,0,2.9-1.858A5.15,5.15,0,0,0,22.607,38.625Z" fill="#fff"/>
  </g>
</svg>
