<svg xmlns="http://www.w3.org/2000/svg" width="42.3" height="42.3"><g data-name="1-3"><g data-name="Group 25" fill="#fff"><path data-name="Path 126" d="M32.687 23.073a9.614 9.614 0 109.614 9.614 9.613 9.613 0 00-9.614-9.614zm0 15.382a5.768 5.768 0 115.768-5.768 5.775 5.775 0 01-5.768 5.768z"/><path data-name="Path 127" d="M9.614 19.227A9.614 9.614 0 100 9.614a9.612 9.612 0 009.614 9.613zm0-15.382a5.768 5.768 0 11-5.768 5.768 5.775 5.775 0 015.768-5.768z"/><path data-name="Path 128" d="M15.382 42.3L9.05 35.97 41.737 3.282 39.018.563 6.332 33.249 0 26.918V42.3z"/></g></g></svg>