<svg xmlns="http://www.w3.org/2000/svg" width="55.061" height="26.5" viewBox="0 0 55.061 26.5">
  <g id="_2-1" data-name="2-1" transform="translate(-5.325 -25.81)">
    <circle id="Ellipse_1" data-name="Ellipse 1" cx="6.028" cy="6.028" r="6.028" transform="translate(11.909 25.81)" fill="#fff"/>
    <circle id="Ellipse_2" data-name="Ellipse 2" cx="6.028" cy="6.028" r="6.028" transform="translate(41.746 25.81)" fill="#fff"/>
    <path id="Path_3" data-name="Path 3" d="M42.383,48.068h18a14.3,14.3,0,0,0-9.078-7.213,6.814,6.814,0,0,1-7.069.016,14.014,14.014,0,0,0-4.756,2.293l-3.795-6.576a3.5,3.5,0,0,0-2.955-1.968,3.538,3.538,0,0,0-2.96,2l-3.714,6.45a14.1,14.1,0,0,0-4.59-2.149,7.425,7.425,0,0,1-3.535.964A7.5,7.5,0,0,1,14.4,40.821a14.35,14.35,0,0,0-9.076,7.247H23.108l-.935,1.691a3.291,3.291,0,0,0,2.957,5.248h15.2a3.546,3.546,0,0,0,3.19-1.623,3.8,3.8,0,0,0-.232-3.71Zm-.818,3.927c-.162.278-.622.237-1.232.237H25.13c-.609,0-1.07.042-1.231-.238s-.076-.594.232-1.13l7.6-13.16c.307-.533.682-.842,1-.842s.69.285,1,.814l7.6,13.117C41.641,51.327,41.728,51.711,41.565,51.995Z" transform="translate(0 -2.697)" fill="#fff"/>
    <path id="Path_4" data-name="Path 4" d="M44.388,50.095c.625,0,1.388-.506,1.388-1.13V42.182c0-.624-.763-1.13-1.388-1.13S43,41.558,43,42.182v6.782C43,49.588,43.764,50.095,44.388,50.095Z" transform="translate(-11.532 -4.666)" fill="#fff"/>
    <circle id="Ellipse_3" data-name="Ellipse 3" cx="1.413" cy="1.413" r="1.413" transform="translate(31.42 46.238)" fill="#fff"/>
  </g>
</svg>
