<svg xmlns="http://www.w3.org/2000/svg" width="44.086" height="52.177"><g data-name="2-2"><g data-name="Group 23"><path data-name="Path 113" d="M11.723 46.646l1.981.083v-.165a6.042 6.042 0 00-4.541-4.623l-.248-.083v-7.6l.248-.083a5.709 5.709 0 004.541-4.706v-.078h-1.981v.083c-.413 1.734-1.734 2.807-3.88 3.055l-.908.083v10.9l.826.083a4.525 4.525 0 013.962 3.051z" fill="#fff"/><path data-name="Path 114" d="M35.169 42.022l-.248.083a4.57 4.57 0 00-1.816.826c-.248.165-.413.248-.5.413a2.513 2.513 0 00-.66.66 1.449 1.449 0 00-.33.413 5.766 5.766 0 00-.908 1.734c-.083.165-.083.248-.165.413 0 .083-.083.165-.083.248v.165h1.981v-.166c.083-.165.083-.33.165-.413a3.407 3.407 0 012.147-1.981 3.442 3.442 0 01.5-.165.9.9 0 01.413-.083c.165 0 .33-.083.578-.083l.826-.083V33.106l-.826-.083c-.165 0-.33-.083-.5-.083a3.576 3.576 0 00-.413-.083c-.083 0-.165-.083-.33-.083h-.083a3.586 3.586 0 01-2.559-2.807v-.081h-1.977v.165c.66 2.559 1.9 3.963 4.045 4.541.165 0 .248.083.413.083l.248.083.083 7.265z" fill="#fff"/><path data-name="Path 115" d="M18.741 43.177a5.531 5.531 0 001.486.578c.165 0 .33.083.5.083l.248.083v1.734h2.064v-1.816l.248-.083a.626.626 0 00.33-.165 4.627 4.627 0 001.238-.826l.33-.33a1.8 1.8 0 00.248-.413 4.654 4.654 0 00.33-.991 3 3 0 00-1.4-3.137 7.049 7.049 0 00-1.734-.908 5.579 5.579 0 01-1.238-.66.745.745 0 01-.33-.908.987.987 0 01.66-.743 2.653 2.653 0 011.4 0 3.255 3.255 0 011.156.413l.5.33.33-.743a5.692 5.692 0 00.33-.826.667.667 0 00-.33-.743l-.165-.083c-.248-.083-.5-.248-.743-.33a1.405 1.405 0 00-.578-.083l-.248-.083v-1.65h-1.991v1.734l-.248.083a3.239 3.239 0 00-1.156.66 3.042 3.042 0 00-.083 4.706 9.055 9.055 0 001.9 1.073 6.5 6.5 0 011.321.66 1.167 1.167 0 01.5 1.156.588.588 0 01-.248.5l-.33.33c-.083 0-.083.083-.165.083a1.555 1.555 0 01-.66.165h-.255a4.073 4.073 0 01-1.9-.5l-.743-.413-.33.826c-.083.248-.165.413-.248.66a.623.623 0 00.083.66c-.245-.164-.162-.083-.079-.083z" fill="#fff"/><g data-name="Group 22"><path data-name="Path 116" d="M43.1 25.51a3.124 3.124 0 00-2.312-.991l-34.266-.082H3.385a2.814 2.814 0 00-1.816.578 3.591 3.591 0 00-.578.5 3.056 3.056 0 00-.826 2.147L0 48.461a3.224 3.224 0 003.22 3.22l16.677.083h4.21l16.512.083v.33h.248v-.33a3 3 0 002.147-.908 3.389 3.389 0 00.908-2.312l.164-20.89a2.948 2.948 0 00-.986-2.227zm-1.161 23.117a1.467 1.467 0 01-.33.826 1.06 1.06 0 01-.826.33H3.3a1.27 1.27 0 01-1.238-1.238V27.737a1.238 1.238 0 01.908-1.156c.083 0 .165-.083.33-.083h3.88l29.308.083h4.376a1.261 1.261 0 01.826.33 1.06 1.06 0 01.33.826z" fill="#fff"/></g><path data-name="Path 117" d="M6.357 22.951a6.3 6.3 0 01.165-2.477 11.634 11.634 0 011.4-2.642l.5-.743a6.308 6.308 0 001.073-3.467 9.1 9.1 0 00-.165-1.486 3.092 3.092 0 011.651 1.981 6.52 6.52 0 01.165 2.89v.083a4.125 4.125 0 00.991 3.137 4.982 4.982 0 00.66.66 4.57 4.57 0 002.807.908c1.981 0 3.963-1.156 4.128-3.385a3.1 3.1 0 00-.083-.826 3.069 3.069 0 00-.743-1.569 4.719 4.719 0 00-.578-.66l-.33-.33-.165-.165c-.083-.165-.248-.33-.33-.5a6.765 6.765 0 01-.33-6.852 10.641 10.641 0 013.22-3.88 4.193 4.193 0 00-.248 1.4 8.74 8.74 0 00.5 4.21 7.768 7.768 0 00.991 1.816l.984 1.246a7.944 7.944 0 011.073 1.4 6.624 6.624 0 01.908 2.807 4.02 4.02 0 01.083.991c.083 1.321.165 2.972 1.486 4.045.083.083.165.083.248.165l.083.083.165.083c.33.083.578.248.908.33l.248.083a3.481 3.481 0 002.394-.413c.248-.165.413-.248.66-.413a4.982 4.982 0 00.66-.66 4.434 4.434 0 00.991-3.22c0-.33-.083-.66-.083-.991a7.225 7.225 0 01.248-1.981 3.308 3.308 0 011.651-1.981 6.049 6.049 0 00.908 4.953l.33.578c.413.578.743 1.238 1.156 1.9 0 .083.083.165.083.248l.083.165a8.067 8.067 0 01.908 2.477h2.064a10.116 10.116 0 00-1.155-3.465l-.165-.165a1.188 1.188 0 01-.165-.248c-.413-.66-.743-1.321-1.156-1.9l-.33-.578a4.253 4.253 0 01-.66-3.385 3.45 3.45 0 01.33-.826l.908-2.064h-1.817a1.047 1.047 0 00-.5.083 5.153 5.153 0 00-4.376 3.715 8.025 8.025 0 00-.33 2.559 5.849 5.849 0 00.083 1.156 2.274 2.274 0 01-.5 1.816c-.083.165-.248.248-.33.33s-.248.165-.33.248a2.542 2.542 0 01-1.073.248c-.248-.083-.5-.165-.826-.248-.578-.5-.66-1.321-.743-2.559a4.361 4.361 0 00-.083-1.073 10.556 10.556 0 00-1.156-3.55 10.585 10.585 0 00-1.4-1.816 5.3 5.3 0 01-.826-1.073 4.589 4.589 0 01-.743-1.4 7.155 7.155 0 01-.413-3.3 3.839 3.839 0 01.254-1.654 7.162 7.162 0 00.413-2.312V0l-1.4.5a6.172 6.172 0 00-1.981 1.238l-.083.083a12.571 12.571 0 00-4.128 4.871 8.717 8.717 0 00.5 8.751c.165.165.248.413.413.578a.288.288 0 01.083.165l.083.083c.165.165.248.33.413.5a2.189 2.189 0 01.413.5 3.346 3.346 0 01.413.743v.33c-.083 1.156-1.4 1.4-2.064 1.4a2.154 2.154 0 01-1.486-.5c-.165-.083-.248-.248-.33-.33a2.09 2.09 0 01-.5-1.734v-.088a8.273 8.273 0 00-.33-3.633A5.255 5.255 0 008.42 9.742c-.165 0-.33-.083-.5-.083H5.944l.991 2.064a5.207 5.207 0 01.413 1.816 4.508 4.508 0 01-.743 2.394l-.5.743a12.58 12.58 0 00-1.651 3.137 7.8 7.8 0 00-.248 3.055h2.147z" fill="#fff"/></g></g></svg>