<svg id="mail" xmlns="http://www.w3.org/2000/svg" width="116.314" height="104.773" viewBox="0 0 116.314 104.773">
  <path id="Path_2008" data-name="Path 2008" d="M2016.145,4249.892l-.232.044c-.325.064-.25.053-.172.414.065.3.135.568.176.8.115.666.166.761.274-.062.031-.238.084-.526.139-.861C2016.39,4249.855,2016.48,4249.828,2016.145,4249.892Zm-60.245,68.958-19.01-22.827c-.7-.84-.472-.849-1.166-.015l-18.949,22.776c-.842,1.012-.929.852.385.852h38.5C1956.794,4319.636,1956.634,4319.731,1955.9,4318.851Zm-18.24-23.863,19.714,23.672c.69.828.58.665.58-.3v-56.768c0-1.113.213-1-.781-.841a7.868,7.868,0,0,1-3.462-.017c-1.23-.459-.925-.813-1.749.165l-14.524,17.26c-.387.459-.374.312.018.779l5.521,6.567c.6.8.768.863-.07,1.874l-5.28,6.346C1937.006,4294.468,1937.029,4294.23,1937.66,4294.987Zm-22.048-40.09c-.589-.7-.469-.661-.469.242v62.55c0,1.319-.136,1.267.708.253l25.616-30.789c.729-.875.75-.6.025-1.461Q1928.553,4270.3,1915.612,4254.9Zm20.941,22.362L1951,4260.086c.594-.706.56-.443-.055-1.024a6.452,6.452,0,0,1-.51-.54,5.777,5.777,0,0,1-1.288-4.817c.122-.662.278-.554-.454-.554h-32.213c-.922,0-.84-.163-.2.6l19.748,23.491C1936.33,4277.569,1936.321,4277.522,1936.553,4277.26Zm22.953-15.965c.229.582.464,1.152.7,1.7.412.951.835,1.844,1.25,2.62a5.93,5.93,0,0,0,2.51,2.647,3.712,3.712,0,0,0,4.856-1.38c.893-1.652-.091-3.542-.8-5.083a15.53,15.53,0,0,1-.988-2.51c-.333-1.259.114-1.169-1.3-.722-1.923.609-3.925,1.212-5.744,1.634C1958.971,4260.436,1959.095,4260.249,1959.506,4261.294Zm-.292,3.91v53.737a1.958,1.958,0,0,1-1.954,1.954h-41.423a1.958,1.958,0,0,1-1.954-1.954v-65.1a1.958,1.958,0,0,1,1.954-1.954h29.411c1.022,0,.838.161.977-.853.183-1.332.346-2.538.49-3.6.957-7.07.951-9.933,5.712-15.762a74.737,74.737,0,0,1,7.321-7.729,45.333,45.333,0,0,1,7.168-5.49c4.936-2.909,8.954-2.672,14.307-1.59,5.466,1.106,12.5,3.087,18.175,4.684,4.666,1.314,9.314,2.567,14.042,3.612,1.394.309,1.146.525,1.426-.74a9.7,9.7,0,0,1,.328-1.181c.429-1.181.793-1.158,1.7-1.155l12.681.043a.627.627,0,0,1,0,1.255l-12.168-.042a16.066,16.066,0,0,1,.713,3.63,104.556,104.556,0,0,1-.246,21.218c-.156,1.221-.277,2.182-.47,3.05-.159.719-.017.58.785.583l11.386.04a.627.627,0,0,1,0,1.254l-13.039-.043c-.906,0-1.265.044-1.688-1.133a10.4,10.4,0,0,1-.413-1.7c-1.532.333-3.094.715-4.748,1.12a127.672,127.672,0,0,1-30.514,4.229c-.984,1.34-.33,3.156.338,5.009.981,2.722,1.986,5.511-.981,7.725-1.565,1.167-.334.061-1.458,1.852a5.117,5.117,0,0,1-6.255,2.034,6.065,6.065,0,0,1-2.406-2.27c-.5-.775-.175-.644-1-.342a5.028,5.028,0,0,1-4.009-.212,7.148,7.148,0,0,1-3.061-3.184c-.191-.356-.383-.737-.576-1.138C1959.1,4263.662,1959.214,4263.567,1959.214,4265.2Zm-11.225-13.313h1.225c.644,0,.492.112.817-.392a6.375,6.375,0,0,1,1.253-1.422,15.347,15.347,0,0,1,3.469-1.882c1.145-.49.917-.188,1.177-1.4a19.644,19.644,0,0,1,1.667-5.019c1.2-2.285,2.92-3.57,4.947-5.03a17.265,17.265,0,0,0,2.9-2.385c.777-.845.689-.6.338-1.531-.077-.2-.146-.415-.208-.634a9.935,9.935,0,0,1-.342-2.225.628.628,0,0,1,1.255-.06,8.679,8.679,0,0,0,.3,1.945,6.64,6.64,0,0,0,2.487,3.523c1.49,1.178,4.165,2.385,5.339,3.807a4.9,4.9,0,0,1,1,1.959c.278,1.12-.189,1.36,1.109.682a2.88,2.88,0,0,0,1.716-2.3,3.946,3.946,0,0,0-.378-2.475,22.179,22.179,0,0,1-2.235-6.309.628.628,0,0,1,1.24-.2,20.955,20.955,0,0,0,2.117,5.95,5.31,5.31,0,0,1,.556,1.957c.087,1.063-.271,1.709.781.121q.215-.325.4-.667a8.125,8.125,0,0,0,.946-3.847.63.63,0,0,1,1.26,0,9.375,9.375,0,0,1-1.1,4.438,10,10,0,0,1-3.11,3.472,17.3,17.3,0,0,1-4.208,2.077c-5.75,2.024-11.586,2.269-17.6,4.562a21.294,21.294,0,0,0-5.018,2.44,5.044,5.044,0,0,0-1.482,2.089,4.546,4.546,0,0,0,.79,4.589,5.382,5.382,0,0,0,.721.706,7.151,7.151,0,0,0,2.029,1.133c.969.362,3.545-.164,4.58-.371,6.808-1.36,13.05-4.675,20.132-4.839a126.737,126.737,0,0,0,30.535-4.2c2.077-.509,4.012-1.033,5.912-1.417,1.556-.314,1.269-.485,1.422-1.484a89.036,89.036,0,0,0,.247-19.042c-.1-1.2.1-.994-1.05-1.225q-.7-.139-1.384-.285c-5.225-1.1-10.344-2.479-15.483-3.926-5.67-1.6-12.7-3.575-18.081-4.664-5.031-1.019-8.779-1.3-13.426,1.442a44.106,44.106,0,0,0-6.956,5.337,73.48,73.48,0,0,0-7.193,7.59c-4.584,5.612-4.518,8.313-5.442,15.137-.151,1.12-.323,2.391-.5,3.666-.1.735-.21.619.528.619Zm16.7-2.11a.377.377,0,0,1,.52-.546,4.211,4.211,0,0,1,1.177,2.764.377.377,0,0,1-.753-.044A3.519,3.519,0,0,0,1964.693,4249.781Zm-9.242,8.153a.377.377,0,0,1,.03-.753,8.113,8.113,0,0,0,3.157-.594c3.548-1.418,2.591-5.33.563-5.989a.377.377,0,0,1,.233-.717c2.7.877,3.687,5.726-.516,7.406A8.91,8.91,0,0,1,1955.451,4257.934Zm65.635-8.562a.377.377,0,0,1,.006-.753l5.747.045a.376.376,0,0,1-.006.752Zm-4.438-24.266c-.045-.363-.088-.677-.126-.934-.218-1.44-.314-.675-.484-.064-.051.181-.075.384-.124.606-.21.958-.158.957.512,1.08C2016.911,4225.884,2016.714,4225.638,2016.647,4225.107Zm-38.954,30.552c-.623.047-1.248.12-1.872.212-.832.123-.994.034-1.279.955-.622,2.007,1.012,5.531,2.126,7.935.248.535.473,1.02.649,1.438.478,1.139.1,1.572.965.65,1.552-1.662.794-3.767.052-5.826C1977.659,4259.15,1977,4257.31,1977.693,4255.659Zm-5.428.932c-1.145.288-2.272.617-3.375.962s-.984.261-.594,1.589a15.872,15.872,0,0,0,.863,2.128c.915,1.981,1.913,4.087.769,6.206a4.32,4.32,0,0,1-.422.638c-.48.605-.529.375-.032,1.151a4.826,4.826,0,0,0,1.887,1.814,3.9,3.9,0,0,0,4.651-1.571,2.925,2.925,0,0,0,.43-2,13.223,13.223,0,0,0-.916-2.221c-1.019-2.2-2.429-5.24-2.358-7.646C1973.209,4256.245,1973.865,4256.189,1972.265,4256.59Zm-6.946-12.429a11.088,11.088,0,0,1,3.127-3.7,11.6,11.6,0,0,0,1.985-1.871c.622-.783.467-.6-.343-1.114a18.807,18.807,0,0,1-1.591-1.111,9.458,9.458,0,0,1-1.682-1.674,17.706,17.706,0,0,1-3.539,3.076c-1.836,1.323-3.486,2.527-4.568,4.592a16.443,16.443,0,0,0-1.316,3.685c-.359,1.44-.48,1.278.827.808a40.765,40.765,0,0,1,5.637-1.6C1965.077,4244.992,1964.749,4245.234,1965.319,4244.161Zm6.176-4.885a12.4,12.4,0,0,1-2.267,2.167,9.652,9.652,0,0,0-2.389,2.461c-.74,1.17-.356.836.791.615a52.842,52.842,0,0,0,5.911-1.417c1-.317,1.112-.216.91-1.379a3.663,3.663,0,0,0-.805-1.737,5.509,5.509,0,0,0-.939-.878C1971.834,4238.451,1972.067,4238.534,1971.5,4239.276Z" transform="translate(-1913.883 -4216.122)"/>
</svg>
