<svg id="map" xmlns="http://www.w3.org/2000/svg" width="121.849" height="76.701" viewBox="0 0 121.849 76.701">
  <path id="Path_2010" data-name="Path 2010" d="M2098.731,10620.7h-51.679c-4.863,0-8.4-1.5-10.707-3.69a10.716,10.716,0,0,1-2.517-3.629,10.538,10.538,0,0,1-.828-4.074,9.827,9.827,0,0,1,2.64-6.78l16.8-17.687a.7.7,0,1,1,1.014.965l-16.8,17.687a8.419,8.419,0,0,0-2.25,5.815,9.123,9.123,0,0,0,.711,3.531,9.345,9.345,0,0,0,2.194,3.156c2.066,1.963,5.274,3.3,9.741,3.3h93.75c4.468,0,7.675-1.34,9.741-3.3a9.369,9.369,0,0,0,2.194-3.156,9.116,9.116,0,0,0,.711-3.531,8.43,8.43,0,0,0-2.25-5.815l-16.8-17.687a.7.7,0,1,1,1.013-.965l16.8,17.687a9.824,9.824,0,0,1,2.639,6.78,10.494,10.494,0,0,1-.827,4.074,10.716,10.716,0,0,1-2.518,3.629c-2.308,2.2-5.842,3.69-10.707,3.69h-42.066Zm20.671-21.4a.7.7,0,0,1,0,1.407h-11.1a.7.7,0,0,1,0-1.407Zm-40.684,0a.7.7,0,0,1,0,1.407h-11.1a.7.7,0,0,1,0-1.407Zm24.78,8.491a.7.7,0,0,1,.806-1.146,4.4,4.4,0,0,1,1.148,1.131,2.478,2.478,0,0,1,.446,1.394c0,1.492-1.464,2.776-3.828,3.646a28,28,0,0,1-16.745,0c-2.366-.87-3.828-2.154-3.828-3.646a2.808,2.808,0,0,1,1-2.044,7.815,7.815,0,0,1,2.47-1.464.7.7,0,1,1,.52,1.3,6.532,6.532,0,0,0-2.029,1.187,1.475,1.475,0,0,0-.557,1.024c0,.84,1.112,1.671,2.907,2.329a26.655,26.655,0,0,0,15.779,0c1.8-.661,2.908-1.489,2.908-2.329a1.115,1.115,0,0,0-.21-.618,3.021,3.021,0,0,0-.785-.759Zm3.868-27.188a.7.7,0,0,1,1.3.526c-1.08,2.669-2.332,5.386-3.719,8.041a76.891,76.891,0,0,1-4.271,7.215.7.7,0,1,1-1.162-.78,75.425,75.425,0,0,0,4.194-7.084c1.356-2.59,2.587-5.267,3.661-7.921Zm-19.551-27.352a.7.7,0,0,1-.613-1.261,15.376,15.376,0,1,1-6.582,6.136.7.7,0,1,1,1.212.7,13.962,13.962,0,1,0,12.094-6.983,13.84,13.84,0,0,0-6.112,1.405Zm-2.106,46.309a.7.7,0,0,1-1.18.758,115.65,115.65,0,0,1-9.516-18.669c-2.281-5.738-3.8-11.169-3.8-14.937a22.716,22.716,0,0,1,45.432,0c0,6.021-3.9,16.331-8.571,25.329-5,9.643-10.983,17.832-14.147,17.832a3.88,3.88,0,0,1-2.085-.777,13.9,13.9,0,0,1-2.3-2.056.7.7,0,0,1,1.024-.956,12.386,12.386,0,0,0,2.056,1.85,2.557,2.557,0,0,0,1.308.535c2.618,0,8.115-7.839,12.9-17.069,4.579-8.833,8.412-18.9,8.412-24.687a21.313,21.313,0,1,0-42.625,0c0,3.589,1.48,8.841,3.7,14.42a114.09,114.09,0,0,0,9.4,18.427Zm46.705-12.984a.624.624,0,0,1,.075.1l13.184,14.138a1.3,1.3,0,0,1,.321,1.244,1.178,1.178,0,0,1-.278.5,1.229,1.229,0,0,1-.761.377c-.183.023-.355.051-.52.082a6.488,6.488,0,0,0-4.316,2.479,6.75,6.75,0,0,0-.969,4.881c.024.181.053.358.085.535a1.8,1.8,0,0,1-1.894,2.139,1.652,1.652,0,0,1-1.1-.538l-.013-.016-14.145-16.393a.439.439,0,0,1-.045-.048,5.849,5.849,0,0,1-.788-7.066,8.428,8.428,0,0,1,1.846-2.267,8.867,8.867,0,0,1,2.491-1.538A5.773,5.773,0,0,1,2132.414,10586.581Zm-1.382.578a4.512,4.512,0,0,0-4.926-.669,7.457,7.457,0,0,0-2.093,1.292,7.063,7.063,0,0,0-1.541,1.89,4.5,4.5,0,0,0,.433,5.26l.056.056,14.306,16.583h0a.265.265,0,0,0,.18.088.407.407,0,0,0,.2-.043.37.37,0,0,0,.159-.141.422.422,0,0,0,.045-.308q-.055-.311-.1-.6a8.1,8.1,0,0,1,1.215-5.868,7.84,7.84,0,0,1,5.21-3.047c.1-.02.2-.035.294-.051l-13.37-14.336a.785.785,0,0,1-.079-.1Zm-75.664-.476a.636.636,0,0,1,.074-.1,5.774,5.774,0,0,1,6.829-1.391,8.828,8.828,0,0,1,2.491,1.538,8.423,8.423,0,0,1,1.846,2.267,5.85,5.85,0,0,1-.788,7.066l-.045.048-14.145,16.393-.013.016a1.667,1.667,0,0,1-1.1.538,1.789,1.789,0,0,1-1.894-2.139c.032-.174.061-.354.085-.535a6.753,6.753,0,0,0-.968-4.881,6.486,6.486,0,0,0-4.316-2.479c-.165-.029-.34-.059-.52-.082a1.229,1.229,0,0,1-.761-.377,1.178,1.178,0,0,1-.278-.5,1.331,1.331,0,0,1-.035-.51,1.287,1.287,0,0,1,.355-.734Zm9.582,8.245a4.507,4.507,0,0,0,.432-5.261,6.984,6.984,0,0,0-1.541-1.888,7.4,7.4,0,0,0-2.093-1.292,4.514,4.514,0,0,0-4.926.667.654.654,0,0,1-.08.1l-13.37,14.336c.1.016.2.032.295.05a7.846,7.846,0,0,1,5.21,3.049,8.1,8.1,0,0,1,1.215,5.868c-.026.193-.058.4-.1.6a.426.426,0,0,0,.045.308.387.387,0,0,0,.159.141.405.405,0,0,0,.2.042.262.262,0,0,0,.18-.089h0l14.307-16.582a.57.57,0,0,1,.056-.056Z" transform="translate(-2033 -10544)"/>
</svg>
