<svg id="phone" xmlns="http://www.w3.org/2000/svg" width="74.144" height="110.701" viewBox="0 0 74.144 110.701">
  <path id="Path_2007" data-name="Path 2007" d="M9680.191,1305.329H9660.3a8.358,8.358,0,0,0-1.441.088c-6.25.941-5.72,6.987,1.33,5.2.832-.21,1.983-.347,2.255-1.313a.343.343,0,0,1,.661.185,1.923,1.923,0,0,1-.415.8c.153,0,.311-.007.475-.007a39.761,39.761,0,0,1,4.7.243c.547,0,1.255-.063,1.553-.6a.343.343,0,0,1,.6.333,1.6,1.6,0,0,1-.435.506c.482.079.957.164,1.445.251.765.137,1.565.28,2.483.415a2.969,2.969,0,0,0,2-.115,1.911,1.911,0,0,0,.841-.984.572.572,0,0,1,1.068.407,3.078,3.078,0,0,1-.854,1.225,7.929,7.929,0,0,1,2.377,1.73,3.025,3.025,0,0,1,.27-.94.572.572,0,0,1,1.021.515,2.135,2.135,0,0,0-.178.966,1.929,1.929,0,0,0,.6,1.442,47.134,47.134,0,0,1,3.62,5.691c2.116,3.825,3.365,5.561,6.94,7.977,1.826,1.234,3.106,2.2,5.4,1.868a.573.573,0,0,1,.166,1.133,7.174,7.174,0,0,1-1.137.077q.366.308.73.646a11.822,11.822,0,0,1,1.889,2.188c.369-.212.8-.46,1.3-.738a106.664,106.664,0,0,0,14.458-10c.426-.359.8-.668,1.116-.927-4.022-5.115-6.35-12.541-8.535-19.507-3.127-9.971-5.413-18.135-16.185-21.913V1296.4a4.913,4.913,0,0,0,1.959-2.278.572.572,0,0,1,1.025.506,6.034,6.034,0,0,1-2.984,3.078v1.433c.907.166,2.672.338,3.438-.277a.572.572,0,0,1,.717.891,4.8,4.8,0,0,1-3.3.653,13.665,13.665,0,0,0,4.376,3.02.571.571,0,0,1-.362,1.084c-2.471-.832-5.091-3.481-7.694-6.112a37.76,37.76,0,0,0-5.437-4.884c-2.729-1.778-4-1.663-7.207-1.755-1.521-.043-3.036-.409-4.525-.47-3.543-.146-4.84,2.885-1.948,5.27a18.149,18.149,0,0,0,5.871,2.863c.435.134,1.052.451,1.471.144a.573.573,0,0,1,.854.712,12.873,12.873,0,0,1,1.727.916,6.143,6.143,0,0,1,2.794,3.426c2,7.169,6.782,17.05,14.791,18.805a.573.573,0,0,1-.244,1.119C9687.352,1322.713,9682.37,1312.849,9680.191,1305.329Zm15.79,30.318a4.1,4.1,0,0,1,.588-.723,12.948,12.948,0,0,0-.979-1.01,37.415,37.415,0,0,0-5-3.6c-3.661-2.469-5.088-4.317-7.261-8.289a39.119,39.119,0,0,0-4.415-6.726c-1.166-1.355-2.371-2.345-3.474-2.464-1.938-.209-3.323-.457-4.611-.686a37.257,37.257,0,0,0-7.663-.719,10.905,10.905,0,0,0-2.7.3c-7.1,1.795-9.442-4-4.52-6.585a3.812,3.812,0,0,1-2.641-3.617v-2.8c-6.2-.4-5.925-7.156,0-7.411v-1.464c-6.2-.4-5.925-7.157,0-7.412v-48.65a3.809,3.809,0,0,1,3.8-3.8h29.506a3.807,3.807,0,0,1,3.8,3.8v47.18c11.426,3.765,14,12.312,17.278,22.78,2.009,6.413,4.146,13.222,7.582,18.123a2.888,2.888,0,0,1,1.046-.288c.667-.014.745.291,1.035.689l5.435,7.5a.572.572,0,0,1-.926.672l-5.1-7.039a11.84,11.84,0,0,1-2.014,1.989,107.431,107.431,0,0,1-14.629,10.125,14.655,14.655,0,0,1-2.746,1.263l2.133,3a.572.572,0,0,1-.932.663l-2.369-3.336c-.36-.506-.617-.8-.22-1.47Zm-20.865-102.736a.229.229,0,0,1,0-.458h.468a.229.229,0,0,1,0,.458ZM9674,1300.519c-.329-.1-.671-.214-1.017-.335h-16.2a1.309,1.309,0,0,1-1.307-1.3V1235.4a1.309,1.309,0,0,1,1.307-1.3h30.164a1.307,1.307,0,0,1,1.3,1.3v62.041q.51.514,1.019,1.027v-64.675a2.661,2.661,0,0,0-2.652-2.652H9657.1a2.66,2.66,0,0,0-2.651,2.652v67.737a2.66,2.66,0,0,0,2.651,2.652h22.673c-1.046-1.956-3.771-3.048-5.78-3.664Zm4.932-4.907a.229.229,0,0,1-.36-.283,3.882,3.882,0,0,0,.443-.726.228.228,0,0,1,.412.2A4.219,4.219,0,0,1,9678.929,1295.613Zm-1.469-.056a.229.229,0,0,1-.32-.326,3.971,3.971,0,0,0,.928-1.534.228.228,0,0,1,.426.165A4.418,4.418,0,0,1,9677.46,1295.557Zm-8.482-.26a.343.343,0,0,1,.3-.615c.905.448,2.879.959,3.43-.152a4.361,4.361,0,0,1,1.063-1.744c.384-.377.85.128.5.471a3.9,3.9,0,0,0-.946,1.577C9672.556,1296.38,9670.247,1295.926,9668.978,1295.3Zm2.794,4.429a15.962,15.962,0,0,1-4.032-2.28c-3.757-3.1-1.9-7.484,2.719-7.294,1.487.061,3,.427,4.513.47,3.436.1,4.86.027,7.795,1.938a33.764,33.764,0,0,1,5.021,4.419V1235.4a.848.848,0,0,0-.845-.846h-30.164a.851.851,0,0,0-.85.846v63.479a.851.851,0,0,0,.85.846h14.994Zm-18.466-11.018v-5.12C9648.893,1283.811,9648.634,1288.367,9653.306,1288.708Zm0,8.876v-5.12C9648.893,1292.687,9648.634,1297.243,9653.306,1297.583Zm5.83-3.558a.228.228,0,0,1,.307-.339l3,2.715a.228.228,0,0,1-.3.339Zm-.209,1.735a.228.228,0,0,1,.3-.339l1.319,1.194a.228.228,0,0,1-.307.339Zm10.951-62.848a.229.229,0,0,1,0-.459h3.958a.229.229,0,0,1,0,.459Z" transform="translate(-9648.758 -1229.995)"/>
</svg>
