<svg xmlns="http://www.w3.org/2000/svg" width="26" height="30" viewBox="0 0 26 30">
  <g id="_1-1" data-name="1-1" transform="translate(-3 -1)">
    <path id="Path_119" data-name="Path 119" d="M9.5,15h-2A1.5,1.5,0,0,0,6,16.5v4A1.5,1.5,0,0,0,7.5,22h2A1.5,1.5,0,0,0,11,20.5V20a1.5,1.5,0,0,0-1.5-1.5H9a.5.5,0,0,0,0,1h.5a.5.5,0,0,1,.5.5v.5a.5.5,0,0,1-.5.5h-2a.5.5,0,0,1-.5-.5v-4a.5.5,0,0,1,.5-.5h2a.5.5,0,0,1,.5.5V17a.5.5,0,0,0,1,0v-.5A1.5,1.5,0,0,0,9.5,15Zm15,10h2A2.5,2.5,0,0,0,29,22.5V3.5A2.5,2.5,0,0,0,26.5,1H6.5A3.5,3.5,0,0,0,3,4.5v23A3.5,3.5,0,0,0,6.5,31h22a.5.5,0,0,0,0-1H6.5a2.5,2.5,0,0,1,0-5H8v2H6.5a.5.5,0,0,0,0,1H8v.5a.52.52,0,0,0,.24.43.51.51,0,0,0,.48,0l1.78-.89,1.78.89a.54.54,0,0,0,.22.05.48.48,0,0,0,.26-.07A.52.52,0,0,0,13,28.5V28H28.5a.5.5,0,0,0,0-1H13V25ZM12,27.69l-1.28-.64a.51.51,0,0,0-.44,0L9,27.69V25h3ZM12.5,24h-6A3.5,3.5,0,0,0,4,25.06V4.5A2.5,2.5,0,0,1,6.5,2h20A1.5,1.5,0,0,1,28,3.5v19A1.5,1.5,0,0,1,26.5,24Zm2-9h-1A1.5,1.5,0,0,0,12,16.5v4A1.5,1.5,0,0,0,13.5,22h1A2.5,2.5,0,0,0,17,19.5v-2A2.5,2.5,0,0,0,14.5,15ZM16,19.5A1.5,1.5,0,0,1,14.5,21h-1a.5.5,0,0,1-.5-.5v-4a.5.5,0,0,1,.5-.5h1A1.5,1.5,0,0,1,16,17.5ZM19.75,15H19.5A1.5,1.5,0,0,0,18,16.5v5a.5.5,0,0,0,1,0v-2h.75a2.25,2.25,0,0,0,0-4.5Zm0,3.5H19v-2a.5.5,0,0,1,.5-.5h.25a1.25,1.25,0,0,1,0,2.5Zm6.25,3a.5.5,0,0,0,1,0,3,3,0,0,0-1.12-2.32A2.22,2.22,0,0,0,27,17.25,2.25,2.25,0,0,0,24.75,15H24.5A1.5,1.5,0,0,0,23,16.5v5a.5.5,0,0,0,1,0v-2A2,2,0,0,1,26,21.5Zm-2-3v-2a.5.5,0,0,1,.5-.5h.25a1.25,1.25,0,1,1,0,2.5Zm-3-10v-3a.5.5,0,0,0-.5-.5h-9a.5.5,0,0,0-.5.5v3a.5.5,0,0,0,.5.5h9A.5.5,0,0,0,21,8.5ZM20,8H12V6h8Z" fill="#fff"/>
  </g>
</svg>
