<svg xmlns="http://www.w3.org/2000/svg" width="31.449" height="30.548" viewBox="0 0 31.449 30.548">
  <g id="_1-3" data-name="1-3" transform="translate(-0.82 -2.945)">
    <g id="Group_28" data-name="Group 28" transform="translate(0.82 2.945)">
      <path id="Path_140" data-name="Path 140" d="M35.993,105.025c1.538.109,2.92.877,4.442,1.062,3.913.3,5.921,0,5.985,2.185.045,1.511-7.914.574-7.458.667a11.062,11.062,0,0,0,1.836.541c8.885-.049,12.05-1.38,12.989.729.96,2.155-3.007,2.411-10.361,3.126-.429.042-2.375.8-3.855.545s-6.087-2.972-6.6-3.161a7.753,7.753,0,0,0-1.092-.273v-4.361a14.013,14.013,0,0,0,1.661-.624,4.874,4.874,0,0,1,1.518-.416A9.263,9.263,0,0,1,35.993,105.025Z" transform="translate(-25.296 -83.385)" fill="#fff"/>
      <path id="Path_141" data-name="Path 141" d="M6.366,105.239a.507.507,0,0,1,.574.542v.6h0v4.154l-.01,0c0,.476-.189.662-.665.663H1.361c-.477,0-.54-.188-.541-.665V105.9c0-.477.105-.664.582-.665Z" transform="translate(-0.82 -83.555)" fill="#fff"/>
      <path id="Path_142" data-name="Path 142" d="M32.04,11.852c-1.538-.109-2.92-.877-4.442-1.062-3.913-.3-5.921,0-5.985-2.185-.045-1.511,7.914-.574,7.458-.667A11.063,11.063,0,0,0,27.236,7.4c-8.885.049-12.05,1.38-12.989-.729-.96-2.155,3.007-2.411,10.361-3.126.429-.042,2.375-.8,3.855-.545s6.087,2.972,6.6,3.161a7.756,7.756,0,0,0,1.092.273v4.361a14.012,14.012,0,0,0-1.661.624,4.873,4.873,0,0,1-1.518.416A9.263,9.263,0,0,1,32.04,11.852Z" transform="translate(-11.289 -2.945)" fill="#fff"/>
      <path id="Path_143" data-name="Path 143" d="M120.877,22.627a.507.507,0,0,1-.574-.542v-.6h0V17.335l.01,0c0-.476.189-.662.665-.663h4.906c.477,0,.54.188.541.665v4.624c0,.477-.105.664-.582.665Z" transform="translate(-94.974 -13.763)" fill="#fff"/>
      <path id="Path_144" data-name="Path 144" d="M51.6,48.982c-2.725-2.853-6.437-1.43-6.475,2.288s6.4,8.109,6.4,8.109,6.428-4.252,6.4-8.109S54.014,46.392,51.6,48.982Z" transform="translate(-35.734 -38.032)" fill="#fff"/>
    </g>
  </g>
</svg>
