<svg xmlns="http://www.w3.org/2000/svg" width="136.027" height="118.469"><path data-name="Path 2011" d="M70.466 33.414a.693.693 0 01-.016-1.386l7.715-.111c3.48-.037 4.768 1.17 5.506 4.485l9.017 40.5 41.661 11.513a2.5 2.5 0 01.346 4.568l-70.856 24.88c-2.737.961-3.995.829-6.431-.821L27.369 96.699a4.96 4.96 0 00-2.038-.866c-1.151-.23-1.542-.308-2.114-3.074l-2.77-13.4a.693.693 0 011.359-.277l2.77 13.4c.384 1.859.547 1.892 1.027 1.988a6.186 6.186 0 012.543 1.083l30.095 20.38c2.023 1.37 2.882 1.414 5.142.621L134.166 91.7a1.131 1.131 0 00-.175-1.944c-13.89-3.481-28.048-7.741-41.906-11.58L41.156 89.258a.7.7 0 01-.293-1.359L91.274 76.93l-8.956-40.232c-.593-2.662-1.337-3.427-4.139-3.4l-7.712.111zM18.398 65.653a.277.277 0 01-.054-.552l20.912-2.109a.277.277 0 01.054.552zm-.87-6.009a.277.277 0 01-.048-.552l37.265-3.321a.277.277 0 01.048.552zm-1.154-5.915a.278.278 0 01-.041-.554l37.28-2.865a.278.278 0 01.041.554zm19.26-7.4a.278.278 0 01-.03-.554l16.639-.969a.278.278 0 01.03.554zm-1.123-5.151a.277.277 0 01-.024-.554l16.477-.752a.278.278 0 01.024.554zm-.974-5.27a.277.277 0 01-.015-.554l16.694-.461a.277.277 0 01.015.554zm34.83 12.7l1.352-1.472a.417.417 0 01.613.564l-1.485 1.617a.415.415 0 01-.566.185l-2.234-1.171a.416.416 0 01.385-.737zm-6.113-28.427a.418.418 0 10-.814.187l.373 1.627a.418.418 0 00.814-.187zm5.16 26.222a.418.418 0 00.814-.187l-.373-1.627a.418.418 0 10-.814.187zm-.933-4.068a.417.417 0 00.814-.186l-.373-1.627a.418.418 0 00-.814.187zm-.933-4.068a.418.418 0 00.814-.187l-.373-1.627a.417.417 0 00-.813.187zm-.933-4.068a.418.418 0 00.814-.187l-.373-1.627a.418.418 0 00-.814.187zm-.933-4.068a.418.418 0 00.814-.187l-.373-1.627a.418.418 0 00-.814.187zm-.933-4.068a.418.418 0 00.814-.187l-.373-1.627a.418.418 0 00-.814.187zm-1.378-13.4c-1.052-.845-2.567-.819-3.8-1.8a3.159 3.159 0 01-1.106-1.771 1.866 1.866 0 011.688-2.567L57.8 5.087c-.077-.515.906-.515 1.029 0l.355 1.445a3.292 3.292 0 011.909.894 4 4 0 011.094 2c.148.42-1.2.287-1.276 0a2.7 2.7 0 00-.74-1.34 1.752 1.752 0 00-1.258-.516c-1 0-1.407.535-1.17 1.5a1.824 1.824 0 00.649 1.023c1.035.82 2.62.831 3.844 1.814 1.624 1.293 1.8 4.026-.812 4.308l.307 1.249c.1.42-.909.449-1.02 0l-.3-1.242a3.506 3.506 0 01-3.232-2.872c-.129-.533 1.138-.46 1.241-.033a2.184 2.184 0 002.2 1.856c1.738.005 1.906-1.576.749-2.505zm-2.04 9.009a.417.417 0 01-.173.815 13.515 13.515 0 01-10.326-12.431c-.247-5.152 2.8-9.787 8.265-10.049 6.15-.3 11.529 5.046 12.764 10.823.916 4.286-.427 9.036-4.574 11.08a.416.416 0 01-.368-.747c3.8-1.873 4.962-6.253 4.127-10.161C67.897 5.627 62.873.563 57.136.838c-5 .24-7.7 4.492-7.473 9.179a12.683 12.683 0 009.666 11.66zm-32.61 13.919a.278.278 0 01.383.4l-5.6 5.34 8.031 4.842a.278.278 0 01-.287.476l-8.161-4.92-6 5.728a.278.278 0 01-.383-.4l5.893-5.623-8.324-5.019a.278.278 0 01.287-.476l8.454 5.1zM63.079 69.18l-49.474 6.7c-4.3.451-4.42-.139-4.934-2.7Q4.425 52.063.128 30.955c-.482-2.379.412-3.286 2.724-3.368l52.271.279c3.288-.036 3.155.845 3.776 3.7l7.38 32.827c.4 2.339.713 4.209-3.2 4.8zm-49.622 5.317l49.393-6.686c2.839-.464 2.179-2.2 2.076-3.123l-7.38-32.827c-.4-1.794-.205-2.638-2.415-2.614l-52.233-.279c-1.453-.005-1.709.237-1.39 1.814l8.523 42.122c.309 1.558.381 1.916 3.425 1.598zM31.444 94.13a.417.417 0 01.46-.695l8.834 5.861a.417.417 0 01-.46.695zm51.444 8.841a.417.417 0 01-.44.708l-4.3-2.68c-1.65-1.027-.943-2.369.9-2.852l11.661-3.542a4.092 4.092 0 013.872.167l4.647 1.931c1.911.794 1.851 2.487.048 3.115l-8.014 2.79a.416.416 0 01-.274-.786l8.014-2.789c1.239-.431.884-1.153-.094-1.559l-4.647-1.93a3.485 3.485 0 00-3.311-.141l-11.661 3.542c-.7.212-1.687.735-.7 1.348zm21.439-16.983a.416.416 0 01.232.8L51.77 102.182a.416.416 0 01-.232-.8zM71.021 37.895a.277.277 0 01-.007-.554l3.94-.057c.938.009 2.627-.112 3.342.472.747.61 1.031 2.466 1.277 3.567l7.059 31.669a.277.277 0 01-.541.12l-7.064-31.694c-.212-.95-.515-2.771-1.08-3.232-.533-.435-2.24-.342-2.994-.348z"/></svg>