<svg xmlns="http://www.w3.org/2000/svg" width="39.093" height="39.065" viewBox="0 0 39.093 39.065">
  <g id="_1-3" data-name="1-3" transform="translate(0.056)">
    <path id="Path_79" data-name="Path 79" d="M17.172,105.966a.61.61,0,1,0,.432-.178A.61.61,0,0,0,17.172,105.966Z" transform="translate(-11.846 -73.502)" fill="#fff"/>
    <path id="Path_80" data-name="Path 80" d="M21.426,101.778a.61.61,0,1,0,.842.019.61.61,0,0,0-.842-.019Z" transform="translate(-14.802 -70.606)" fill="#fff"/>
    <path id="Path_81" data-name="Path 81" d="M25.664,97.5a.61.61,0,1,0,.432-.179A.61.61,0,0,0,25.664,97.5Z" transform="translate(-17.746 -67.621)" fill="#fff"/>
    <path id="Path_82" data-name="Path 82" d="M34.149,89.033a.61.61,0,1,0,.738-.1.61.61,0,0,0-.738.1Z" transform="translate(-23.644 -61.733)" fill="#fff"/>
    <path id="Path_83" data-name="Path 83" d="M29.9,93.272a.61.61,0,1,0,.432-.179A.61.61,0,0,0,29.9,93.272Z" transform="translate(-20.692 -64.682)" fill="#fff"/>
    <path id="Path_84" data-name="Path 84" d="M3.968,61.88H.61a.61.61,0,1,0,0,1.221H3.968a.61.61,0,1,0,0-1.221Z" transform="translate(-0.039 -42.994)" fill="#fff"/>
    <path id="Path_85" data-name="Path 85" d="M.61,55.111H1.831a.61.61,0,0,0,0-1.221H.61a.61.61,0,0,0,0,1.221Z" transform="translate(-0.039 -37.443)" fill="#fff"/>
    <path id="Path_86" data-name="Path 86" d="M.61,71.081H1.831a.61.61,0,0,0,0-1.221H.61a.61.61,0,0,0,0,1.221Z" transform="translate(-0.039 -48.539)" fill="#fff"/>
    <path id="Path_87" data-name="Path 87" d="M116.968,61.88H113.61a.61.61,0,1,0,0,1.221h3.357a.61.61,0,1,0,0-1.221Z" transform="translate(-78.552 -42.994)" fill="#fff"/>
    <path id="Path_88" data-name="Path 88" d="M121.831,53.89H120.61a.61.61,0,0,0,0,1.221h1.221a.61.61,0,0,0,0-1.221Z" transform="translate(-83.415 -37.443)" fill="#fff"/>
    <path id="Path_89" data-name="Path 89" d="M121.831,69.86H120.61a.61.61,0,0,0,0,1.221h1.221a.61.61,0,0,0,0-1.221Z" transform="translate(-83.415 -48.539)" fill="#fff"/>
    <path id="Path_90" data-name="Path 90" d="M58.325,86.83a.61.61,0,0,0-.61.61v.61H52.221v-.61a.61.61,0,0,0-1.221,0v.821a1.053,1.053,0,0,0,1.09,1.007h5.753a1.053,1.053,0,0,0,1.093-1.01V87.44A.61.61,0,0,0,58.325,86.83Z" transform="translate(-35.474 -60.33)" fill="#fff"/>
    <path id="Path_91" data-name="Path 91" d="M59.883,98.81H55.61a.61.61,0,0,0,0,1.221h4.273a.61.61,0,0,0,0-1.221Z" transform="translate(-38.253 -68.654)" fill="#fff"/>
    <path id="Path_92" data-name="Path 92" d="M60.662,106.79H57.61a.61.61,0,1,0,0,1.221h3.052a.61.61,0,0,0,0-1.221Z" transform="translate(-39.643 -74.198)" fill="#fff"/>
    <path id="Path_93" data-name="Path 93" d="M2.632,5.616a1.135,1.135,0,0,1-.882-.031A.983.983,0,0,1,1.2,5.033a.61.61,0,0,0-1.154.4,2.2,2.2,0,0,0,1.2,1.27,2.441,2.441,0,0,0,.29.1v.522a.61.61,0,0,0,1.221,0V6.846a2.136,2.136,0,0,0,.345-.11,1.785,1.785,0,0,0,.751-.589.577.577,0,0,0,.049-.079,1.471,1.471,0,0,0,.177-1.26A2.141,2.141,0,0,0,2.375,3.519c-.406-.116-.757-.214-.891-.436a.446.446,0,0,1,0-.47.976.976,0,0,1,.961-.238.916.916,0,0,1,.659.571A.611.611,0,0,0,4.28,2.612,2.118,2.118,0,0,0,2.763,1.221V.61a.61.61,0,1,0-1.221,0v.61A1.776,1.776,0,0,0,.45,1.947a1.66,1.66,0,0,0,0,1.773,2.482,2.482,0,0,0,1.6.974c.543.153.806.25.882.488S2.763,5.561,2.632,5.616Z" transform="translate(-0.055)" fill="#fff"/>
    <path id="Path_94" data-name="Path 94" d="M116.632,5.616a1.135,1.135,0,0,1-.882-.031.983.983,0,0,1-.546-.552.61.61,0,0,0-1.154.4,2.036,2.036,0,0,0,.305.574.61.61,0,0,0,.137.217.632.632,0,0,0,.192.128,2.353,2.353,0,0,0,.562.351,2.442,2.442,0,0,0,.29.1v.522a.61.61,0,0,0,1.221,0V6.846a2.136,2.136,0,0,0,.345-.11,1.578,1.578,0,0,0,.98-1.929,2.141,2.141,0,0,0-1.709-1.288c-.406-.116-.757-.214-.891-.436a.446.446,0,0,1,0-.47.976.976,0,0,1,.961-.238.916.916,0,0,1,.659.571.611.611,0,1,0,1.175-.333,2.118,2.118,0,0,0-1.514-1.392V.61a.61.61,0,0,0-1.221,0v.61a1.776,1.776,0,0,0-1.093.736,1.66,1.66,0,0,0,0,1.773,2.482,2.482,0,0,0,1.6.974c.543.153.806.25.882.488S116.763,5.561,116.632,5.616Z" transform="translate(-79.263)" fill="#fff"/>
    <path id="Path_95" data-name="Path 95" d="M18.142,26.682a.593.593,0,1,0-.43-.183A.61.61,0,0,0,18.142,26.682Z" transform="translate(-12.236 -17.703)" fill="#fff"/>
    <path id="Path_96" data-name="Path 96" d="M26.609,35.121a.61.61,0,1,0-.433-.18A.61.61,0,0,0,26.609,35.121Z" transform="translate(-18.103 -23.554)" fill="#fff"/>
    <path id="Path_97" data-name="Path 97" d="M22.339,30.881a.61.61,0,1,0-.433-.18A.61.61,0,0,0,22.339,30.881Z" transform="translate(-15.136 -20.608)" fill="#fff"/>
    <path id="Path_98" data-name="Path 98" d="M14.286,21.383a.612.612,0,1,0,.127.666.611.611,0,0,0-.127-.666Z" transform="translate(-9.241 -14.733)" fill="#fff"/>
    <path id="Path_99" data-name="Path 99" d="M107.172,26.7a.587.587,0,1,0-.43-.177A.61.61,0,0,0,107.172,26.7Z" transform="translate(-74.094 -17.717)" fill="#fff"/>
    <path id="Path_100" data-name="Path 100" d="M102.886,30.881a.61.61,0,1,0-.43-.18A.61.61,0,0,0,102.886,30.881Z" transform="translate(-71.102 -20.608)" fill="#fff"/>
    <path id="Path_101" data-name="Path 101" d="M98.609,35.121a.61.61,0,1,0-.433-.18A.61.61,0,0,0,98.609,35.121Z" transform="translate(-68.129 -23.554)" fill="#fff"/>
    <path id="Path_102" data-name="Path 102" d="M111.788,21.373a.61.61,0,1,0,.128.661A.61.61,0,0,0,111.788,21.373Z" transform="translate(-76.983 -14.723)" fill="#fff"/>
    <path id="Path_103" data-name="Path 103" d="M115.625,104.319a1.129,1.129,0,0,1,.882.031.983.983,0,0,1,.546.552.61.61,0,0,0,1.154-.4,2.2,2.2,0,0,0-1.2-1.27,2.49,2.49,0,0,0-.29-.1v-.522a.61.61,0,1,0-1.221,0v.464a2.172,2.172,0,0,0-.345.11,1.578,1.578,0,0,0-.977,1.929,2.141,2.141,0,0,0,1.709,1.288c.406.116.757.214.891.436a.446.446,0,0,1,0,.47.976.976,0,0,1-.961.238.916.916,0,0,1-.659-.571.611.611,0,0,0-1.175.333,2.118,2.118,0,0,0,1.517,1.407v.61a.61.61,0,1,0,1.221,0v-.61a1.779,1.779,0,0,0,1.093-.739,1.66,1.66,0,0,0,0-1.773,2.482,2.482,0,0,0-1.6-.974c-.543-.153-.806-.25-.882-.488S115.494,104.374,115.625,104.319Z" transform="translate(-79.215 -70.87)" fill="#fff"/>
    <path id="Path_104" data-name="Path 104" d="M1.618,104.319a1.129,1.129,0,0,1,.882.031.983.983,0,0,1,.546.552.61.61,0,0,0,1.154-.4,2.2,2.2,0,0,0-1.2-1.27,2.5,2.5,0,0,0-.29-.1v-.522a.61.61,0,0,0-1.221,0v.464a2.172,2.172,0,0,0-.345.11,1.578,1.578,0,0,0-.98,1.929A2.141,2.141,0,0,0,1.871,106.4c.406.116.757.214.891.436a.446.446,0,0,1,0,.47.976.976,0,0,1-.961.238.916.916,0,0,1-.659-.571.611.611,0,1,0-1.175.333,2.118,2.118,0,0,0,1.52,1.407v.61a.61.61,0,0,0,1.221,0v-.61a1.779,1.779,0,0,0,1.093-.739,1.66,1.66,0,0,0,0-1.773,2.482,2.482,0,0,0-1.6-.974c-.543-.153-.806-.25-.882-.488S1.487,104.374,1.618,104.319Z" transform="translate(0 -70.87)" fill="#fff"/>
    <path id="Path_105" data-name="Path 105" d="M95.463,93.222a.61.61,0,1,0,.6-.183A.61.61,0,0,0,95.463,93.222Z" transform="translate(-66.246 -64.631)" fill="#fff"/>
    <path id="Path_106" data-name="Path 106" d="M99.694,97.5a.61.61,0,1,0,.432-.179A.61.61,0,0,0,99.694,97.5Z" transform="translate(-69.182 -67.621)" fill="#fff"/>
    <path id="Path_107" data-name="Path 107" d="M103.934,101.732a.61.61,0,1,0,.432-.179A.61.61,0,0,0,103.934,101.732Z" transform="translate(-72.128 -70.56)" fill="#fff"/>
    <path id="Path_108" data-name="Path 108" d="M91.206,89.022a.61.61,0,1,0,.432-.179A.61.61,0,0,0,91.206,89.022Z" transform="translate(-63.286 -61.729)" fill="#fff"/>
    <path id="Path_109" data-name="Path 109" d="M108.186,105.97a.61.61,0,1,0,.666-.134A.61.61,0,0,0,108.186,105.97Z" transform="translate(-75.084 -73.503)" fill="#fff"/>
    <path id="Path_110" data-name="Path 110" d="M47.5,26.1H46.418a9.034,9.034,0,0,0-.858-2.06l.763-.76a1.618,1.618,0,0,0,.47-1.157,1.9,1.9,0,0,0-.568-1.328l-.864-.861a1.776,1.776,0,0,0-2.493-.095l-.763.76a9.1,9.1,0,0,0-2.069-.861V18.676A1.767,1.767,0,0,0,38.205,17H36.984a1.767,1.767,0,0,0-1.831,1.691v1.056a9.089,9.089,0,0,0-2.072.855l-.763-.76a1.776,1.776,0,0,0-2.493.1l-.861.858a1.9,1.9,0,0,0-.568,1.331,1.618,1.618,0,0,0,.47,1.157l.763.76a9.028,9.028,0,0,0-.858,2.06H27.694A1.767,1.767,0,0,0,26,27.932v1.221a1.767,1.767,0,0,0,1.7,1.831h1.077a9.025,9.025,0,0,0,.858,2.06l-.763.739a1.615,1.615,0,0,0-.47,1.157,1.9,1.9,0,0,0,.568,1.331l.864.87a1.779,1.779,0,0,0,2.493.095l.671-.668.366.36h8.494l.351-.345.671.671a1.627,1.627,0,0,0,1.157.464,1.9,1.9,0,0,0,1.334-.577l.864-.858a1.9,1.9,0,0,0,.562-1.221,1.618,1.618,0,0,0-.467-1.279l-.763-.76a9.04,9.04,0,0,0,.858-2.06H47.5a1.767,1.767,0,0,0,1.7-1.831V27.911A1.767,1.767,0,0,0,47.5,26.1ZM32.406,29.477a.61.61,0,1,1,0-1.221h.943a.61.61,0,0,1,0,1.221Zm2.619,2.817-.668.665a.61.61,0,0,1-.864-.861l.665-.665a.61.61,0,0,1,.864.861Zm0-5.991a.61.61,0,0,1-.864,0l-.668-.665a.61.61,0,1,1,.864-.861l.668.665a.61.61,0,0,1,0,.861Zm1.959-2.616a.61.61,0,1,1,1.221,0v.94a.61.61,0,1,1-1.221,0Zm1.221,10.355a.61.61,0,1,1-1.221,0V33.1a.61.61,0,0,1,1.221,0Zm1.108-4.532a1.831,1.831,0,1,1-.469-1.985,1.831,1.831,0,0,1,.469,1.985Zm.851-4.062.668-.665a.61.61,0,0,1,.864.861l-.668.665a.61.61,0,1,1-.864-.861Zm1.526,7.52a.61.61,0,0,1-.864,0l-.668-.665a.61.61,0,1,1,.864-.861l.668.665a.61.61,0,0,1,.006.851Zm1.093-3.491H41.84a.61.61,0,0,1,0-1.221h.943a.61.61,0,0,1,0,1.221Z" transform="translate(-18.101 -11.809)" fill="#fff"/>
    <path id="Path_111" data-name="Path 111" d="M62.614,53.89a.61.61,0,1,0,.555.354.61.61,0,0,0-.555-.354Z" transform="translate(-43.12 -37.443)" fill="#fff"/>
  </g>
</svg>
