<svg xmlns="http://www.w3.org/2000/svg" width="42.874" height="57.019" viewBox="0 0 42.874 57.019">
  <g id="_3-5" data-name="3-5" transform="translate(-48.595 -1975.498)">
    <g id="Group_24" data-name="Group 24" transform="translate(48.595 1975.498)">
      <path id="Path_120" data-name="Path 120" d="M7695.314,1995.348a13.47,13.47,0,1,1,26.941,0,14.6,14.6,0,0,1-1.756,6.69,39.5,39.5,0,0,0-3.9,13.942c-.367,3.124-.574,4.89-2.676,5.294v5.757a3.561,3.561,0,0,1-1.666,3.009,2.575,2.575,0,0,1-.71,1.727,2.385,2.385,0,0,1-1.727.751h-2.064a2.386,2.386,0,0,1-1.727-.751,2.577,2.577,0,0,1-.71-1.728,3.585,3.585,0,0,1-1.5-1.947,3.524,3.524,0,0,1-.163-1.062v-5.758c-2.094-.407-2.3-2.173-2.667-5.292a39.513,39.513,0,0,0-3.967-14.07A13.615,13.615,0,0,1,7695.314,1995.348Zm12.989,1.929a2.62,2.62,0,0,1-1.366-.582,2.355,2.355,0,0,1-.8-1.522c-.2-1.748,2.172-1.505,2.212-.419.023.615.884.552.453-.145a3.792,3.792,0,0,0-.253-.353,8.914,8.914,0,0,0-1.006-1.041,4.068,4.068,0,0,1-1.265-1.926,2.857,2.857,0,0,1-.032-1.539,2.116,2.116,0,0,1,.852-1.205,2.537,2.537,0,0,1,1.16-.409v-.741a.613.613,0,1,1,1.222-.009v.763a2.323,2.323,0,0,1,.468.119,2.111,2.111,0,0,1,1.4,1.984,1.083,1.083,0,0,1-2.092.3c-.167-.554-.749-.378-.408.326a4.076,4.076,0,0,0,1.039,1.163,3.4,3.4,0,0,1,1.565,2.9,2.539,2.539,0,0,1-.671,1.616,2.4,2.4,0,0,1-1.27.7v.832c0,.7-1.22.722-1.211,0Zm2.013-1.166a1.893,1.893,0,0,0,.5-1.206,2.887,2.887,0,0,0-1.347-2.385,4.531,4.531,0,0,1-1.193-1.368c-.755-1.562,1.181-2.213,1.61-.794.133.439.836.216.826-.088a1.468,1.468,0,0,0-.988-1.4,2.929,2.929,0,0,0-1.374-.129,1.682,1.682,0,0,0-1.477,1.178,2.208,2.208,0,0,0,.032,1.19,3.415,3.415,0,0,0,1.067,1.615,9.638,9.638,0,0,1,1.087,1.127,2.564,2.564,0,0,1,.528.947.916.916,0,0,1-1.281.947,1,1,0,0,1-.6-.971c-.007-.194-1.022-.539-.924.323a1.706,1.706,0,0,0,.578,1.1A2.364,2.364,0,0,0,7710.316,1996.111Zm-2-20.293a.324.324,0,0,1,.648,0v3.432a.324.324,0,0,1-.648,0Zm10.655,2.1a.324.324,0,0,1,.537.362l-2.01,2.972a.324.324,0,0,1-.537-.362Zm7.968,6.395a.323.323,0,0,1,.286.58l-3.48,1.716a.323.323,0,0,1-.286-.58Zm3.126,8.946a.324.324,0,0,1,0,.648h-4.019a.324.324,0,0,1,0-.648Zm-2.532,9.085a.323.323,0,0,1-.286.58l-3.481-1.716a.323.323,0,0,1,.286-.58Zm-36.576,1.036a.323.323,0,0,1-.286-.58l3.48-1.716a.323.323,0,0,1,.286.58Zm-3.126-8.946a.324.324,0,0,1,0-.648h4.019a.324.324,0,0,1,0,.648Zm2.532-9.085a.323.323,0,0,1,.286-.58l3.481,1.716a.323.323,0,0,1-.286.58Zm7.491-6.805a.324.324,0,0,1,.537-.362l2.01,2.972a.324.324,0,0,1-.537.362Zm6.511,49.123c1.946.7,6.594.647,8.682.467a2.878,2.878,0,0,0,.22-1.105c0-.061.006-.1-.078-.093-2.242.2-6.767.256-8.9-.46A5.234,5.234,0,0,0,7704.37,2027.669Zm8.475.872a29.154,29.154,0,0,1-8.334-.423,2.92,2.92,0,0,0,2.7,1.821h3.157a2.884,2.884,0,0,0,1.512-.427A2.948,2.948,0,0,0,7712.845,2028.541Zm-8.546-2.474c1.865.739,6.823.669,8.86.484.12-.011.113-.015.113-.074v-1.007c0-.1.014-.116-.172-.1-2.271.2-6.7.238-8.8-.468Zm0-1.575c1.865.739,6.823.669,8.86.484.126-.011.113-.032.113-.139v-.924c-.006-.124.011-.132-.215-.113-2.284.193-6.673.229-8.758-.472Zm0-1.575c1.842.729,6.7.671,8.782.491.237-.02.194-.057.191-.219v-1.822a41.043,41.043,0,0,1-8.973-.006Zm7.269,7.458a3.53,3.53,0,0,1-1.2.211h-3.157a3.523,3.523,0,0,1-1.2-.211,1.92,1.92,0,0,0,.491.945,1.74,1.74,0,0,0,1.259.548h2.064a1.738,1.738,0,0,0,1.258-.548A1.921,1.921,0,0,0,7711.567,2030.376Zm3.9-11.482a59.339,59.339,0,0,1-13.346.033,2.1,2.1,0,0,0,1.8,1.735h0a37.318,37.318,0,0,0,9.988-.052A2.138,2.138,0,0,0,7715.467,2018.893Zm-13.453-.372c3.033.421,10.636.587,13.561-.045.158-.7.259-1.553.378-2.571a40.106,40.106,0,0,1,3.938-14.1c-5.26-1.232-16.955-1.254-22.2,0a40.1,40.1,0,0,1,3.939,14.1,25.6,25.6,0,0,0,.388,2.615Zm6.771-34.464a.194.194,0,0,1,0-.389,11.679,11.679,0,0,1,11.679,11.678.2.2,0,0,1-.389,0A11.289,11.289,0,0,0,7708.785,1984.058Zm11.4,17.156a13.421,13.421,0,0,0,1.424-5.866,12.822,12.822,0,1,0-24.227,5.868C7702.642,1999.893,7714.906,1999.918,7720.183,2001.214Z" transform="translate(-7687.516 -1975.498)" fill="#fff"/>
    </g>
  </g>
</svg>
