<svg xmlns="http://www.w3.org/2000/svg" width="37.397" height="37.397" viewBox="0 0 37.397 37.397">
  <g id="_4-1" data-name="4-1" transform="translate(-0.603 -1)">
    <g id="Group_26" data-name="Group 26" transform="translate(0.603 1)">
      <path id="Path_133" data-name="Path 133" d="M28.746,17.286A2.415,2.415,0,0,1,31.159,19.7a.6.6,0,0,0,1.206,0,2.413,2.413,0,1,1,4.825,0,.6.6,0,1,0,1.206,0A18.7,18.7,0,1,0,1,19.7a.6.6,0,0,0,1.206,0,2.413,2.413,0,1,1,4.825,0,.6.6,0,0,0,1.206,0,2.413,2.413,0,0,1,4.825,0,.6.6,0,0,0,1.206,0,2.413,2.413,0,0,1,4.825,0V20.9h-.6a.6.6,0,0,0-.6.6v1.206a3.623,3.623,0,0,0-3.619,3.619v2.413a3.623,3.623,0,0,0,3.619,3.619H19.1v2.413h-.6a.6.6,0,0,1-.6-.6.6.6,0,0,0-.6-.6H14.873a.6.6,0,0,0-.6.6v.6A3.623,3.623,0,0,0,17.889,38.4h3.619a3.623,3.623,0,0,0,3.619-3.619V32.365a3.623,3.623,0,0,0-3.619-3.619H20.3V26.333h.6a.6.6,0,0,1,.6.6.6.6,0,0,0,.6.6h2.413a.6.6,0,0,0,.6-.6v-.6a3.623,3.623,0,0,0-3.619-3.619V21.508a.6.6,0,0,0-.6-.6h-.6V19.7a2.413,2.413,0,0,1,4.825,0,.6.6,0,0,0,1.206,0A2.415,2.415,0,0,1,28.746,17.286ZM20.3,32.365h.6a.6.6,0,0,1,.6.6v1.206a.6.6,0,0,1-.6.6h-.6ZM19.1,28.746h-.6a.6.6,0,0,1-.6-.6V26.937a.6.6,0,0,1,.6-.6h.6Zm4.825-2.413H22.611A1.813,1.813,0,0,0,20.9,25.127H18.492a1.812,1.812,0,0,0-1.81,1.81v1.206a1.812,1.812,0,0,0,1.81,1.81h3.016a2.415,2.415,0,0,1,2.413,2.413v2.413a2.415,2.415,0,0,1-2.413,2.413H17.889a2.415,2.415,0,0,1-2.413-2.413h1.309a1.813,1.813,0,0,0,1.706,1.206H20.9a1.812,1.812,0,0,0,1.81-1.81V32.968a1.812,1.812,0,0,0-1.81-1.81H17.889a2.415,2.415,0,0,1-2.413-2.413V26.333a2.415,2.415,0,0,1,2.413-2.413h3.619A2.415,2.415,0,0,1,23.921,26.333ZM19.1,22.714v-.6H20.3v.6Zm9.651-6.635a3.6,3.6,0,0,0-2.413.927V16.13A20.953,20.953,0,0,0,22.179,3.548a17.358,17.358,0,0,1,8.868,13.367A3.593,3.593,0,0,0,28.746,16.079Zm8.206.727a3.605,3.605,0,0,0-4.675.283A18.558,18.558,0,0,0,22.721,2.471,17.536,17.536,0,0,1,36.952,16.807ZM4.619,16.079a3.6,3.6,0,0,0-2.174.727A17.536,17.536,0,0,1,16.676,2.471,18.559,18.559,0,0,0,7.12,17.09,3.6,3.6,0,0,0,4.619,16.079Zm6.032,0a3.6,3.6,0,0,0-2.3.835A17.358,17.358,0,0,1,17.218,3.548a20.955,20.955,0,0,0-4.155,12.582v.876A3.6,3.6,0,0,0,10.651,16.079Zm6.032,0a3.6,3.6,0,0,0-2.413.927V16.13A19.752,19.752,0,0,1,19.1,3.144V17.006A3.6,3.6,0,0,0,16.683,16.079Zm6.032,0a3.6,3.6,0,0,0-2.413.927V3.144A19.752,19.752,0,0,1,25.127,16.13v.876A3.6,3.6,0,0,0,22.714,16.079Z" transform="translate(-1 -1)" fill="#fff"/>
      <path id="Path_134" data-name="Path 134" d="M52.413,46H51.206v1.317a1.805,1.805,0,0,0,.6,3.508.6.6,0,1,1,0,1.206H50v1.206h1.206v1.206h1.206V53.127a1.805,1.805,0,0,0-.6-3.508.6.6,0,0,1,0-1.206h1.81V47.206H52.413Z" transform="translate(-20.444 -18.857)" fill="#fff"/>
      <path id="Path_135" data-name="Path 135" d="M49.032,43a6.032,6.032,0,1,0,6.032,6.032A6.039,6.039,0,0,0,49.032,43Zm0,10.857a4.825,4.825,0,1,1,4.825-4.825A4.831,4.831,0,0,1,49.032,53.857Z" transform="translate(-17.667 -17.667)" fill="#fff"/>
      <rect id="Rectangle_5" data-name="Rectangle 5" width="1.206" height="1.206" transform="translate(27.746 30.762)" fill="#fff"/>
      <rect id="Rectangle_6" data-name="Rectangle 6" width="1.206" height="1.206" transform="translate(33.778 30.762)" fill="#fff"/>
      <path id="Path_136" data-name="Path 136" d="M10.413,46H9.206v1.317a1.805,1.805,0,0,0,.6,3.508.6.6,0,1,1,0,1.206H8v1.206H9.206v1.206h1.206V53.127a1.805,1.805,0,0,0-.6-3.508.6.6,0,1,1,0-1.206h1.81V47.206H10.413Z" transform="translate(-3.778 -18.857)" fill="#fff"/>
      <path id="Path_137" data-name="Path 137" d="M7.032,43a6.032,6.032,0,1,0,6.032,6.032A6.039,6.039,0,0,0,7.032,43Zm0,10.857a4.825,4.825,0,1,1,4.825-4.825A4.831,4.831,0,0,1,7.032,53.857Z" transform="translate(-1 -17.667)" fill="#fff"/>
      <rect id="Rectangle_7" data-name="Rectangle 7" width="1.206" height="1.206" transform="translate(2.413 30.762)" fill="#fff"/>
      <rect id="Rectangle_8" data-name="Rectangle 8" width="1.206" height="1.206" transform="translate(8.444 30.762)" fill="#fff"/>
    </g>
  </g>
</svg>
