<svg xmlns="http://www.w3.org/2000/svg" width="45.196" height="45.196" viewBox="0 0 45.196 45.196">
  <g id="_4-4" data-name="4-4" transform="translate(-2.106 -2.106)">
    <path id="Path_1" data-name="Path 1" d="M21.08,7.42a1.213,1.213,0,0,1,.094-1.26l2.543-3.548a1.213,1.213,0,0,1,1.972,0l2.543,3.548a1.213,1.213,0,0,1-.986,1.92h-.656v3.525a.448.448,0,0,1-.448.448H26.1a12.711,12.711,0,0,0-2.765,0,.448.448,0,0,1-.472-.444V8.086H22.2A1.208,1.208,0,0,1,21.08,7.42Zm11.432,7.03a.443.443,0,0,0,.165.326,12.838,12.838,0,0,1,1.935,1.953.472.472,0,0,0,.326.165h.024a.472.472,0,0,0,.316-.132l2.491-2.491.472.472a1.213,1.213,0,0,0,2.052-.661l.712-4.308A1.213,1.213,0,0,0,39.59,8.359L35.32,9.1a1.213,1.213,0,0,0-.661,2.052l.472.472L32.64,14.111A.444.444,0,0,0,32.512,14.451Zm-23.077.293a1.213,1.213,0,0,0,1.713,0l.472-.472,2.491,2.491a.444.444,0,0,0,.316.132h.024a.472.472,0,0,0,.344-.165A12.829,12.829,0,0,1,16.73,14.8a.448.448,0,0,0,.038-.665l-2.491-2.491.472-.472a1.213,1.213,0,0,0-.661-2.052L9.78,8.4A1.213,1.213,0,0,0,8.364,9.817l.712,4.308h0a1.208,1.208,0,0,0,.359.618Zm1.713,19.916A1.213,1.213,0,0,0,9.1,35.32l-.712,4.308A1.213,1.213,0,0,0,9.8,41.043l4.308-.712a1.213,1.213,0,0,0,.661-2.052l-.472-.472,2.491-2.491a.448.448,0,0,0-.057-.7A12.853,12.853,0,0,1,14.8,32.678a.448.448,0,0,0-.665-.038l-2.491,2.491ZM41.987,21.08a1.208,1.208,0,0,0-.656,1.076v.661H37.806a.448.448,0,0,0-.444.472,12.64,12.64,0,0,1,0,2.765.448.448,0,0,0,.444.472h3.525v.665a1.213,1.213,0,0,0,1.916.986l3.548-2.543a1.213,1.213,0,0,0,0-1.972l-3.548-2.487a1.227,1.227,0,0,0-1.26-.094ZM35.324,40.312l4.308.712a1.213,1.213,0,0,0,1.415-1.415l-.736-4.289a1.213,1.213,0,0,0-2.052-.661l-.472.472L35.3,32.64a.448.448,0,0,0-.684.038,12.838,12.838,0,0,1-1.934,1.934.448.448,0,0,0-.038.665l2.491,2.491-.472.472a1.213,1.213,0,0,0,.661,2.052Zm-8.078,1.019h-.656V37.806a.448.448,0,0,0-.472-.444,12.692,12.692,0,0,1-2.765,0,.448.448,0,0,0-.472.444v3.525H22.16a1.213,1.213,0,0,0-.986,1.916l2.543,3.548a1.213,1.213,0,0,0,1.972,0l2.543-3.548a1.213,1.213,0,0,0-.986-1.916ZM2.608,25.69l3.548,2.543a1.213,1.213,0,0,0,1.916-.986v-.656H11.6a.448.448,0,0,0,.444-.472,12.636,12.636,0,0,1,0-2.765.448.448,0,0,0-.444-.472H8.076V22.16a1.213,1.213,0,0,0-1.916-.986L2.613,23.717a1.213,1.213,0,0,0,0,1.972Zm12.537-3.775a16.939,16.939,0,0,1,19.114,0,1.916,1.916,0,0,1,.826,1.3A1.887,1.887,0,0,1,33.23,25.35a1.934,1.934,0,0,1-1.09-.335,13.131,13.131,0,0,0-2.411-1.288,5.369,5.369,0,0,1,.41,2.17A5.454,5.454,0,0,1,24.7,31.22a5.624,5.624,0,0,1-.7-.042,5.426,5.426,0,0,1-4.317-7.455,13.145,13.145,0,0,0-2.411,1.293,1.934,1.934,0,0,1-1.09.335,1.887,1.887,0,0,1-1.859-2.133,1.916,1.916,0,0,1,.826-1.316Zm7.29,3.874A2.269,2.269,0,1,0,24.7,23.519a2.269,2.269,0,0,0-2.269,2.269Z" fill="#fff"/>
  </g>
</svg>
